<?xml version="1.0" encoding="UTF-8" standalone="no"?>
<!-- Created with Inkscape (http://www.inkscape.org/) -->

<svg
   version="1.1"
   id="svg2"
   width="932"
   height="318.66666"
   viewBox="0 0 932 318.66666"
   sodipodi:docname="clamping.eps"
   xmlns:inkscape="http://www.inkscape.org/namespaces/inkscape"
   xmlns:sodipodi="http://sodipodi.sourceforge.net/DTD/sodipodi-0.dtd"
   xmlns="http://www.w3.org/2000/svg"
   xmlns:svg="http://www.w3.org/2000/svg">
  <defs
     id="defs6">
    <clipPath
       clipPathUnits="userSpaceOnUse"
       id="clipPath18">
      <path
         d="M 0,0 H 6984.87 V 2382.85 H 0 Z"
         id="path16" />
    </clipPath>
  </defs>
  <sodipodi:namedview
     id="namedview4"
     pagecolor="#ffffff"
     bordercolor="#000000"
     borderopacity="0.25"
     inkscape:showpageshadow="2"
     inkscape:pageopacity="0.0"
     inkscape:pagecheckerboard="0"
     inkscape:deskcolor="#d1d1d1" />
  <g
     id="g8"
     inkscape:groupmode="layer"
     inkscape:label="ink_ext_XXXXXX"
     transform="matrix(1.3333333,0,0,-1.3333333,0,318.66667)">
    <g
       id="g10"
       transform="scale(0.1)">
      <g
         id="g12">
        <g
           id="g14"
           clip-path="url(#clipPath18)">
          <path
             d="m 5458.88,860.762 h 1244.11 v 1067.9 H 5458.88 Z"
             style="fill:#cacaca;fill-opacity:1;fill-rule:nonzero;stroke:none"
             id="path20" />
          <path
             d="m 5458.88,860.766 h 1244.11 v 1067.9 H 5458.88 Z"
             style="fill:none;stroke:#000000;stroke-width:10;stroke-linecap:square;stroke-linejoin:miter;stroke-miterlimit:10;stroke-dasharray:40, 40;stroke-dashoffset:0;stroke-opacity:1"
             id="path22" />
          <path
             d="m 10,327.297 h 1915.66 v 1915.67 H 10 Z"
             style="fill:none;stroke:#000000;stroke-width:20;stroke-linecap:square;stroke-linejoin:miter;stroke-miterlimit:10;stroke-dasharray:none;stroke-opacity:1"
             id="path24" />
          <path
             d="m 864.379,1439.86 c 0.004,7.86 -1.559,15.72 -4.57,22.98 -3.004,7.27 -7.454,13.93 -13.016,19.48 -5.555,5.57 -12.219,10.02 -19.484,13.02 -7.258,3.01 -15.118,4.58 -22.977,4.57 -7.863,0.01 -15.723,-1.56 -22.98,-4.57 -7.266,-3 -13.926,-7.45 -19.485,-13.02 -5.562,-5.55 -10.012,-12.21 -13.015,-19.48 -3.012,-7.26 -4.575,-15.12 -4.571,-22.98 -0.004,-7.86 1.559,-15.72 4.571,-22.98 3.003,-7.26 7.453,-13.92 13.015,-19.48 5.559,-5.56 12.219,-10.01 19.485,-13.02 7.257,-3.01 15.117,-4.57 22.98,-4.57 7.859,0 15.719,1.56 22.977,4.57 7.265,3.01 13.929,7.46 19.484,13.02 5.562,5.56 10.012,12.22 13.016,19.48 3.011,7.26 4.574,15.12 4.57,22.98 z"
             style="fill:#ffca00;fill-opacity:1;fill-rule:nonzero;stroke:none"
             id="path26" />
          <path
             d="m 556.441,1444.89 c 0.008,7.86 -1.558,15.72 -4.57,22.98 -3.004,7.26 -7.453,13.92 -13.016,19.48 -5.554,5.56 -12.218,10.01 -19.484,13.02 -7.258,3.01 -15.117,4.57 -22.976,4.57 -7.864,0 -15.723,-1.56 -22.981,-4.57 -7.266,-3.01 -13.926,-7.46 -19.484,-13.02 -5.563,-5.56 -10.012,-12.22 -13.016,-19.48 -3.012,-7.26 -4.574,-15.12 -4.57,-22.98 -0.004,-7.86 1.558,-15.72 4.57,-22.98 3.004,-7.27 7.453,-13.93 13.016,-19.48 5.558,-5.57 12.218,-10.02 19.484,-13.02 7.258,-3.02 15.117,-4.58 22.981,-4.57 7.859,-0.01 15.718,1.55 22.976,4.57 7.266,3 13.93,7.45 19.484,13.02 5.563,5.55 10.012,12.21 13.016,19.48 3.012,7.26 4.578,15.12 4.57,22.98 z"
             style="fill:#ffca00;fill-opacity:1;fill-rule:nonzero;stroke:none"
             id="path28" />
          <path
             d="m 555.797,1756.94 c 0.004,7.86 -1.559,15.72 -4.574,22.98 -3.004,7.27 -7.453,13.93 -13.016,19.48 -5.555,5.56 -12.219,10.02 -19.48,13.02 -7.262,3.01 -15.122,4.58 -22.981,4.57 -7.863,0.01 -15.719,-1.56 -22.98,-4.57 -7.266,-3 -13.926,-7.46 -19.481,-13.02 -5.562,-5.55 -10.015,-12.21 -13.019,-19.48 -3.012,-7.26 -4.575,-15.12 -4.571,-22.98 -0.004,-7.86 1.559,-15.72 4.571,-22.98 3.004,-7.26 7.457,-13.92 13.019,-19.48 5.555,-5.56 12.215,-10.01 19.481,-13.02 7.261,-3.01 15.117,-4.57 22.98,-4.57 7.859,0 15.719,1.56 22.981,4.57 7.261,3.01 13.925,7.46 19.48,13.02 5.563,5.56 10.012,12.22 13.016,19.48 3.015,7.26 4.578,15.12 4.574,22.98 z"
             style="fill:#ffca00;fill-opacity:1;fill-rule:nonzero;stroke:none"
             id="path30" />
          <path
             d="m 1507.31,1758.8 c 0.01,7.86 -1.56,15.72 -4.57,22.98 -3,7.27 -7.45,13.93 -13.01,19.49 -5.56,5.56 -12.22,10.01 -19.49,13.01 -7.26,3.01 -15.11,4.58 -22.98,4.57 -7.86,0.01 -15.72,-1.56 -22.98,-4.57 -7.26,-3 -13.92,-7.45 -19.48,-13.01 -5.56,-5.56 -10.01,-12.22 -13.01,-19.49 -3.02,-7.26 -4.58,-15.12 -4.58,-22.98 0,-7.86 1.56,-15.72 4.58,-22.98 3,-7.26 7.45,-13.93 13.01,-19.48 5.56,-5.56 12.22,-10.01 19.48,-13.02 7.26,-3.01 15.12,-4.57 22.98,-4.57 7.87,0 15.72,1.56 22.98,4.57 7.27,3.01 13.93,7.46 19.49,13.02 5.56,5.55 10.01,12.22 13.01,19.48 3.01,7.26 4.58,15.12 4.57,22.98 z"
             style="fill:#ffca00;fill-opacity:1;fill-rule:nonzero;stroke:none"
             id="path32" />
          <path
             d="m 869.977,1756.36 c 0.003,7.86 -1.559,15.71 -4.571,22.98 -3.004,7.26 -7.457,13.92 -13.015,19.48 -5.559,5.56 -12.219,10.01 -19.485,13.02 -7.261,3.01 -15.117,4.57 -22.98,4.57 -7.86,0 -15.719,-1.56 -22.981,-4.57 -7.261,-3.01 -13.925,-7.46 -19.48,-13.02 -5.563,-5.56 -10.012,-12.22 -13.016,-19.48 -3.015,-7.27 -4.578,-15.12 -4.574,-22.98 -0.004,-7.86 1.559,-15.72 4.574,-22.98 3.004,-7.27 7.453,-13.93 13.016,-19.49 5.555,-5.56 12.219,-10.01 19.48,-13.01 7.262,-3.02 15.121,-4.58 22.981,-4.58 7.863,0 15.719,1.56 22.98,4.58 7.266,3 13.926,7.45 19.485,13.01 5.558,5.56 10.011,12.22 13.015,19.49 3.012,7.26 4.574,15.12 4.571,22.98 z"
             style="fill:#ce1c00;fill-opacity:1;fill-rule:nonzero;stroke:none"
             id="path34" />
          <path
             d="m 1193,1759.91 c 0.01,7.86 -1.55,15.72 -4.57,22.98 -3,7.26 -7.45,13.92 -13.02,19.48 -5.55,5.56 -12.21,10.01 -19.48,13.02 -7.26,3.01 -15.11,4.57 -22.98,4.57 -7.86,0 -15.72,-1.56 -22.98,-4.57 -7.26,-3.01 -13.92,-7.46 -19.48,-13.02 -5.56,-5.56 -10.01,-12.22 -13.02,-19.48 -3.01,-7.26 -4.57,-15.12 -4.57,-22.98 0,-7.86 1.56,-15.72 4.57,-22.98 3.01,-7.27 7.46,-13.93 13.02,-19.48 5.56,-5.57 12.22,-10.02 19.48,-13.02 7.26,-3.02 15.12,-4.58 22.98,-4.57 7.87,-0.01 15.72,1.55 22.98,4.57 7.27,3 13.93,7.45 19.48,13.02 5.57,5.55 10.02,12.21 13.02,19.48 3.02,7.26 4.58,15.12 4.57,22.98 z"
             style="fill:#ce1c00;fill-opacity:1;fill-rule:nonzero;stroke:none"
             id="path36" />
          <path
             d="m 1194.45,1447.13 c 0.01,7.85 -1.56,15.71 -4.57,22.98 -3,7.26 -7.45,13.92 -13.02,19.48 -5.55,5.56 -12.21,10.01 -19.48,13.01 -7.26,3.02 -15.11,4.58 -22.98,4.58 -7.86,0 -15.72,-1.56 -22.98,-4.58 -7.26,-3 -13.92,-7.45 -19.48,-13.01 -5.56,-5.56 -10.01,-12.22 -13.02,-19.48 -3.01,-7.27 -4.57,-15.13 -4.57,-22.98 0,-7.87 1.56,-15.72 4.57,-22.99 3.01,-7.26 7.46,-13.92 13.02,-19.48 5.56,-5.56 12.22,-10.01 19.48,-13.02 7.26,-3.01 15.12,-4.57 22.98,-4.57 7.87,0 15.72,1.56 22.98,4.57 7.27,3.01 13.93,7.46 19.48,13.02 5.57,5.56 10.02,12.22 13.02,19.48 3.01,7.27 4.58,15.12 4.57,22.99 z"
             style="fill:#ce1c00;fill-opacity:1;fill-rule:nonzero;stroke:none"
             id="path38" />
          <path
             d="m 1510.63,1444.54 c 0.01,7.86 -1.56,15.72 -4.57,22.98 -3,7.27 -7.45,13.93 -13.01,19.48 -5.56,5.56 -12.22,10.01 -19.49,13.02 -7.26,3.01 -15.11,4.57 -22.98,4.57 -7.86,0 -15.72,-1.56 -22.98,-4.57 -7.26,-3.01 -13.92,-7.46 -19.48,-13.02 -5.56,-5.55 -10.01,-12.21 -13.01,-19.48 -3.02,-7.26 -4.58,-15.12 -4.57,-22.98 -0.01,-7.86 1.55,-15.72 4.57,-22.98 3,-7.27 7.45,-13.93 13.01,-19.48 5.56,-5.56 12.22,-10.02 19.48,-13.02 7.26,-3.01 15.12,-4.58 22.98,-4.57 7.87,-0.01 15.72,1.56 22.98,4.57 7.27,3 13.93,7.46 19.49,13.02 5.56,5.55 10.01,12.21 13.01,19.48 3.01,7.26 4.58,15.12 4.57,22.98 z"
             style="fill:#ce1c00;fill-opacity:1;fill-rule:nonzero;stroke:none"
             id="path40" />
          <path
             d="m 864.379,1116.19 c 0.004,7.86 -1.559,15.72 -4.57,22.98 -3.004,7.27 -7.454,13.93 -13.016,19.49 -5.555,5.55 -12.219,10.01 -19.484,13.01 -7.258,3.01 -15.118,4.58 -22.977,4.57 -7.863,0.01 -15.723,-1.56 -22.98,-4.57 -7.266,-3 -13.926,-7.46 -19.485,-13.01 -5.562,-5.56 -10.012,-12.22 -13.015,-19.49 -3.012,-7.26 -4.575,-15.12 -4.571,-22.98 -0.004,-7.86 1.559,-15.72 4.571,-22.98 3.003,-7.26 7.453,-13.92 13.015,-19.48 5.559,-5.56 12.219,-10.01 19.485,-13.02 7.257,-3.01 15.117,-4.57 22.98,-4.57 7.859,0 15.719,1.56 22.977,4.57 7.265,3.01 13.929,7.46 19.484,13.02 5.562,5.56 10.012,12.22 13.016,19.48 3.011,7.26 4.574,15.12 4.57,22.98 z"
             style="fill:#ce1c00;fill-opacity:1;fill-rule:nonzero;stroke:none"
             id="path42" />
          <path
             d="m 556.125,1116.19 c 0.004,7.86 -1.559,15.72 -4.57,22.98 -3.004,7.27 -7.457,13.93 -13.02,19.49 -5.555,5.55 -12.215,10.01 -19.48,13.01 -7.262,3.01 -15.121,4.58 -22.981,4.57 -7.863,0.01 -15.719,-1.56 -22.98,-4.57 -7.266,-3 -13.926,-7.46 -19.481,-13.01 -5.562,-5.56 -10.015,-12.22 -13.019,-19.49 -3.012,-7.26 -4.574,-15.12 -4.571,-22.98 -0.003,-7.86 1.559,-15.72 4.571,-22.98 3.004,-7.26 7.457,-13.92 13.019,-19.48 5.555,-5.56 12.215,-10.01 19.481,-13.02 7.261,-3.01 15.117,-4.57 22.98,-4.57 7.86,0 15.719,1.56 22.981,4.57 7.265,3.01 13.925,7.46 19.48,13.02 5.563,5.56 10.016,12.22 13.02,19.48 3.011,7.26 4.574,15.12 4.57,22.98 z"
             style="fill:#ce1c00;fill-opacity:1;fill-rule:nonzero;stroke:none"
             id="path44" />
          <path
             d="m 554.113,806.484 c 0.004,7.86 -1.558,15.719 -4.57,22.981 -3.008,7.262 -7.457,13.926 -13.02,19.48 -5.554,5.563 -12.214,10.012 -19.48,13.016 -7.262,3.016 -15.121,4.578 -22.98,4.574 -7.864,0.004 -15.719,-1.558 -22.981,-4.574 -7.266,-3.004 -13.926,-7.453 -19.48,-13.016 -5.563,-5.554 -10.016,-12.218 -13.02,-19.48 -3.012,-7.262 -4.574,-15.121 -4.57,-22.981 -0.004,-7.863 1.558,-15.718 4.57,-22.98 3.004,-7.266 7.457,-13.926 13.02,-19.481 5.554,-5.562 12.214,-10.015 19.48,-13.019 7.262,-3.012 15.117,-4.574 22.981,-4.57 7.859,-0.004 15.718,1.558 22.98,4.57 7.266,3.004 13.926,7.457 19.48,13.019 5.563,5.555 10.012,12.215 13.02,19.481 3.012,7.262 4.574,15.117 4.57,22.98 z"
             style="fill:#a2d562;fill-opacity:1;fill-rule:nonzero;stroke:none"
             id="path46" />
          <path
             d="m 862.367,806.484 c 0.004,7.86 -1.558,15.719 -4.57,22.981 -3.004,7.262 -7.453,13.926 -13.016,19.48 -5.558,5.563 -12.218,10.012 -19.484,13.016 -7.258,3.016 -15.117,4.578 -22.981,4.574 -7.859,0.004 -15.718,-1.558 -22.98,-4.574 -7.262,-3.004 -13.926,-7.453 -19.481,-13.016 -5.562,-5.554 -10.011,-12.218 -13.015,-19.48 -3.012,-7.262 -4.578,-15.121 -4.57,-22.981 -0.008,-7.863 1.558,-15.718 4.57,-22.98 3.004,-7.266 7.453,-13.926 13.015,-19.481 5.555,-5.562 12.219,-10.015 19.481,-13.019 7.262,-3.012 15.121,-4.574 22.98,-4.57 7.864,-0.004 15.723,1.558 22.981,4.57 7.266,3.004 13.926,7.457 19.484,13.019 5.563,5.555 10.012,12.215 13.016,19.481 3.012,7.262 4.574,15.117 4.57,22.98 z"
             style="fill:#a2d562;fill-opacity:1;fill-rule:nonzero;stroke:none"
             id="path48" />
          <path
             d="m 1186.04,806.484 c 0,7.86 -1.56,15.719 -4.58,22.981 -3,7.262 -7.45,13.926 -13.01,19.48 -5.56,5.563 -12.22,10.012 -19.48,13.016 -7.26,3.016 -15.12,4.578 -22.98,4.574 -7.86,0.004 -15.72,-1.558 -22.98,-4.574 -7.27,-3.004 -13.93,-7.453 -19.49,-13.016 -5.56,-5.554 -10.01,-12.218 -13.01,-19.48 -3.01,-7.262 -4.58,-15.121 -4.57,-22.981 -0.01,-7.863 1.56,-15.718 4.57,-22.98 3,-7.266 7.45,-13.926 13.01,-19.481 5.56,-5.562 12.22,-10.015 19.49,-13.019 7.26,-3.012 15.12,-4.574 22.98,-4.57 7.86,-0.004 15.72,1.558 22.98,4.57 7.26,3.004 13.92,7.457 19.48,13.019 5.56,5.555 10.01,12.215 13.01,19.481 3.02,7.262 4.58,15.117 4.58,22.98 z"
             style="fill:#a2d562;fill-opacity:1;fill-rule:nonzero;stroke:none"
             id="path50" />
          <path
             d="m 1509.71,806.484 c 0,7.86 -1.56,15.719 -4.57,22.981 -3.01,7.262 -7.46,13.926 -13.02,19.48 -5.56,5.563 -12.22,10.012 -19.48,13.016 -7.26,3.016 -15.12,4.578 -22.98,4.574 -7.87,0.004 -15.72,-1.558 -22.98,-4.574 -7.27,-3.004 -13.93,-7.453 -19.48,-13.016 -5.57,-5.554 -10.02,-12.218 -13.02,-19.48 -3.02,-7.262 -4.58,-15.121 -4.57,-22.981 -0.01,-7.863 1.55,-15.718 4.57,-22.98 3,-7.266 7.45,-13.926 13.02,-19.481 5.55,-5.562 12.21,-10.015 19.48,-13.019 7.26,-3.012 15.11,-4.574 22.98,-4.57 7.86,-0.004 15.72,1.558 22.98,4.57 7.26,3.004 13.92,7.457 19.48,13.019 5.56,5.555 10.01,12.215 13.02,19.481 3.01,7.262 4.57,15.117 4.57,22.98 z"
             style="fill:#a2d562;fill-opacity:1;fill-rule:nonzero;stroke:none"
             id="path52" />
          <path
             d="m 1509.71,1114.74 c 0,7.86 -1.56,15.72 -4.57,22.98 -3.01,7.26 -7.46,13.92 -13.02,19.48 -5.56,5.56 -12.22,10.01 -19.48,13.02 -7.26,3.01 -15.12,4.57 -22.98,4.57 -7.87,0 -15.72,-1.56 -22.98,-4.57 -7.27,-3.01 -13.93,-7.46 -19.48,-13.02 -5.57,-5.56 -10.02,-12.22 -13.02,-19.48 -3.02,-7.26 -4.58,-15.12 -4.57,-22.98 -0.01,-7.86 1.55,-15.72 4.57,-22.98 3,-7.26 7.45,-13.93 13.02,-19.48 5.55,-5.57 12.21,-10.01 19.48,-13.02 7.26,-3.01 15.11,-4.58 22.98,-4.57 7.86,-0.01 15.72,1.56 22.98,4.57 7.26,3.01 13.92,7.45 19.48,13.02 5.56,5.55 10.01,12.22 13.02,19.48 3.01,7.26 4.57,15.12 4.57,22.98 z"
             style="fill:#a2d562;fill-opacity:1;fill-rule:nonzero;stroke:none"
             id="path54" />
          <path
             d="m 1803.8,1120.1 c 0,4.4 -0.87,8.79 -2.56,12.85 -1.68,4.07 -4.17,7.79 -7.28,10.9 -3.1,3.11 -6.83,5.6 -10.89,7.28 -4.07,1.69 -8.46,2.56 -12.86,2.56 -4.39,0 -8.79,-0.87 -12.85,-2.56 -4.06,-1.68 -7.79,-4.17 -10.9,-7.28 -3.11,-3.11 -5.6,-6.83 -7.28,-10.9 -1.68,-4.06 -2.56,-8.45 -2.55,-12.85 -0.01,-4.4 0.87,-8.79 2.55,-12.85 1.68,-4.07 4.17,-7.79 7.28,-10.9 3.11,-3.11 6.84,-5.6 10.9,-7.28 4.06,-1.69 8.46,-2.56 12.85,-2.56 4.4,0 8.79,0.87 12.86,2.56 4.06,1.68 7.79,4.17 10.89,7.28 3.11,3.11 5.6,6.83 7.28,10.9 1.69,4.06 2.56,8.45 2.56,12.85 z"
             style="fill:#000000;fill-opacity:1;fill-rule:nonzero;stroke:none"
             id="path56" />
          <path
             d="m 1803.8,811.844 c 0,4.398 -0.87,8.793 -2.56,12.851 -1.68,4.067 -4.17,7.789 -7.28,10.899 -3.1,3.109 -6.83,5.601 -10.89,7.281 -4.07,1.684 -8.46,2.559 -12.86,2.555 -4.39,0.004 -8.79,-0.871 -12.85,-2.555 -4.06,-1.68 -7.79,-4.172 -10.9,-7.281 -3.11,-3.11 -5.6,-6.832 -7.28,-10.899 -1.68,-4.058 -2.56,-8.453 -2.55,-12.851 -0.01,-4.399 0.87,-8.793 2.55,-12.852 1.68,-4.066 4.17,-7.789 7.28,-10.898 3.11,-3.11 6.84,-5.602 10.9,-7.281 4.06,-1.684 8.46,-2.559 12.85,-2.555 4.4,-0.004 8.79,0.871 12.86,2.555 4.06,1.679 7.79,4.171 10.89,7.281 3.11,3.109 5.6,6.832 7.28,10.898 1.69,4.059 2.56,8.453 2.56,12.852 z"
             style="fill:#ffffff;fill-opacity:1;fill-rule:nonzero;stroke:none"
             id="path58" />
          <path
             d="m 1806.04,811.023 c 0,4.399 -0.87,8.793 -2.56,12.856 -1.68,4.062 -4.17,7.789 -7.28,10.894 -3.11,3.114 -6.83,5.602 -10.9,7.282 -4.06,1.687 -8.45,2.558 -12.85,2.558 -4.4,0 -8.79,-0.871 -12.85,-2.558 -4.06,-1.68 -7.79,-4.168 -10.9,-7.282 -3.11,-3.105 -5.6,-6.832 -7.28,-10.894 -1.69,-4.063 -2.56,-8.457 -2.56,-12.856 0,-4.394 0.87,-8.789 2.56,-12.851 1.68,-4.063 4.17,-7.789 7.28,-10.895 3.11,-3.113 6.84,-5.601 10.9,-7.281 4.06,-1.687 8.45,-2.558 12.85,-2.558 4.4,0 8.79,0.871 12.85,2.558 4.07,1.68 7.79,4.168 10.9,7.281 3.11,3.106 5.6,6.832 7.28,10.895 1.69,4.062 2.56,8.457 2.56,12.851 z"
             style="fill:#000000;fill-opacity:1;fill-rule:nonzero;stroke:none"
             id="path60" />
          <path
             d="m 1802.41,486.086 c 0,4.398 -0.87,8.793 -2.56,12.852 -1.68,4.066 -4.17,7.789 -7.28,10.898 -3.11,3.109 -6.83,5.602 -10.89,7.281 -4.07,1.684 -8.46,2.559 -12.86,2.555 -4.39,0.004 -8.79,-0.871 -12.85,-2.555 -4.06,-1.679 -7.79,-4.172 -10.9,-7.281 -3.11,-3.109 -5.6,-6.832 -7.28,-10.898 -1.68,-4.059 -2.56,-8.454 -2.56,-12.852 0,-4.398 0.88,-8.793 2.56,-12.852 1.68,-4.066 4.17,-7.789 7.28,-10.898 3.11,-3.109 6.84,-5.602 10.9,-7.281 4.06,-1.684 8.46,-2.559 12.85,-2.555 4.4,-0.004 8.79,0.871 12.86,2.555 4.06,1.679 7.78,4.172 10.89,7.281 3.11,3.109 5.6,6.832 7.28,10.898 1.69,4.059 2.56,8.454 2.56,12.852 z"
             style="fill:#000000;fill-opacity:1;fill-rule:nonzero;stroke:none"
             id="path62" />
          <path
             d="m 1479.37,488.965 c 0,4.398 -0.87,8.793 -2.56,12.855 -1.68,4.063 -4.17,7.789 -7.28,10.895 -3.11,3.113 -6.83,5.601 -10.9,7.281 -4.06,1.684 -8.45,2.559 -12.85,2.559 -4.4,0 -8.79,-0.875 -12.85,-2.559 -4.07,-1.68 -7.79,-4.168 -10.9,-7.281 -3.11,-3.106 -5.6,-6.832 -7.28,-10.895 -1.68,-4.062 -2.56,-8.457 -2.56,-12.855 0,-4.395 0.88,-8.789 2.56,-12.852 1.68,-4.062 4.17,-7.789 7.28,-10.898 3.11,-3.11 6.83,-5.598 10.9,-7.277 4.06,-1.688 8.45,-2.563 12.85,-2.559 4.4,-0.004 8.79,0.871 12.85,2.559 4.07,1.679 7.79,4.167 10.9,7.277 3.11,3.109 5.6,6.836 7.28,10.898 1.69,4.063 2.56,8.457 2.56,12.852 z"
             style="fill:#000000;fill-opacity:1;fill-rule:nonzero;stroke:none"
             id="path64" />
          <path
             d="m 1169.01,486.699 c 0,4.395 -0.87,8.789 -2.56,12.852 -1.68,4.062 -4.17,7.789 -7.28,10.898 -3.11,3.11 -6.83,5.598 -10.9,7.278 -4.06,1.687 -8.45,2.562 -12.85,2.558 -4.4,0.004 -8.79,-0.871 -12.85,-2.558 -4.07,-1.68 -7.79,-4.168 -10.9,-7.278 -3.11,-3.109 -5.6,-6.836 -7.28,-10.898 -1.69,-4.063 -2.56,-8.457 -2.56,-12.852 0,-4.398 0.87,-8.793 2.56,-12.855 1.68,-4.063 4.17,-7.789 7.28,-10.895 3.11,-3.113 6.83,-5.601 10.9,-7.281 4.06,-1.688 8.45,-2.559 12.85,-2.559 4.4,0 8.79,0.871 12.85,2.559 4.07,1.68 7.79,4.168 10.9,7.281 3.11,3.106 5.6,6.832 7.28,10.895 1.69,4.062 2.56,8.457 2.56,12.855 z"
             style="fill:#000000;fill-opacity:1;fill-rule:nonzero;stroke:none"
             id="path66" />
          <path
             d="m 840.48,483.027 c 0.004,4.399 -0.871,8.793 -2.558,12.856 -1.68,4.062 -4.168,7.789 -7.277,10.894 -3.11,3.114 -6.836,5.602 -10.899,7.282 -4.062,1.683 -8.457,2.558 -12.851,2.558 -4.399,0 -8.793,-0.875 -12.856,-2.558 -4.062,-1.68 -7.789,-4.168 -10.894,-7.282 -3.114,-3.105 -5.602,-6.832 -7.282,-10.894 -1.683,-4.063 -2.558,-8.457 -2.558,-12.856 0,-4.394 0.875,-8.789 2.558,-12.851 1.68,-4.063 4.168,-7.789 7.282,-10.899 3.105,-3.109 6.832,-5.597 10.894,-7.277 4.063,-1.687 8.457,-2.562 12.856,-2.559 4.394,-0.003 8.789,0.872 12.851,2.559 4.063,1.68 7.789,4.168 10.899,7.277 3.109,3.11 5.597,6.836 7.277,10.899 1.687,4.062 2.562,8.457 2.558,12.851 z"
             style="fill:#000000;fill-opacity:1;fill-rule:nonzero;stroke:none"
             id="path68" />
          <path
             d="m 523.359,485.586 c 0.004,4.394 -0.871,8.789 -2.554,12.852 -1.68,4.062 -4.172,7.789 -7.282,10.898 -3.109,3.109 -6.832,5.598 -10.898,7.277 -4.059,1.688 -8.453,2.563 -12.852,2.559 -4.398,0.004 -8.793,-0.871 -12.851,-2.559 -4.067,-1.679 -7.789,-4.168 -10.899,-7.277 -3.109,-3.109 -5.601,-6.836 -7.281,-10.898 -1.683,-4.063 -2.558,-8.458 -2.554,-12.852 -0.004,-4.398 0.871,-8.793 2.554,-12.856 1.68,-4.062 4.172,-7.789 7.281,-10.894 3.11,-3.113 6.832,-5.602 10.899,-7.281 4.058,-1.684 8.453,-2.559 12.851,-2.559 4.399,0 8.793,0.875 12.852,2.559 4.066,1.679 7.789,4.168 10.898,7.281 3.11,3.105 5.602,6.832 7.282,10.894 1.683,4.063 2.558,8.458 2.554,12.856 z"
             style="fill:#000000;fill-opacity:1;fill-rule:nonzero;stroke:none"
             id="path70" />
          <path
             d="m 200.867,811.844 c 0.004,4.398 -0.871,8.793 -2.554,12.851 -1.68,4.067 -4.172,7.789 -7.282,10.899 -3.109,3.109 -6.832,5.601 -10.898,7.281 -4.059,1.684 -8.453,2.559 -12.852,2.555 -4.398,0.004 -8.793,-0.871 -12.851,-2.555 -4.067,-1.68 -7.789,-4.172 -10.899,-7.281 -3.109,-3.11 -5.601,-6.832 -7.281,-10.899 -1.684,-4.058 -2.559,-8.453 -2.555,-12.851 -0.004,-4.399 0.871,-8.793 2.555,-12.852 1.68,-4.066 4.172,-7.789 7.281,-10.898 3.11,-3.11 6.832,-5.602 10.899,-7.281 4.058,-1.684 8.453,-2.559 12.851,-2.555 4.399,-0.004 8.793,0.871 12.852,2.555 4.066,1.679 7.789,4.171 10.898,7.281 3.11,3.109 5.602,6.832 7.282,10.898 1.683,4.059 2.558,8.453 2.554,12.852 z"
             style="fill:#000000;fill-opacity:1;fill-rule:nonzero;stroke:none"
             id="path72" />
          <path
             d="m 200.867,1135.51 c 0.004,4.4 -0.871,8.79 -2.554,12.86 -1.68,4.06 -4.172,7.79 -7.282,10.89 -3.109,3.12 -6.832,5.6 -10.898,7.28 -4.059,1.69 -8.453,2.56 -12.852,2.56 -4.398,0 -8.793,-0.87 -12.851,-2.56 -4.067,-1.68 -7.789,-4.16 -10.899,-7.28 -3.109,-3.1 -5.601,-6.83 -7.281,-10.89 -1.684,-4.07 -2.559,-8.46 -2.555,-12.86 -0.004,-4.39 0.871,-8.79 2.555,-12.85 1.68,-4.06 4.172,-7.79 7.281,-10.9 3.11,-3.11 6.832,-5.6 10.899,-7.28 4.058,-1.68 8.453,-2.56 12.851,-2.55 4.399,-0.01 8.793,0.87 12.852,2.55 4.066,1.68 7.789,4.17 10.898,7.28 3.11,3.11 5.602,6.84 7.282,10.9 1.683,4.06 2.558,8.46 2.554,12.85 z"
             style="fill:#000000;fill-opacity:1;fill-rule:nonzero;stroke:none"
             id="path74" />
          <path
             d="m 203.195,1442.82 c 0.004,4.4 -0.871,8.79 -2.554,12.86 -1.68,4.06 -4.172,7.78 -7.282,10.89 -3.109,3.11 -6.832,5.6 -10.898,7.29 -4.059,1.68 -8.453,2.55 -12.852,2.55 -4.398,0 -8.793,-0.87 -12.851,-2.55 -4.067,-1.69 -7.789,-4.18 -10.899,-7.29 -3.109,-3.11 -5.601,-6.83 -7.281,-10.89 -1.683,-4.07 -2.558,-8.46 -2.555,-12.86 -0.003,-4.39 0.872,-8.79 2.555,-12.85 1.68,-4.06 4.172,-7.79 7.281,-10.9 3.11,-3.11 6.832,-5.6 10.899,-7.28 4.058,-1.68 8.453,-2.56 12.851,-2.56 4.399,0 8.793,0.88 12.852,2.56 4.066,1.68 7.789,4.17 10.898,7.28 3.11,3.11 5.602,6.84 7.282,10.9 1.683,4.06 2.558,8.46 2.554,12.85 z"
             style="fill:#000000;fill-opacity:1;fill-rule:nonzero;stroke:none"
             id="path76" />
          <path
             d="m 200.867,1758.84 c 0.004,4.39 -0.871,8.79 -2.554,12.85 -1.68,4.06 -4.172,7.79 -7.282,10.9 -3.109,3.11 -6.832,5.6 -10.898,7.28 -4.059,1.68 -8.453,2.56 -12.852,2.56 -4.398,0 -8.793,-0.88 -12.851,-2.56 -4.067,-1.68 -7.789,-4.17 -10.899,-7.28 -3.109,-3.11 -5.601,-6.84 -7.281,-10.9 -1.684,-4.06 -2.559,-8.46 -2.555,-12.85 -0.004,-4.4 0.871,-8.79 2.555,-12.86 1.68,-4.06 4.172,-7.78 7.281,-10.89 3.11,-3.11 6.832,-5.6 10.899,-7.28 4.058,-1.69 8.453,-2.56 12.851,-2.56 4.399,0 8.793,0.87 12.852,2.56 4.066,1.68 7.789,4.17 10.898,7.28 3.11,3.11 5.602,6.83 7.282,10.89 1.683,4.07 2.558,8.46 2.554,12.86 z"
             style="fill:#000000;fill-opacity:1;fill-rule:nonzero;stroke:none"
             id="path78" />
          <path
             d="m 200.867,2083.7 c 0.004,4.39 -0.871,8.79 -2.554,12.85 -1.68,4.06 -4.172,7.79 -7.282,10.9 -3.109,3.11 -6.832,5.6 -10.898,7.28 -4.059,1.68 -8.453,2.56 -12.852,2.56 -4.398,0 -8.793,-0.88 -12.851,-2.56 -4.067,-1.68 -7.789,-4.17 -10.899,-7.28 -3.109,-3.11 -5.601,-6.84 -7.281,-10.9 -1.684,-4.06 -2.559,-8.46 -2.555,-12.85 -0.004,-4.4 0.871,-8.79 2.555,-12.86 1.68,-4.06 4.172,-7.79 7.281,-10.89 3.11,-3.11 6.832,-5.6 10.899,-7.28 4.058,-1.69 8.453,-2.56 12.851,-2.56 4.399,0 8.793,0.87 12.852,2.56 4.066,1.68 7.789,4.17 10.898,7.28 3.11,3.1 5.602,6.83 7.282,10.89 1.683,4.07 2.558,8.46 2.554,12.86 z"
             style="fill:#000000;fill-opacity:1;fill-rule:nonzero;stroke:none"
             id="path80" />
          <path
             d="m 532.543,2083.1 c 0,4.4 -0.875,8.79 -2.559,12.86 -1.679,4.06 -4.168,7.79 -7.281,10.89 -3.105,3.11 -6.832,5.6 -10.894,7.28 -4.063,1.69 -8.457,2.56 -12.856,2.56 -4.394,0 -8.789,-0.87 -12.851,-2.56 -4.063,-1.68 -7.789,-4.17 -10.899,-7.28 -3.109,-3.1 -5.598,-6.83 -7.281,-10.89 -1.684,-4.07 -2.559,-8.46 -2.555,-12.86 -0.004,-4.39 0.871,-8.79 2.555,-12.85 1.683,-4.06 4.172,-7.79 7.281,-10.9 3.11,-3.11 6.836,-5.6 10.899,-7.28 4.062,-1.68 8.457,-2.56 12.851,-2.55 4.399,-0.01 8.793,0.87 12.856,2.55 4.062,1.68 7.789,4.17 10.894,7.28 3.113,3.11 5.602,6.84 7.281,10.9 1.684,4.06 2.559,8.46 2.559,12.85 z"
             style="fill:#000000;fill-opacity:1;fill-rule:nonzero;stroke:none"
             id="path82" />
          <path
             d="m 840.203,2083.1 c 0,4.4 -0.875,8.79 -2.558,12.86 -1.68,4.06 -4.168,7.79 -7.282,10.89 -3.105,3.11 -6.832,5.6 -10.894,7.28 -4.063,1.69 -8.457,2.56 -12.856,2.56 -4.394,0 -8.789,-0.87 -12.851,-2.56 -4.063,-1.68 -7.789,-4.17 -10.899,-7.28 -3.109,-3.1 -5.597,-6.83 -7.281,-10.89 -1.684,-4.07 -2.559,-8.46 -2.555,-12.86 -0.004,-4.39 0.871,-8.79 2.555,-12.85 1.684,-4.06 4.172,-7.79 7.281,-10.9 3.11,-3.11 6.836,-5.6 10.899,-7.28 4.062,-1.68 8.457,-2.56 12.851,-2.55 4.399,-0.01 8.793,0.87 12.856,2.55 4.062,1.68 7.789,4.17 10.894,7.28 3.114,3.11 5.602,6.84 7.282,10.9 1.683,4.06 2.558,8.46 2.558,12.85 z"
             style="fill:#000000;fill-opacity:1;fill-rule:nonzero;stroke:none"
             id="path84" />
          <path
             d="m 1164.46,2083.1 c 0.01,4.4 -0.87,8.79 -2.55,12.86 -1.68,4.06 -4.17,7.79 -7.28,10.89 -3.11,3.11 -6.83,5.6 -10.9,7.28 -4.06,1.69 -8.45,2.56 -12.85,2.56 -4.4,0 -8.79,-0.87 -12.85,-2.56 -4.07,-1.68 -7.79,-4.17 -10.9,-7.28 -3.11,-3.1 -5.6,-6.83 -7.28,-10.89 -1.69,-4.07 -2.56,-8.46 -2.56,-12.86 0,-4.39 0.87,-8.79 2.56,-12.85 1.68,-4.06 4.17,-7.79 7.28,-10.9 3.11,-3.11 6.83,-5.6 10.9,-7.28 4.06,-1.68 8.45,-2.56 12.85,-2.55 4.4,-0.01 8.79,0.87 12.85,2.55 4.07,1.68 7.79,4.17 10.9,7.28 3.11,3.11 5.6,6.84 7.28,10.9 1.68,4.06 2.56,8.46 2.55,12.85 z"
             style="fill:#000000;fill-opacity:1;fill-rule:nonzero;stroke:none"
             id="path86" />
          <path
             d="m 1480.13,2083.1 c 0,4.4 -0.87,8.79 -2.56,12.86 -1.68,4.06 -4.16,7.79 -7.28,10.89 -3.1,3.11 -6.83,5.6 -10.89,7.28 -4.06,1.69 -8.46,2.56 -12.86,2.56 -4.39,0 -8.79,-0.87 -12.85,-2.56 -4.06,-1.68 -7.79,-4.17 -10.9,-7.28 -3.11,-3.1 -5.59,-6.83 -7.28,-10.89 -1.68,-4.07 -2.56,-8.46 -2.55,-12.86 -0.01,-4.39 0.87,-8.79 2.55,-12.85 1.69,-4.06 4.17,-7.79 7.28,-10.9 3.11,-3.11 6.84,-5.6 10.9,-7.28 4.06,-1.68 8.46,-2.56 12.85,-2.55 4.4,-0.01 8.8,0.87 12.86,2.55 4.06,1.68 7.79,4.17 10.89,7.28 3.12,3.11 5.6,6.84 7.28,10.9 1.69,4.06 2.56,8.46 2.56,12.85 z"
             style="fill:#000000;fill-opacity:1;fill-rule:nonzero;stroke:none"
             id="path88" />
          <path
             d="m 1803.8,2091.11 c 0,4.39 -0.87,8.79 -2.56,12.85 -1.68,4.06 -4.17,7.79 -7.28,10.9 -3.1,3.11 -6.83,5.6 -10.89,7.28 -4.07,1.68 -8.46,2.56 -12.86,2.56 -4.39,0 -8.79,-0.88 -12.85,-2.56 -4.06,-1.68 -7.79,-4.17 -10.9,-7.28 -3.11,-3.11 -5.6,-6.84 -7.28,-10.9 -1.68,-4.06 -2.56,-8.46 -2.55,-12.85 -0.01,-4.4 0.87,-8.8 2.55,-12.86 1.68,-4.06 4.17,-7.79 7.28,-10.89 3.11,-3.11 6.84,-5.6 10.9,-7.29 4.06,-1.68 8.46,-2.55 12.85,-2.55 4.4,0 8.79,0.87 12.86,2.55 4.06,1.69 7.79,4.18 10.89,7.29 3.11,3.1 5.6,6.83 7.28,10.89 1.69,4.06 2.56,8.46 2.56,12.86 z"
             style="fill:#000000;fill-opacity:1;fill-rule:nonzero;stroke:none"
             id="path90" />
          <path
             d="m 1803.8,1767.44 c 0,4.4 -0.87,8.79 -2.56,12.85 -1.68,4.07 -4.17,7.79 -7.28,10.9 -3.1,3.11 -6.83,5.6 -10.89,7.28 -4.07,1.68 -8.46,2.56 -12.86,2.55 -4.39,0.01 -8.79,-0.87 -12.85,-2.55 -4.06,-1.68 -7.79,-4.17 -10.9,-7.28 -3.11,-3.11 -5.6,-6.83 -7.28,-10.9 -1.68,-4.06 -2.56,-8.45 -2.55,-12.85 -0.01,-4.4 0.87,-8.8 2.55,-12.85 1.68,-4.07 4.17,-7.79 7.28,-10.9 3.11,-3.11 6.84,-5.6 10.9,-7.28 4.06,-1.69 8.46,-2.56 12.85,-2.56 4.4,0 8.79,0.87 12.86,2.56 4.06,1.68 7.79,4.17 10.89,7.28 3.11,3.11 5.6,6.83 7.28,10.9 1.69,4.05 2.56,8.45 2.56,12.85 z"
             style="fill:#000000;fill-opacity:1;fill-rule:nonzero;stroke:none"
             id="path92" />
          <path
             d="m 1803.8,1443.77 c 0,4.39 -0.87,8.79 -2.56,12.85 -1.68,4.06 -4.17,7.79 -7.28,10.9 -3.1,3.11 -6.83,5.6 -10.89,7.28 -4.07,1.68 -8.46,2.56 -12.86,2.56 -4.39,0 -8.79,-0.88 -12.85,-2.56 -4.06,-1.68 -7.79,-4.17 -10.9,-7.28 -3.11,-3.11 -5.6,-6.84 -7.28,-10.9 -1.68,-4.06 -2.56,-8.46 -2.55,-12.85 -0.01,-4.4 0.87,-8.79 2.55,-12.86 1.68,-4.06 4.17,-7.78 7.28,-10.89 3.11,-3.11 6.84,-5.6 10.9,-7.28 4.06,-1.69 8.46,-2.56 12.85,-2.56 4.4,0 8.79,0.87 12.86,2.56 4.06,1.68 7.79,4.17 10.89,7.28 3.11,3.11 5.6,6.83 7.28,10.89 1.69,4.07 2.56,8.46 2.56,12.86 z"
             style="fill:#000000;fill-opacity:1;fill-rule:nonzero;stroke:none"
             id="path94" />
          <path
             d="m 15.3711,1596.66 1904.7089,3.13"
             style="fill:none;stroke:#000000;stroke-width:20;stroke-linecap:square;stroke-linejoin:miter;stroke-miterlimit:10;stroke-dasharray:none;stroke-opacity:1"
             id="path96" />
          <path
             d="M 10.9805,968.656 1920.08,967.863"
             style="fill:none;stroke:#000000;stroke-width:20;stroke-linecap:square;stroke-linejoin:miter;stroke-miterlimit:10;stroke-dasharray:none;stroke-opacity:1"
             id="path98" />
          <path
             d="m 645.023,340.406 2.071,1902.314"
             style="fill:none;stroke:#000000;stroke-width:20;stroke-linecap:square;stroke-linejoin:miter;stroke-miterlimit:10;stroke-dasharray:none;stroke-opacity:1"
             id="path100" />
          <path
             d="M 1282.92,336.691 1285,2239"
             style="fill:none;stroke:#000000;stroke-width:20;stroke-linecap:square;stroke-linejoin:miter;stroke-miterlimit:10;stroke-dasharray:none;stroke-opacity:1"
             id="path102" />
          <path
             d="m 1982.21,1343.87 h 273.48 v 59.3 l 117.2,-98.83 -117.2,-98.84 v 59.3 h -273.48 z"
             style="fill:#a2d562;fill-opacity:1;fill-rule:nonzero;stroke:none"
             id="path104" />
          <path
             d="m 2421.11,326.199 -6.3,1918.941"
             style="fill:#000000;fill-opacity:1;fill-rule:nonzero;stroke:none"
             id="path106" />
          <path
             d="m 2421.11,326.199 -6.3,1918.941"
             style="fill:none;stroke:#000000;stroke-width:10;stroke-linecap:square;stroke-linejoin:miter;stroke-miterlimit:10;stroke-dasharray:none;stroke-opacity:1"
             id="path108" />
          <path
             d="m 2414.56,2320.31 27.61,-75.09 -54.72,-0.17 z"
             style="fill:#000000;fill-opacity:1;fill-rule:nonzero;stroke:none"
             id="path110" />
          <path
             d="m 2414.56,2320.31 27.61,-75.08 -54.72,-0.18 z"
             style="fill:none;stroke:#000000;stroke-width:2.5;stroke-linecap:square;stroke-linejoin:miter;stroke-miterlimit:10;stroke-dasharray:none;stroke-opacity:1"
             id="path112" />
          <path
             d="m 2420.35,326.34 2063.79,0.637"
             style="fill:#000000;fill-opacity:1;fill-rule:nonzero;stroke:none"
             id="path114" />
          <path
             d="m 2420.35,326.34 2063.79,0.637"
             style="fill:none;stroke:#000000;stroke-width:10;stroke-linecap:square;stroke-linejoin:miter;stroke-miterlimit:10;stroke-dasharray:none;stroke-opacity:1"
             id="path116" />
          <path
             d="m 4559.32,327 -75.17,-27.387 -0.02,54.723 z"
             style="fill:#000000;fill-opacity:1;fill-rule:nonzero;stroke:none"
             id="path118" />
          <path
             d="m 4559.32,327 -75.17,-27.387 -0.02,54.727 z"
             style="fill:none;stroke:#000000;stroke-width:2.5;stroke-linecap:square;stroke-linejoin:miter;stroke-miterlimit:10;stroke-dasharray:none;stroke-opacity:1"
             id="path120" />
          <path
             d="m 4260.14,889.309 -1155.29,993.541 961.56,-94.67 -43.68,8.88 v 0 z"
             style="fill:#bebdbe;fill-opacity:1;fill-rule:nonzero;stroke:none"
             id="path122" />
          <path
             d="m 4260.14,889.309 -1155.29,993.541 961.56,-94.67 -43.68,8.88 v 0 z"
             style="fill:none;stroke:#000000;stroke-width:10;stroke-linecap:square;stroke-linejoin:miter;stroke-miterlimit:10;stroke-dasharray:40, 40;stroke-dashoffset:0;stroke-opacity:1"
             id="path124" />
          <path
             d="m 209.316,485.586 c 0.004,4.394 -0.871,8.789 -2.554,12.852 -1.68,4.062 -4.172,7.789 -7.282,10.898 -3.109,3.109 -6.832,5.598 -10.898,7.277 -4.059,1.688 -8.453,2.563 -12.852,2.559 -4.398,0.004 -8.792,-0.871 -12.851,-2.559 -4.066,-1.679 -7.789,-4.168 -10.899,-7.277 -3.109,-3.109 -5.601,-6.836 -7.281,-10.898 -1.683,-4.063 -2.558,-8.458 -2.554,-12.852 -0.004,-4.398 0.871,-8.793 2.554,-12.856 1.68,-4.062 4.172,-7.789 7.281,-10.894 3.11,-3.113 6.833,-5.602 10.899,-7.281 4.059,-1.684 8.453,-2.559 12.851,-2.559 4.399,0 8.793,0.875 12.852,2.559 4.066,1.679 7.789,4.168 10.898,7.281 3.11,3.105 5.602,6.832 7.282,10.894 1.683,4.063 2.558,8.458 2.554,12.856 z"
             style="fill:#000000;fill-opacity:1;fill-rule:nonzero;stroke:none"
             id="path126" />
          <path
             d="m 1194.86,1110.02 c 0.01,7.86 -1.56,15.72 -4.57,22.98 -3,7.27 -7.45,13.93 -13.01,19.48 -5.56,5.57 -12.22,10.02 -19.49,13.02 -7.26,3.01 -15.11,4.58 -22.98,4.57 -7.86,0.01 -15.72,-1.56 -22.98,-4.57 -7.26,-3 -13.92,-7.45 -19.48,-13.02 -5.56,-5.55 -10.01,-12.21 -13.01,-19.48 -3.02,-7.26 -4.58,-15.12 -4.57,-22.98 -0.01,-7.86 1.55,-15.72 4.57,-22.98 3,-7.26 7.45,-13.92 13.01,-19.48 5.56,-5.56 12.22,-10.01 19.48,-13.02 7.26,-3.01 15.12,-4.57 22.98,-4.57 7.87,0 15.72,1.56 22.98,4.57 7.27,3.01 13.93,7.46 19.49,13.02 5.56,5.56 10.01,12.22 13.01,19.48 3.01,7.26 4.58,15.12 4.57,22.98 z"
             style="fill:#ffca00;fill-opacity:1;fill-rule:nonzero;stroke:none"
             id="path128" />
          <path
             d="m 3139.03,1884.5 c 0,5.13 -1.02,10.25 -2.98,14.97 -1.96,4.74 -4.86,9.08 -8.48,12.69 -3.62,3.63 -7.96,6.53 -12.69,8.48 -4.73,1.97 -9.85,2.99 -14.97,2.98 -5.12,0.01 -10.24,-1.01 -14.97,-2.98 -4.73,-1.95 -9.07,-4.85 -12.69,-8.48 -3.62,-3.61 -6.52,-7.95 -8.48,-12.69 -1.97,-4.72 -2.98,-9.84 -2.98,-14.97 0,-5.12 1.01,-10.23 2.98,-14.96 1.96,-4.74 4.86,-9.08 8.48,-12.7 3.62,-3.62 7.96,-6.52 12.69,-8.48 4.73,-1.96 9.85,-2.98 14.97,-2.97 5.12,-0.01 10.24,1.01 14.97,2.97 4.73,1.96 9.07,4.86 12.69,8.48 3.62,3.62 6.52,7.96 8.48,12.7 1.96,4.73 2.98,9.84 2.98,14.96 z"
             style="fill:#a2d562;fill-opacity:1;fill-rule:nonzero;stroke:none"
             id="path130" />
          <path
             d="m 4066.96,1786.68 c 0,5.74 -1.14,11.49 -3.34,16.8 -2.2,5.31 -5.45,10.18 -9.52,14.24 -4.06,4.07 -8.93,7.32 -14.24,9.52 -5.31,2.2 -11.06,3.34 -16.8,3.34 -5.75,0 -11.49,-1.14 -16.8,-3.34 -5.31,-2.2 -10.18,-5.45 -14.24,-9.52 -4.07,-4.06 -7.32,-8.93 -9.52,-14.24 -2.2,-5.31 -3.35,-11.06 -3.34,-16.8 -0.01,-5.75 1.14,-11.5 3.34,-16.8 2.2,-5.32 5.45,-10.18 9.52,-14.25 4.06,-4.06 8.93,-7.32 14.24,-9.52 5.31,-2.2 11.05,-3.34 16.8,-3.34 5.74,0 11.49,1.14 16.8,3.34 5.31,2.2 10.18,5.46 14.24,9.52 4.07,4.07 7.32,8.93 9.52,14.25 2.2,5.3 3.34,11.05 3.34,16.8 z"
             style="fill:#ffca00;fill-opacity:1;fill-rule:nonzero;stroke:none"
             id="path132" />
          <path
             d="m 4290.2,912.477 c 0.01,5.457 -1.08,10.91 -3.17,15.949 -2.08,5.043 -5.17,9.668 -9.03,13.523 -3.86,3.86 -8.48,6.949 -13.53,9.035 -5.04,2.09 -10.49,3.176 -15.95,3.172 -5.45,0.004 -10.91,-1.082 -15.95,-3.172 -5.04,-2.086 -9.66,-5.175 -13.52,-9.035 -3.86,-3.855 -6.95,-8.48 -9.04,-13.523 -2.09,-5.039 -3.17,-10.492 -3.17,-15.949 0,-5.457 1.08,-10.911 3.17,-15.95 2.09,-5.043 5.18,-9.668 9.04,-13.523 3.86,-3.863 8.48,-6.949 13.52,-9.035 5.04,-2.094 10.5,-3.176 15.95,-3.176 5.46,0 10.91,1.082 15.95,3.176 5.05,2.086 9.67,5.172 13.53,9.035 3.86,3.855 6.95,8.48 9.03,13.523 2.09,5.039 3.18,10.493 3.17,15.95 z"
             style="fill:#ce1c00;fill-opacity:1;fill-rule:nonzero;stroke:none"
             id="path134" />
          <g
             id="g136"
             transform="scale(10)">
            <text
               xml:space="preserve"
               transform="matrix(1,0,0,-1,405.682,38.0359)"
               style="font-variant:normal;font-weight:normal;font-size:12px;font-family:Arial;-inkscape-font-specification:Arial;writing-mode:lr-tb;fill:#000000;fill-opacity:1;fill-rule:nonzero;stroke:none"
               id="text140"><tspan
                 x="0 12 24 27.996 34.104"
                 y="0"
                 sodipodi:role="line"
                 id="tspan138">!&quot;#$%</tspan></text>
            <text
               xml:space="preserve"
               transform="matrix(0,1,1,0,257.959,193.185)"
               style="font-variant:normal;font-weight:normal;font-size:12px;font-family:Arial;-inkscape-font-specification:Arial;writing-mode:lr-tb;fill:#000000;fill-opacity:1;fill-rule:nonzero;stroke:none"
               id="text144"><tspan
                 x="0 12 24 27.996 33.948002"
                 y="0"
                 sodipodi:role="line"
                 id="tspan142">!&quot;#&amp;%</tspan></text>
          </g>
          <path
             d="m 3628.24,1727.21 c 0.01,5.29 -1.04,10.57 -3.07,15.45 -2.02,4.89 -5.01,9.37 -8.76,13.11 -3.73,3.73 -8.21,6.73 -13.1,8.75 -4.88,2.03 -10.17,3.08 -15.45,3.07 -5.29,0.01 -10.57,-1.04 -15.45,-3.07 -4.89,-2.02 -9.37,-5.02 -13.11,-8.75 -3.74,-3.74 -6.73,-8.22 -8.75,-13.11 -2.03,-4.88 -3.08,-10.16 -3.07,-15.45 -0.01,-5.28 1.04,-10.57 3.07,-15.45 2.02,-4.89 5.01,-9.37 8.75,-13.1 3.74,-3.75 8.22,-6.74 13.11,-8.76 4.88,-2.02 10.16,-3.08 15.45,-3.07 5.28,-0.01 10.57,1.05 15.45,3.07 4.89,2.02 9.37,5.01 13.1,8.76 3.75,3.73 6.74,8.21 8.76,13.1 2.03,4.88 3.08,10.17 3.07,15.45 z"
             style="fill:#fffb00;fill-opacity:1;fill-rule:nonzero;stroke:none"
             id="path146" />
          <g
             id="g148"
             transform="scale(10)">
            <text
               xml:space="preserve"
               transform="matrix(1,0,0,-1,334.361,216.555)"
               style="font-variant:normal;font-weight:normal;font-size:12px;font-family:Arial;-inkscape-font-specification:Arial;writing-mode:lr-tb;fill:#000000;fill-opacity:1;fill-rule:nonzero;stroke:none"
               id="text152"><tspan
                 x="0 12 24 36"
                 y="0"
                 sodipodi:role="line"
                 id="tspan150">'(!)</tspan></text>
          </g>
          <path
             d="m 3945.64,1449.48 c 0,5.29 -1.05,10.57 -3.07,15.46 -2.02,4.88 -5.02,9.36 -8.76,13.1 -3.73,3.74 -8.21,6.73 -13.1,8.75 -4.88,2.03 -10.16,3.08 -15.45,3.08 -5.29,0 -10.57,-1.05 -15.46,-3.08 -4.88,-2.02 -9.36,-5.01 -13.1,-8.75 -3.74,-3.74 -6.73,-8.22 -8.75,-13.1 -2.02,-4.89 -3.07,-10.17 -3.07,-15.46 0,-5.28 1.05,-10.57 3.07,-15.45 2.02,-4.88 5.01,-9.36 8.75,-13.1 3.74,-3.74 8.22,-6.73 13.1,-8.75 4.89,-2.03 10.17,-3.08 15.46,-3.08 5.29,0 10.57,1.05 15.45,3.08 4.89,2.02 9.37,5.01 13.1,8.75 3.74,3.74 6.74,8.22 8.76,13.1 2.02,4.88 3.07,10.17 3.07,15.45 z"
             style="fill:#ce1c00;fill-opacity:1;fill-rule:nonzero;stroke:none"
             id="path154" />
          <path
             d="m 2755.39,616.313 c 0,5.285 -1.05,10.57 -3.07,15.453 -2.02,4.882 -5.02,9.363 -8.76,13.101 -3.73,3.738 -8.21,6.731 -13.1,8.754 -4.88,2.024 -10.16,3.074 -15.45,3.07 -5.29,0.004 -10.57,-1.046 -15.46,-3.07 -4.88,-2.023 -9.36,-5.016 -13.1,-8.754 -3.74,-3.738 -6.73,-8.219 -8.75,-13.101 -2.02,-4.883 -3.07,-10.168 -3.07,-15.453 0,-5.29 1.05,-10.575 3.07,-15.458 2.02,-4.882 5.01,-9.363 8.75,-13.101 3.74,-3.738 8.22,-6.731 13.1,-8.754 4.89,-2.023 10.17,-3.074 15.46,-3.07 5.29,-0.004 10.57,1.047 15.45,3.07 4.89,2.023 9.37,5.016 13.1,8.754 3.74,3.738 6.74,8.219 8.76,13.101 2.02,4.883 3.07,10.168 3.07,15.458 z"
             style="fill:#0085cb;fill-opacity:1;fill-rule:nonzero;stroke:none"
             id="path156" />
          <path
             d="M 2713.52,606.793 3517.35,1628.11"
             style="fill:none;stroke:#0085cb;stroke-width:10;stroke-linecap:square;stroke-linejoin:miter;stroke-miterlimit:10;stroke-dasharray:none;stroke-opacity:1"
             id="path158" />
          <path
             d="m 3563.84,1687.18 -24.99,-75.99 -43,33.85 z"
             style="fill:#0085cb;fill-opacity:1;fill-rule:nonzero;stroke:none"
             id="path160" />
          <path
             d="m 3563.84,1687.18 -24.99,-75.99 -43,33.85 z"
             style="fill:none;stroke:#0085cb;stroke-width:2.5;stroke-linecap:square;stroke-linejoin:miter;stroke-miterlimit:10;stroke-dasharray:none;stroke-opacity:1"
             id="path162" />
          <path
             d="m 3540.23,2083.31 h 52.51 v -208.47 h 39.39 l -65.64,-89.34 -65.64,89.34 h 39.38 z"
             style="fill:#000000;fill-opacity:1;fill-rule:nonzero;stroke:none"
             id="path164" />
          <path
             d="m 3496.1,1567.11 c 0.01,5.12 -1.01,10.23 -2.97,14.96 -1.96,4.73 -4.86,9.07 -8.49,12.7 -3.62,3.62 -7.96,6.52 -12.69,8.48 -4.73,1.96 -9.84,2.98 -14.97,2.97 -5.12,0.01 -10.24,-1.01 -14.97,-2.97 -4.73,-1.96 -9.07,-4.86 -12.69,-8.48 -3.62,-3.63 -6.52,-7.97 -8.48,-12.7 -1.96,-4.73 -2.98,-9.84 -2.98,-14.96 0,-5.13 1.02,-10.25 2.98,-14.98 1.96,-4.73 4.86,-9.07 8.48,-12.68 3.62,-3.63 7.96,-6.53 12.69,-8.49 4.73,-1.96 9.85,-2.98 14.97,-2.97 5.13,-0.01 10.24,1.01 14.97,2.97 4.73,1.96 9.07,4.86 12.69,8.49 3.63,3.61 6.53,7.95 8.49,12.68 1.96,4.73 2.98,9.85 2.97,14.98 z"
             style="fill:#d4fb79;fill-opacity:1;fill-rule:nonzero;stroke:none"
             id="path166" />
          <g
             id="g168"
             transform="scale(10)">
            <text
               xml:space="preserve"
               transform="matrix(1,0,0,-1,388.779,123.623)"
               style="font-variant:normal;font-weight:normal;font-size:18px;font-family:Arial;-inkscape-font-specification:Arial;writing-mode:lr-tb;fill:#000000;fill-opacity:1;fill-rule:nonzero;stroke:none"
               id="text172"><tspan
                 x="0"
                 y="0"
                 id="tspan170">*</tspan></text>
            <text
               xml:space="preserve"
               transform="matrix(1,0,0,-1,400.7856,121.74292)"
               style="font-variant:normal;font-weight:normal;font-size:12px;font-family:Helvetica;-inkscape-font-specification:Helvetica;writing-mode:lr-tb;fill:#000000;fill-opacity:1;fill-rule:nonzero;stroke:none"
               id="text176"><tspan
                 x="0"
                 y="0"
                 id="tspan174">1</tspan></text>
            <text
               xml:space="preserve"
               transform="matrix(1,0,0,-1,277.3636,47.31242)"
               style="font-variant:normal;font-weight:normal;font-size:18px;font-family:Arial;-inkscape-font-specification:Arial;writing-mode:lr-tb;fill:#000000;fill-opacity:1;fill-rule:nonzero;stroke:none"
               id="text180"><tspan
                 x="0"
                 y="0"
                 id="tspan178">*</tspan></text>
            <text
               xml:space="preserve"
               transform="matrix(1,0,0,-1,290.4937,44.72883)"
               style="font-variant:normal;font-weight:normal;font-size:12px;font-family:Helvetica;-inkscape-font-specification:Helvetica;writing-mode:lr-tb;fill:#000000;fill-opacity:1;fill-rule:nonzero;stroke:none"
               id="text184"><tspan
                 x="0"
                 y="0"
                 id="tspan182">2</tspan></text>
            <text
               xml:space="preserve"
               transform="matrix(1,0,0,-1,340.7218,134.43043)"
               style="font-variant:normal;font-weight:normal;font-size:18px;font-family:Arial;-inkscape-font-specification:Arial;writing-mode:lr-tb;fill:#000000;fill-opacity:1;fill-rule:nonzero;stroke:none"
               id="text188"><tspan
                 x="0"
                 y="0"
                 id="tspan186">*</tspan></text>
            <text
               xml:space="preserve"
               transform="matrix(1,0,0,-1,353.8523,128.95738)"
               style="font-variant:normal;font-weight:normal;font-size:12px;font-family:Helvetica;-inkscape-font-specification:Helvetica;writing-mode:lr-tb;fill:#000000;fill-opacity:1;fill-rule:nonzero;stroke:none"
               id="text192"><tspan
                 x="0"
                 y="0"
                 id="tspan190">h</tspan></text>
          </g>
          <path
             d="m 4831.11,326.199 -6.3,1918.941"
             style="fill:#000000;fill-opacity:1;fill-rule:nonzero;stroke:none"
             id="path194" />
          <path
             d="m 4831.11,326.199 -6.3,1918.941"
             style="fill:none;stroke:#000000;stroke-width:10;stroke-linecap:square;stroke-linejoin:miter;stroke-miterlimit:10;stroke-dasharray:none;stroke-opacity:1"
             id="path196" />
          <path
             d="m 4824.56,2320.31 27.61,-75.09 -54.72,-0.17 z"
             style="fill:#000000;fill-opacity:1;fill-rule:nonzero;stroke:none"
             id="path198" />
          <path
             d="m 4824.56,2320.31 27.61,-75.08 -54.72,-0.18 z"
             style="fill:none;stroke:#000000;stroke-width:2.5;stroke-linecap:square;stroke-linejoin:miter;stroke-miterlimit:10;stroke-dasharray:none;stroke-opacity:1"
             id="path200" />
          <path
             d="m 4830.35,326.34 2063.79,0.637"
             style="fill:#000000;fill-opacity:1;fill-rule:nonzero;stroke:none"
             id="path202" />
          <path
             d="m 4830.35,326.34 2063.79,0.637"
             style="fill:none;stroke:#000000;stroke-width:10;stroke-linecap:square;stroke-linejoin:miter;stroke-miterlimit:10;stroke-dasharray:none;stroke-opacity:1"
             id="path204" />
          <path
             d="m 6969.32,327 -75.17,-27.387 -0.02,54.723 z"
             style="fill:#000000;fill-opacity:1;fill-rule:nonzero;stroke:none"
             id="path206" />
          <path
             d="m 6969.32,327 -75.17,-27.387 -0.02,54.727 z"
             style="fill:none;stroke:#000000;stroke-width:2.5;stroke-linecap:square;stroke-linejoin:miter;stroke-miterlimit:10;stroke-dasharray:none;stroke-opacity:1"
             id="path208" />
          <path
             d="m 5549.02,1884.5 c 0.01,5.13 -1.01,10.25 -2.97,14.97 -1.96,4.74 -4.86,9.08 -8.48,12.69 -3.62,3.63 -7.96,6.53 -12.69,8.48 -4.74,1.97 -9.85,2.99 -14.97,2.98 -5.12,0.01 -10.24,-1.01 -14.97,-2.98 -4.74,-1.95 -9.08,-4.85 -12.69,-8.48 -3.63,-3.61 -6.53,-7.95 -8.48,-12.69 -1.97,-4.72 -2.98,-9.84 -2.98,-14.97 0,-5.12 1.01,-10.23 2.98,-14.96 1.95,-4.74 4.85,-9.08 8.48,-12.7 3.61,-3.62 7.95,-6.52 12.69,-8.48 4.73,-1.96 9.85,-2.98 14.97,-2.97 5.12,-0.01 10.23,1.01 14.97,2.97 4.73,1.96 9.07,4.86 12.69,8.48 3.62,3.62 6.52,7.96 8.48,12.7 1.96,4.73 2.98,9.84 2.97,14.96 z"
             style="fill:#a2d562;fill-opacity:1;fill-rule:nonzero;stroke:none"
             id="path210" />
          <path
             d="m 6476.96,1786.68 c 0,5.74 -1.14,11.49 -3.34,16.8 -2.2,5.31 -5.45,10.18 -9.52,14.24 -4.06,4.07 -8.93,7.32 -14.24,9.52 -5.31,2.2 -11.06,3.34 -16.8,3.34 -5.75,0 -11.49,-1.14 -16.81,-3.34 -5.3,-2.2 -10.18,-5.45 -14.24,-9.52 -4.06,-4.06 -7.32,-8.93 -9.51,-14.24 -2.21,-5.31 -3.35,-11.06 -3.35,-16.8 0,-5.75 1.14,-11.5 3.35,-16.8 2.19,-5.32 5.45,-10.18 9.51,-14.25 4.06,-4.06 8.94,-7.32 14.24,-9.52 5.32,-2.2 11.06,-3.34 16.81,-3.34 5.74,0 11.49,1.14 16.8,3.34 5.31,2.2 10.18,5.46 14.24,9.52 4.07,4.07 7.32,8.93 9.52,14.25 2.2,5.3 3.34,11.05 3.34,16.8 z"
             style="fill:#ffca00;fill-opacity:1;fill-rule:nonzero;stroke:none"
             id="path212" />
          <path
             d="m 6700.2,912.477 c 0,5.457 -1.08,10.91 -3.17,15.949 -2.08,5.043 -5.17,9.668 -9.04,13.523 -3.85,3.86 -8.48,6.949 -13.52,9.035 -5.04,2.09 -10.49,3.176 -15.95,3.172 -5.46,0.004 -10.91,-1.082 -15.95,-3.172 -5.04,-2.086 -9.67,-5.175 -13.52,-9.035 -3.86,-3.855 -6.95,-8.48 -9.04,-13.523 -2.09,-5.039 -3.17,-10.492 -3.17,-15.949 0,-5.457 1.08,-10.911 3.17,-15.95 2.09,-5.043 5.18,-9.668 9.04,-13.523 3.85,-3.863 8.48,-6.949 13.52,-9.035 5.04,-2.094 10.49,-3.176 15.95,-3.176 5.46,0 10.91,1.082 15.95,3.176 5.04,2.086 9.67,5.172 13.52,9.035 3.87,3.855 6.96,8.48 9.04,13.523 2.09,5.039 3.17,10.493 3.17,15.95 z"
             style="fill:#ce1c00;fill-opacity:1;fill-rule:nonzero;stroke:none"
             id="path214" />
          <g
             id="g216"
             transform="scale(10)">
            <text
               xml:space="preserve"
               transform="matrix(1,0,0,-1,646.682,38.0359)"
               style="font-variant:normal;font-weight:normal;font-size:12px;font-family:Arial;-inkscape-font-specification:Arial;writing-mode:lr-tb;fill:#000000;fill-opacity:1;fill-rule:nonzero;stroke:none"
               id="text220"><tspan
                 x="0 12 24 27.996 34.104"
                 y="0"
                 sodipodi:role="line"
                 id="tspan218">!&quot;#$%</tspan></text>
            <text
               xml:space="preserve"
               transform="matrix(0,1,1,0,475.535,121.438)"
               style="font-variant:normal;font-weight:normal;font-size:12px;font-family:Arial;-inkscape-font-specification:Arial;writing-mode:lr-tb;fill:#000000;fill-opacity:1;fill-rule:nonzero;stroke:none"
               id="text224"><tspan
                 x="0 12 24 27.996 33.948002"
                 y="0"
                 sodipodi:role="line"
                 id="tspan222">!&quot;#&amp;%</tspan></text>
          </g>
          <path
             d="m 6038.24,1727.21 c 0,5.29 -1.05,10.57 -3.07,15.45 -2.03,4.89 -5.02,9.37 -8.76,13.11 -3.73,3.73 -8.21,6.73 -13.1,8.75 -4.88,2.03 -10.17,3.08 -15.45,3.07 -5.29,0.01 -10.57,-1.04 -15.46,-3.07 -4.88,-2.02 -9.36,-5.02 -13.1,-8.75 -3.74,-3.74 -6.73,-8.22 -8.75,-13.11 -2.03,-4.88 -3.08,-10.16 -3.07,-15.45 -0.01,-5.28 1.04,-10.57 3.07,-15.45 2.02,-4.89 5.01,-9.37 8.75,-13.1 3.74,-3.75 8.22,-6.74 13.1,-8.76 4.89,-2.02 10.17,-3.08 15.46,-3.07 5.28,-0.01 10.57,1.05 15.45,3.07 4.89,2.02 9.37,5.01 13.1,8.76 3.74,3.73 6.73,8.21 8.76,13.1 2.02,4.88 3.07,10.17 3.07,15.45 z"
             style="fill:#fffb00;fill-opacity:1;fill-rule:nonzero;stroke:none"
             id="path226" />
          <g
             id="g228"
             transform="scale(10)">
            <text
               xml:space="preserve"
               transform="matrix(1,0,0,-1,575.361,216.555)"
               style="font-variant:normal;font-weight:normal;font-size:12px;font-family:Arial;-inkscape-font-specification:Arial;writing-mode:lr-tb;fill:#000000;fill-opacity:1;fill-rule:nonzero;stroke:none"
               id="text232"><tspan
                 x="0 12 24 36"
                 y="0"
                 sodipodi:role="line"
                 id="tspan230">'(!)</tspan></text>
          </g>
          <path
             d="m 6355.64,1449.48 c 0,5.29 -1.05,10.57 -3.07,15.46 -2.02,4.88 -5.02,9.36 -8.76,13.1 -3.73,3.74 -8.21,6.73 -13.1,8.75 -4.88,2.03 -10.17,3.08 -15.45,3.08 -5.29,0 -10.57,-1.05 -15.46,-3.08 -4.88,-2.02 -9.36,-5.01 -13.1,-8.75 -3.74,-3.74 -6.73,-8.22 -8.75,-13.1 -2.03,-4.89 -3.08,-10.17 -3.07,-15.46 -0.01,-5.28 1.04,-10.57 3.07,-15.45 2.02,-4.88 5.01,-9.36 8.75,-13.1 3.74,-3.74 8.22,-6.73 13.1,-8.75 4.89,-2.03 10.17,-3.08 15.46,-3.08 5.28,0 10.57,1.05 15.45,3.08 4.89,2.02 9.37,5.01 13.1,8.75 3.74,3.74 6.74,8.22 8.76,13.1 2.02,4.88 3.07,10.17 3.07,15.45 z"
             style="fill:#ce1c00;fill-opacity:1;fill-rule:nonzero;stroke:none"
             id="path234" />
          <path
             d="m 5165.39,616.313 c 0,5.285 -1.05,10.57 -3.07,15.453 -2.02,4.882 -5.02,9.363 -8.76,13.101 -3.73,3.738 -8.21,6.731 -13.1,8.754 -4.88,2.024 -10.17,3.074 -15.45,3.07 -5.29,0.004 -10.57,-1.046 -15.46,-3.07 -4.88,-2.023 -9.36,-5.016 -13.1,-8.754 -3.74,-3.738 -6.73,-8.219 -8.75,-13.101 -2.03,-4.883 -3.08,-10.168 -3.07,-15.453 -0.01,-5.29 1.04,-10.575 3.07,-15.458 2.02,-4.882 5.01,-9.363 8.75,-13.101 3.74,-3.738 8.22,-6.731 13.1,-8.754 4.89,-2.023 10.17,-3.074 15.46,-3.07 5.28,-0.004 10.57,1.047 15.45,3.07 4.89,2.023 9.37,5.016 13.1,8.754 3.74,3.738 6.74,8.219 8.76,13.101 2.02,4.883 3.07,10.168 3.07,15.458 z"
             style="fill:#0085cb;fill-opacity:1;fill-rule:nonzero;stroke:none"
             id="path236" />
          <path
             d="M 5123.52,606.793 5927.35,1628.11"
             style="fill:none;stroke:#0085cb;stroke-width:10;stroke-linecap:square;stroke-linejoin:miter;stroke-miterlimit:10;stroke-dasharray:none;stroke-opacity:1"
             id="path238" />
          <path
             d="m 5973.84,1687.18 -24.99,-75.99 -43,33.85 z"
             style="fill:#0085cb;fill-opacity:1;fill-rule:nonzero;stroke:none"
             id="path240" />
          <path
             d="m 5973.84,1687.18 -24.99,-75.99 -43,33.85 z"
             style="fill:none;stroke:#0085cb;stroke-width:2.5;stroke-linecap:square;stroke-linejoin:miter;stroke-miterlimit:10;stroke-dasharray:none;stroke-opacity:1"
             id="path242" />
          <path
             d="m 5950.23,2083.31 h 52.51 v -208.47 h 39.38 l -65.64,-89.34 -65.63,89.34 h 39.38 z"
             style="fill:#000000;fill-opacity:1;fill-rule:nonzero;stroke:none"
             id="path244" />
          <path
             d="m 5522.37,1036.72 c 0.01,7.66 -1.52,15.31 -4.45,22.39 -2.93,7.07 -7.26,13.55 -12.68,18.96 -5.41,5.42 -11.89,9.76 -18.97,12.68 -7.07,2.94 -14.72,4.46 -22.38,4.45 -7.65,0.01 -15.3,-1.51 -22.37,-4.45 -7.08,-2.92 -13.57,-7.26 -18.98,-12.68 -5.41,-5.41 -9.75,-11.89 -12.68,-18.96 -2.93,-7.08 -4.45,-14.73 -4.45,-22.39 0,-7.65 1.52,-15.3 4.45,-22.38 2.93,-7.07 7.27,-13.55 12.68,-18.965 5.41,-5.418 11.9,-9.754 18.98,-12.68 7.07,-2.933 14.72,-4.453 22.37,-4.449 7.66,-0.004 15.31,1.516 22.38,4.449 7.08,2.926 13.56,7.262 18.97,12.68 5.42,5.415 9.75,11.895 12.68,18.965 2.93,7.08 4.46,14.73 4.45,22.38 z"
             style="fill:none;stroke:#000000;stroke-width:10;stroke-linecap:square;stroke-linejoin:miter;stroke-miterlimit:10;stroke-dasharray:none;stroke-opacity:1"
             id="path246" />
          <g
             id="g248"
             transform="scale(10)">
            <text
               xml:space="preserve"
               transform="matrix(1,0,0,-1,629.779,123.623)"
               style="font-variant:normal;font-weight:normal;font-size:18px;font-family:Arial;-inkscape-font-specification:Arial;writing-mode:lr-tb;fill:#000000;fill-opacity:1;fill-rule:nonzero;stroke:none"
               id="text252"><tspan
                 x="0"
                 y="0"
                 id="tspan250">*</tspan></text>
            <text
               xml:space="preserve"
               transform="matrix(1,0,0,-1,641.7856,121.74292)"
               style="font-variant:normal;font-weight:normal;font-size:12px;font-family:Helvetica;-inkscape-font-specification:Helvetica;writing-mode:lr-tb;fill:#000000;fill-opacity:1;fill-rule:nonzero;stroke:none"
               id="text256"><tspan
                 x="0"
                 y="0"
                 id="tspan254">1</tspan></text>
            <text
               xml:space="preserve"
               transform="matrix(1,0,0,-1,518.3636,47.31242)"
               style="font-variant:normal;font-weight:normal;font-size:18px;font-family:Arial;-inkscape-font-specification:Arial;writing-mode:lr-tb;fill:#000000;fill-opacity:1;fill-rule:nonzero;stroke:none"
               id="text260"><tspan
                 x="0"
                 y="0"
                 id="tspan258">*</tspan></text>
            <text
               xml:space="preserve"
               transform="matrix(1,0,0,-1,531.4941,44.72883)"
               style="font-variant:normal;font-weight:normal;font-size:12px;font-family:Helvetica;-inkscape-font-specification:Helvetica;writing-mode:lr-tb;fill:#000000;fill-opacity:1;fill-rule:nonzero;stroke:none"
               id="text264"><tspan
                 x="0"
                 y="0"
                 id="tspan262">2</tspan></text>
            <text
               xml:space="preserve"
               transform="matrix(1,0,0,-1,518.0765,106.85033)"
               style="font-variant:normal;font-weight:normal;font-size:18px;font-family:Arial;-inkscape-font-specification:Arial;writing-mode:lr-tb;fill:#000000;fill-opacity:1;fill-rule:nonzero;stroke:none"
               id="text268"><tspan
                 x="0"
                 y="0"
                 id="tspan266">*</tspan></text>
            <text
               xml:space="preserve"
               transform="matrix(1,0,0,-1,530.2683,104.539)"
               style="font-variant:normal;font-weight:normal;font-size:12px;font-family:Helvetica;-inkscape-font-specification:Helvetica;writing-mode:lr-tb;fill:#000000;fill-opacity:1;fill-rule:nonzero;stroke:none"
               id="text272"><tspan
                 x="0"
                 y="0"
                 id="tspan270">?</tspan></text>
            <text
               xml:space="preserve"
               transform="matrix(1,0,0,-1,50.2263,7.6538)"
               style="font-variant:normal;font-weight:bold;font-size:14px;font-family:'Times New Roman';-inkscape-font-specification:TimesNewRomanPS-BoldMT;writing-mode:lr-tb;fill:#000000;fill-opacity:1;fill-rule:nonzero;stroke:none"
               id="text276"><tspan
                 x="0 4.6620002 11.662 16.323999"
                 y="0"
                 sodipodi:role="line"
                 id="tspan274">(a) </tspan></text>
            <text
               xml:space="preserve"
               transform="matrix(1,0,0,-1,70.0505,7.6538)"
               style="font-variant:normal;font-weight:normal;font-size:14px;font-family:STSong;-inkscape-font-specification:STSong;writing-mode:lr-tb;fill:#000000;fill-opacity:1;fill-rule:nonzero;stroke:none"
               id="text280"><tspan
                 x="0 14 28 42 56 70"
                 y="0"
                 sodipodi:role="line"
                 id="tspan278">!&quot;#$%&amp;</tspan></text>
            <text
               xml:space="preserve"
               transform="matrix(1,0,0,-1,294.5675,7.6538)"
               style="font-variant:normal;font-weight:bold;font-size:14px;font-family:'Times New Roman';-inkscape-font-specification:TimesNewRomanPS-BoldMT;writing-mode:lr-tb;fill:#000000;fill-opacity:1;fill-rule:nonzero;stroke:none"
               id="text284"><tspan
                 x="0 4.6620002 12.448124 17.110125"
                 y="0"
                 sodipodi:role="line"
                 id="tspan282">(b) </tspan></text>
            <text
               xml:space="preserve"
               transform="matrix(1,0,0,-1,315.1777,7.6538)"
               style="font-variant:normal;font-weight:normal;font-size:14px;font-family:STSong;-inkscape-font-specification:STSong;writing-mode:lr-tb;fill:#000000;fill-opacity:1;fill-rule:nonzero;stroke:none"
               id="text288"><tspan
                 x="0 14 28 42 56 70"
                 y="0"
                 sodipodi:role="line"
                 id="tspan286">'()*+,</tspan></text>
            <text
               xml:space="preserve"
               transform="matrix(1,0,0,-1,523.9447,7.6538)"
               style="font-variant:normal;font-weight:normal;font-size:14px;font-family:'Times New Roman';-inkscape-font-specification:TimesNewRomanPSMT;writing-mode:lr-tb;fill:#000000;fill-opacity:1;fill-rule:nonzero;stroke:none"
               id="text292"><tspan
                 x="0 4.6620002 10.875852 15.537851"
                 y="0"
                 sodipodi:role="line"
                 id="tspan290">(c) </tspan></text>
            <text
               xml:space="preserve"
               transform="matrix(1,0,0,-1,542.9686,7.6538)"
               style="font-variant:normal;font-weight:normal;font-size:14px;font-family:STSong;-inkscape-font-specification:STSong;writing-mode:lr-tb;fill:#000000;fill-opacity:1;fill-rule:nonzero;stroke:none"
               id="text296"><tspan
                 x="0 9.478035 18.970036 27.580034 36.190037 50.190037 64.190033 78.190033 92.190033"
                 y="0"
                 sodipodi:role="line"
                 id="tspan294">--../)*+,</tspan></text>
          </g>
        </g>
      </g>
    </g>
  </g>
</svg>
