<?xml version="1.0" encoding="UTF-8" standalone="no"?>
<!-- Created with Inkscape (http://www.inkscape.org/) -->

<svg
   version="1.1"
   id="svg2"
   width="706.66669"
   height="214.66667"
   viewBox="0 0 706.66669 214.66667"
   sodipodi:docname="taa.eps"
   xmlns:inkscape="http://www.inkscape.org/namespaces/inkscape"
   xmlns:sodipodi="http://sodipodi.sourceforge.net/DTD/sodipodi-0.dtd"
   xmlns="http://www.w3.org/2000/svg"
   xmlns:svg="http://www.w3.org/2000/svg">
  <defs
     id="defs6" />
  <sodipodi:namedview
     id="namedview4"
     pagecolor="#ffffff"
     bordercolor="#000000"
     borderopacity="0.25"
     inkscape:showpageshadow="2"
     inkscape:pageopacity="0.0"
     inkscape:pagecheckerboard="0"
     inkscape:deskcolor="#d1d1d1" />
  <g
     id="g8"
     inkscape:groupmode="layer"
     inkscape:label="ink_ext_XXXXXX"
     transform="matrix(1.3333333,0,0,-1.3333333,0,214.66667)">
    <g
       id="g10"
       transform="scale(0.1)">
      <path
         d="m 196.02,1443.98 c 0,40 -60,40 -60,0 0,-40 60,-40 60,0 z"
         style="fill:#ffa500;fill-opacity:1;fill-rule:evenodd;stroke:none"
         id="path12" />
      <path
         d="m 516.02,1443.98 c 0,40 -60,40 -60,0 0,-40 60,-40 60,0 z"
         style="fill:#ff0000;fill-opacity:1;fill-rule:evenodd;stroke:none"
         id="path14" />
      <path
         d="m 196.02,1123.98 c 0,40 -60,40 -60,0 0,-40 60,-40 60,0 z"
         style="fill:#90ee90;fill-opacity:1;fill-rule:evenodd;stroke:none"
         id="path16" />
      <path
         d="m 516.02,1123.98 c 0,40 -60,40 -60,0 0,-40 60,-40 60,0 z"
         style="fill:#0000ff;fill-opacity:1;fill-rule:evenodd;stroke:none"
         id="path18" />
      <path
         d="m 6.01953,963.98 h 640 v 640 h -640 z"
         style="fill:none;stroke:#000000;stroke-width:12;stroke-linecap:butt;stroke-linejoin:round;stroke-miterlimit:10;stroke-dasharray:none;stroke-opacity:1"
         id="path20" />
      <path
         d="m 726.02,1283.98 h 320"
         style="fill:none;stroke:#000000;stroke-width:12;stroke-linecap:butt;stroke-linejoin:round;stroke-miterlimit:10;stroke-dasharray:none;stroke-opacity:1"
         id="path22" />
      <path
         d="m 1046.02,1283.98 -70,23.32 v -46.6 z"
         style="fill:#000000;fill-opacity:1;fill-rule:evenodd;stroke:none"
         id="path24" />
      <path
         d="m 1046.02,1283.98 -70,23.32 v -46.6 z"
         style="fill:none;stroke:#000000;stroke-width:12;stroke-linecap:butt;stroke-linejoin:round;stroke-miterlimit:10;stroke-dasharray:none;stroke-opacity:1"
         id="path26" />
      <g
         id="g28"
         transform="scale(10)">
        <text
           xml:space="preserve"
           transform="matrix(1,0,0,-1,112.6,131.577)"
           style="font-variant:normal;font-size:9.9626px;font-family:f-0;-inkscape-font-specification:f-0-0;writing-mode:lr-tb;fill:#000000;fill-opacity:1;fill-rule:nonzero;stroke:none"
           id="text32"><tspan
             x="0"
             y="0"
             id="tspan30">P</tspan></text>
        <text
           xml:space="preserve"
           transform="matrix(1,0,0,-1,123.116,115.3899)"
           style="font-variant:normal;font-size:20.6625px;font-family:f-1;-inkscape-font-specification:f-1-0;writing-mode:lr-tb;fill:#000000;fill-opacity:1;fill-rule:nonzero;stroke:none"
           id="text36"><tspan
             x="0"
             y="0"
             id="tspan34">i</tspan></text>
        <text
           xml:space="preserve"
           transform="matrix(1,0,0,-1,134.6469,120.3981)"
           style="font-variant:normal;font-size:24.7871px;font-family:f-1;-inkscape-font-specification:f-1-0;writing-mode:lr-tb;fill:#000000;fill-opacity:1;fill-rule:nonzero;stroke:none"
           id="text40"><tspan
             x="0"
             y="0"
             id="tspan38">!</tspan></text>
        <text
           xml:space="preserve"
           transform="matrix(1,0,0,-1,149.7602,115.3899)"
           style="font-variant:normal;font-size:20.6625px;font-family:f-1;-inkscape-font-specification:f-1-0;writing-mode:lr-tb;fill:#000000;fill-opacity:1;fill-rule:nonzero;stroke:none"
           id="text44"><tspan
             x="0"
             y="0"
             id="tspan42">i</tspan></text>
        <text
           xml:space="preserve"
           transform="matrix(1,0,0,-1,157.16098,120.3981)"
           style="font-variant:normal;font-size:24.7871px;font-family:f-1;-inkscape-font-specification:f-1-0;writing-mode:lr-tb;fill:#000000;fill-opacity:1;fill-rule:nonzero;stroke:none"
           id="text48"><tspan
             x="0"
             y="0"
             id="tspan46">C</tspan></text>
        <text
           xml:space="preserve"
           transform="matrix(1,0,0,-1,174.52508,115.3899)"
           style="font-variant:normal;font-size:20.6625px;font-family:f-1;-inkscape-font-specification:f-1-0;writing-mode:lr-tb;fill:#000000;fill-opacity:1;fill-rule:nonzero;stroke:none"
           id="text52"><tspan
             x="0"
             y="0"
             id="tspan50">i</tspan></text>
      </g>
      <path
         d="m 1236.02,723.98 c 0,40 -60,40 -60,0 0,-40 60,-40 60,0 z"
         style="fill:#ffa500;fill-opacity:1;fill-rule:evenodd;stroke:none"
         id="path54" />
      <path
         d="m 1046.02,243.98 h 640 v 640 h -640 z"
         style="fill:none;stroke:#000000;stroke-width:12;stroke-linecap:butt;stroke-linejoin:round;stroke-miterlimit:10;stroke-dasharray:none;stroke-opacity:1"
         id="path56" />
      <g
         id="g58"
         transform="scale(10)">
        <text
           xml:space="preserve"
           transform="matrix(1,0,0,-1,176.6,48.402)"
           style="font-variant:normal;font-size:24.7871px;font-family:f-2;-inkscape-font-specification:f-2-0;writing-mode:lr-tb;fill:#000000;fill-opacity:1;fill-rule:nonzero;stroke:none"
           id="text62"><tspan
             x="0"
             y="0"
             id="tspan60">+</tspan></text>
        <text
           xml:space="preserve"
           transform="matrix(1,0,0,-1,194.4219,48.402)"
           style="font-variant:normal;font-size:24.7871px;font-family:f-1;-inkscape-font-specification:f-1-0;writing-mode:lr-tb;fill:#000000;fill-opacity:1;fill-rule:nonzero;stroke:none"
           id="text66"><tspan
             x="0"
             y="0"
             id="tspan64">!</tspan></text>
        <text
           xml:space="preserve"
           transform="matrix(1,0,0,-1,209.5559,43.61997)"
           style="font-variant:normal;font-size:20.6625px;font-family:f-2;-inkscape-font-specification:f-2-0;writing-mode:lr-tb;fill:#000000;fill-opacity:1;fill-rule:nonzero;stroke:none"
           id="text70"><tspan
             x="0"
             y="0"
             id="tspan68">1</tspan></text>
      </g>
      <path
         d="m 2756.02,723.98 c 0,40 -60,40 -60,0 0,-40 60,-40 60,0 z"
         style="fill:#ff0000;fill-opacity:1;fill-rule:evenodd;stroke:none"
         id="path72" />
      <path
         d="m 2246.02,243.98 h 640 v 640 h -640 z"
         style="fill:none;stroke:#000000;stroke-width:12;stroke-linecap:butt;stroke-linejoin:round;stroke-miterlimit:10;stroke-dasharray:none;stroke-opacity:1"
         id="path74" />
      <g
         id="g76"
         transform="scale(10)">
        <text
           xml:space="preserve"
           transform="matrix(1,0,0,-1,296.6,48.402)"
           style="font-variant:normal;font-size:24.7871px;font-family:f-2;-inkscape-font-specification:f-2-0;writing-mode:lr-tb;fill:#000000;fill-opacity:1;fill-rule:nonzero;stroke:none"
           id="text80"><tspan
             x="0"
             y="0"
             id="tspan78">+</tspan></text>
        <text
           xml:space="preserve"
           transform="matrix(1,0,0,-1,314.4219,48.402)"
           style="font-variant:normal;font-size:24.7871px;font-family:f-1;-inkscape-font-specification:f-1-0;writing-mode:lr-tb;fill:#000000;fill-opacity:1;fill-rule:nonzero;stroke:none"
           id="text84"><tspan
             x="0"
             y="0"
             id="tspan82">!</tspan></text>
        <text
           xml:space="preserve"
           transform="matrix(1,0,0,-1,329.5559,43.61997)"
           style="font-variant:normal;font-size:20.6625px;font-family:f-2;-inkscape-font-specification:f-2-0;writing-mode:lr-tb;fill:#000000;fill-opacity:1;fill-rule:nonzero;stroke:none"
           id="text88"><tspan
             x="0"
             y="0"
             id="tspan86">2</tspan></text>
      </g>
      <path
         d="m 3636.02,403.98 c 0,40 -60,40 -60,0 0,-40 60,-40 60,0 z"
         style="fill:#90ee90;fill-opacity:1;fill-rule:evenodd;stroke:none"
         id="path90" />
      <path
         d="m 3446.02,243.98 h 640 v 640 h -640 z"
         style="fill:none;stroke:#000000;stroke-width:12;stroke-linecap:butt;stroke-linejoin:round;stroke-miterlimit:10;stroke-dasharray:none;stroke-opacity:1"
         id="path92" />
      <g
         id="g94"
         transform="scale(10)">
        <text
           xml:space="preserve"
           transform="matrix(1,0,0,-1,416.6,48.402)"
           style="font-variant:normal;font-size:24.7871px;font-family:f-2;-inkscape-font-specification:f-2-0;writing-mode:lr-tb;fill:#000000;fill-opacity:1;fill-rule:nonzero;stroke:none"
           id="text98"><tspan
             x="0"
             y="0"
             id="tspan96">+</tspan></text>
        <text
           xml:space="preserve"
           transform="matrix(1,0,0,-1,434.4219,48.402)"
           style="font-variant:normal;font-size:24.7871px;font-family:f-1;-inkscape-font-specification:f-1-0;writing-mode:lr-tb;fill:#000000;fill-opacity:1;fill-rule:nonzero;stroke:none"
           id="text102"><tspan
             x="0"
             y="0"
             id="tspan100">!</tspan></text>
        <text
           xml:space="preserve"
           transform="matrix(1,0,0,-1,449.5559,43.61997)"
           style="font-variant:normal;font-size:20.6625px;font-family:f-2;-inkscape-font-specification:f-2-0;writing-mode:lr-tb;fill:#000000;fill-opacity:1;fill-rule:nonzero;stroke:none"
           id="text106"><tspan
             x="0"
             y="0"
             id="tspan104">3</tspan></text>
        <text
           xml:space="preserve"
           transform="matrix(1,0,0,-1,72.5999,48.402)"
           style="font-variant:normal;font-size:24.7871px;font-family:f-1;-inkscape-font-specification:f-1-0;writing-mode:lr-tb;fill:#000000;fill-opacity:1;fill-rule:nonzero;stroke:none"
           id="text110"><tspan
             x="0"
             y="0"
             id="tspan108">!</tspan></text>
        <text
           xml:space="preserve"
           transform="matrix(1,0,0,-1,87.7128,43.61997)"
           style="font-variant:normal;font-size:20.6625px;font-family:f-2;-inkscape-font-specification:f-2-0;writing-mode:lr-tb;fill:#000000;fill-opacity:1;fill-rule:nonzero;stroke:none"
           id="text114"><tspan
             x="0"
             y="0"
             id="tspan112">0</tspan></text>
      </g>
      <path
         d="m 5156.02,403.98 c 0,40 -60,40 -60,0 0,-40 60,-40 60,0 z"
         style="fill:#0000ff;fill-opacity:1;fill-rule:evenodd;stroke:none"
         id="path116" />
      <path
         d="m 4646.02,243.98 h 640 v 640 h -640 z"
         style="fill:none;stroke:#000000;stroke-width:12;stroke-linecap:butt;stroke-linejoin:round;stroke-miterlimit:10;stroke-dasharray:none;stroke-opacity:1"
         id="path118" />
      <g
         id="g120"
         transform="scale(10)">
        <text
           xml:space="preserve"
           transform="matrix(1,0,0,-1,112.6,0.4)"
           style="font-variant:normal;font-size:17.2154px;font-family:f-2;-inkscape-font-specification:f-2-0;writing-mode:lr-tb;fill:#000000;fill-opacity:1;fill-rule:nonzero;stroke:none"
           id="text124"><tspan
             x="0 4.7342348 10.828486 18.71314 32.003429 38.992882 120.00855 124.74279 130.83704 138.72169 152.01198 159.00143 239.99989 244.73413 250.82838 258.71304 272.00333 278.99277 359.99985 364.73407 370.82834 378.71298 392.00327 398.99271"
             y="0"
             sodipodi:role="line"
             id="tspan122">frame0frame1frame2frame3</tspan></text>
      </g>
      <path
         d="m 726.02,1043.98 240,-320"
         style="fill:none;stroke:#000000;stroke-width:12;stroke-linecap:butt;stroke-linejoin:round;stroke-miterlimit:10;stroke-dasharray:none;stroke-opacity:1"
         id="path126" />
      <path
         d="m 966.02,723.98 -23.36,70 -37.308,-27.96 z"
         style="fill:#000000;fill-opacity:1;fill-rule:evenodd;stroke:none"
         id="path128" />
      <path
         d="m 966.02,723.98 -23.36,70 -37.308,-27.96 z"
         style="fill:none;stroke:#000000;stroke-width:12;stroke-linecap:butt;stroke-linejoin:round;stroke-miterlimit:10;stroke-dasharray:none;stroke-opacity:1"
         id="path130" />
    </g>
  </g>
</svg>
