<svg xmlns="http://www.w3.org/2000/svg" xmlns:xlink="http://www.w3.org/1999/xlink" version="1.1" width="416pt" height="220pt" viewBox="0 0 416 220">
<defs>
<clipPath id="clip_0">
<path transform="matrix(.1,0,0,-.1,0,220)" d="M0 0H4157.07V2193.88H0Z"/>
</clipPath>
</defs>
<g clip-path="url(#clip_0)">
<path transform="matrix(.1,0,0,-.1,0,220)" stroke-width="14.1732" stroke-linecap="square" stroke-miterlimit="10" stroke-linejoin="miter" fill="none" stroke="#000000" d="M179.543 13.3047 2715.38 1899.24"/>
<path transform="matrix(.1,0,0,-.1,0,220)" stroke-width="14.1732" stroke-linecap="square" stroke-miterlimit="10" stroke-linejoin="miter" fill="none" stroke="#000000" d="M179.543 13.3047 4147.73 1750.45"/>
<path transform="matrix(.1,0,0,-.1,0,220)" stroke-width="14.1732" stroke-linecap="square" stroke-miterlimit="10" stroke-linejoin="miter" fill="none" stroke="#000000" d="M179.543 13.3047 3427.8 494.418"/>
<path transform="matrix(.1,0,0,-.1,0,220)" stroke-width="14.1732" stroke-linecap="square" stroke-miterlimit="10" stroke-linejoin="miter" fill="none" stroke="#000000" d="M3082 1295.27 3756.78 2078.95"/>
<path transform="matrix(.0575332,-.0392315,.0352154,.068019907,0,220)" stroke-width="28.447" stroke-linecap="square" stroke-miterlimit="10" stroke-linejoin="miter" fill="none" stroke="#000000" d="M4763.43 1993.31C4804.01 1993.33 4844.57 1986.44 4883.94 1973.05 4923.32 1959.7 4961.49 1939.85 4997.49 1914.62 5033.51 1889.4 5067.35 1858.81 5098.42 1824.37 5129.5 1789.92 5157.81 1751.63 5183.13 1711.09 5208.46 1670.53 5230.81 1627.73 5250.29 1584.08 5269.76 1540.43 5286.37 1495.93 5300.4 1451.68 5314.44 1407.42 5325.92 1363.42 5335.24 1320.41 5344.56 1277.4 5351.72 1235.38 5357.15 1194.81 5362.58 1154.23 5366.28 1115.1 5368.63 1077.62 5370.99 1040.15 5372 1004.33 5372 970.233 5371.99 936.129 5370.99 900.312 5368.64 862.838 5366.28 825.364 5362.58 786.229 5357.15 745.649 5351.72 705.08 5344.56 663.063 5335.24 620.048 5325.92 577.047 5314.44 533.04 5300.4 488.78 5286.37 444.534 5269.76 400.04 5250.28 356.384 5230.81 312.735 5208.46 269.936 5183.13 229.38 5157.81 188.83 5129.5 150.543 5098.42 116.099 5067.36 81.6533 5033.51 51.0671 4997.5 25.8496 4961.49 .61499 4923.32-19.2297 4883.94-32.594 4844.57-45.9822 4804-52.8671 4763.43-52.8486 4722.86-52.8643 4682.29-45.9792 4642.92-32.5935 4603.55-19.2291 4565.37 .611694 4529.37 25.8485 4493.35 51.0665 4459.51 81.6493 4428.44 116.099 4397.36 150.545 4369.05 188.827 4343.73 229.379 4318.4 269.934 4296.05 312.734 4276.58 356.384 4257.1 400.04 4240.5 444.538 4226.46 488.781 4212.42 533.036 4200.94 577.045 4191.62 620.047 4182.31 663.067 4175.14 705.082 4169.71 745.654 4164.28 786.23 4160.58 825.366 4158.23 862.835 4155.88 900.311 4154.87 936.133 4154.87 970.233 4154.87 1004.33 4155.88 1040.15 4158.23 1077.63 4160.59 1115.1 4164.28 1154.23 4169.71 1194.81 4175.14 1235.38 4182.31 1277.4 4191.62 1320.42 4200.95 1363.42 4212.42 1407.42 4226.46 1451.68 4240.5 1495.92 4257.1 1540.42 4276.58 1584.08 4296.05 1627.73 4318.4 1670.53 4343.73 1711.09 4369.05 1751.63 4397.36 1789.92 4428.44 1824.37 4459.51 1858.81 4493.35 1889.4 4529.37 1914.62 4565.37 1939.85 4603.54 1959.7 4642.92 1973.05 4682.3 1986.44 4722.86 1993.33 4763.43 1993.31ZM4763.43 1993.31"/>
<text xml:space="preserve" transform="matrix(1 0 -0 1 0 220)" font-size="24" font-family="TimesNewRomanPS" font-style="italic"><tspan y="-13.6797" x="5">Q</tspan><tspan y="-138.1287" x="291.929">P</tspan></text>
<text xml:space="preserve" transform="matrix(1 0 -0 1 0 220)" font-size="24" font-family="TimesNewRomanPSMT"><tspan y="-76.8642" x="311.56529">d</tspan></text>
<text xml:space="preserve" transform="matrix(1 0 -0 1 0 220)" font-size="24" font-family="TimesNewRomanPS" font-style="italic"><tspan y="-76.8642" x="323.56529">A</tspan></text>
<text xml:space="preserve" transform="matrix(1 0 -0 1 0 220)" font-size="24" font-family="TimesNewRomanPS" font-weight="bold" font-style="italic"><tspan y="-198.3882" x="347.08558">n</tspan></text>
<path transform="matrix(.1,0,0,-.1,0,220)" stroke-width="10" stroke-linecap="square" stroke-miterlimit="10" stroke-linejoin="miter" fill="none" stroke="#000000" d="M3534.29 1814.16C3722.95 1783.57 3760.02 1653.56 3759.73 1597.15"/>
<text fill="#333333" xml:space="preserve" transform="matrix(1 0 -0 1 0 220)" font-size="24" font-family="TimesNewRomanPS" font-style="italic"><tspan y="-174.505" x="377.314">&#x03b8;</tspan></text>
</g>
</svg>
