<?xml version="1.0" encoding="UTF-8" standalone="no"?>
<!-- Created with Inkscape (http://www.inkscape.org/) -->

<svg
   version="1.1"
   id="svg2"
   width="544"
   height="314.66666"
   viewBox="0 0 544 314.66666"
   sodipodi:docname="Von-Neumann-Architecture.eps"
   xmlns:inkscape="http://www.inkscape.org/namespaces/inkscape"
   xmlns:sodipodi="http://sodipodi.sourceforge.net/DTD/sodipodi-0.dtd"
   xmlns="http://www.w3.org/2000/svg"
   xmlns:svg="http://www.w3.org/2000/svg">
  <defs
     id="defs6" />
  <sodipodi:namedview
     id="namedview4"
     pagecolor="#ffffff"
     bordercolor="#000000"
     borderopacity="0.25"
     inkscape:showpageshadow="2"
     inkscape:pageopacity="0.0"
     inkscape:pagecheckerboard="0"
     inkscape:deskcolor="#d1d1d1" />
  <g
     id="g8"
     inkscape:groupmode="layer"
     inkscape:label="ink_ext_XXXXXX"
     transform="matrix(1.3333333,0,0,-1.3333333,0,314.66667)">
    <g
       id="g10"
       transform="scale(0.1)">
      <path
         d="M 1160,3.98828 H 2920 V 2348.0083 H 1160 Z"
         style="fill:#65a8a1;fill-opacity:1;fill-rule:nonzero;stroke:none"
         id="path12" />
      <path
         d="M 1160,3.98828 H 2920 V 2348.0083 H 1160 Z"
         style="fill:none;stroke:#000000;stroke-width:16;stroke-linecap:butt;stroke-linejoin:miter;stroke-miterlimit:10;stroke-dasharray:none;stroke-opacity:1"
         id="path14" />
      <path
         d="m 1280,908.012 h 1520 v 1320 H 1280 Z"
         style="fill:#ffffff;fill-opacity:1;fill-rule:nonzero;stroke:none"
         id="path16" />
      <path
         d="m 1280,908.012 h 1520 v 1320 H 1280 Z"
         style="fill:none;stroke:#000000;stroke-width:16;stroke-linecap:butt;stroke-linejoin:miter;stroke-miterlimit:10;stroke-dasharray:none;stroke-opacity:1"
         id="path18" />
      <path
         d="m 1464.65,2042.77 15.66,-4.96 c -2.38,-8.75 -6.4,-15.23 -11.99,-19.49 -5.59,-4.26 -12.7,-6.37 -21.29,-6.37 -10.66,0 -19.41,3.64 -26.25,10.9 -6.87,7.27 -10.27,17.23 -10.27,29.85 0,13.32 3.44,23.71 10.31,31.09 6.91,7.38 15.98,11.05 27.19,11.05 9.8,0 17.77,-2.89 23.9,-8.71 3.64,-3.4 6.37,-8.32 8.21,-14.76 l -16.06,-3.83 c -0.94,4.18 -2.93,7.46 -5.94,9.84 -3,2.42 -6.64,3.64 -10.93,3.64 -5.94,0 -10.78,-2.15 -14.49,-6.41 -3.68,-4.26 -5.55,-11.17 -5.55,-20.74 0,-10.12 1.83,-17.35 5.47,-21.64 3.67,-4.3 8.4,-6.49 14.22,-6.49 4.29,0 8,1.37 11.13,4.14 3.08,2.74 5.31,7.03 6.68,12.89 z"
         style="fill:#000000;fill-opacity:1;fill-rule:nonzero;stroke:none"
         id="path20" />
      <path
         d="m 1527.73,2031.8 15.32,-2.58 c -1.96,-5.63 -5.08,-9.88 -9.34,-12.81 -4.22,-2.93 -9.53,-4.42 -15.94,-4.42 -10.07,0 -17.57,3.32 -22.42,9.92 -3.83,5.28 -5.74,11.96 -5.74,20 0,9.61 2.5,17.15 7.54,22.62 5.04,5.43 11.4,8.17 19.1,8.17 8.63,0 15.47,-2.86 20.47,-8.56 5,-5.7 7.38,-14.45 7.15,-26.21 h -38.52 c 0.12,-4.57 1.37,-8.13 3.75,-10.66 2.35,-2.54 5.31,-3.79 8.83,-3.79 2.42,0 4.45,0.66 6.09,1.95 1.64,1.33 2.89,3.44 3.71,6.37 z m 0.9,15.54 c -0.11,4.42 -1.29,7.82 -3.47,10.12 -2.19,2.31 -4.85,3.48 -7.97,3.48 -3.36,0 -6.14,-1.21 -8.32,-3.67 -2.19,-2.43 -3.25,-5.75 -3.21,-9.93 z"
         style="fill:#000000;fill-opacity:1;fill-rule:nonzero;stroke:none"
         id="path22" />
      <path
         d="m 1609.22,2013.32 h -15.35 v 29.65 c 0,6.25 -0.35,10.31 -0.98,12.15 -0.66,1.83 -1.76,3.28 -3.2,4.29 -1.49,1.02 -3.28,1.53 -5.35,1.53 -2.66,0 -5.04,-0.71 -7.15,-2.19 -2.15,-1.45 -3.6,-3.4 -4.38,-5.78 -0.78,-2.42 -1.17,-6.88 -1.17,-13.36 v -26.29 h -15.35 v 58.09 h 14.26 v -8.56 c 5.07,6.56 11.44,9.85 19.14,9.85 3.4,0 6.48,-0.59 9.29,-1.84 2.82,-1.21 4.93,-2.77 6.37,-4.65 1.45,-1.91 2.46,-4.06 3.01,-6.48 0.59,-2.39 0.86,-5.82 0.86,-10.32 z"
         style="fill:#000000;fill-opacity:1;fill-rule:nonzero;stroke:none"
         id="path24" />
      <path
         d="m 1651.45,2071.37 v -12.23 h -10.51 v -23.4 c 0,-4.76 0.11,-7.5 0.31,-8.32 0.2,-0.78 0.66,-1.4 1.37,-1.91 0.7,-0.51 1.56,-0.78 2.61,-0.78 1.41,0 3.48,0.5 6.18,1.48 l 1.29,-11.91 c -3.56,-1.53 -7.62,-2.31 -12.15,-2.31 -2.78,0 -5.28,0.47 -7.5,1.41 -2.19,0.9 -3.83,2.11 -4.89,3.59 -1.05,1.49 -1.75,3.48 -2.14,5.98 -0.36,1.8 -0.51,5.39 -0.51,10.86 v 25.31 h -7.07 v 12.23 h 7.07 v 11.56 l 15.43,8.95 v -20.51 z"
         style="fill:#000000;fill-opacity:1;fill-rule:nonzero;stroke:none"
         id="path26" />
      <path
         d="m 1676.84,2013.32 h -15.39 v 58.09 h 14.29 v -8.29 c 2.42,3.91 4.61,6.49 6.56,7.74 1.96,1.21 4.18,1.84 6.68,1.84 3.48,0 6.88,-0.98 10.12,-2.9 l -4.76,-13.39 c -2.62,1.68 -5,2.5 -7.23,2.5 -2.15,0 -3.99,-0.59 -5.47,-1.76 -1.48,-1.17 -2.66,-3.32 -3.52,-6.45 -0.85,-3.08 -1.28,-9.57 -1.28,-19.45 z"
         style="fill:#000000;fill-opacity:1;fill-rule:nonzero;stroke:none"
         id="path28" />
      <path
         d="m 1717.19,2053.67 -13.95,2.5 c 1.56,5.63 4.26,9.77 8.09,12.46 3.83,2.74 9.53,4.07 17.07,4.07 6.83,0 11.95,-0.82 15.31,-2.43 3.36,-1.64 5.7,-3.67 7.07,-6.17 1.37,-2.5 2.03,-7.11 2.03,-13.75 l -0.15,-17.97 c 0,-5.08 0.27,-8.83 0.74,-11.29 0.51,-2.42 1.4,-5 2.77,-7.77 h -15.19 c -0.43,1.02 -0.9,2.54 -1.49,4.53 -0.27,0.9 -0.47,1.53 -0.54,1.8 -2.62,-2.54 -5.43,-4.45 -8.44,-5.74 -2.97,-1.29 -6.17,-1.92 -9.57,-1.92 -5.98,0 -10.67,1.64 -14.14,4.89 -3.44,3.24 -5.16,7.34 -5.16,12.3 0,3.28 0.78,6.21 2.34,8.75 1.57,2.58 3.79,4.53 6.61,5.94 2.81,1.36 6.87,2.54 12.22,3.55 7.19,1.37 12.15,2.62 14.92,3.79 v 1.52 c 0,2.97 -0.74,5.04 -2.18,6.33 -1.45,1.25 -4.22,1.88 -8.25,1.88 -2.73,0 -4.88,-0.55 -6.4,-1.6 -1.52,-1.1 -2.78,-2.97 -3.71,-5.67 z m 20.54,-12.46 c -1.95,-0.66 -5.07,-1.44 -9.33,-2.34 -4.26,-0.94 -7.07,-1.84 -8.36,-2.7 -2.03,-1.44 -3.01,-3.24 -3.01,-5.43 0,-2.15 0.78,-3.98 2.38,-5.54 1.61,-1.61 3.68,-2.39 6.14,-2.39 2.77,0 5.43,0.94 7.93,2.74 1.87,1.4 3.08,3.08 3.67,5.11 0.39,1.29 0.58,3.79 0.58,7.46 z"
         style="fill:#000000;fill-opacity:1;fill-rule:nonzero;stroke:none"
         id="path30" />
      <path
         d="m 1767.97,2013.32 h 15.3906 v 80.1602 H 1767.97 Z"
         style="fill:#000000;fill-opacity:1;fill-rule:nonzero;stroke:none"
         id="path32" />
      <path
         d="m 1830.31,2013.32 v 80.16 h 25.98 c 9.84,0 16.29,-0.39 19.26,-1.21 4.61,-1.18 8.43,-3.83 11.52,-7.86 3.13,-4.02 4.65,-9.21 4.65,-15.58 0,-4.92 -0.86,-9.06 -2.66,-12.42 -1.79,-3.36 -4.06,-6.02 -6.79,-7.93 -2.78,-1.88 -5.59,-3.17 -8.4,-3.79 -3.87,-0.74 -9.49,-1.14 -16.8,-1.14 h -10.55 v -30.23 z m 16.21,66.6 v -22.73 h 8.83 c 6.41,0 10.67,0.39 12.81,1.25 2.15,0.82 3.83,2.15 5.08,3.9 1.21,1.8 1.8,3.87 1.8,6.25 0,2.93 -0.82,5.32 -2.54,7.23 -1.72,1.88 -3.91,3.09 -6.52,3.56 -1.92,0.35 -5.82,0.54 -11.64,0.54 z"
         style="fill:#000000;fill-opacity:1;fill-rule:nonzero;stroke:none"
         id="path34" />
      <path
         d="m 1919.65,2013.32 h -15.39 v 58.09 h 14.29 v -8.29 c 2.43,3.91 4.61,6.49 6.57,7.74 1.95,1.21 4.18,1.84 6.64,1.84 3.51,0 6.87,-0.98 10.15,-2.9 l -4.76,-13.39 c -2.62,1.68 -5,2.5 -7.23,2.5 -2.15,0 -3.98,-0.59 -5.47,-1.76 -1.48,-1.17 -2.69,-3.32 -3.51,-6.45 -0.86,-3.08 -1.29,-9.57 -1.29,-19.45 z"
         style="fill:#000000;fill-opacity:1;fill-rule:nonzero;stroke:none"
         id="path36" />
      <path
         d="m 1944.96,2043.16 c 0,5.12 1.25,10.04 3.75,14.85 2.54,4.76 6.09,8.4 10.7,10.94 4.61,2.5 9.77,3.75 15.47,3.75 8.75,0 15.98,-2.86 21.57,-8.56 5.62,-5.7 8.43,-12.89 8.43,-21.64 0,-8.79 -2.81,-16.05 -8.51,-21.84 -5.67,-5.78 -12.78,-8.67 -21.41,-8.67 -5.31,0 -10.39,1.21 -15.23,3.63 -4.81,2.39 -8.48,5.94 -11.02,10.59 -2.5,4.65 -3.75,10.27 -3.75,16.95 z m 15.74,-0.82 c 0,-5.74 1.37,-10.15 4.1,-13.24 2.74,-3.05 6.1,-4.57 10.12,-4.57 4.03,0 7.38,1.52 10.08,4.57 2.73,3.09 4.1,7.54 4.1,13.36 0,5.66 -1.37,10.08 -4.1,13.13 -2.7,3.04 -6.05,4.61 -10.08,4.61 -3.98,0 -7.38,-1.57 -10.12,-4.61 -2.73,-3.05 -4.1,-7.47 -4.1,-13.25 z"
         style="fill:#000000;fill-opacity:1;fill-rule:nonzero;stroke:none"
         id="path38" />
      <path
         d="m 2067.58,2054.22 -15.16,-2.74 c -0.51,3.01 -1.68,5.32 -3.47,6.84 -1.84,1.52 -4.18,2.3 -7.04,2.3 -3.82,0 -6.87,-1.32 -9.18,-3.98 -2.26,-2.66 -3.39,-7.07 -3.39,-13.28 0,-6.88 1.13,-11.76 3.47,-14.57 2.31,-2.85 5.43,-4.26 9.3,-4.26 2.93,0 5.31,0.82 7.19,2.46 1.83,1.68 3.16,4.53 3.94,8.56 l 15.08,-2.54 c -1.56,-6.96 -4.57,-12.19 -9.02,-15.71 -4.46,-3.55 -10.43,-5.31 -17.89,-5.31 -8.48,0 -15.28,2.7 -20.32,8.05 -5.04,5.35 -7.57,12.77 -7.57,22.26 0,9.58 2.53,17.04 7.61,22.39 5.04,5.31 11.92,8.01 20.55,8.01 7.07,0 12.7,-1.53 16.87,-4.58 4.18,-3.04 7.19,-7.69 9.03,-13.9 z"
         style="fill:#000000;fill-opacity:1;fill-rule:nonzero;stroke:none"
         id="path40" />
      <path
         d="m 2112.85,2031.8 15.31,-2.58 c -1.99,-5.63 -5.07,-9.88 -9.33,-12.81 -4.26,-2.93 -9.57,-4.42 -15.94,-4.42 -10.12,0 -17.58,3.32 -22.42,9.92 -3.83,5.28 -5.74,11.96 -5.74,20 0,9.61 2.5,17.15 7.54,22.62 5.03,5.43 11.4,8.17 19.1,8.17 8.63,0 15.43,-2.86 20.43,-8.56 5,-5.7 7.38,-14.45 7.18,-26.21 h -38.51 c 0.12,-4.57 1.37,-8.13 3.71,-10.66 2.38,-2.54 5.35,-3.79 8.87,-3.79 2.42,0 4.41,0.66 6.05,1.95 1.64,1.33 2.89,3.44 3.75,6.37 z m 0.86,15.54 c -0.12,4.42 -1.25,7.82 -3.44,10.12 -2.18,2.31 -4.84,3.48 -7.97,3.48 -3.35,0 -6.13,-1.21 -8.32,-3.67 -2.18,-2.43 -3.28,-5.75 -3.24,-9.93 z"
         style="fill:#000000;fill-opacity:1;fill-rule:nonzero;stroke:none"
         id="path42" />
      <path
         d="m 2136.09,2029.88 15.43,2.35 c 0.67,-2.97 2,-5.24 3.99,-6.8 1.99,-1.56 4.8,-2.34 8.44,-2.34 3.94,0 6.95,0.74 8.94,2.18 1.37,1.02 2.03,2.39 2.03,4.11 0,1.17 -0.35,2.14 -1.09,2.89 -0.78,0.74 -2.5,1.4 -5.16,2.03 -12.38,2.73 -20.23,5.23 -23.55,7.5 -4.61,3.12 -6.88,7.5 -6.88,13.08 0,5.04 1.96,9.26 5.94,12.7 3.98,3.4 10.16,5.12 18.48,5.12 7.96,0 13.86,-1.29 17.73,-3.87 3.87,-2.58 6.52,-6.41 7.97,-11.49 l -14.49,-2.69 c -0.63,2.26 -1.8,3.98 -3.52,5.19 -1.72,1.21 -4.22,1.8 -7.42,1.8 -4.02,0 -6.91,-0.55 -8.67,-1.68 -1.17,-0.82 -1.76,-1.84 -1.76,-3.12 0,-1.1 0.51,-2.04 1.52,-2.78 1.37,-1.01 6.18,-2.46 14.34,-4.33 8.2,-1.84 13.91,-4.14 17.19,-6.84 3.2,-2.73 4.8,-6.52 4.8,-11.44 0,-5.32 -2.23,-9.89 -6.68,-13.72 -4.45,-3.82 -11.01,-5.74 -19.76,-5.74 -7.89,0 -14.14,1.6 -18.79,4.81 -4.61,3.2 -7.62,7.58 -9.03,13.08 z"
         style="fill:#000000;fill-opacity:1;fill-rule:nonzero;stroke:none"
         id="path44" />
      <path
         d="m 2198.36,2029.88 15.43,2.35 c 0.66,-2.97 1.99,-5.24 3.98,-6.8 2.03,-1.56 4.85,-2.34 8.44,-2.34 3.99,0 6.95,0.74 8.99,2.18 1.32,1.02 2.03,2.39 2.03,4.11 0,1.17 -0.39,2.14 -1.14,2.89 -0.74,0.74 -2.46,1.4 -5.11,2.03 -12.39,2.73 -20.28,5.23 -23.6,7.5 -4.57,3.12 -6.87,7.5 -6.87,13.08 0,5.04 1.99,9.26 5.97,12.7 3.95,3.4 10.12,5.12 18.48,5.12 7.97,0 13.87,-1.29 17.74,-3.87 3.86,-2.58 6.52,-6.41 7.96,-11.49 l -14.49,-2.69 c -0.62,2.26 -1.79,3.98 -3.51,5.19 -1.76,1.21 -4.22,1.8 -7.43,1.8 -4.06,0 -6.95,-0.55 -8.71,-1.68 -1.17,-0.82 -1.75,-1.84 -1.75,-3.12 0,-1.1 0.54,-2.04 1.56,-2.78 1.37,-1.01 6.13,-2.46 14.33,-4.33 8.21,-1.84 13.91,-4.14 17.15,-6.84 3.21,-2.73 4.81,-6.52 4.81,-11.44 0,-5.32 -2.19,-9.89 -6.64,-13.72 -4.46,-3.82 -11.06,-5.74 -19.77,-5.74 -7.89,0 -14.18,1.6 -18.79,4.81 -4.61,3.2 -7.62,7.58 -9.06,13.08 z"
         style="fill:#000000;fill-opacity:1;fill-rule:nonzero;stroke:none"
         id="path46" />
      <path
         d="m 2266.09,2093.48 h 15.3594 v -14.2188 H 2266.09 Z m 0,-22.07 h 15.3594 v -58.0898 H 2266.09 Z"
         style="fill:#000000;fill-opacity:1;fill-rule:nonzero;stroke:none"
         id="path48" />
      <path
         d="m 2350.04,2013.32 h -15.39 v 29.65 c 0,6.25 -0.31,10.31 -0.98,12.15 -0.66,1.83 -1.72,3.28 -3.2,4.29 -1.49,1.02 -3.24,1.53 -5.31,1.53 -2.66,0 -5.08,-0.71 -7.19,-2.19 -2.11,-1.45 -3.56,-3.4 -4.34,-5.78 -0.78,-2.42 -1.17,-6.88 -1.17,-13.36 v -26.29 h -15.39 v 58.09 h 14.3 v -8.56 c 5.04,6.56 11.44,9.85 19.14,9.85 3.4,0 6.48,-0.59 9.29,-1.84 2.82,-1.21 4.93,-2.77 6.37,-4.65 1.45,-1.91 2.46,-4.06 3.01,-6.48 0.55,-2.39 0.86,-5.82 0.86,-10.32 z"
         style="fill:#000000;fill-opacity:1;fill-rule:nonzero;stroke:none"
         id="path50" />
      <path
         d="m 2364.18,2009.49 17.54,-2.15 c 0.31,-2.03 0.98,-3.43 2.03,-4.22 1.48,-1.09 3.75,-1.64 6.91,-1.64 3.99,0 7,0.63 9.03,1.84 1.33,0.78 2.34,2.07 3.04,3.87 0.47,1.29 0.71,3.63 0.71,7.07 v 8.47 c -4.57,-6.28 -10.39,-9.41 -17.39,-9.41 -7.81,0 -13.98,3.28 -18.51,9.88 -3.59,5.24 -5.39,11.72 -5.39,19.5 0,9.72 2.34,17.14 7.03,22.3 4.69,5.12 10.51,7.7 17.5,7.7 7.15,0 13.09,-3.13 17.77,-9.46 v 8.17 h 14.38 v -52.15 c 0,-6.84 -0.59,-11.96 -1.72,-15.35 -1.09,-3.4 -2.7,-6.06 -4.73,-7.97 -2.07,-1.96 -4.76,-3.48 -8.2,-4.57 -3.4,-1.1 -7.7,-1.64 -12.93,-1.64 -9.84,0 -16.8,1.72 -20.94,5.07 -4.1,3.36 -6.17,7.66 -6.17,12.82 0,0.5 0,1.13 0.04,1.87 z m 13.75,34.06 c 0,-6.17 1.17,-10.66 3.55,-13.55 2.39,-2.85 5.36,-4.3 8.83,-4.3 3.75,0 6.96,1.49 9.53,4.42 2.58,2.93 3.87,7.26 3.87,13.04 0,6.02 -1.25,10.47 -3.71,13.4 -2.46,2.93 -5.62,4.38 -9.41,4.38 -3.68,0 -6.72,-1.45 -9.11,-4.3 -2.38,-2.85 -3.55,-7.23 -3.55,-13.09 z"
         style="fill:#000000;fill-opacity:1;fill-rule:nonzero;stroke:none"
         id="path52" />
      <path
         d="m 2465.16,2093.48 h 16.17 v -43.44 c 0,-6.88 0.19,-11.33 0.58,-13.4 0.71,-3.28 2.35,-5.9 4.97,-7.89 2.61,-1.99 6.17,-2.97 10.7,-2.97 4.57,0 8.04,0.94 10.39,2.81 2.34,1.88 3.75,4.18 4.22,6.92 0.43,2.73 0.7,7.26 0.7,13.59 v 44.38 h 16.17 v -42.11 c 0,-9.65 -0.43,-16.45 -1.33,-20.39 -0.85,-3.99 -2.46,-7.35 -4.8,-10.08 -2.38,-2.74 -5.51,-4.92 -9.45,-6.52 -3.95,-1.65 -9.07,-2.47 -15.43,-2.47 -7.66,0 -13.44,0.9 -17.43,2.66 -3.94,1.8 -7.07,4.06 -9.37,6.91 -2.3,2.82 -3.83,5.79 -4.53,8.87 -1.06,4.61 -1.6,11.37 -1.6,20.35 v 42.78 z"
         style="fill:#000000;fill-opacity:1;fill-rule:nonzero;stroke:none"
         id="path54" />
      <path
         d="m 2598.87,2013.32 h -15.39 v 29.65 c 0,6.25 -0.32,10.31 -0.98,12.15 -0.66,1.83 -1.72,3.28 -3.2,4.29 -1.49,1.02 -3.25,1.53 -5.32,1.53 -2.65,0 -5.07,-0.71 -7.18,-2.19 -2.11,-1.45 -3.56,-3.4 -4.34,-5.78 -0.78,-2.42 -1.17,-6.88 -1.17,-13.36 v -26.29 h -15.39 v 58.09 h 14.3 v -8.56 c 5.03,6.56 11.44,9.85 19.14,9.85 3.39,0 6.48,-0.59 9.29,-1.84 2.82,-1.21 4.92,-2.77 6.37,-4.65 1.45,-1.91 2.42,-4.06 3.01,-6.48 0.54,-2.39 0.86,-5.82 0.86,-10.32 z"
         style="fill:#000000;fill-opacity:1;fill-rule:nonzero;stroke:none"
         id="path56" />
      <path
         d="m 2614.45,2093.48 h 15.3516 v -14.2188 H 2614.45 Z m 0,-22.07 h 15.3516 v -58.0898 H 2614.45 Z"
         style="fill:#000000;fill-opacity:1;fill-rule:nonzero;stroke:none"
         id="path58" />
      <path
         d="m 2672.19,2071.37 v -12.23 h -10.51 v -23.4 c 0,-4.76 0.12,-7.5 0.31,-8.32 0.2,-0.78 0.63,-1.4 1.37,-1.91 0.7,-0.51 1.56,-0.78 2.58,-0.78 1.44,0 3.47,0.5 6.17,1.48 l 1.33,-11.91 c -3.56,-1.53 -7.62,-2.31 -12.15,-2.31 -2.77,0 -5.27,0.47 -7.5,1.41 -2.23,0.9 -3.87,2.11 -4.88,3.59 -1.06,1.49 -1.76,3.48 -2.19,5.98 -0.31,1.8 -0.47,5.39 -0.47,10.86 v 25.31 h -7.07 v 12.23 h 7.07 v 11.56 l 15.43,8.95 v -20.51 z"
         style="fill:#000000;fill-opacity:1;fill-rule:nonzero;stroke:none"
         id="path60" />
      <path
         d="m 1408.01,1523.98 h 1280 V 1860 h -1280 z"
         style="fill:#f99dcb;fill-opacity:1;fill-rule:nonzero;stroke:none"
         id="path62" />
      <path
         d="m 1408.01,1523.98 h 1280 V 1860 h -1280 z"
         style="fill:none;stroke:#000000;stroke-width:16;stroke-linecap:butt;stroke-linejoin:miter;stroke-miterlimit:10;stroke-dasharray:none;stroke-opacity:1"
         id="path64" />
      <path
         d="m 1783.98,1690.78 15.67,-4.96 c -2.38,-8.75 -6.41,-15.27 -11.99,-19.49 -5.59,-4.26 -12.7,-6.37 -21.29,-6.37 -10.67,0 -19.42,3.63 -26.25,10.9 -6.88,7.26 -10.28,17.23 -10.28,29.84 0,13.32 3.44,23.68 10.32,31.06 6.91,7.38 15.97,11.09 27.18,11.09 9.81,0 17.78,-2.89 23.91,-8.71 3.63,-3.4 6.37,-8.32 8.2,-14.76 l -16.05,-3.83 c -0.94,4.18 -2.93,7.46 -5.94,9.84 -3.01,2.38 -6.64,3.59 -10.94,3.59 -5.93,0 -10.78,-2.1 -14.49,-6.36 -3.67,-4.3 -5.55,-11.21 -5.55,-20.74 0,-10.16 1.84,-17.35 5.47,-21.65 3.67,-4.33 8.4,-6.48 14.22,-6.48 4.3,0 8.01,1.37 11.13,4.1 3.09,2.74 5.32,7.07 6.68,12.93 z"
         style="fill:#000000;fill-opacity:1;fill-rule:nonzero;stroke:none"
         id="path66" />
      <path
         d="m 1809.88,1691.17 c 0,5.12 1.25,10.04 3.79,14.81 2.5,4.8 6.06,8.43 10.67,10.93 4.61,2.54 9.76,3.79 15.46,3.79 8.79,0 15.98,-2.85 21.61,-8.55 5.58,-5.7 8.39,-12.93 8.39,-21.64 0,-8.79 -2.81,-16.06 -8.47,-21.84 -5.67,-5.78 -12.81,-8.67 -21.41,-8.67 -5.35,0 -10.39,1.21 -15.23,3.59 -4.85,2.43 -8.52,5.94 -11.02,10.59 -2.54,4.65 -3.79,10.31 -3.79,16.99 z m 15.74,-0.82 c 0,-5.78 1.37,-10.15 4.11,-13.24 2.73,-3.05 6.13,-4.57 10.15,-4.57 3.99,0 7.35,1.52 10.08,4.57 2.7,3.09 4.06,7.5 4.06,13.36 0,5.66 -1.36,10.04 -4.06,13.12 -2.73,3.05 -6.09,4.57 -10.08,4.57 -4.02,0 -7.42,-1.52 -10.15,-4.57 -2.74,-3.08 -4.11,-7.5 -4.11,-13.24 z"
         style="fill:#000000;fill-opacity:1;fill-rule:nonzero;stroke:none"
         id="path68" />
      <path
         d="m 1934.69,1661.33 h -15.35 v 29.61 c 0,6.29 -0.36,10.35 -1.02,12.18 -0.62,1.84 -1.72,3.29 -3.2,4.3 -1.45,1.02 -3.24,1.53 -5.32,1.53 -2.65,0 -5.03,-0.75 -7.18,-2.19 -2.11,-1.45 -3.56,-3.4 -4.34,-5.78 -0.78,-2.43 -1.17,-6.88 -1.17,-13.36 v -26.29 h -15.35 v 58.05 h 14.26 v -8.52 c 5.07,6.56 11.44,9.84 19.14,9.84 3.39,0 6.48,-0.62 9.29,-1.83 2.82,-1.21 4.93,-2.78 6.37,-4.65 1.45,-1.92 2.46,-4.06 3.01,-6.49 0.58,-2.38 0.86,-5.82 0.86,-10.31 z"
         style="fill:#000000;fill-opacity:1;fill-rule:nonzero;stroke:none"
         id="path70" />
      <path
         d="m 1976.91,1719.38 v -12.23 h -10.5 v -23.44 c 0,-4.73 0.11,-7.5 0.31,-8.28 0.19,-0.78 0.62,-1.41 1.37,-1.95 0.7,-0.51 1.56,-0.75 2.57,-0.75 1.45,0 3.48,0.51 6.18,1.49 l 1.32,-11.92 c -3.59,-1.56 -7.61,-2.3 -12.14,-2.3 -2.78,0 -5.28,0.47 -7.5,1.37 -2.23,0.93 -3.87,2.15 -4.89,3.63 -1.05,1.45 -1.75,3.48 -2.18,5.98 -0.32,1.79 -0.47,5.39 -0.47,10.82 v 25.35 h -7.07 v 12.23 h 7.07 v 11.56 l 15.43,8.94 v -20.5 z"
         style="fill:#000000;fill-opacity:1;fill-rule:nonzero;stroke:none"
         id="path72" />
      <path
         d="m 2002.27,1661.33 h -15.36 v 58.05 h 14.26 v -8.25 c 2.46,3.91 4.65,6.49 6.6,7.74 1.96,1.21 4.18,1.83 6.64,1.83 3.52,0 6.88,-0.97 10.12,-2.89 l -4.76,-13.4 c -2.58,1.68 -5,2.5 -7.19,2.5 -2.15,0 -3.99,-0.58 -5.47,-1.75 -1.52,-1.21 -2.7,-3.36 -3.56,-6.45 -0.85,-3.09 -1.28,-9.57 -1.28,-19.45 z"
         style="fill:#000000;fill-opacity:1;fill-rule:nonzero;stroke:none"
         id="path74" />
      <path
         d="m 2027.62,1691.17 c 0,5.12 1.25,10.04 3.75,14.81 2.54,4.8 6.09,8.43 10.7,10.93 4.61,2.54 9.77,3.79 15.47,3.79 8.75,0 15.98,-2.85 21.56,-8.55 5.63,-5.7 8.44,-12.93 8.44,-21.64 0,-8.79 -2.81,-16.06 -8.52,-21.84 -5.66,-5.78 -12.77,-8.67 -21.4,-8.67 -5.32,0 -10.39,1.21 -15.24,3.59 -4.8,2.43 -8.47,5.94 -11.01,10.59 -2.5,4.65 -3.75,10.31 -3.75,16.99 z m 15.74,-0.82 c 0,-5.78 1.37,-10.15 4.1,-13.24 2.74,-3.05 6.09,-4.57 10.12,-4.57 4.02,0 7.38,1.52 10.08,4.57 2.73,3.09 4.1,7.5 4.1,13.36 0,5.66 -1.37,10.04 -4.1,13.12 -2.7,3.05 -6.06,4.57 -10.08,4.57 -4.03,0 -7.38,-1.52 -10.12,-4.57 -2.73,-3.08 -4.1,-7.5 -4.1,-13.24 z"
         style="fill:#000000;fill-opacity:1;fill-rule:nonzero;stroke:none"
         id="path76" />
      <path
         d="m 2099.57,1661.32 h 15.3516 v 80.1602 H 2099.57 Z"
         style="fill:#000000;fill-opacity:1;fill-rule:nonzero;stroke:none"
         id="path78" />
      <path
         d="m 2161.8,1741.48 h 16.21 v -43.43 c 0,-6.88 0.19,-11.33 0.58,-13.4 0.71,-3.28 2.35,-5.9 4.96,-7.89 2.58,-1.99 6.18,-3.01 10.67,-3.01 4.61,0 8.08,0.94 10.39,2.85 2.34,1.88 3.75,4.18 4.22,6.92 0.47,2.73 0.7,7.26 0.7,13.59 v 44.37 h 16.21 v -42.1 c 0,-9.65 -0.47,-16.45 -1.33,-20.43 -0.86,-3.95 -2.5,-7.31 -4.84,-10.04 -2.34,-2.74 -5.51,-4.93 -9.41,-6.57 -3.95,-1.6 -9.11,-2.42 -15.43,-2.42 -7.66,0 -13.48,0.9 -17.43,2.66 -3.94,1.76 -7.07,4.06 -9.37,6.87 -2.31,2.85 -3.83,5.82 -4.53,8.91 -1.1,4.61 -1.6,11.37 -1.6,20.35 z"
         style="fill:#000000;fill-opacity:1;fill-rule:nonzero;stroke:none"
         id="path80" />
      <path
         d="m 2295.51,1661.33 h -15.35 v 29.61 c 0,6.29 -0.36,10.35 -1.02,12.18 -0.62,1.84 -1.72,3.29 -3.16,4.3 -1.49,1.02 -3.28,1.53 -5.36,1.53 -2.65,0 -5.03,-0.75 -7.14,-2.19 -2.11,-1.45 -3.56,-3.4 -4.38,-5.78 -0.78,-2.43 -1.17,-6.88 -1.17,-13.36 v -26.29 h -15.35 v 58.05 h 14.26 v -8.52 c 5.07,6.56 11.44,9.84 19.14,9.84 3.4,0 6.52,-0.62 9.29,-1.83 2.82,-1.21 4.96,-2.78 6.37,-4.65 1.45,-1.92 2.46,-4.06 3.05,-6.49 0.54,-2.38 0.82,-5.82 0.82,-10.31 z"
         style="fill:#000000;fill-opacity:1;fill-rule:nonzero;stroke:none"
         id="path82" />
      <path
         d="m 2311.09,1741.48 h 15.3906 v -14.2109 H 2311.09 Z m 0,-22.1 h 15.3906 v -58.0508 H 2311.09 Z"
         style="fill:#000000;fill-opacity:1;fill-rule:nonzero;stroke:none"
         id="path84" />
      <path
         d="m 2368.87,1719.38 v -12.23 h -10.51 v -23.44 c 0,-4.73 0.08,-7.5 0.27,-8.28 0.2,-0.78 0.67,-1.41 1.37,-1.95 0.74,-0.51 1.6,-0.75 2.62,-0.75 1.4,0 3.47,0.51 6.17,1.49 l 1.29,-11.92 c -3.56,-1.56 -7.62,-2.3 -12.11,-2.3 -2.77,0 -5.27,0.47 -7.5,1.37 -2.23,0.93 -3.87,2.15 -4.92,3.63 -1.02,1.48 -1.76,3.48 -2.15,5.98 -0.31,1.79 -0.51,5.39 -0.51,10.82 v 25.35 h -7.03 v 12.23 h 7.03 v 11.56 l 15.43,8.94 v -20.5 z"
         style="fill:#000000;fill-opacity:1;fill-rule:nonzero;stroke:none"
         id="path86" />
      <path
         d="M 1400,1043.98 H 2680 V 1380 H 1400 Z"
         style="fill:#f99dcb;fill-opacity:1;fill-rule:nonzero;stroke:none"
         id="path88" />
      <path
         d="M 1400,1043.98 H 2680 V 1380 H 1400 Z"
         style="fill:none;stroke:#000000;stroke-width:16;stroke-linecap:butt;stroke-linejoin:miter;stroke-miterlimit:10;stroke-dasharray:none;stroke-opacity:1"
         id="path90" />
      <path
         d="m 1554.22,1181.33 h -17.62 l -6.99,18.2 h -32.07 l -6.6,-18.2 h -17.19 l 31.25,80.15 h 17.11 z m -29.81,31.68 -11.05,29.76 -10.82,-29.76 z"
         style="fill:#000000;fill-opacity:1;fill-rule:nonzero;stroke:none"
         id="path92" />
      <path
         d="m 1577.38,1181.33 h -15.35 v 58.05 h 14.26 v -8.25 c 2.46,3.91 4.65,6.49 6.6,7.74 1.95,1.21 4.18,1.83 6.64,1.83 3.52,0 6.88,-0.97 10.12,-2.89 l -4.73,-13.4 c -2.62,1.68 -5,2.5 -7.22,2.5 -2.15,0 -3.99,-0.58 -5.47,-1.75 -1.53,-1.21 -2.7,-3.36 -3.56,-6.45 -0.86,-3.09 -1.29,-9.57 -1.29,-19.45 z"
         style="fill:#000000;fill-opacity:1;fill-rule:nonzero;stroke:none"
         id="path94" />
      <path
         d="m 1606.29,1261.48 h 15.3516 v -14.2109 H 1606.29 Z m 0,-22.1 h 15.3516 v -58.0469 H 1606.29 Z"
         style="fill:#000000;fill-opacity:1;fill-rule:nonzero;stroke:none"
         id="path96" />
      <path
         d="m 1664.02,1239.38 v -12.23 h -10.5 v -23.44 c 0,-4.73 0.11,-7.5 0.31,-8.28 0.19,-0.78 0.66,-1.41 1.37,-1.95 0.7,-0.51 1.56,-0.75 2.57,-0.75 1.45,0 3.52,0.51 6.21,1.49 l 1.29,-11.92 c -3.55,-1.56 -7.61,-2.3 -12.15,-2.3 -2.77,0 -5.27,0.47 -7.5,1.37 -2.22,0.93 -3.82,2.15 -4.88,3.63 -1.05,1.45 -1.76,3.48 -2.15,5.98 -0.35,1.79 -0.5,5.39 -0.5,10.82 v 25.35 h -7.07 v 12.23 h 7.07 v 11.56 l 15.43,8.94 v -20.5 z"
         style="fill:#000000;fill-opacity:1;fill-rule:nonzero;stroke:none"
         id="path98" />
      <path
         d="m 1690,1261.48 v -29.49 c 4.96,5.82 10.9,8.71 17.77,8.71 3.56,0 6.72,-0.66 9.57,-1.99 2.86,-1.29 5,-2.97 6.41,-5 1.45,-2.07 2.46,-4.33 2.97,-6.8 0.55,-2.5 0.78,-6.32 0.78,-11.52 v -34.1 h -15.35 v 30.7 c 0,6.1 -0.31,9.96 -0.86,11.6 -0.59,1.64 -1.64,2.93 -3.09,3.91 -1.48,0.94 -3.36,1.45 -5.58,1.45 -2.54,0 -4.81,-0.63 -6.84,-1.88 -1.99,-1.21 -3.44,-3.09 -4.37,-5.59 -0.94,-2.5 -1.41,-6.21 -1.41,-11.09 v -29.1 h -15.35 v 80.19 z"
         style="fill:#000000;fill-opacity:1;fill-rule:nonzero;stroke:none"
         id="path100" />
      <path
         d="m 1741.95,1239.38 h 14.18 v -7.93 c 5.04,6.17 11.1,9.25 18.09,9.25 3.71,0 6.95,-0.78 9.69,-2.3 2.73,-1.52 4.96,-3.83 6.71,-6.95 2.58,3.12 5.32,5.43 8.29,6.95 2.93,1.52 6.09,2.3 9.45,2.3 4.26,0 7.85,-0.86 10.82,-2.61 2.97,-1.72 5.16,-4.26 6.6,-7.62 1.1,-2.5 1.6,-6.49 1.6,-12.03 v -37.15 h -15.35 v 33.2 c 0,5.74 -0.55,9.49 -1.6,11.17 -1.41,2.15 -3.59,3.29 -6.56,3.29 -2.15,0 -4.18,-0.67 -6.06,-2 -1.91,-1.29 -3.28,-3.24 -4.1,-5.74 -0.86,-2.54 -1.29,-6.56 -1.29,-12.03 v -27.89 h -15.35 v 31.83 c 0,5.67 -0.27,9.3 -0.82,10.94 -0.55,1.64 -1.41,2.89 -2.54,3.67 -1.17,0.82 -2.69,1.22 -4.69,1.22 -2.34,0 -4.49,-0.67 -6.4,-1.92 -1.88,-1.29 -3.24,-3.12 -4.07,-5.51 -0.82,-2.42 -1.21,-6.4 -1.21,-11.99 v -28.2 h -15.39 z"
         style="fill:#000000;fill-opacity:1;fill-rule:nonzero;stroke:none"
         id="path102" />
      <path
         d="m 1876.33,1199.8 15.31,-2.57 c -1.99,-5.63 -5.08,-9.89 -9.34,-12.82 -4.25,-2.96 -9.57,-4.41 -15.93,-4.41 -10.12,0 -17.58,3.32 -22.42,9.88 -3.83,5.32 -5.75,12 -5.75,20.04 0,9.61 2.5,17.15 7.54,22.62 5.04,5.43 11.37,8.16 19.06,8.16 8.68,0 15.47,-2.85 20.47,-8.55 5,-5.7 7.39,-14.45 7.19,-26.21 h -38.51 c 0.11,-4.57 1.32,-8.13 3.71,-10.67 2.38,-2.54 5.35,-3.79 8.86,-3.79 2.43,0 4.42,0.67 6.06,1.96 1.64,1.33 2.89,3.44 3.75,6.36 z m 0.86,15.51 c -0.12,4.46 -1.25,7.85 -3.44,10.16 -2.19,2.3 -4.84,3.48 -8.01,3.48 -3.32,0 -6.09,-1.22 -8.28,-3.68 -2.19,-2.42 -3.28,-5.74 -3.24,-9.96 z"
         style="fill:#000000;fill-opacity:1;fill-rule:nonzero;stroke:none"
         id="path104" />
      <path
         d="m 1931.6,1239.38 v -12.23 h -10.51 v -23.44 c 0,-4.73 0.12,-7.5 0.32,-8.28 0.19,-0.78 0.66,-1.41 1.36,-1.95 0.71,-0.51 1.57,-0.75 2.62,-0.75 1.41,0 3.48,0.51 6.17,1.49 l 1.29,-11.92 c -3.55,-1.56 -7.62,-2.3 -12.15,-2.3 -2.73,0 -5.27,0.47 -7.46,1.37 -2.22,0.93 -3.86,2.15 -4.92,3.63 -1.02,1.45 -1.76,3.48 -2.15,5.98 -0.31,1.79 -0.51,5.39 -0.51,10.82 v 25.35 h -7.03 v 12.23 h 7.03 v 11.56 l 15.43,8.94 v -20.5 z"
         style="fill:#000000;fill-opacity:1;fill-rule:nonzero;stroke:none"
         id="path106" />
      <path
         d="m 1942.27,1261.48 h 15.3906 v -14.2109 H 1942.27 Z m 0,-22.1 h 15.3906 v -58.0469 H 1942.27 Z"
         style="fill:#000000;fill-opacity:1;fill-rule:nonzero;stroke:none"
         id="path108" />
      <path
         d="m 2024.02,1222.23 -15.15,-2.74 c -0.51,3.01 -1.64,5.28 -3.48,6.84 -1.8,1.52 -4.14,2.26 -6.99,2.26 -3.83,0 -6.88,-1.29 -9.18,-3.94 -2.27,-2.66 -3.4,-7.07 -3.4,-13.28 0,-6.88 1.13,-11.76 3.48,-14.61 2.3,-2.81 5.39,-4.26 9.29,-4.26 2.93,0 5.32,0.86 7.19,2.5 1.88,1.64 3.17,4.53 3.95,8.55 l 15.07,-2.57 c -1.56,-6.92 -4.57,-12.15 -9.02,-15.67 -4.45,-3.55 -10.39,-5.31 -17.89,-5.31 -8.48,0 -15.23,2.66 -20.31,8.05 -5.04,5.35 -7.58,12.77 -7.58,22.22 0,9.61 2.54,17.07 7.62,22.43 5.04,5.31 11.91,8 20.54,8 7.07,0 12.7,-1.52 16.88,-4.57 4.18,-3.04 7.19,-7.69 8.98,-13.9 z"
         style="fill:#000000;fill-opacity:1;fill-rule:nonzero;stroke:none"
         id="path110" />
      <path
         d="m 2027.46,1179.96 19.88,82.89 h 11.53 l -20.08,-82.89 z"
         style="fill:#000000;fill-opacity:1;fill-rule:nonzero;stroke:none"
         id="path112" />
      <path
         d="m 2067.34,1181.33 v 79.49 h 16.18 v -66.02 h 40.27 v -13.47 z"
         style="fill:#000000;fill-opacity:1;fill-rule:nonzero;stroke:none"
         id="path114" />
      <path
         d="m 2131.64,1211.17 c 0,5.12 1.29,10.04 3.79,14.81 2.54,4.8 6.09,8.43 10.7,10.93 4.61,2.54 9.77,3.79 15.43,3.79 8.79,0 16.02,-2.85 21.6,-8.55 5.63,-5.7 8.44,-12.93 8.44,-21.64 0,-8.79 -2.85,-16.06 -8.51,-21.84 -5.67,-5.78 -12.82,-8.67 -21.41,-8.67 -5.31,0 -10.39,1.21 -15.23,3.59 -4.81,2.43 -8.48,5.94 -11.02,10.59 -2.5,4.65 -3.79,10.31 -3.79,16.99 z m 15.78,-0.82 c 0,-5.78 1.37,-10.15 4.1,-13.24 2.74,-3.05 6.1,-4.57 10.12,-4.57 4.02,0 7.38,1.52 10.08,4.57 2.73,3.09 4.06,7.5 4.06,13.36 0,5.66 -1.33,10.04 -4.06,13.12 -2.7,3.05 -6.06,4.57 -10.08,4.57 -4.02,0 -7.38,-1.52 -10.12,-4.57 -2.73,-3.08 -4.1,-7.5 -4.1,-13.24 z"
         style="fill:#000000;fill-opacity:1;fill-rule:nonzero;stroke:none"
         id="path116" />
      <path
         d="m 2202.19,1177.46 17.58,-2.11 c 0.27,-2.03 0.93,-3.44 1.99,-4.22 1.48,-1.09 3.79,-1.64 6.91,-1.64 4.03,0 6.99,0.59 9.03,1.8 1.32,0.82 2.34,2.11 3.04,3.91 0.51,1.25 0.71,3.63 0.71,7.03 v 8.47 c -4.57,-6.25 -10.4,-9.37 -17.39,-9.37 -7.77,0 -13.98,3.28 -18.51,9.88 -3.6,5.2 -5.35,11.72 -5.35,19.45 0,9.77 2.34,17.19 6.99,22.35 4.69,5.11 10.51,7.69 17.5,7.69 7.19,0 13.08,-3.16 17.77,-9.45 v 8.13 h 14.38 v -52.11 c 0,-6.84 -0.55,-11.96 -1.68,-15.36 -1.14,-3.39 -2.74,-6.05 -4.77,-8 -2.03,-1.92 -4.77,-3.44 -8.16,-4.53 -3.44,-1.1 -7.74,-1.65 -12.93,-1.65 -9.85,0 -16.84,1.68 -20.98,5.08 -4.1,3.36 -6.17,7.62 -6.17,12.81 0,0.51 0.04,1.14 0.04,1.84 z m 13.75,34.1 c 0,-6.17 1.17,-10.66 3.59,-13.55 2.38,-2.85 5.31,-4.3 8.83,-4.3 3.75,0 6.91,1.49 9.49,4.41 2.58,2.93 3.87,7.27 3.87,13.05 0,6.02 -1.21,10.47 -3.71,13.4 -2.46,2.89 -5.63,4.38 -9.42,4.38 -3.67,0 -6.71,-1.45 -9.1,-4.3 -2.38,-2.85 -3.55,-7.23 -3.55,-13.09 z"
         style="fill:#000000;fill-opacity:1;fill-rule:nonzero;stroke:none"
         id="path118" />
      <path
         d="m 2272.03,1261.48 h 15.3906 v -14.2109 H 2272.03 Z m 0,-22.1 h 15.3906 v -58.0469 H 2272.03 Z"
         style="fill:#000000;fill-opacity:1;fill-rule:nonzero;stroke:none"
         id="path120" />
      <path
         d="m 2353.79,1222.23 -15.16,-2.74 c -0.51,3.01 -1.64,5.28 -3.47,6.84 -1.8,1.52 -4.14,2.26 -7.04,2.26 -3.82,0 -6.87,-1.29 -9.14,-3.94 -2.26,-2.66 -3.43,-7.07 -3.43,-13.28 0,-6.88 1.17,-11.76 3.47,-14.61 2.35,-2.81 5.43,-4.26 9.34,-4.26 2.93,0 5.31,0.86 7.19,2.5 1.83,1.64 3.16,4.53 3.9,8.55 l 15.12,-2.57 c -1.56,-6.92 -4.57,-12.15 -9.02,-15.67 -4.46,-3.55 -10.43,-5.31 -17.89,-5.31 -8.52,0 -15.28,2.66 -20.32,8.05 -5.04,5.35 -7.57,12.77 -7.57,22.22 0,9.61 2.53,17.07 7.61,22.43 5.04,5.31 11.92,8 20.55,8 7.07,0 12.69,-1.52 16.87,-4.57 4.18,-3.04 7.15,-7.69 8.99,-13.9 z"
         style="fill:#000000;fill-opacity:1;fill-rule:nonzero;stroke:none"
         id="path122" />
      <path
         d="m 2396.56,1261.48 h 16.17 v -43.43 c 0,-6.88 0.2,-11.33 0.63,-13.4 0.66,-3.28 2.34,-5.9 4.92,-7.89 2.62,-1.99 6.17,-3.01 10.7,-3.01 4.61,0 8.05,0.94 10.4,2.85 2.34,1.88 3.74,4.18 4.21,6.92 0.47,2.73 0.71,7.26 0.71,13.59 v 44.37 h 16.17 v -42.1 c 0,-9.65 -0.43,-16.45 -1.29,-20.43 -0.9,-3.95 -2.5,-7.31 -4.84,-10.04 -2.35,-2.74 -5.51,-4.93 -9.46,-6.57 -3.9,-1.6 -9.06,-2.42 -15.43,-2.42 -7.65,0 -13.43,0.9 -17.42,2.66 -3.94,1.76 -7.07,4.06 -9.37,6.87 -2.27,2.85 -3.79,5.82 -4.54,8.91 -1.05,4.61 -1.56,11.37 -1.56,20.35 z"
         style="fill:#000000;fill-opacity:1;fill-rule:nonzero;stroke:none"
         id="path124" />
      <path
         d="m 2530.27,1181.33 h -15.35 v 29.61 c 0,6.29 -0.35,10.35 -1.01,12.18 -0.63,1.84 -1.72,3.29 -3.21,4.3 -1.44,1.02 -3.24,1.53 -5.31,1.53 -2.66,0 -5.04,-0.75 -7.15,-2.19 -2.15,-1.45 -3.59,-3.4 -4.37,-5.78 -0.78,-2.43 -1.17,-6.88 -1.17,-13.36 v -26.29 h -15.36 v 58.05 h 14.26 v -8.52 c 5.08,6.56 11.45,9.84 19.14,9.84 3.4,0 6.49,-0.62 9.3,-1.83 2.81,-1.21 4.92,-2.78 6.37,-4.65 1.44,-1.92 2.46,-4.06 3,-6.49 0.59,-2.38 0.86,-5.82 0.86,-10.31 z"
         style="fill:#000000;fill-opacity:1;fill-rule:nonzero;stroke:none"
         id="path126" />
      <path
         d="m 2545.86,1261.48 h 15.3516 v -14.2109 H 2545.86 Z m 0,-22.1 h 15.3516 v -58.0469 H 2545.86 Z"
         style="fill:#000000;fill-opacity:1;fill-rule:nonzero;stroke:none"
         id="path128" />
      <path
         d="m 2603.59,1239.38 v -12.23 h -10.5 v -23.44 c 0,-4.73 0.11,-7.5 0.31,-8.28 0.19,-0.78 0.66,-1.41 1.37,-1.95 0.7,-0.51 1.6,-0.75 2.61,-0.75 1.41,0 3.48,0.51 6.17,1.49 l 1.29,-11.92 c -3.55,-1.56 -7.61,-2.3 -12.14,-2.3 -2.78,0 -5.28,0.47 -7.47,1.37 -2.22,0.93 -3.86,2.15 -4.92,3.63 -1.01,1.48 -1.76,3.48 -2.15,5.98 -0.35,1.79 -0.5,5.39 -0.5,10.82 v 25.35 h -7.04 v 12.23 h 7.04 v 11.56 l 15.43,8.94 v -20.5 z"
         style="fill:#000000;fill-opacity:1;fill-rule:nonzero;stroke:none"
         id="path130" />
      <path
         d="m 1280,131.988 h 1520 v 360 H 1280 Z"
         style="fill:#ffffff;fill-opacity:1;fill-rule:nonzero;stroke:none"
         id="path132" />
      <path
         d="m 1280,131.988 h 1520 v 360 H 1280 Z"
         style="fill:none;stroke:#000000;stroke-width:16;stroke-linecap:butt;stroke-linejoin:miter;stroke-miterlimit:10;stroke-dasharray:none;stroke-opacity:1"
         id="path134" />
      <path
         d="m 1708.79,277.301 v 80.16 h 24.22 l 14.53,-54.691 14.41,54.691 h 24.26 v -80.16 h -15.04 v 63.129 l -15.9,-63.129 h -15.58 l -15.86,63.129 v -63.129 z"
         style="fill:#000000;fill-opacity:1;fill-rule:nonzero;stroke:none"
         id="path136" />
      <path
         d="m 1835.82,295.781 15.31,-2.543 c -1.95,-5.617 -5.08,-9.918 -9.33,-12.847 -4.22,-2.93 -9.53,-4.371 -15.94,-4.371 -10.08,0 -17.58,3.281 -22.42,9.878 -3.83,5.274 -5.74,11.954 -5.74,20 0,9.653 2.5,17.192 7.53,22.622 5.04,5.46 11.41,8.16 19.11,8.16 8.63,0 15.43,-2.852 20.43,-8.559 5,-5.699 7.42,-14.449 7.18,-26.211 h -38.51 c 0.11,-4.57 1.36,-8.121 3.75,-10.621 2.34,-2.539 5.31,-3.828 8.83,-3.828 2.42,0 4.45,0.66 6.09,1.988 1.64,1.289 2.89,3.442 3.71,6.332 z m 0.86,15.547 c -0.08,4.453 -1.25,7.813 -3.44,10.152 -2.19,2.309 -4.84,3.481 -7.97,3.481 -3.36,0 -6.13,-1.25 -8.32,-3.672 -2.18,-2.461 -3.28,-5.777 -3.24,-9.961 z"
         style="fill:#000000;fill-opacity:1;fill-rule:nonzero;stroke:none"
         id="path138" />
      <path
         d="m 1863.32,335.391 h 14.18 v -7.93 c 5.08,6.168 11.09,9.258 18.12,9.258 3.72,0 6.92,-0.778 9.65,-2.309 2.74,-1.519 5,-3.859 6.76,-6.949 2.54,3.09 5.27,5.43 8.24,6.949 2.97,1.531 6.1,2.309 9.46,2.309 4.25,0 7.89,-0.899 10.86,-2.617 2.93,-1.723 5.15,-4.262 6.6,-7.622 1.05,-2.5 1.56,-6.48 1.56,-12.031 v -37.148 h -15.35 v 33.211 c 0,5.738 -0.51,9.488 -1.6,11.129 -1.41,2.187 -3.6,3.281 -6.53,3.281 -2.18,0 -4.18,-0.621 -6.09,-1.953 -1.88,-1.328 -3.24,-3.239 -4.1,-5.778 -0.82,-2.543 -1.25,-6.531 -1.25,-11.992 v -27.898 h -15.39 v 31.84 c 0,5.66 -0.24,9.3 -0.82,10.937 -0.55,1.641 -1.37,2.852 -2.54,3.672 -1.13,0.781 -2.7,1.172 -4.65,1.172 -2.38,0 -4.53,-0.621 -6.41,-1.871 -1.91,-1.289 -3.28,-3.129 -4.06,-5.551 -0.82,-2.379 -1.25,-6.41 -1.25,-11.949 v -28.25 h -15.35 v 58.09 z"
         style="fill:#000000;fill-opacity:1;fill-rule:nonzero;stroke:none"
         id="path140" />
      <path
         d="m 1960.51,307.191 c 0,5.079 1.25,10.039 3.79,14.797 2.5,4.774 6.05,8.403 10.66,10.942 4.61,2.5 9.77,3.789 15.47,3.789 8.79,0 15.98,-2.848 21.6,-8.598 5.59,-5.699 8.4,-12.891 8.4,-21.601 0,-8.79 -2.81,-16.09 -8.48,-21.829 -5.66,-5.781 -12.81,-8.671 -21.4,-8.671 -5.35,0 -10.43,1.21 -15.24,3.589 -4.84,2.422 -8.51,5.942 -11.01,10.59 -2.54,4.641 -3.79,10.313 -3.79,16.992 z m 15.74,-0.863 c 0,-5.738 1.37,-10.156 4.1,-13.207 2.74,-3.082 6.13,-4.601 10.12,-4.601 4.02,0 7.38,1.519 10.12,4.601 2.69,3.051 4.06,7.5 4.06,13.328 0,5.699 -1.37,10.071 -4.06,13.121 -2.74,3.09 -6.1,4.61 -10.12,4.61 -3.99,0 -7.38,-1.52 -10.12,-4.61 -2.73,-3.05 -4.1,-7.461 -4.1,-13.242 z"
         style="fill:#000000;fill-opacity:1;fill-rule:nonzero;stroke:none"
         id="path142" />
      <path
         d="m 2047.19,277.301 h -15.35 v 58.09 h 14.25 v -8.282 c 2.46,3.911 4.65,6.481 6.61,7.731 1.95,1.25 4.18,1.879 6.64,1.879 3.47,0 6.87,-0.981 10.11,-2.93 l -4.76,-13.398 c -2.58,1.679 -5,2.539 -7.23,2.539 -2.15,0 -3.94,-0.59 -5.47,-1.801 -1.48,-1.168 -2.65,-3.32 -3.51,-6.399 -0.86,-3.128 -1.29,-9.609 -1.29,-19.5 z"
         style="fill:#000000;fill-opacity:1;fill-rule:nonzero;stroke:none"
         id="path144" />
      <path
         d="m 2068.79,335.391 h 16.37 l 13.86,-41.25 13.56,41.25 h 15.94 l -20.51,-55.903 -3.67,-10.109 c -1.33,-3.399 -2.62,-5.981 -3.87,-7.777 -1.21,-1.801 -2.62,-3.243 -4.18,-4.332 -1.6,-1.141 -3.56,-2 -5.86,-2.579 -2.31,-0.632 -4.92,-0.941 -7.85,-0.941 -2.93,0 -5.86,0.309 -8.67,0.941 l -1.37,12.028 c 2.38,-0.508 4.57,-0.739 6.48,-0.739 3.6,0 6.21,1.051 7.93,3.161 1.72,2.109 3.05,4.769 3.95,8.007 z"
         style="fill:#000000;fill-opacity:1;fill-rule:nonzero;stroke:none"
         id="path146" />
      <path
         d="m 2169.45,357.5 h 16.21 v -43.441 c 0,-6.868 0.2,-11.36 0.59,-13.399 0.7,-3.281 2.34,-5.89 4.96,-7.89 2.58,-1.989 6.17,-3 10.7,-3 4.57,0 8.05,0.929 10.39,2.851 2.31,1.828 3.72,4.18 4.18,6.91 0.51,2.739 0.75,7.27 0.75,13.59 V 357.5 h 16.17 v -42.109 c 0,-9.653 -0.43,-16.442 -1.33,-20.43 -0.86,-3.941 -2.46,-7.301 -4.8,-10.039 -2.35,-2.731 -5.51,-4.922 -9.46,-6.563 -3.94,-1.597 -9.1,-2.418 -15.43,-2.418 -7.65,0 -13.43,0.899 -17.42,2.649 -3.94,1.762 -7.07,4.07 -9.37,6.879 -2.31,2.851 -3.83,5.82 -4.54,8.91 -1.05,4.57 -1.6,11.359 -1.6,20.351 z"
         style="fill:#000000;fill-opacity:1;fill-rule:nonzero;stroke:none"
         id="path148" />
      <path
         d="m 2303.2,277.301 h -15.39 v 29.648 c 0,6.25 -0.35,10.321 -0.97,12.153 -0.67,1.878 -1.72,3.277 -3.21,4.296 -1.48,1.012 -3.24,1.524 -5.35,1.524 -2.66,0 -5.04,-0.703 -7.15,-2.192 -2.11,-1.441 -3.55,-3.351 -4.33,-5.781 -0.82,-2.418 -1.18,-6.828 -1.18,-13.359 v -26.289 h -15.39 v 58.09 h 14.3 v -8.512 c 5.04,6.562 11.45,9.84 19.14,9.84 3.36,0 6.49,-0.629 9.3,-1.84 2.81,-1.25 4.92,-2.809 6.37,-4.68 1.44,-1.879 2.42,-4.07 3,-6.449 0.55,-2.422 0.86,-5.859 0.86,-10.352 z"
         style="fill:#000000;fill-opacity:1;fill-rule:nonzero;stroke:none"
         id="path150" />
      <path
         d="m 2318.75,357.461 h 15.3906 V 343.2813 H 2318.75 Z m 0,-22.07 h 15.3906 V 277.3012 H 2318.75 Z"
         style="fill:#000000;fill-opacity:1;fill-rule:nonzero;stroke:none"
         id="path152" />
      <path
         d="m 2376.52,335.391 v -12.27 h -10.5 V 299.73 c 0,-4.73 0.11,-7.5 0.31,-8.281 0.19,-0.789 0.62,-1.449 1.37,-1.961 0.7,-0.508 1.56,-0.738 2.57,-0.738 1.41,0 3.48,0.512 6.18,1.48 l 1.32,-11.91 c -3.59,-1.558 -7.61,-2.3 -12.15,-2.3 -2.77,0 -5.27,0.46 -7.5,1.359 -2.22,0.941 -3.86,2.152 -4.88,3.641 -1.05,1.441 -1.76,3.468 -2.19,5.968 -0.31,1.801 -0.46,5.391 -0.46,10.821 v 25.351 h -7.07 v 12.231 h 7.07 v 11.519 l 15.39,8.988 v -20.507 z"
         style="fill:#000000;fill-opacity:1;fill-rule:nonzero;stroke:none"
         id="path154" />
      <path
         d="M 1951.99,900 V 563.98"
         style="fill:none;stroke:#000000;stroke-width:16;stroke-linecap:butt;stroke-linejoin:miter;stroke-miterlimit:10;stroke-dasharray:none;stroke-opacity:1"
         id="path156" />
      <path
         d="m 1951.99,516.02 -40,47.96 h 80 z"
         style="fill:#000000;fill-opacity:1;fill-rule:nonzero;stroke:none"
         id="path158" />
      <path
         d="m 1951.99,516.02 -40,47.96 h 80 z"
         style="fill:none;stroke:#000000;stroke-width:16;stroke-linecap:butt;stroke-linejoin:miter;stroke-miterlimit:10;stroke-dasharray:none;stroke-opacity:1"
         id="path160" />
      <path
         d="M 2128.01,500 V 836.02"
         style="fill:none;stroke:#000000;stroke-width:16;stroke-linecap:butt;stroke-linejoin:miter;stroke-miterlimit:10;stroke-dasharray:none;stroke-opacity:1"
         id="path162" />
      <path
         d="m 2127.97,883.98 40.04,-47.96 h -80.04 z"
         style="fill:#000000;fill-opacity:1;fill-rule:nonzero;stroke:none"
         id="path164" />
      <path
         d="m 2127.97,883.98 40.04,-47.96 h -80.04 z"
         style="fill:none;stroke:#000000;stroke-width:16;stroke-linecap:butt;stroke-linejoin:miter;stroke-miterlimit:10;stroke-dasharray:none;stroke-opacity:1"
         id="path166" />
      <path
         d="M 688.012,1188.01 H 1088.01"
         style="fill:none;stroke:#000000;stroke-width:16;stroke-linecap:butt;stroke-linejoin:miter;stroke-miterlimit:10;stroke-dasharray:none;stroke-opacity:1"
         id="path168" />
      <path
         d="m 1136.02,1188.01 -48.01,-40 v 80 z"
         style="fill:#000000;fill-opacity:1;fill-rule:nonzero;stroke:none"
         id="path170" />
      <path
         d="m 1136.02,1188.01 -48.01,-40 v 80 z"
         style="fill:none;stroke:#000000;stroke-width:16;stroke-linecap:butt;stroke-linejoin:miter;stroke-miterlimit:10;stroke-dasharray:none;stroke-opacity:1"
         id="path172" />
      <path
         d="m 220.82,1225.31 h 16.2109 v 80.1602 H 220.82 Z"
         style="fill:#000000;fill-opacity:1;fill-rule:nonzero;stroke:none"
         id="path174" />
      <path
         d="m 305.16,1225.31 h -15.359 v 29.65 c 0,6.25 -0.352,10.31 -1.012,12.15 -0.629,1.84 -1.719,3.28 -3.168,4.3 -1.48,1.01 -3.281,1.52 -5.351,1.52 -2.649,0 -5.04,-0.7 -7.18,-2.19 -2.11,-1.44 -3.559,-3.36 -4.34,-5.78 -0.781,-2.42 -1.172,-6.87 -1.172,-13.36 v -26.29 H 252.23 v 58.09 h 14.25 v -8.52 c 5.079,6.53 11.45,9.81 19.141,9.81 3.399,0 6.488,-0.59 9.301,-1.8 2.808,-1.25 4.918,-2.81 6.367,-4.69 1.441,-1.87 2.461,-4.06 3.012,-6.44 0.578,-2.42 0.859,-5.86 0.859,-10.35 z"
         style="fill:#000000;fill-opacity:1;fill-rule:nonzero;stroke:none"
         id="path176" />
      <path
         d="m 320.309,1283.4 h 14.339 v -8.56 c 1.832,2.93 4.372,5.32 7.543,7.11 3.161,1.84 6.68,2.74 10.539,2.74 6.719,0 12.469,-2.62 17.149,-7.93 4.73,-5.28 7.07,-12.66 7.07,-22.07 0,-9.69 -2.379,-17.23 -7.109,-22.62 -4.762,-5.39 -10.461,-8.09 -17.219,-8.09 -3.211,0 -6.101,0.67 -8.711,1.92 -2.621,1.29 -5.359,3.48 -8.25,6.56 v -29.26 h -15.351 z m 15.203,-28.05 c 0,-6.56 1.289,-11.37 3.867,-14.49 2.57,-3.13 5.742,-4.65 9.492,-4.65 3.551,0 6.52,1.41 8.899,4.3 2.351,2.85 3.558,7.54 3.558,14.06 0,6.09 -1.25,10.63 -3.668,13.55 -2.461,2.97 -5.469,4.46 -9.109,4.46 -3.75,0 -6.871,-1.45 -9.332,-4.34 -2.5,-2.93 -3.707,-7.22 -3.707,-12.89 z"
         style="fill:#000000;fill-opacity:1;fill-rule:nonzero;stroke:none"
         id="path178" />
      <path
         d="m 427.379,1225.31 v 8.71 c -2.109,-3.12 -4.879,-5.54 -8.32,-7.34 -3.438,-1.8 -7.11,-2.7 -10.938,-2.7 -3.902,0 -7.383,0.86 -10.5,2.58 -3.09,1.72 -5.32,4.14 -6.723,7.23 -1.367,3.09 -2.07,7.38 -2.07,12.85 v 36.76 h 15.352 v -26.72 c 0,-8.16 0.269,-13.16 0.859,-15 0.582,-1.84 1.602,-3.28 3.082,-4.38 1.488,-1.05 3.399,-1.6 5.707,-1.6 2.621,0 4.961,0.71 7.031,2.15 2.11,1.45 3.52,3.24 4.262,5.35 0.777,2.15 1.168,7.39 1.168,15.67 v 24.53 h 15.352 v -58.09 z"
         style="fill:#000000;fill-opacity:1;fill-rule:nonzero;stroke:none"
         id="path180" />
      <path
         d="m 484.219,1283.4 v -12.27 h -10.508 v -23.4 c 0,-4.72 0.078,-7.5 0.269,-8.28 0.239,-0.78 0.668,-1.44 1.372,-1.95 0.738,-0.51 1.597,-0.78 2.617,-0.78 1.41,0 3.48,0.51 6.172,1.48 l 1.328,-11.91 c -3.59,-1.52 -7.617,-2.31 -12.149,-2.31 -2.769,0 -5.269,0.47 -7.5,1.41 -2.23,0.94 -3.871,2.15 -4.879,3.59 -1.062,1.49 -1.761,3.48 -2.191,6.02 -0.309,1.76 -0.469,5.39 -0.469,10.82 v 25.31 h -7.07 v 12.27 h 7.07 v 11.52 l 15.43,8.99 v -20.51 z"
         style="fill:#000000;fill-opacity:1;fill-rule:nonzero;stroke:none"
         id="path182" />
      <path
         d="m 177.5,1171.09 h 29.609 c 6.641,0 11.762,-0.5 15.231,-1.52 4.73,-1.41 8.75,-3.87 12.109,-7.38 3.36,-3.56 5.903,-7.89 7.66,-13.01 1.762,-5.12 2.621,-11.45 2.621,-18.95 0,-6.6 -0.82,-12.3 -2.46,-17.07 -2,-5.82 -4.891,-10.54 -8.598,-14.18 -2.813,-2.73 -6.602,-4.84 -11.371,-6.4 -3.59,-1.13 -8.352,-1.68 -14.332,-1.68 H 177.5 Z m 16.211,-13.55 v -53.13 h 12.07 c 4.528,0 7.809,0.28 9.809,0.79 2.609,0.66 4.801,1.75 6.519,3.32 1.762,1.56 3.161,4.14 4.262,7.73 1.09,3.59 1.641,8.48 1.641,14.69 0,6.17 -0.551,10.97 -1.641,14.26 -1.101,3.32 -2.621,5.89 -4.609,7.77 -1.961,1.87 -4.461,3.12 -7.5,3.79 -2.274,0.51 -6.684,0.78 -13.282,0.78 z"
         style="fill:#000000;fill-opacity:1;fill-rule:nonzero;stroke:none"
         id="path184" />
      <path
         d="m 291.988,1109.38 15.313,-2.54 c -1.992,-5.63 -5.071,-9.89 -9.332,-12.86 -4.258,-2.93 -9.571,-4.37 -15.938,-4.37 -10.121,0 -17.582,3.28 -22.422,9.88 -3.871,5.28 -5.738,11.96 -5.738,20.04 0,9.61 2.5,17.15 7.539,22.58 5,5.47 11.36,8.2 19.059,8.2 8.633,0 15.472,-2.85 20.472,-8.55 5,-5.74 7.379,-14.46 7.149,-26.25 h -38.481 c 0.121,-4.53 1.332,-8.09 3.711,-10.63 2.379,-2.54 5.309,-3.79 8.871,-3.79 2.379,0 4.411,0.63 6.047,1.96 1.641,1.33 2.891,3.43 3.75,6.33 z m 0.864,15.54 c -0.122,4.46 -1.25,7.85 -3.442,10.16 -2.18,2.3 -4.84,3.47 -8,3.47 -3.359,0 -6.14,-1.25 -8.32,-3.67 -2.149,-2.46 -3.25,-5.78 -3.211,-9.96 z"
         style="fill:#000000;fill-opacity:1;fill-rule:nonzero;stroke:none"
         id="path186" />
      <path
         d="m 336.602,1090.9 -23.403,58.08 h 16.141 l 10.93,-29.64 3.171,-9.89 c 0.821,2.5 1.36,4.18 1.559,4.96 0.551,1.64 1.051,3.29 1.641,4.93 l 11.058,29.64 h 15.821 l -23.09,-58.08 z"
         style="fill:#000000;fill-opacity:1;fill-rule:nonzero;stroke:none"
         id="path188" />
      <path
         d="m 382.93,1171.09 h 15.3516 v -14.2109 H 382.93 Z m 0,-22.11 h 15.3516 v -58.082 H 382.93 Z"
         style="fill:#000000;fill-opacity:1;fill-rule:nonzero;stroke:none"
         id="path190" />
      <path
         d="m 464.691,1131.8 -15.16,-2.74 c -0.511,3.05 -1.679,5.32 -3.48,6.84 -1.789,1.52 -4.141,2.3 -7.031,2.3 -3.821,0 -6.872,-1.32 -9.141,-3.94 -2.301,-2.66 -3.43,-7.07 -3.43,-13.28 0,-6.88 1.172,-11.76 3.473,-14.61 2.308,-2.82 5.43,-4.26 9.34,-4.26 2.929,0 5.308,0.82 7.148,2.5 1.871,1.64 3.199,4.49 3.942,8.55 l 15.117,-2.57 c -1.559,-6.92 -4.571,-12.15 -9.02,-15.71 -4.461,-3.51 -10.429,-5.27 -17.898,-5.27 -8.512,0 -15.27,2.66 -20.313,8.01 -5.078,5.39 -7.578,12.77 -7.578,22.26 0,9.61 2.539,17.07 7.578,22.39 5.082,5.35 11.961,8 20.59,8 7.07,0 12.692,-1.52 16.871,-4.57 4.18,-3.04 7.153,-7.65 8.992,-13.9 z"
         style="fill:#000000;fill-opacity:1;fill-rule:nonzero;stroke:none"
         id="path192" />
      <path
         d="m 509.961,1109.38 15.309,-2.54 c -1.95,-5.63 -5.071,-9.89 -9.329,-12.86 -4.261,-2.93 -9.57,-4.37 -15.941,-4.37 -10.078,0 -17.578,3.28 -22.422,9.88 -3.828,5.28 -5.738,11.96 -5.738,20.04 0,9.61 2.5,17.15 7.539,22.58 5.031,5.47 11.402,8.2 19.101,8.2 8.629,0 15.43,-2.85 20.43,-8.55 5,-5.74 7.379,-14.46 7.18,-26.25 h -38.512 c 0.121,-4.53 1.371,-8.09 3.711,-10.63 2.383,-2.54 5.352,-3.79 8.871,-3.79 2.418,0 4.449,0.63 6.09,1.96 1.641,1.33 2.852,3.43 3.711,6.33 z m 0.859,15.54 c -0.121,4.46 -1.25,7.85 -3.441,10.16 -2.18,2.3 -4.84,3.47 -7.969,3.47 -3.359,0 -6.129,-1.25 -8.32,-3.67 -2.18,-2.46 -3.281,-5.78 -3.238,-9.96 z"
         style="fill:#000000;fill-opacity:1;fill-rule:nonzero;stroke:none"
         id="path194" />
      <path
         d="m 8.01172,923.98 h 680 v 520 h -680 z"
         style="fill:none;stroke:#000000;stroke-width:16;stroke-linecap:butt;stroke-linejoin:miter;stroke-miterlimit:10;stroke-dasharray:none;stroke-opacity:1"
         id="path196" />
      <path
         d="m 2920,1196.02 h 400"
         style="fill:none;stroke:#000000;stroke-width:16;stroke-linecap:butt;stroke-linejoin:miter;stroke-miterlimit:10;stroke-dasharray:none;stroke-opacity:1"
         id="path198" />
      <path
         d="m 3368.01,1196.02 -48.01,-40 v 80 z"
         style="fill:#000000;fill-opacity:1;fill-rule:nonzero;stroke:none"
         id="path200" />
      <path
         d="m 3368.01,1196.02 -48.01,-40 v 80 z"
         style="fill:none;stroke:#000000;stroke-width:16;stroke-linecap:butt;stroke-linejoin:miter;stroke-miterlimit:10;stroke-dasharray:none;stroke-opacity:1"
         id="path202" />
      <path
         d="m 3551.41,1272.89 c 0,8.16 1.21,15.04 3.63,20.59 1.84,4.06 4.34,7.73 7.5,10.97 3.12,3.25 6.6,5.67 10.35,7.23 5,2.11 10.74,3.16 17.27,3.16 11.83,0 21.29,-3.67 28.36,-10.97 7.1,-7.35 10.62,-17.54 10.62,-30.59 0,-12.93 -3.48,-23.08 -10.55,-30.39 -7.03,-7.3 -16.44,-10.94 -28.2,-10.94 -11.91,0 -21.41,3.64 -28.44,10.9 -7.03,7.27 -10.54,17.31 -10.54,30.04 z m 16.68,0.55 c 0,-9.06 2.11,-15.94 6.29,-20.63 4.17,-4.69 9.49,-7.03 15.93,-7.03 6.49,0 11.76,2.31 15.9,6.95 4.14,4.65 6.21,11.65 6.21,20.94 0,9.18 -2.03,16.06 -6.05,20.55 -4.03,4.53 -9.38,6.8 -16.06,6.8 -6.68,0 -12.03,-2.31 -16.13,-6.88 -4.1,-4.57 -6.09,-11.48 -6.09,-20.7 z"
         style="fill:#000000;fill-opacity:1;fill-rule:nonzero;stroke:none"
         id="path204" />
      <path
         d="m 3679.92,1233.32 v 8.67 c -2.15,-3.08 -4.92,-5.54 -8.36,-7.3 -3.44,-1.8 -7.07,-2.7 -10.9,-2.7 -3.9,0 -7.42,0.86 -10.5,2.58 -3.09,1.72 -5.36,4.1 -6.72,7.23 -1.41,3.08 -2.11,7.38 -2.11,12.85 v 36.72 h 15.39 v -26.68 c 0,-8.17 0.27,-13.17 0.82,-15 0.58,-1.84 1.6,-3.32 3.12,-4.38 1.49,-1.05 3.36,-1.6 5.67,-1.6 2.62,0 5,0.7 7.07,2.15 2.07,1.44 3.51,3.2 4.26,5.35 0.74,2.15 1.13,7.34 1.13,15.67 v 24.49 h 15.39 v -58.05 z"
         style="fill:#000000;fill-opacity:1;fill-rule:nonzero;stroke:none"
         id="path206" />
      <path
         d="m 3736.72,1291.37 v -12.23 h -10.51 v -23.4 c 0,-4.76 0.12,-7.5 0.31,-8.32 0.2,-0.78 0.67,-1.4 1.37,-1.91 0.7,-0.51 1.56,-0.78 2.58,-0.78 1.44,0 3.51,0.5 6.21,1.48 l 1.29,-11.91 c -3.56,-1.53 -7.62,-2.31 -12.15,-2.31 -2.77,0 -5.23,0.47 -7.5,1.41 -2.23,0.9 -3.83,2.11 -4.88,3.59 -1.02,1.49 -1.76,3.48 -2.15,5.98 -0.35,1.8 -0.51,5.39 -0.51,10.86 v 25.31 h -7.07 v 12.23 h 7.07 v 11.56 l 15.43,8.95 v -20.51 z"
         style="fill:#000000;fill-opacity:1;fill-rule:nonzero;stroke:none"
         id="path208" />
      <path
         d="m 3746.95,1291.37 h 14.34 v -8.52 c 1.83,2.93 4.37,5.27 7.54,7.11 3.16,1.84 6.68,2.74 10.55,2.74 6.75,0 12.46,-2.66 17.18,-7.93 4.69,-5.28 7.03,-12.66 7.03,-22.07 0,-9.73 -2.38,-17.27 -7.11,-22.62 -4.72,-5.39 -10.46,-8.09 -17.22,-8.09 -3.21,0 -6.1,0.67 -8.71,1.92 -2.62,1.29 -5.35,3.47 -8.25,6.56 v -29.26 h -15.35 z m 15.2,-28.05 c 0,-6.52 1.29,-11.33 3.9,-14.45 2.58,-3.13 5.75,-4.65 9.46,-4.65 3.55,0 6.52,1.4 8.9,4.26 2.39,2.89 3.56,7.57 3.56,14.1 0,6.09 -1.21,10.62 -3.67,13.55 -2.42,2.97 -5.47,4.46 -9.07,4.46 -3.78,0 -6.87,-1.49 -9.37,-4.38 -2.46,-2.89 -3.71,-7.19 -3.71,-12.89 z"
         style="fill:#000000;fill-opacity:1;fill-rule:nonzero;stroke:none"
         id="path210" />
      <path
         d="m 3854.02,1233.32 v 8.67 c -2.11,-3.08 -4.88,-5.54 -8.32,-7.3 -3.43,-1.8 -7.11,-2.7 -10.93,-2.7 -3.87,0 -7.39,0.86 -10.47,2.58 -3.13,1.72 -5.35,4.1 -6.76,7.23 -1.37,3.08 -2.07,7.38 -2.07,12.85 v 36.72 h 15.39 v -26.68 c 0,-8.17 0.27,-13.17 0.82,-15 0.59,-1.84 1.6,-3.32 3.09,-4.38 1.52,-1.05 3.39,-1.6 5.7,-1.6 2.62,0 4.96,0.7 7.07,2.15 2.07,1.44 3.48,3.2 4.26,5.35 0.74,2.15 1.13,7.34 1.13,15.67 v 24.49 h 15.39 v -58.05 z"
         style="fill:#000000;fill-opacity:1;fill-rule:nonzero;stroke:none"
         id="path212" />
      <path
         d="m 3910.86,1291.37 v -12.23 h -10.51 v -23.4 c 0,-4.76 0.08,-7.5 0.31,-8.32 0.2,-0.78 0.63,-1.4 1.33,-1.91 0.74,-0.51 1.6,-0.78 2.62,-0.78 1.41,0 3.48,0.5 6.17,1.48 l 1.33,-11.91 c -3.59,-1.53 -7.66,-2.31 -12.15,-2.31 -2.77,0 -5.27,0.47 -7.5,1.41 -2.23,0.9 -3.87,2.11 -4.88,3.59 -1.06,1.49 -1.76,3.48 -2.19,5.98 -0.31,1.8 -0.47,5.39 -0.47,10.86 v 25.31 h -7.07 v 12.23 h 7.07 v 11.56 l 15.39,8.95 v -20.51 z"
         style="fill:#000000;fill-opacity:1;fill-rule:nonzero;stroke:none"
         id="path214" />
      <path
         d="m 3557.5,1179.06 h 29.61 c 6.64,0 11.76,-0.51 15.23,-1.52 4.73,-1.37 8.75,-3.83 12.11,-7.38 3.32,-3.52 5.9,-7.86 7.66,-12.97 1.76,-5.16 2.62,-11.45 2.62,-18.95 0,-6.6 -0.82,-12.3 -2.46,-17.07 -2,-5.86 -4.89,-10.55 -8.6,-14.18 -2.81,-2.73 -6.6,-4.88 -11.37,-6.4 -3.59,-1.14 -8.35,-1.68 -14.33,-1.68 h -30.47 z m 16.21,-13.55 v -53.09 h 12.07 c 4.53,0 7.81,0.24 9.81,0.78 2.61,0.63 4.8,1.76 6.52,3.32 1.76,1.57 3.16,4.14 4.26,7.74 1.05,3.59 1.64,8.47 1.64,14.69 0,6.17 -0.55,10.93 -1.64,14.25 -1.1,3.32 -2.66,5.9 -4.61,7.78 -1.96,1.87 -4.46,3.12 -7.5,3.79 -2.27,0.5 -6.68,0.74 -13.28,0.74 z"
         style="fill:#000000;fill-opacity:1;fill-rule:nonzero;stroke:none"
         id="path216" />
      <path
         d="m 3671.99,1117.38 15.31,-2.58 c -1.99,-5.58 -5.07,-9.88 -9.33,-12.81 -4.26,-2.93 -9.57,-4.37 -15.94,-4.37 -10.12,0 -17.58,3.28 -22.42,9.88 -3.83,5.27 -5.74,11.95 -5.74,20 0,9.65 2.5,17.19 7.54,22.62 5.04,5.47 11.36,8.2 19.06,8.2 8.67,0 15.47,-2.85 20.47,-8.59 5,-5.71 7.38,-14.42 7.18,-26.21 h -38.51 c 0.12,-4.57 1.33,-8.09 3.71,-10.63 2.38,-2.54 5.35,-3.83 8.87,-3.83 2.42,0 4.41,0.67 6.05,1.99 1.64,1.29 2.89,3.44 3.75,6.33 z m 0.86,15.55 c -0.12,4.45 -1.25,7.81 -3.44,10.16 -2.18,2.3 -4.84,3.47 -8,3.47 -3.36,0 -6.14,-1.25 -8.32,-3.67 -2.15,-2.46 -3.25,-5.78 -3.21,-9.96 z"
         style="fill:#000000;fill-opacity:1;fill-rule:nonzero;stroke:none"
         id="path218" />
      <path
         d="m 3716.6,1098.91 -23.4,58.08 h 16.14 l 10.93,-29.65 3.17,-9.88 c 0.82,2.5 1.36,4.18 1.56,4.96 0.51,1.64 1.05,3.28 1.64,4.92 l 11.06,29.65 h 15.82 l -23.09,-58.08 z"
         style="fill:#000000;fill-opacity:1;fill-rule:nonzero;stroke:none"
         id="path220" />
      <path
         d="m 3762.93,1179.06 h 15.3516 v -14.1797 H 3762.93 Z m 0,-22.07 h 15.3516 v -58.0781 H 3762.93 Z"
         style="fill:#000000;fill-opacity:1;fill-rule:nonzero;stroke:none"
         id="path222" />
      <path
         d="m 3844.69,1139.8 -15.16,-2.73 c -0.51,3.05 -1.68,5.31 -3.48,6.84 -1.79,1.52 -4.14,2.3 -7.03,2.3 -3.82,0 -6.87,-1.33 -9.14,-3.98 -2.3,-2.62 -3.43,-7.03 -3.43,-13.25 0,-6.91 1.17,-11.75 3.47,-14.6 2.31,-2.86 5.43,-4.26 9.34,-4.26 2.89,0 5.27,0.82 7.15,2.5 1.87,1.64 3.16,4.49 3.94,8.55 l 15.08,-2.58 c -1.56,-6.91 -4.57,-12.14 -9.02,-15.7 -4.46,-3.51 -10.39,-5.31 -17.86,-5.31 -8.51,0 -15.27,2.69 -20.35,8.04 -5.04,5.36 -7.54,12.78 -7.54,22.27 0,9.57 2.54,17.07 7.58,22.38 5.08,5.35 11.92,8.01 20.55,8.01 7.11,0 12.73,-1.52 16.87,-4.57 4.18,-3.01 7.19,-7.66 9.03,-13.91 z"
         style="fill:#000000;fill-opacity:1;fill-rule:nonzero;stroke:none"
         id="path224" />
      <path
         d="m 3889.96,1117.38 15.31,-2.58 c -1.95,-5.58 -5.07,-9.88 -9.33,-12.81 -4.22,-2.93 -9.53,-4.37 -15.94,-4.37 -10.08,0 -17.58,3.28 -22.42,9.88 -3.83,5.27 -5.74,11.95 -5.74,20 0,9.65 2.5,17.19 7.54,22.62 5.03,5.47 11.4,8.2 19.1,8.2 8.63,0 15.47,-2.85 20.47,-8.59 4.96,-5.71 7.38,-14.42 7.14,-26.21 h -38.51 c 0.12,-4.57 1.37,-8.09 3.75,-10.63 2.34,-2.54 5.31,-3.83 8.83,-3.83 2.42,0 4.45,0.67 6.09,1.99 1.64,1.29 2.89,3.44 3.71,6.33 z m 0.86,15.55 c -0.12,4.45 -1.25,7.81 -3.44,10.16 -2.18,2.3 -4.84,3.47 -7.97,3.47 -3.36,0 -6.13,-1.25 -8.32,-3.67 -2.18,-2.46 -3.28,-5.78 -3.24,-9.96 z"
         style="fill:#000000;fill-opacity:1;fill-rule:nonzero;stroke:none"
         id="path226" />
      <path
         d="m 3391.99,931.988 h 680 v 520 h -680 z"
         style="fill:none;stroke:#000000;stroke-width:16;stroke-linecap:butt;stroke-linejoin:miter;stroke-miterlimit:10;stroke-dasharray:none;stroke-opacity:1"
         id="path228" />
    </g>
  </g>
</svg>
