<?xml version="1.0" encoding="UTF-8" standalone="no"?>
<!-- Created with Inkscape (http://www.inkscape.org/) -->

<svg
   version="1.1"
   id="svg2"
   width="1325.3333"
   height="852"
   viewBox="0 0 1325.3333 852"
   sodipodi:docname="smp.eps"
   xmlns:inkscape="http://www.inkscape.org/namespaces/inkscape"
   xmlns:sodipodi="http://sodipodi.sourceforge.net/DTD/sodipodi-0.dtd"
   xmlns="http://www.w3.org/2000/svg"
   xmlns:svg="http://www.w3.org/2000/svg">
  <defs
     id="defs6" />
  <sodipodi:namedview
     id="namedview4"
     pagecolor="#ffffff"
     bordercolor="#000000"
     borderopacity="0.25"
     inkscape:showpageshadow="2"
     inkscape:pageopacity="0.0"
     inkscape:pagecheckerboard="0"
     inkscape:deskcolor="#d1d1d1" />
  <g
     id="g8"
     inkscape:groupmode="layer"
     inkscape:label="ink_ext_XXXXXX"
     transform="matrix(1.3333333,0,0,-1.3333333,0,852)">
    <g
       id="g10"
       transform="scale(0.1)">
      <path
         d="M 0,0 H 9940 V 6390 H 0 Z"
         style="fill:#ffffff;fill-opacity:1;fill-rule:nonzero;stroke:none"
         id="path12" />
      <path
         d="M 0,0 H 9940 V 6390 H 0 Z"
         style="fill:#ffffff;fill-opacity:1;fill-rule:nonzero;stroke:none"
         id="path14" />
      <path
         d="M 0,0 H 9940 V 6390 H 0 Z"
         style="fill:#ffffff;fill-opacity:1;fill-rule:nonzero;stroke:none"
         id="path16" />
      <path
         d="m 10.0117,7.5625 h 9918.66 v 6372.55 H 10.0117 Z"
         style="fill:none;stroke:#000000;stroke-width:20;stroke-linecap:butt;stroke-linejoin:round;stroke-miterlimit:10;stroke-dasharray:none;stroke-opacity:1"
         id="path18" />
      <path
         d="m 2875.53,1493.65 h 48.8281 v 394 H 2875.53 Z"
         style="fill:#ff0000;fill-opacity:1;fill-rule:nonzero;stroke:none"
         id="path20" />
      <path
         d="m 2875.53,1493.65 h 48.8281 v 394.004 H 2875.53 Z"
         style="fill:none;stroke:#ff0000;stroke-width:3;stroke-linecap:butt;stroke-linejoin:round;stroke-miterlimit:10;stroke-dasharray:none;stroke-opacity:1"
         id="path22" />
      <path
         d="m 4577.37,2855.5 h 48.8242 v 539.609 H 4577.37 Z"
         style="fill:#0000ff;fill-opacity:1;fill-rule:nonzero;stroke:none"
         id="path24" />
      <path
         d="m 4577.36,2855.5 h 48.8281 v 539.609 H 4577.36 Z"
         style="fill:none;stroke:#0000ff;stroke-width:3;stroke-linecap:butt;stroke-linejoin:round;stroke-miterlimit:10;stroke-dasharray:none;stroke-opacity:1"
         id="path26" />
      <path
         d="m 2875.53,2855.5 h 48.8281 v 539.609 H 2875.53 Z"
         style="fill:#0000ff;fill-opacity:1;fill-rule:nonzero;stroke:none"
         id="path28" />
      <path
         d="m 2875.53,2855.5 h 48.8281 v 539.609 H 2875.53 Z"
         style="fill:none;stroke:#0000ff;stroke-width:3;stroke-linecap:butt;stroke-linejoin:round;stroke-miterlimit:10;stroke-dasharray:none;stroke-opacity:1"
         id="path30" />
      <path
         d="m 6674.55,2855.5 h 48.8242 v 539.609 H 6674.55 Z"
         style="fill:#0000ff;fill-opacity:1;fill-rule:nonzero;stroke:none"
         id="path32" />
      <path
         d="m 6674.55,2855.5 h 48.8242 v 539.609 H 6674.55 Z"
         style="fill:none;stroke:#0000ff;stroke-width:3;stroke-linecap:butt;stroke-linejoin:round;stroke-miterlimit:10;stroke-dasharray:none;stroke-opacity:1"
         id="path34" />
      <path
         d="m 3411.35,1953.3 h 178.523 v 167.023 H 3411.35 Z"
         style="fill:#ffffff;fill-opacity:1;fill-rule:nonzero;stroke:none"
         id="path36" />
      <path
         d="m 3411.35,1953.29 h 178.523 v 167.02 H 3411.35 Z"
         style="fill:none;stroke:#000000;stroke-width:3;stroke-linecap:butt;stroke-linejoin:round;stroke-miterlimit:10;stroke-dasharray:none;stroke-opacity:1"
         id="path38" />
      <path
         d="m 3546.89,2005.09 42.12,-37.65 v 783.33 l -42.12,37.65 z"
         style="fill:#000000;fill-opacity:1;fill-rule:nonzero;stroke:none"
         id="path40" />
      <g
         id="g42"
         transform="matrix(0.618189,-0.552624,0,0.829187,0,0)">
        <path
           d="m 5737.56,6242.02 68.12,-0.01 v 944.69 l -68.12,0.01 z"
           style="fill:none;stroke:#000000;stroke-width:4.1902;stroke-linecap:butt;stroke-linejoin:round;stroke-miterlimit:10;stroke-dasharray:none;stroke-opacity:1"
           id="path44" />
      </g>
      <path
         d="m 3534.78,1992.55 44.67,-39.4 H 2260.37 l -44.66,39.4 z"
         style="fill:#000000;fill-opacity:1;fill-rule:nonzero;stroke:none"
         id="path46" />
      <g
         id="g48"
         transform="matrix(0.621965,-0.548658,-0.829377,0,0,0)">
        <path
           d="m -3631.68,-6985.44 h 71.82 V -5395 h -71.82 z"
           style="fill:none;stroke:#000000;stroke-width:4.44728;stroke-linecap:butt;stroke-linejoin:round;stroke-miterlimit:10;stroke-dasharray:none;stroke-opacity:1"
           id="path50" />
      </g>
      <path
         d="M 2216.37,1994.7 H 3546.9 v 793.715 H 2216.37 Z"
         style="fill:#ffff00;fill-opacity:1;fill-rule:nonzero;stroke:none"
         id="path52" />
      <path
         d="M 2216.37,1994.7 H 3546.9 v 793.715 H 2216.37 Z"
         style="fill:none;stroke:#070000;stroke-width:3;stroke-linecap:butt;stroke-linejoin:round;stroke-miterlimit:10;stroke-dasharray:none;stroke-opacity:1"
         id="path54" />
      <path
         d="m 5113.18,1953.3 h 178.523 v 167.023 H 5113.18 Z"
         style="fill:#ffffff;fill-opacity:1;fill-rule:nonzero;stroke:none"
         id="path56" />
      <path
         d="m 5113.18,1953.29 h 178.523 v 167.02 H 5113.18 Z"
         style="fill:none;stroke:#000000;stroke-width:3;stroke-linecap:butt;stroke-linejoin:round;stroke-miterlimit:10;stroke-dasharray:none;stroke-opacity:1"
         id="path58" />
      <path
         d="m 5248.73,2005.09 42.11,-37.64 v 783.33 l -42.11,37.64 z"
         style="fill:#000000;fill-opacity:1;fill-rule:nonzero;stroke:none"
         id="path60" />
      <g
         id="g62"
         transform="matrix(0.618189,-0.552624,0,0.829187,0,0)">
        <path
           d="m 8490.49,8076.75 h 68.12 v 944.7 l -68.12,0.01 z"
           style="fill:none;stroke:#000000;stroke-width:4.1902;stroke-linecap:butt;stroke-linejoin:round;stroke-miterlimit:10;stroke-dasharray:none;stroke-opacity:1"
           id="path64" />
      </g>
      <path
         d="m 5236.62,1992.55 44.66,-39.4 H 3962.21 l -44.67,39.4 z"
         style="fill:#000000;fill-opacity:1;fill-rule:nonzero;stroke:none"
         id="path66" />
      <g
         id="g68"
         transform="matrix(0.621965,-0.548658,-0.829377,0,0,0)">
        <path
           d="m -3631.68,-9037.39 h 71.82 v 1590.44 h -71.82 z"
           style="fill:none;stroke:#000000;stroke-width:4.44728;stroke-linecap:butt;stroke-linejoin:round;stroke-miterlimit:10;stroke-dasharray:none;stroke-opacity:1"
           id="path70" />
      </g>
      <path
         d="m 3918.2,1994.7 h 1330.53 v 793.715 H 3918.2 Z"
         style="fill:#ffff00;fill-opacity:1;fill-rule:nonzero;stroke:none"
         id="path72" />
      <path
         d="m 3918.2,1994.7 h 1330.52 v 793.715 H 3918.2 Z"
         style="fill:none;stroke:#070000;stroke-width:3;stroke-linecap:butt;stroke-linejoin:round;stroke-miterlimit:10;stroke-dasharray:none;stroke-opacity:1"
         id="path74" />
      <path
         d="m 7237.87,1936.16 h 178.52 v 167.023 h -178.52 z"
         style="fill:#ffffff;fill-opacity:1;fill-rule:nonzero;stroke:none"
         id="path76" />
      <path
         d="m 7237.87,1936.16 h 178.52 v 167.023 h -178.52 z"
         style="fill:none;stroke:#000000;stroke-width:3;stroke-linecap:butt;stroke-linejoin:round;stroke-miterlimit:10;stroke-dasharray:none;stroke-opacity:1"
         id="path78" />
      <path
         d="m 7373.4,1987.97 42.12,-37.65 v 783.33 l -42.12,37.65 z"
         style="fill:#000000;fill-opacity:1;fill-rule:nonzero;stroke:none"
         id="path80" />
      <g
         id="g82"
         transform="matrix(0.618189,-0.552624,0,0.829187,0,0)">
        <path
           d="m 11927.4,10346.7 h 68.1 v 944.7 h -68.1 z"
           style="fill:none;stroke:#000000;stroke-width:4.1902;stroke-linecap:butt;stroke-linejoin:round;stroke-miterlimit:10;stroke-dasharray:none;stroke-opacity:1"
           id="path84" />
      </g>
      <path
         d="m 7361.3,1975.42 44.66,-39.4 H 6086.89 l -44.67,39.4 z"
         style="fill:#000000;fill-opacity:1;fill-rule:nonzero;stroke:none"
         id="path86" />
      <g
         id="g88"
         transform="matrix(0.621965,-0.548658,-0.829377,0,0,0)">
        <path
           d="m -3600.45,-11575.8 h 71.8 v 1590.49 h -71.8 z"
           style="fill:none;stroke:#000000;stroke-width:4.44728;stroke-linecap:butt;stroke-linejoin:round;stroke-miterlimit:10;stroke-dasharray:none;stroke-opacity:1"
           id="path90" />
      </g>
      <path
         d="m 6042.89,1977.57 h 1330.53 v 793.711 H 6042.89 Z"
         style="fill:#ffff00;fill-opacity:1;fill-rule:nonzero;stroke:none"
         id="path92" />
      <path
         d="m 6042.89,1977.56 h 1330.53 v 793.715 H 6042.89 Z"
         style="fill:none;stroke:#070000;stroke-width:3;stroke-linecap:butt;stroke-linejoin:round;stroke-miterlimit:10;stroke-dasharray:none;stroke-opacity:1"
         id="path94" />
      <path
         d="m 3402.2,591.418 h 178.523 V 758.441 H 3402.2 Z"
         style="fill:#ffffff;fill-opacity:1;fill-rule:nonzero;stroke:none"
         id="path96" />
      <path
         d="m 3402.2,591.414 h 178.523 V 758.437 H 3402.2 Z"
         style="fill:none;stroke:#000000;stroke-width:3;stroke-linecap:butt;stroke-linejoin:round;stroke-miterlimit:10;stroke-dasharray:none;stroke-opacity:1"
         id="path98" />
      <path
         d="m 3537.74,643.215 42.12,-37.645 v 783.33 l -42.12,37.65 z"
         style="fill:#000000;fill-opacity:1;fill-rule:nonzero;stroke:none"
         id="path100" />
      <g
         id="g102"
         transform="matrix(0.618189,-0.552624,0,0.829187,0,0)">
        <path
           d="m 5722.75,4589.74 68.13,-0.01 v 944.7 l -68.13,-0.01 z"
           style="fill:none;stroke:#000000;stroke-width:4.1902;stroke-linecap:butt;stroke-linejoin:round;stroke-miterlimit:10;stroke-dasharray:none;stroke-opacity:1"
           id="path104" />
      </g>
      <path
         d="m 3525.63,630.68 44.66,-39.403 H 2251.21 l -44.66,39.403 z"
         style="fill:#000000;fill-opacity:1;fill-rule:nonzero;stroke:none"
         id="path106" />
      <g
         id="g108"
         transform="matrix(0.621965,-0.548658,-0.829377,0,0,0)">
        <path
           d="m -1149.49,-5112.96 71.8,-0.01 v 1590.45 h -71.8 z"
           style="fill:none;stroke:#000000;stroke-width:4.44728;stroke-linecap:butt;stroke-linejoin:round;stroke-miterlimit:10;stroke-dasharray:none;stroke-opacity:1"
           id="path110" />
      </g>
      <path
         d="m 2207.21,632.816 h 1330.53 v 793.715 H 2207.21 Z"
         style="fill:#ff00ff;fill-opacity:1;fill-rule:nonzero;stroke:none"
         id="path112" />
      <path
         d="m 2207.21,632.813 h 1330.52 v 793.715 H 2207.21 Z"
         style="fill:none;stroke:#070000;stroke-width:3;stroke-linecap:butt;stroke-linejoin:round;stroke-miterlimit:10;stroke-dasharray:none;stroke-opacity:1"
         id="path114" />
      <path
         d="m 5104.02,591.418 h 178.523 V 758.441 H 5104.02 Z"
         style="fill:#ffffff;fill-opacity:1;fill-rule:nonzero;stroke:none"
         id="path116" />
      <path
         d="m 5104.02,591.414 h 178.523 V 758.437 H 5104.02 Z"
         style="fill:none;stroke:#000000;stroke-width:3;stroke-linecap:butt;stroke-linejoin:round;stroke-miterlimit:10;stroke-dasharray:none;stroke-opacity:1"
         id="path118" />
      <path
         d="m 5239.57,643.215 42.11,-37.649 V 1388.9 l -42.11,37.64 z"
         style="fill:#000000;fill-opacity:1;fill-rule:nonzero;stroke:none"
         id="path120" />
      <g
         id="g122"
         transform="matrix(0.618189,-0.552624,0,0.829187,0,0)">
        <path
           d="m 8475.68,6424.45 h 68.12 v 944.7 l -68.12,-0.01 z"
           style="fill:none;stroke:#000000;stroke-width:4.1902;stroke-linecap:butt;stroke-linejoin:round;stroke-miterlimit:10;stroke-dasharray:none;stroke-opacity:1"
           id="path124" />
      </g>
      <path
         d="m 5227.46,630.68 44.66,-39.403 H 3953.05 l -44.67,39.403 z"
         style="fill:#000000;fill-opacity:1;fill-rule:nonzero;stroke:none"
         id="path126" />
      <g
         id="g128"
         transform="matrix(0.621965,-0.548658,-0.829377,0,0,0)">
        <path
           d="m -1149.49,-7164.89 71.8,-0.01 v 1590.44 l -71.8,0.01 z"
           style="fill:none;stroke:#000000;stroke-width:4.44728;stroke-linecap:butt;stroke-linejoin:round;stroke-miterlimit:10;stroke-dasharray:none;stroke-opacity:1"
           id="path130" />
      </g>
      <path
         d="m 3909.04,632.816 h 1330.53 v 793.715 H 3909.04 Z"
         style="fill:#ff00ff;fill-opacity:1;fill-rule:nonzero;stroke:none"
         id="path132" />
      <path
         d="m 3909.04,632.813 h 1330.53 v 793.715 H 3909.04 Z"
         style="fill:none;stroke:#070000;stroke-width:3;stroke-linecap:butt;stroke-linejoin:round;stroke-miterlimit:10;stroke-dasharray:none;stroke-opacity:1"
         id="path134" />
      <path
         d="m 7228.71,574.289 h 178.523 V 741.312 H 7228.71 Z"
         style="fill:#ffffff;fill-opacity:1;fill-rule:nonzero;stroke:none"
         id="path136" />
      <path
         d="m 7228.71,574.289 h 178.523 V 741.312 H 7228.71 Z"
         style="fill:none;stroke:#000000;stroke-width:3;stroke-linecap:butt;stroke-linejoin:round;stroke-miterlimit:10;stroke-dasharray:none;stroke-opacity:1"
         id="path138" />
      <path
         d="m 7364.25,626.094 42.11,-37.645 v 783.331 l -42.11,37.65 z"
         style="fill:#000000;fill-opacity:1;fill-rule:nonzero;stroke:none"
         id="path140" />
      <g
         id="g142"
         transform="matrix(0.618189,-0.552624,0,0.829187,0,0)">
        <path
           d="m 11912.6,8694.4 h 68.1 v 944.71 h -68.1 z"
           style="fill:none;stroke:#000000;stroke-width:4.1902;stroke-linecap:butt;stroke-linejoin:round;stroke-miterlimit:10;stroke-dasharray:none;stroke-opacity:1"
           id="path144" />
      </g>
      <path
         d="m 7352.15,613.551 44.66,-39.403 H 6077.74 l -44.66,39.403 z"
         style="fill:#000000;fill-opacity:1;fill-rule:nonzero;stroke:none"
         id="path146" />
      <g
         id="g148"
         transform="matrix(0.621965,-0.548658,-0.829377,0,0,0)">
        <path
           d="m -1118.27,-9703.27 71.82,-0.01 v 1590.45 h -71.82 z"
           style="fill:none;stroke:#000000;stroke-width:4.44728;stroke-linecap:butt;stroke-linejoin:round;stroke-miterlimit:10;stroke-dasharray:none;stroke-opacity:1"
           id="path150" />
      </g>
      <path
         d="m 6033.73,615.688 h 1330.53 v 793.711 H 6033.73 Z"
         style="fill:#ff00ff;fill-opacity:1;fill-rule:nonzero;stroke:none"
         id="path152" />
      <path
         d="m 6033.73,615.688 h 1330.53 v 793.715 H 6033.73 Z"
         style="fill:none;stroke:#070000;stroke-width:3;stroke-linecap:butt;stroke-linejoin:round;stroke-miterlimit:10;stroke-dasharray:none;stroke-opacity:1"
         id="path154" />
      <path
         d="m 5864.89,4257.35 h 178.523 v 167.023 H 5864.89 Z"
         style="fill:#ffffff;fill-opacity:1;fill-rule:nonzero;stroke:none"
         id="path156" />
      <path
         d="m 5864.89,4257.35 h 178.523 v 167.023 H 5864.89 Z"
         style="fill:none;stroke:#000000;stroke-width:3;stroke-linecap:butt;stroke-linejoin:round;stroke-miterlimit:10;stroke-dasharray:none;stroke-opacity:1"
         id="path158" />
      <path
         d="m 6000.44,4309.14 42.11,-37.64 v 783.32 l -42.11,37.65 z"
         style="fill:#000000;fill-opacity:1;fill-rule:nonzero;stroke:none"
         id="path160" />
      <g
         id="g162"
         transform="matrix(0.618189,-0.552624,0,0.829187,0,0)">
        <path
           d="m 9706.48,11665.9 h 68.13 v 944.6 h -68.13 z"
           style="fill:none;stroke:#000000;stroke-width:4.1902;stroke-linecap:butt;stroke-linejoin:round;stroke-miterlimit:10;stroke-dasharray:none;stroke-opacity:1"
           id="path164" />
      </g>
      <path
         d="m 5988.32,4296.61 44.66,-39.4 H 4713.91 l -44.66,39.4 z"
         style="fill:#000000;fill-opacity:1;fill-rule:nonzero;stroke:none"
         id="path166" />
      <g
         id="g168"
         transform="matrix(0.621965,-0.548658,-0.829377,0,0,0)">
        <path
           d="m -7831.11,-13093 h 71.8 v 1590.5 h -71.8 z"
           style="fill:none;stroke:#000000;stroke-width:4.44728;stroke-linecap:butt;stroke-linejoin:round;stroke-miterlimit:10;stroke-dasharray:none;stroke-opacity:1"
           id="path170" />
      </g>
      <path
         d="m 4669.91,4298.75 h 1330.53 v 793.715 H 4669.91 Z"
         style="fill:#00ffff;fill-opacity:1;fill-rule:nonzero;stroke:none"
         id="path172" />
      <path
         d="m 4669.91,4298.75 h 1330.53 v 793.715 H 4669.91 Z"
         style="fill:none;stroke:#070000;stroke-width:3;stroke-linecap:butt;stroke-linejoin:round;stroke-miterlimit:10;stroke-dasharray:none;stroke-opacity:1"
         id="path174" />
      <path
         d="m 1914.25,3491.54 h 7548.8 v 70.5977 h -7548.8 z"
         style="fill:#ff0000;fill-opacity:1;fill-rule:nonzero;stroke:none"
         id="path176" />
      <path
         d="m 1914.25,3491.54 h 7548.8 v 70.5977 h -7548.8 z"
         style="fill:none;stroke:#ff0000;stroke-width:3;stroke-linecap:butt;stroke-linejoin:round;stroke-miterlimit:10;stroke-dasharray:none;stroke-opacity:1"
         id="path178" />
      <path
         d="m 6674.55,1515.06 h 48.8242 v 372.586 H 6674.55 Z"
         style="fill:#ff0000;fill-opacity:1;fill-rule:nonzero;stroke:none"
         id="path180" />
      <path
         d="m 6674.55,1515.06 h 48.8242 v 372.59 H 6674.55 Z"
         style="fill:none;stroke:#ff0000;stroke-width:3;stroke-linecap:butt;stroke-linejoin:round;stroke-miterlimit:10;stroke-dasharray:none;stroke-opacity:1"
         id="path182" />
      <path
         d="m 4577.37,1493.65 h 48.8242 v 394 H 4577.37 Z"
         style="fill:#ff0000;fill-opacity:1;fill-rule:nonzero;stroke:none"
         id="path184" />
      <path
         d="m 4577.36,1493.65 h 48.8281 v 394.004 H 4577.36 Z"
         style="fill:none;stroke:#ff0000;stroke-width:3;stroke-linecap:butt;stroke-linejoin:round;stroke-miterlimit:10;stroke-dasharray:none;stroke-opacity:1"
         id="path186" />
      <path
         d="m 5333.14,3643.5 h 48.8242 v 539.613 H 5333.14 Z"
         style="fill:#0000ff;fill-opacity:1;fill-rule:nonzero;stroke:none"
         id="path188" />
      <path
         d="m 5333.14,3643.5 h 48.8281 v 539.613 H 5333.14 Z"
         style="fill:none;stroke:#0000ff;stroke-width:3;stroke-linecap:butt;stroke-linejoin:round;stroke-miterlimit:10;stroke-dasharray:none;stroke-opacity:1"
         id="path190" />
      <path
         d="m 1808.21,3526.34 c 213.14,-86.48 209.04,-88.4 209.04,-88.4 l -26.64,84.56 26.64,90.31"
         style="fill:#f90000;fill-opacity:1;fill-rule:nonzero;stroke:none"
         id="path192" />
      <path
         d="m 1808.21,3526.34 c 213.14,-86.48 209.04,-88.4 209.04,-88.4 l -26.64,84.56 26.64,90.31 z"
         style="fill:none;stroke:#ff0000;stroke-width:10;stroke-linecap:butt;stroke-linejoin:miter;stroke-miterlimit:4;stroke-dasharray:none;stroke-opacity:1"
         id="path194" />
      <path
         d="m 9621.2,3526.34 c -213.15,-86.48 -209.04,-88.4 -209.04,-88.4 l 26.64,84.56 -26.64,90.31"
         style="fill:#f90000;fill-opacity:1;fill-rule:nonzero;stroke:none"
         id="path196" />
      <path
         d="m 9621.2,3526.34 c -213.15,-86.48 -209.05,-88.4 -209.05,-88.4 l 26.65,84.56 -26.65,90.31 z"
         style="fill:none;stroke:#ff0000;stroke-width:10;stroke-linecap:butt;stroke-linejoin:miter;stroke-miterlimit:4;stroke-dasharray:none;stroke-opacity:1"
         id="path198" />
      <path
         d="m 6696.54,3480.41 c -54.7,-120.81 -55.92,-118.48 -55.92,-118.48 l 53.49,15.1 57.14,-15.1"
         style="fill:#0000ff;fill-opacity:1;fill-rule:nonzero;stroke:none"
         id="path200" />
      <path
         d="m 6696.54,3480.41 c -54.7,-120.81 -55.92,-118.48 -55.92,-118.48 l 53.49,15.09 57.14,-15.09 z"
         style="fill:none;stroke:#0000ff;stroke-width:10;stroke-linecap:butt;stroke-linejoin:miter;stroke-miterlimit:4;stroke-dasharray:none;stroke-opacity:1"
         id="path202" />
      <path
         d="m 4599.33,3480.41 c -54.7,-120.81 -55.92,-118.48 -55.92,-118.48 l 53.49,15.1 57.13,-15.1"
         style="fill:#0000ff;fill-opacity:1;fill-rule:nonzero;stroke:none"
         id="path204" />
      <path
         d="m 4599.33,3480.41 c -54.7,-120.81 -55.92,-118.48 -55.92,-118.48 l 53.49,15.09 57.14,-15.09 z"
         style="fill:none;stroke:#0000ff;stroke-width:10;stroke-linecap:butt;stroke-linejoin:miter;stroke-miterlimit:4;stroke-dasharray:none;stroke-opacity:1"
         id="path206" />
      <path
         d="m 2897.5,3480.41 c -54.7,-120.81 -55.92,-118.48 -55.92,-118.48 l 53.49,15.1 57.13,-15.1"
         style="fill:#0000ff;fill-opacity:1;fill-rule:nonzero;stroke:none"
         id="path208" />
      <path
         d="m 2897.5,3480.41 c -54.7,-120.81 -55.92,-118.48 -55.92,-118.48 l 53.49,15.09 57.13,-15.09 z"
         style="fill:none;stroke:#0000ff;stroke-width:10;stroke-linecap:butt;stroke-linejoin:miter;stroke-miterlimit:4;stroke-dasharray:none;stroke-opacity:1"
         id="path210" />
      <path
         d="m 2897.5,2813.75 c -54.7,120.81 -55.92,118.48 -55.92,118.48 l 53.49,-15.1 57.13,15.1"
         style="fill:#0000ff;fill-opacity:1;fill-rule:nonzero;stroke:none"
         id="path212" />
      <path
         d="m 2897.5,2813.74 c -54.7,120.81 -55.92,118.49 -55.92,118.49 l 53.49,-15.1 57.13,15.1 z"
         style="fill:none;stroke:#0000ff;stroke-width:10;stroke-linecap:butt;stroke-linejoin:miter;stroke-miterlimit:4;stroke-dasharray:none;stroke-opacity:1"
         id="path214" />
      <path
         d="m 4599.33,2813.75 c -54.7,120.81 -55.92,118.48 -55.92,118.48 l 53.49,-15.1 57.13,15.1"
         style="fill:#0000ff;fill-opacity:1;fill-rule:nonzero;stroke:none"
         id="path216" />
      <path
         d="m 4599.33,2813.74 c -54.7,120.81 -55.92,118.49 -55.92,118.49 l 53.49,-15.1 57.14,15.1 z"
         style="fill:none;stroke:#0000ff;stroke-width:10;stroke-linecap:butt;stroke-linejoin:miter;stroke-miterlimit:4;stroke-dasharray:none;stroke-opacity:1"
         id="path218" />
      <path
         d="m 6696.54,2813.75 c -54.7,120.81 -55.92,118.48 -55.92,118.48 l 53.49,-15.1 57.14,15.1"
         style="fill:#0000ff;fill-opacity:1;fill-rule:nonzero;stroke:none"
         id="path220" />
      <path
         d="m 6696.54,2813.74 c -54.7,120.81 -55.92,118.49 -55.92,118.49 l 53.49,-15.1 57.14,15.1 z"
         style="fill:none;stroke:#0000ff;stroke-width:10;stroke-linecap:butt;stroke-linejoin:miter;stroke-miterlimit:4;stroke-dasharray:none;stroke-opacity:1"
         id="path222" />
      <path
         d="m 6696.54,1434.74 c -54.7,120.81 -55.92,118.49 -55.92,118.49 l 53.49,-15.1 57.14,15.1"
         style="fill:#f90000;fill-opacity:1;fill-rule:nonzero;stroke:none"
         id="path224" />
      <path
         d="m 6696.54,1434.74 c -54.7,120.81 -55.92,118.49 -55.92,118.49 l 53.49,-15.1 57.14,15.1 z"
         style="fill:none;stroke:#ff0000;stroke-width:10;stroke-linecap:butt;stroke-linejoin:miter;stroke-miterlimit:4;stroke-dasharray:none;stroke-opacity:1"
         id="path226" />
      <path
         d="m 4599.33,1443.3 c -54.7,120.81 -55.92,118.49 -55.92,118.49 l 53.49,-15.1 57.13,15.1"
         style="fill:#f90000;fill-opacity:1;fill-rule:nonzero;stroke:none"
         id="path228" />
      <path
         d="m 4599.33,1443.3 c -54.7,120.81 -55.92,118.49 -55.92,118.49 l 53.49,-15.1 57.14,15.1 z"
         style="fill:none;stroke:#ff0000;stroke-width:10;stroke-linecap:butt;stroke-linejoin:miter;stroke-miterlimit:4;stroke-dasharray:none;stroke-opacity:1"
         id="path230" />
      <path
         d="m 2897.5,1443.3 c -54.7,120.81 -55.92,118.49 -55.92,118.49 l 53.49,-15.1 57.13,15.1"
         style="fill:#f90000;fill-opacity:1;fill-rule:nonzero;stroke:none"
         id="path232" />
      <path
         d="m 2897.5,1443.3 c -54.7,120.81 -55.92,118.49 -55.92,118.49 l 53.49,-15.1 57.13,15.1 z"
         style="fill:none;stroke:#ff0000;stroke-width:10;stroke-linecap:butt;stroke-linejoin:miter;stroke-miterlimit:4;stroke-dasharray:none;stroke-opacity:1"
         id="path234" />
      <path
         d="m 6696.54,1921.53 c -54.7,-120.81 -55.92,-118.48 -55.92,-118.48 l 53.49,15.1 57.14,-15.1"
         style="fill:#f90000;fill-opacity:1;fill-rule:nonzero;stroke:none"
         id="path236" />
      <path
         d="m 6696.54,1921.53 c -54.7,-120.8 -55.92,-118.48 -55.92,-118.48 l 53.49,15.1 57.14,-15.1 z"
         style="fill:none;stroke:#ff0000;stroke-width:10;stroke-linecap:butt;stroke-linejoin:miter;stroke-miterlimit:4;stroke-dasharray:none;stroke-opacity:1"
         id="path238" />
      <path
         d="m 4602.88,1938.97 c -54.7,-120.81 -55.92,-118.49 -55.92,-118.49 l 53.49,15.1 57.13,-15.1"
         style="fill:#f90000;fill-opacity:1;fill-rule:nonzero;stroke:none"
         id="path240" />
      <path
         d="m 4602.88,1938.96 c -54.7,-120.81 -55.92,-118.48 -55.92,-118.48 l 53.49,15.09 57.13,-15.09 z"
         style="fill:none;stroke:#ff0000;stroke-width:10;stroke-linecap:butt;stroke-linejoin:miter;stroke-miterlimit:4;stroke-dasharray:none;stroke-opacity:1"
         id="path242" />
      <path
         d="m 2897.5,1930.1 c -54.7,-120.81 -55.92,-118.49 -55.92,-118.49 l 53.49,15.1 57.13,-15.1"
         style="fill:#f90000;fill-opacity:1;fill-rule:nonzero;stroke:none"
         id="path244" />
      <path
         d="m 2897.5,1930.1 c -54.7,-120.81 -55.92,-118.49 -55.92,-118.49 l 53.49,15.1 57.13,-15.1 z"
         style="fill:none;stroke:#ff0000;stroke-width:10;stroke-linecap:butt;stroke-linejoin:miter;stroke-miterlimit:4;stroke-dasharray:none;stroke-opacity:1"
         id="path246" />
      <path
         d="m 5355.62,4238.44 c -54.71,-120.81 -55.92,-118.49 -55.92,-118.49 l 53.49,15.1 57.13,-15.1"
         style="fill:#0000ff;fill-opacity:1;fill-rule:nonzero;stroke:none"
         id="path248" />
      <path
         d="m 5355.62,4238.44 c -54.71,-120.81 -55.92,-118.49 -55.92,-118.49 l 53.49,15.1 57.13,-15.1 z"
         style="fill:none;stroke:#0000ff;stroke-width:10;stroke-linecap:butt;stroke-linejoin:miter;stroke-miterlimit:4;stroke-dasharray:none;stroke-opacity:1"
         id="path250" />
      <path
         d="m 5355.62,3584.62 c -54.71,120.81 -55.92,118.49 -55.92,118.49 l 53.49,-15.1 57.13,15.1"
         style="fill:#0000ff;fill-opacity:1;fill-rule:nonzero;stroke:none"
         id="path252" />
      <path
         d="m 5355.62,3584.61 c -54.71,120.82 -55.92,118.49 -55.92,118.49 l 53.49,-15.1 57.13,15.1 z"
         style="fill:none;stroke:#0000ff;stroke-width:10;stroke-linecap:butt;stroke-linejoin:miter;stroke-miterlimit:4;stroke-dasharray:none;stroke-opacity:1"
         id="path254" />
      <g
         id="g256"
         transform="scale(10)">
        <text
           xml:space="preserve"
           transform="matrix(1,0,0,-0.93558497,96.2129,572.915)"
           style="font-variant:normal;font-weight:bold;font-size:33.0466px;font-family:'Times New Roman';-inkscape-font-specification:Times-Bold;writing-mode:lr-tb;fill:#000000;fill-opacity:1;fill-rule:nonzero;stroke:none"
           id="text260"><tspan
             x="0 18.380512 49.569897 67.950409 76.212059 87.216576 95.478226 113.85875 130.38205 157.90987 185.43768 200.10378 211.10829 225.77437 234.95471 249.62077 257.88242 289.07181 307.45233 316.63269 327.63721 336.81757 355.19806 369.2858 385.80908 400.47516 415.1412 428.0029 440.86462 457.38794 471.47565 479.7373 498.1178 514.64111 527.50287 538.50739 553.17346"
             y="0"
             sodipodi:role="line"
             id="tspan258">SMP - Symmetric Multiprocessor System</tspan></text>
        <text
           xml:space="preserve"
           transform="matrix(1,0,0,-0.93558497,228.04486,365.635)"
           style="font-variant:normal;font-weight:normal;font-size:22.2032px;font-family:'Times New Roman';-inkscape-font-specification:Times-Roman;writing-mode:lr-tb;fill:#000000;fill-opacity:1;fill-rule:nonzero;stroke:none"
           id="text284"><tspan
             x="0 12.349434 23.451044 32.092541 38.260571 48.114357 65.384018 70.934822 85.74437 96.845985"
             y="0"
             sodipodi:role="line"
             id="tspan262">System Bus</tspan><tspan
             x="25.023382 39.832932 49.686691 59.540478 70.64209 195.81741 210.62695 220.48074 230.33453 241.43614"
             y="144.6635"
             sodipodi:role="line"
             id="tspan264">CacheCache</tspan><tspan
             x="407.36279 422.17233 432.02612 441.87991 452.98151"
             y="144.05309"
             sodipodi:role="line"
             id="tspan266">Cache</tspan><tspan
             x="16.647873 28.997307 36.39098 47.492592 57.346352 67.200142 75.841637 84.483131 95.58474"
             y="282.58353"
             sodipodi:role="line"
             id="tspan268">Processor</tspan><tspan
             x="54.261772"
             y="310.04922"
             id="tspan270">1</tspan><tspan
             x="186.83124 199.18068 206.57434 217.67595 227.52974 237.38353 246.02502 254.66652 265.76813"
             y="282.58353"
             sodipodi:role="line"
             id="tspan272">Processor</tspan><tspan
             x="224.44514"
             y="310.04922"
             id="tspan274">2</tspan><tspan
             x="398.98727 411.3367 418.73038 429.832 439.68579 449.53958 458.18106 466.82257 477.92416"
             y="282.58353"
             sodipodi:role="line"
             id="tspan276">Processor</tspan><tspan
             x="436.60159"
             y="310.04922"
             id="tspan278">n</tspan><tspan
             x="282.95441 302.69751 312.56021 318.73712"
             y="-118.40356"
             sodipodi:role="line"
             id="tspan280">Main</tspan><tspan
             x="268.15598 287.89908 297.75287 315.02252 326.12415 333.51782"
             y="-90.93914"
             sodipodi:role="line"
             id="tspan282">Memory</tspan></text>
      </g>
      <path
         d="m 5537.77,1677.78 c 0,-14.98 -12.98,-27.12 -28.99,-27.12 -16.01,0 -28.99,12.14 -28.99,27.12 0,14.98 12.98,27.12 28.99,27.12 15.92,0 28.86,-12 28.99,-26.89 l -28.99,-0.23"
         style="fill:#00000d;fill-opacity:1;fill-rule:evenodd;stroke:none"
         id="path286" />
      <g
         id="g288"
         transform="scale(1.03328,-0.966719)">
        <path
           d="m 5359.41,-1735.54 c 0,15.49 -12.56,28.06 -28.06,28.06 -15.5,0 -28.05,-12.57 -28.05,-28.06 0,-15.49 12.55,-28.06 28.05,-28.06 15.4,0 27.93,12.42 28.06,27.82 l -28.06,0.24 z"
           style="fill:none;stroke:#000000;stroke-width:3.00166;stroke-linecap:butt;stroke-linejoin:round;stroke-miterlimit:10;stroke-dasharray:none;stroke-opacity:1"
           id="path290" />
      </g>
      <path
         d="m 5698,1677.78 c 0,-14.98 -12.98,-27.12 -28.99,-27.12 -16.01,0 -28.99,12.14 -28.99,27.12 0,14.98 12.98,27.12 28.99,27.12 15.91,0 28.85,-12 28.99,-26.89 l -28.99,-0.23"
         style="fill:#00000d;fill-opacity:1;fill-rule:evenodd;stroke:none"
         id="path292" />
      <g
         id="g294"
         transform="scale(1.03328,-0.966719)">
        <path
           d="m 5514.47,-1735.54 c 0,15.49 -12.56,28.06 -28.05,28.06 -15.5,0 -28.06,-12.57 -28.06,-28.06 0,-15.49 12.56,-28.06 28.06,-28.06 15.4,0 27.92,12.42 28.05,27.82 l -28.05,0.24 z"
           style="fill:none;stroke:#000000;stroke-width:3.00166;stroke-linecap:butt;stroke-linejoin:round;stroke-miterlimit:10;stroke-dasharray:none;stroke-opacity:1"
           id="path296" />
      </g>
      <path
         d="m 5867.36,1677.78 c 0,-14.98 -12.98,-27.12 -29,-27.12 -16.01,0 -28.99,12.14 -28.99,27.12 0,14.98 12.98,27.12 28.99,27.12 15.92,0 28.85,-12 28.99,-26.89 l -28.99,-0.23"
         style="fill:#00000d;fill-opacity:1;fill-rule:evenodd;stroke:none"
         id="path298" />
      <g
         id="g300"
         transform="scale(1.03328,-0.966719)">
        <path
           d="m 5678.38,-1735.54 c 0,15.49 -12.57,28.06 -28.06,28.06 -15.5,0 -28.06,-12.57 -28.06,-28.06 0,-15.49 12.56,-28.06 28.06,-28.06 15.4,0 27.92,12.42 28.05,27.82 l -28.05,0.24 z"
           style="fill:none;stroke:#000000;stroke-width:3.00166;stroke-linecap:butt;stroke-linejoin:round;stroke-miterlimit:10;stroke-dasharray:none;stroke-opacity:1"
           id="path302" />
      </g>
      <path
         d="m 5537.77,1677.78 c 0,-14.98 -12.98,-27.12 -28.99,-27.12 -16.01,0 -28.99,12.14 -28.99,27.12 0,14.98 12.98,27.12 28.99,27.12 15.92,0 28.86,-12 28.99,-26.89 l -28.99,-0.23"
         style="fill:#00000d;fill-opacity:1;fill-rule:evenodd;stroke:none"
         id="path304" />
      <g
         id="g306"
         transform="scale(1.03328,-0.966719)">
        <path
           d="m 5359.41,-1735.54 c 0,15.49 -12.56,28.06 -28.06,28.06 -15.5,0 -28.05,-12.57 -28.05,-28.06 0,-15.49 12.55,-28.06 28.05,-28.06 15.4,0 27.93,12.42 28.06,27.82 l -28.06,0.24 z"
           style="fill:none;stroke:#000000;stroke-width:3.00166;stroke-linecap:butt;stroke-linejoin:round;stroke-miterlimit:10;stroke-dasharray:none;stroke-opacity:1"
           id="path308" />
      </g>
      <path
         d="m 5698,1677.78 c 0,-14.98 -12.98,-27.12 -28.99,-27.12 -16.01,0 -28.99,12.14 -28.99,27.12 0,14.98 12.98,27.12 28.99,27.12 15.91,0 28.85,-12 28.99,-26.89 l -28.99,-0.23"
         style="fill:#00000d;fill-opacity:1;fill-rule:evenodd;stroke:none"
         id="path310" />
      <g
         id="g312"
         transform="scale(1.03328,-0.966719)">
        <path
           d="m 5514.47,-1735.54 c 0,15.49 -12.56,28.06 -28.05,28.06 -15.5,0 -28.06,-12.57 -28.06,-28.06 0,-15.49 12.56,-28.06 28.06,-28.06 15.4,0 27.92,12.42 28.05,27.82 l -28.05,0.24 z"
           style="fill:none;stroke:#000000;stroke-width:3.00166;stroke-linecap:butt;stroke-linejoin:round;stroke-miterlimit:10;stroke-dasharray:none;stroke-opacity:1"
           id="path314" />
      </g>
      <path
         d="m 5867.36,1677.78 c 0,-14.98 -12.98,-27.12 -29,-27.12 -16.01,0 -28.99,12.14 -28.99,27.12 0,14.98 12.98,27.12 28.99,27.12 15.92,0 28.85,-12 28.99,-26.89 l -28.99,-0.23"
         style="fill:#00000d;fill-opacity:1;fill-rule:evenodd;stroke:none"
         id="path316" />
      <g
         id="g318"
         transform="scale(1.03328,-0.966719)">
        <path
           d="m 5678.38,-1735.54 c 0,15.49 -12.57,28.06 -28.06,28.06 -15.5,0 -28.06,-12.57 -28.06,-28.06 0,-15.49 12.56,-28.06 28.06,-28.06 15.4,0 27.92,12.42 28.05,27.82 l -28.05,0.24 z"
           style="fill:none;stroke:#000000;stroke-width:3.00166;stroke-linecap:butt;stroke-linejoin:round;stroke-miterlimit:10;stroke-dasharray:none;stroke-opacity:1"
           id="path320" />
      </g>
      <g
         id="g322"
         transform="scale(10)">
        <text
           xml:space="preserve"
           transform="matrix(1,0,0,-0.93558497,846.506,10.2176)"
           style="font-style:italic;font-variant:normal;font-weight:bold;font-size:9.81071px;font-family:'Times New Roman';-inkscape-font-specification:TimesNewRomanPS-BoldItalicMT;writing-mode:lr-tb;fill:#000000;fill-opacity:1;fill-rule:nonzero;stroke:none"
           id="text326"><tspan
             x="0 6.5437417 10.902528 13.355205 19.898945 24.252947 28.071264 31.889484 37.346191 41.700191 46.054192 48.779713 53.685066 56.132957 62.130135 67.586838 70.312263 73.037781 77.943138 83.399841 85.852516 89.119484 91.567375 100.29584 103.02135 105.74678 110.65213 116.10405 118.55673 122.37983 125.10526 130.0106 132.73134"
             y="0"
             sodipodi:role="line"
             id="tspan324">By Ferruccio Zulian - Milan.Italy</tspan></text>
      </g>
      <path
         d="m 1616.97,3101.04 h 178.523 v 167.023 H 1616.97 Z"
         style="fill:#ffffff;fill-opacity:1;fill-rule:nonzero;stroke:none"
         id="path328" />
      <path
         d="m 1616.97,3101.04 h 178.523 v 167.023 H 1616.97 Z"
         style="fill:none;stroke:#000000;stroke-width:3;stroke-linecap:butt;stroke-linejoin:round;stroke-miterlimit:10;stroke-dasharray:none;stroke-opacity:1"
         id="path330" />
      <path
         d="m 1752.52,3152.84 42.11,-37.65 v 783.33 l -42.11,37.64 z"
         style="fill:#000000;fill-opacity:1;fill-rule:nonzero;stroke:none"
         id="path332" />
      <g
         id="g334"
         transform="matrix(0.618189,-0.552624,0,0.829187,0,0)">
        <path
           d="m 2834.92,5691.69 68.12,-0.01 v 944.71 l -68.12,0.01 z"
           style="fill:none;stroke:#000000;stroke-width:4.1902;stroke-linecap:butt;stroke-linejoin:round;stroke-miterlimit:10;stroke-dasharray:none;stroke-opacity:1"
           id="path336" />
      </g>
      <path
         d="m 1740.4,3140.3 44.67,-39.4 H 465.992 l -44.664,39.4 z"
         style="fill:#000000;fill-opacity:1;fill-rule:nonzero;stroke:none"
         id="path338" />
      <g
         id="g340"
         transform="matrix(0.621965,-0.548658,-0.829377,0,0,0)">
        <path
           d="m -5723.59,-6390.67 h 71.81 v 1590.44 h -71.81 z"
           style="fill:none;stroke:#000000;stroke-width:4.44728;stroke-linecap:butt;stroke-linejoin:round;stroke-miterlimit:10;stroke-dasharray:none;stroke-opacity:1"
           id="path342" />
      </g>
      <path
         d="m 421.988,3142.44 h 1330.53 v 793.715 H 421.988 Z"
         style="fill:#0eff00;fill-opacity:1;fill-rule:nonzero;stroke:none"
         id="path344" />
      <path
         d="m 421.988,3142.44 h 1330.53 v 793.715 H 421.988 Z"
         style="fill:none;stroke:#070000;stroke-width:3;stroke-linecap:butt;stroke-linejoin:round;stroke-miterlimit:10;stroke-dasharray:none;stroke-opacity:1"
         id="path346" />
      <g
         id="g348"
         transform="scale(10)">
        <text
           xml:space="preserve"
           transform="matrix(1,0,0,-0.93558497,92.975,358.783)"
           style="font-variant:normal;font-weight:normal;font-size:22.2032px;font-family:'Times New Roman';-inkscape-font-specification:Times-Roman;writing-mode:lr-tb;fill:#000000;fill-opacity:1;fill-rule:nonzero;stroke:none"
           id="text354"><tspan
             x="0 14.809548 25.91116"
             y="0"
             sodipodi:role="line"
             id="tspan350">Bus</tspan><tspan
             x="-14.78241 1.2527536 8.6464262 19.748037 25.916101 32.084164 41.937954"
             y="27.464849"
             sodipodi:role="line"
             id="tspan352">Arbiter</tspan></text>
      </g>
      <path
         d="m 8612.09,2855.5 h 48.8242 v 539.609 H 8612.09 Z"
         style="fill:#0000ff;fill-opacity:1;fill-rule:nonzero;stroke:none"
         id="path356" />
      <path
         d="m 8612.09,2855.5 h 48.8281 v 539.609 H 8612.09 Z"
         style="fill:none;stroke:#0000ff;stroke-width:3;stroke-linecap:butt;stroke-linejoin:round;stroke-miterlimit:10;stroke-dasharray:none;stroke-opacity:1"
         id="path358" />
      <path
         d="m 9175.41,1936.16 h 178.523 v 167.023 H 9175.41 Z"
         style="fill:#ffffff;fill-opacity:1;fill-rule:nonzero;stroke:none"
         id="path360" />
      <path
         d="m 9175.41,1936.16 h 178.523 v 167.023 H 9175.41 Z"
         style="fill:none;stroke:#000000;stroke-width:3;stroke-linecap:butt;stroke-linejoin:round;stroke-miterlimit:10;stroke-dasharray:none;stroke-opacity:1"
         id="path362" />
      <path
         d="m 9310.97,1987.95 42.12,-37.64 v 783.33 l -42.12,37.65 z"
         style="fill:#000000;fill-opacity:1;fill-rule:nonzero;stroke:none"
         id="path364" />
      <g
         id="g366"
         transform="matrix(0.618189,-0.552624,0,0.829187,0,0)">
        <path
           d="m 15061.7,12435.6 h 68.1 v 944.7 h -68.1 z"
           style="fill:none;stroke:#000000;stroke-width:4.1902;stroke-linecap:butt;stroke-linejoin:round;stroke-miterlimit:10;stroke-dasharray:none;stroke-opacity:1"
           id="path368" />
      </g>
      <path
         d="m 9298.9,1975.42 44.66,-39.4 H 8024.49 l -44.66,39.4 z"
         style="fill:#000000;fill-opacity:1;fill-rule:nonzero;stroke:none"
         id="path370" />
      <g
         id="g372"
         transform="matrix(0.621965,-0.548658,-0.829377,0,0,0)">
        <path
           d="m -3600.45,-13912 h 71.8 v 1590.5 h -71.8 z"
           style="fill:none;stroke:#000000;stroke-width:4.44728;stroke-linecap:butt;stroke-linejoin:round;stroke-miterlimit:10;stroke-dasharray:none;stroke-opacity:1"
           id="path374" />
      </g>
      <path
         d="m 7980.43,1977.57 h 1330.53 v 793.711 H 7980.43 Z"
         style="fill:#b3b3b3;fill-opacity:1;fill-rule:nonzero;stroke:none"
         id="path376" />
      <path
         d="m 7980.43,1977.56 h 1330.53 v 793.715 H 7980.43 Z"
         style="fill:none;stroke:#070000;stroke-width:3;stroke-linecap:butt;stroke-linejoin:round;stroke-miterlimit:10;stroke-dasharray:none;stroke-opacity:1"
         id="path378" />
      <path
         d="m 8634.11,3480.41 c -54.7,-120.81 -55.92,-118.48 -55.92,-118.48 l 53.49,15.1 57.14,-15.1"
         style="fill:#0000ff;fill-opacity:1;fill-rule:nonzero;stroke:none"
         id="path380" />
      <path
         d="m 8634.11,3480.41 c -54.7,-120.81 -55.92,-118.48 -55.92,-118.48 l 53.49,15.09 57.14,-15.09 z"
         style="fill:none;stroke:#0000ff;stroke-width:10;stroke-linecap:butt;stroke-linejoin:miter;stroke-miterlimit:4;stroke-dasharray:none;stroke-opacity:1"
         id="path382" />
      <path
         d="m 8634.11,2813.75 c -54.7,120.81 -55.92,118.48 -55.92,118.48 l 53.49,-15.1 57.14,15.1"
         style="fill:#0000ff;fill-opacity:1;fill-rule:nonzero;stroke:none"
         id="path384" />
      <path
         d="m 8634.11,2813.74 c -54.7,120.81 -55.92,118.49 -55.92,118.49 l 53.49,-15.1 57.14,15.1 z"
         style="fill:none;stroke:#0000ff;stroke-width:10;stroke-linecap:butt;stroke-linejoin:miter;stroke-miterlimit:4;stroke-dasharray:none;stroke-opacity:1"
         id="path386" />
      <g
         id="g388"
         transform="scale(10)">
        <text
           xml:space="preserve"
           transform="matrix(1,0,0,-0.93558497,849.468,230.861)"
           style="font-variant:normal;font-weight:normal;font-size:22.2032px;font-family:'Times New Roman';-inkscape-font-specification:Times-Roman;writing-mode:lr-tb;fill:#042812;fill-opacity:1;fill-rule:nonzero;stroke:none"
           id="text392"><tspan
             x="0 7.3936725 13.561773"
             y="0"
             sodipodi:role="line"
             id="tspan390">I/O</tspan></text>
      </g>
    </g>
  </g>
</svg>
