<?xml version="1.0" encoding="UTF-8" standalone="no"?>
<!-- Created with Inkscape (http://www.inkscape.org/) -->

<svg
   version="1.1"
   id="svg2"
   width="545.33331"
   height="440"
   viewBox="0 0 545.33331 440"
   sodipodi:docname="Piecewise_constant.eps"
   xmlns:inkscape="http://www.inkscape.org/namespaces/inkscape"
   xmlns:sodipodi="http://sodipodi.sourceforge.net/DTD/sodipodi-0.dtd"
   xmlns="http://www.w3.org/2000/svg"
   xmlns:svg="http://www.w3.org/2000/svg">
  <defs
     id="defs6" />
  <sodipodi:namedview
     id="namedview4"
     pagecolor="#ffffff"
     bordercolor="#000000"
     borderopacity="0.25"
     inkscape:showpageshadow="2"
     inkscape:pageopacity="0.0"
     inkscape:pagecheckerboard="0"
     inkscape:deskcolor="#d1d1d1" />
  <g
     id="g8"
     inkscape:groupmode="layer"
     inkscape:label="ink_ext_XXXXXX"
     transform="matrix(1.3333333,0,0,-1.3333333,0,440)">
    <g
       id="g10"
       transform="scale(0.1)">
      <path
         d="M 328.012,153.98 H 471.988"
         style="fill:none;stroke:#000000;stroke-width:8;stroke-linecap:butt;stroke-linejoin:miter;stroke-miterlimit:4;stroke-dasharray:none;stroke-opacity:1"
         id="path12" />
      <g
         id="g14"
         transform="scale(10)">
        <text
           xml:space="preserve"
           transform="matrix(1,0,0,-1,-0.760938,8.2)"
           style="font-variant:normal;font-weight:normal;font-size:20px;font-family:BitstreamVeraSans;-inkscape-font-specification:BitstreamVeraSans-Roman;writing-mode:lr-tb;fill:#000000;fill-opacity:1;fill-rule:nonzero;stroke:none"
           id="text18"><tspan
             x="0 7.2199998"
             y="0"
             sodipodi:role="line"
             id="tspan16">-1</tspan></text>
      </g>
      <path
         d="M 328.012,1650 H 471.988"
         style="fill:none;stroke:#000000;stroke-width:8;stroke-linecap:butt;stroke-linejoin:miter;stroke-miterlimit:4;stroke-dasharray:none;stroke-opacity:1"
         id="path20" />
      <g
         id="g22"
         transform="scale(10)">
        <text
           xml:space="preserve"
           transform="matrix(1,0,0,-1,6.46563,157.8)"
           style="font-variant:normal;font-weight:normal;font-size:20px;font-family:BitstreamVeraSans;-inkscape-font-specification:BitstreamVeraSans-Roman;writing-mode:lr-tb;fill:#000000;fill-opacity:1;fill-rule:nonzero;stroke:none"
           id="text26"><tspan
             x="0"
             y="0"
             id="tspan24">0</tspan></text>
      </g>
      <path
         d="M 328.012,3146.02 H 471.988"
         style="fill:none;stroke:#000000;stroke-width:8;stroke-linecap:butt;stroke-linejoin:miter;stroke-miterlimit:4;stroke-dasharray:none;stroke-opacity:1"
         id="path28" />
      <g
         id="g30"
         transform="scale(10)">
        <text
           xml:space="preserve"
           transform="matrix(1,0,0,-1,6.46563,307.4)"
           style="font-variant:normal;font-weight:normal;font-size:20px;font-family:BitstreamVeraSans;-inkscape-font-specification:BitstreamVeraSans-Roman;writing-mode:lr-tb;fill:#000000;fill-opacity:1;fill-rule:nonzero;stroke:none"
           id="text34"><tspan
             x="0"
             y="0"
             id="tspan32">1</tspan></text>
      </g>
      <path
         d="m 943.98,1650 v -143.98 m 0,143.98 v 143.98"
         style="fill:none;stroke:#000000;stroke-width:8;stroke-linecap:butt;stroke-linejoin:miter;stroke-miterlimit:4;stroke-dasharray:none;stroke-opacity:1"
         id="path36" />
      <g
         id="g38"
         transform="scale(10)">
        <text
           xml:space="preserve"
           transform="matrix(1,0,0,-1,88.0328,113.8)"
           style="font-variant:normal;font-weight:normal;font-size:20px;font-family:BitstreamVeraSans;-inkscape-font-specification:BitstreamVeraSans-Roman;writing-mode:lr-tb;fill:#000000;fill-opacity:1;fill-rule:nonzero;stroke:none"
           id="text42"><tspan
             x="0"
             y="0"
             id="tspan40">1</tspan></text>
      </g>
      <path
         d="m 1560,1650 v -143.98 m 0,143.98 v 143.98"
         style="fill:none;stroke:#000000;stroke-width:8;stroke-linecap:butt;stroke-linejoin:miter;stroke-miterlimit:4;stroke-dasharray:none;stroke-opacity:1"
         id="path44" />
      <g
         id="g46"
         transform="scale(10)">
        <text
           xml:space="preserve"
           transform="matrix(1,0,0,-1,149.633,113.8)"
           style="font-variant:normal;font-weight:normal;font-size:20px;font-family:BitstreamVeraSans;-inkscape-font-specification:BitstreamVeraSans-Roman;writing-mode:lr-tb;fill:#000000;fill-opacity:1;fill-rule:nonzero;stroke:none"
           id="text50"><tspan
             x="0"
             y="0"
             id="tspan48">2</tspan></text>
      </g>
      <path
         d="m 2168.01,1650 v -143.98 m 0,143.98 v 143.98"
         style="fill:none;stroke:#000000;stroke-width:8;stroke-linecap:butt;stroke-linejoin:miter;stroke-miterlimit:4;stroke-dasharray:none;stroke-opacity:1"
         id="path52" />
      <g
         id="g54"
         transform="scale(10)">
        <text
           xml:space="preserve"
           transform="matrix(1,0,0,-1,210.433,113.8)"
           style="font-variant:normal;font-weight:normal;font-size:20px;font-family:BitstreamVeraSans;-inkscape-font-specification:BitstreamVeraSans-Roman;writing-mode:lr-tb;fill:#000000;fill-opacity:1;fill-rule:nonzero;stroke:none"
           id="text58"><tspan
             x="0"
             y="0"
             id="tspan56">3</tspan></text>
      </g>
      <path
         d="m 2783.98,1650 v -143.98 m 0,143.98 v 143.98"
         style="fill:none;stroke:#000000;stroke-width:8;stroke-linecap:butt;stroke-linejoin:miter;stroke-miterlimit:4;stroke-dasharray:none;stroke-opacity:1"
         id="path60" />
      <g
         id="g62"
         transform="scale(10)">
        <text
           xml:space="preserve"
           transform="matrix(1,0,0,-1,272.033,113.8)"
           style="font-variant:normal;font-weight:normal;font-size:20px;font-family:BitstreamVeraSans;-inkscape-font-specification:BitstreamVeraSans-Roman;writing-mode:lr-tb;fill:#000000;fill-opacity:1;fill-rule:nonzero;stroke:none"
           id="text66"><tspan
             x="0"
             y="0"
             id="tspan64">4</tspan></text>
      </g>
      <path
         d="m 3400,1650 v -143.98 m 0,143.98 v 143.98"
         style="fill:none;stroke:#000000;stroke-width:8;stroke-linecap:butt;stroke-linejoin:miter;stroke-miterlimit:4;stroke-dasharray:none;stroke-opacity:1"
         id="path68" />
      <g
         id="g70"
         transform="scale(10)">
        <text
           xml:space="preserve"
           transform="matrix(1,0,0,-1,333.633,113.8)"
           style="font-variant:normal;font-weight:normal;font-size:20px;font-family:BitstreamVeraSans;-inkscape-font-specification:BitstreamVeraSans-Roman;writing-mode:lr-tb;fill:#000000;fill-opacity:1;fill-rule:nonzero;stroke:none"
           id="text74"><tspan
             x="0"
             y="0"
             id="tspan72">5</tspan></text>
      </g>
      <path
         d="m 4016.02,1650 v -143.98 m 0,143.98 v 143.98"
         style="fill:none;stroke:#000000;stroke-width:8;stroke-linecap:butt;stroke-linejoin:miter;stroke-miterlimit:4;stroke-dasharray:none;stroke-opacity:1"
         id="path76" />
      <g
         id="g78"
         transform="scale(10)">
        <text
           xml:space="preserve"
           transform="matrix(1,0,0,-1,395.233,113.8)"
           style="font-variant:normal;font-weight:normal;font-size:20px;font-family:BitstreamVeraSans;-inkscape-font-specification:BitstreamVeraSans-Roman;writing-mode:lr-tb;fill:#000000;fill-opacity:1;fill-rule:nonzero;stroke:none"
           id="text82"><tspan
             x="0"
             y="0"
             id="tspan80">6</tspan></text>
      </g>
      <path
         d="M 328.012,1650 H 4016.02"
         style="fill:none;stroke:#808080;stroke-width:8;stroke-linecap:butt;stroke-linejoin:miter;stroke-miterlimit:4;stroke-dasharray:none;stroke-opacity:1"
         id="path84" />
      <path
         d="M 328.012,3298.01 V 1.98828"
         style="fill:none;stroke:#000000;stroke-width:8;stroke-linecap:butt;stroke-linejoin:miter;stroke-miterlimit:4;stroke-dasharray:none;stroke-opacity:1"
         id="path86" />
      <path
         d="m 328.012,1650 h 303.976 m 0,1263.98 h 616.022 m 0,96.02 h 615.97 m 0,-1151.99 H 2480 m 0,-1344.03 h 616.02 m 0,-303.98 h 615.97 m 0,1023.98 h 304.03"
         style="fill:none;stroke:#0000ff;stroke-width:32;stroke-linecap:butt;stroke-linejoin:miter;stroke-miterlimit:4;stroke-dasharray:none;stroke-opacity:1"
         id="path88" />
      <path
         d="m 400,1650 c 0,-39.77 -32.23,-71.99 -71.988,-71.99 -39.774,0 -71.992,32.22 -71.992,71.99 0,39.77 32.218,71.99 71.992,71.99 39.758,0 71.988,-32.22 71.988,-71.99 z"
         style="fill:#ff0000;fill-opacity:1;fill-rule:nonzero;stroke:none"
         id="path90" />
      <path
         d="m 1016.02,2913.98 c 0,-39.76 -32.27,-71.99 -72.04,-71.99 -39.761,0 -71.992,32.23 -71.992,71.99 0,39.77 32.231,72.04 71.992,72.04 39.77,0 72.04,-32.27 72.04,-72.04 z"
         style="fill:#ff0000;fill-opacity:1;fill-rule:nonzero;stroke:none"
         id="path92" />
      <path
         d="m 1631.99,3010 c 0,-39.77 -32.22,-71.99 -71.99,-71.99 -39.77,0 -71.99,32.22 -71.99,71.99 0,39.77 32.22,71.99 71.99,71.99 39.77,0 71.99,-32.22 71.99,-71.99 z"
         style="fill:#ff0000;fill-opacity:1;fill-rule:nonzero;stroke:none"
         id="path94" />
      <path
         d="m 2240,1858.01 c 0,-39.77 -32.23,-71.99 -71.99,-71.99 -39.77,0 -71.99,32.22 -71.99,71.99 0,39.76 32.22,71.99 71.99,71.99 39.76,0 71.99,-32.23 71.99,-71.99 z"
         style="fill:#ff0000;fill-opacity:1;fill-rule:nonzero;stroke:none"
         id="path96" />
      <path
         d="m 2856.02,513.98 c 0,-39.761 -32.27,-71.992 -72.04,-71.992 -39.76,0 -71.99,32.231 -71.99,71.992 0,39.77 32.23,72.04 71.99,72.04 39.77,0 72.04,-32.27 72.04,-72.04 z"
         style="fill:#ff0000;fill-opacity:1;fill-rule:nonzero;stroke:none"
         id="path98" />
      <path
         d="m 3471.99,210 c 0,-39.77 -32.22,-71.988 -71.99,-71.988 -39.77,0 -71.99,32.218 -71.99,71.988 0,39.77 32.22,71.988 71.99,71.988 39.77,0 71.99,-32.218 71.99,-71.988 z"
         style="fill:#ff0000;fill-opacity:1;fill-rule:nonzero;stroke:none"
         id="path100" />
      <path
         d="m 4088.01,1233.98 c 0,-39.76 -32.23,-71.99 -71.99,-71.99 -39.77,0 -72.04,32.23 -72.04,71.99 0,39.77 32.27,72.04 72.04,72.04 39.76,0 71.99,-32.27 71.99,-72.04 z"
         style="fill:#ff0000;fill-opacity:1;fill-rule:nonzero;stroke:none"
         id="path102" />
      <path
         d="M 328.012,1650 H 4016.02 M 328.012,3298.01 V 1.98828"
         style="fill:none;stroke:#000000;stroke-width:8;stroke-linecap:butt;stroke-linejoin:miter;stroke-miterlimit:4;stroke-dasharray:none;stroke-opacity:1"
         id="path104" />
    </g>
  </g>
</svg>
