<svg xmlns="http://www.w3.org/2000/svg" xmlns:xlink="http://www.w3.org/1999/xlink" version="1.1" width="536pt" height="426.4pt" viewBox="0 0 536 426.4">
<defs>
<clipPath id="clip_0">
<path transform="matrix(1,0,0,-1,0,426.4)" d="M45.332 399.732H514.66799V26.399994H45.332Z"/>
</clipPath>
<clipPath id="clip_1">
<path transform="matrix(1,0,0,-1,0,427)" d="M44 48H516V375H44Z"/>
</clipPath>
<mask id="mask_2">
<g>
<clipPath id="clip_3">
<path transform="matrix(1,0,0,-1,0,426.4)" d="M341 233.4H485V362.4H341Z"/>
</clipPath>
<g clip-path="url(#clip_3)">
<path transform="matrix(1,0,0,-1,0,426.4)" d="M341 233.4H485V362.4H341Z" fill-opacity=".75"/>
</g>
</g>
"/>
</mask>
<clipPath id="clip_4">
<path transform="matrix(1,0,0,-1,0,426.4)" d="M341 233.4H485V362.4H341Z"/>
</clipPath>
<clipPath id="clip_5">
<path transform="matrix(1,0,0,-1,0,427)" d="M341 234H485V363H341Z"/>
</clipPath>
</defs>
<g>
<path transform="matrix(1,0,0,-1,0,426.4)" d="M0 426.4H536V.0019836426H0Z" fill="#ffffff" fill-opacity=".8"/>
<path transform="matrix(-1,-0,0,-1,0,0)" stroke-width="1.066666" stroke-linecap="butt" stroke-miterlimit="4" stroke-linejoin="miter" fill="none" stroke="#dd0000" d="M-78.934-26.668V-35.199"/>
<path transform="matrix(-1,-0,0,-1,0,0)" stroke-width="1.066666" stroke-linecap="butt" stroke-miterlimit="4" stroke-linejoin="miter" fill="none" stroke="#dd0000" d="M-112.535-26.668V-35.199"/>
<path transform="matrix(-1,-0,0,-1,0,0)" stroke-width="1.066666" stroke-linecap="butt" stroke-miterlimit="4" stroke-linejoin="miter" fill="none" stroke="#dd0000" d="M-145.922-26.668V-35.199"/>
<path transform="matrix(-1,-0,0,-1,0,0)" stroke-width="1.066666" stroke-linecap="butt" stroke-miterlimit="4" stroke-linejoin="miter" fill="none" stroke="#dd0000" d="M-179.52-26.668V-35.199"/>
<path transform="matrix(-1,-0,0,-1,0,0)" stroke-width="1.066666" stroke-linecap="butt" stroke-miterlimit="4" stroke-linejoin="miter" fill="none" stroke="#dd0000" d="M-213.012-26.668V-35.199"/>
<path transform="matrix(-1,-0,0,-1,0,0)" stroke-width="1.066666" stroke-linecap="butt" stroke-miterlimit="4" stroke-linejoin="miter" fill="none" stroke="#dd0000" d="M-246.508-26.668V-35.199"/>
<path transform="matrix(-1,-0,0,-1,0,0)" stroke-width="1.066666" stroke-linecap="butt" stroke-miterlimit="4" stroke-linejoin="miter" fill="none" stroke="#dd0000" d="M-280-26.668V-35.199"/>
<path transform="matrix(-1,-0,0,-1,0,0)" stroke-width="1.066666" stroke-linecap="butt" stroke-miterlimit="4" stroke-linejoin="miter" fill="none" stroke="#dd0000" d="M-313.492-26.668V-35.199"/>
<path transform="matrix(-1,-0,0,-1,0,0)" stroke-width="1.066666" stroke-linecap="butt" stroke-miterlimit="4" stroke-linejoin="miter" fill="none" stroke="#dd0000" d="M-346.988-26.668V-35.199"/>
<path transform="matrix(-1,-0,0,-1,0,0)" stroke-width="1.066666" stroke-linecap="butt" stroke-miterlimit="4" stroke-linejoin="miter" fill="none" stroke="#dd0000" d="M-380.48-26.668V-35.199"/>
<path transform="matrix(-1,-0,0,-1,0,0)" stroke-width="1.066666" stroke-linecap="butt" stroke-miterlimit="4" stroke-linejoin="miter" fill="none" stroke="#dd0000" d="M-414.078-26.668V-35.199"/>
<path transform="matrix(-1,-0,0,-1,0,0)" stroke-width="1.066666" stroke-linecap="butt" stroke-miterlimit="4" stroke-linejoin="miter" fill="none" stroke="#dd0000" d="M-447.465-26.668V-35.199"/>
<path transform="matrix(-1,-0,0,-1,0,0)" stroke-width="1.066666" stroke-linecap="butt" stroke-miterlimit="4" stroke-linejoin="miter" fill="none" stroke="#dd0000" d="M-481.066-26.668V-35.199"/>
<path stroke-width="1.066666" stroke-linecap="square" stroke-miterlimit="4" stroke-linejoin="miter" fill="none" stroke="#000000" d="M45.332 26.668H514.668"/>
<path transform="matrix(1,0,0,-1,0,426.4)" d="M183.156 301.736C183.309 301.736 183.508 301.736 183.508 301.951 183.508 302.15 183.309 302.15 183.156 302.15H177.359C177.207 302.15 177.008 302.15 177.008 301.951 177.008 301.736 177.207 301.736 177.359 301.736ZM183.156 301.736"/>
<path transform="matrix(1,0,0,-1,0,426.4)" d="M185.789 302.767V303.037C185.789 305.72 187.105 306.103 187.656 306.103 187.906 306.103 188.355 306.037 188.59 305.67 188.422 305.67 188.008 305.67 188.008 305.201 188.008 304.869 188.258 304.701 188.488 304.701 188.656 304.701 188.988 304.802 188.988 305.22 188.988 305.853 188.523 306.369 187.641 306.369 186.273 306.369 184.84 305.002 184.84 302.65 184.84 299.802 186.074 299.052 187.059 299.052 188.238 299.052 189.258 300.052 189.258 301.451 189.258 302.802 188.309 303.818 187.125 303.818 186.406 303.818 186.008 303.287 185.789 302.767ZM187.059 299.353C186.391 299.353 186.074 299.986 186.008 300.154 185.809 300.654 185.809 301.502 185.809 301.685 185.809 302.517 186.156 303.584 187.105 303.584 187.289 303.584 187.773 303.584 188.105 302.92 188.289 302.537 188.289 301.986 188.289 301.47 188.289 300.951 188.289 300.42 188.105 300.037 187.789 299.404 187.309 299.353 187.059 299.353ZM187.059 299.353"/>
<path transform="matrix(1,0,0,-1,0,426.4)" d="M192.52 303.252H193.719C193.371 301.685 193.27 301.22 193.27 300.502 193.27 300.353 193.27 300.068 193.352 299.701 193.469 299.236 193.586 299.17 193.738 299.17 193.953 299.17 194.188 299.353 194.188 299.568 194.188 299.634 194.188 299.654 194.121 299.802 193.805 300.568 193.805 301.267 193.805 301.568 193.805 302.119 193.887 302.701 194.004 303.252H195.203C195.352 303.252 195.738 303.252 195.738 303.619 195.738 303.869 195.504 303.869 195.305 303.869H191.738C191.504 303.869 191.102 303.869 190.637 303.369 190.27 302.951 189.988 302.47 189.988 302.42 189.988 302.4 189.988 302.302 190.121 302.302 190.203 302.302 190.219 302.353 190.285 302.435 190.805 303.252 191.422 303.252 191.637 303.252H192.238C191.902 301.97 191.336 300.685 190.887 299.72 190.805 299.552 190.805 299.537 190.805 299.451 190.805 299.252 190.969 299.17 191.102 299.17 191.422 299.17 191.504 299.47 191.637 299.853 191.785 300.353 191.785 300.369 191.922 300.904ZM192.52 303.252"/>
<path transform="matrix(1,0,0,-1,0,426.4)" d="M249.609 301.736C249.762 301.736 249.961 301.736 249.961 301.951 249.961 302.15 249.762 302.15 249.609 302.15H243.812C243.66 302.15 243.461 302.15 243.461 301.951 243.461 301.736 243.66 301.736 243.812 301.736ZM249.609 301.736"/>
<path transform="matrix(1,0,0,-1,0,426.4)" d="M253.977 301.037V300.119C253.977 299.736 253.941 299.619 253.16 299.619H252.941V299.287C253.375 299.318 253.926 299.318 254.375 299.318 254.828 299.318 255.375 299.318 255.828 299.287V299.619H255.594C254.809 299.619 254.793 299.736 254.793 300.119V301.037H255.844V301.369H254.793V306.201C254.793 306.42 254.793 306.486 254.609 306.486 254.527 306.486 254.492 306.486 254.41 306.353L251.145 301.369V301.037ZM254.027 301.369H251.441L254.027 305.334ZM254.027 301.369"/>
<path transform="matrix(1,0,0,-1,0,426.4)" d="M258.973 303.252H260.172C259.824 301.685 259.723 301.22 259.723 300.502 259.723 300.353 259.723 300.068 259.809 299.701 259.922 299.236 260.039 299.17 260.191 299.17 260.406 299.17 260.641 299.353 260.641 299.568 260.641 299.634 260.641 299.654 260.574 299.802 260.258 300.568 260.258 301.267 260.258 301.568 260.258 302.119 260.34 302.701 260.457 303.252H261.656C261.809 303.252 262.191 303.252 262.191 303.619 262.191 303.869 261.957 303.869 261.758 303.869H258.191C257.957 303.869 257.559 303.869 257.09 303.369 256.723 302.951 256.441 302.47 256.441 302.42 256.441 302.4 256.441 302.302 256.574 302.302 256.656 302.302 256.672 302.353 256.738 302.435 257.258 303.252 257.875 303.252 258.09 303.252H258.691C258.355 301.97 257.789 300.685 257.34 299.72 257.258 299.552 257.258 299.537 257.258 299.451 257.258 299.252 257.422 299.17 257.559 299.17 257.875 299.17 257.957 299.47 258.09 299.853 258.238 300.353 258.238 300.369 258.375 300.904ZM258.973 303.252"/>
<path transform="matrix(1,0,0,-1,0,426.4)" d="M316.703 301.736C316.855 301.736 317.055 301.736 317.055 301.951 317.055 302.15 316.855 302.15 316.703 302.15H310.906C310.754 302.15 310.555 302.15 310.555 301.951 310.555 301.736 310.754 301.736 310.906 301.736ZM316.703 301.736"/>
<path transform="matrix(1,0,0,-1,0,426.4)" d="M322.703 301.134H322.453C322.387 300.818 322.32 300.353 322.203 300.185 322.137 300.103 321.438 300.103 321.203 300.103H319.285L320.422 301.201C322.07 302.67 322.703 303.236 322.703 304.302 322.703 305.517 321.754 306.369 320.453 306.369 319.254 306.369 318.469 305.384 318.469 304.435 318.469 303.853 319.004 303.853 319.035 303.853 319.219 303.853 319.586 303.97 319.586 304.42 319.586 304.685 319.387 304.97 319.02 304.97 318.938 304.97 318.922 304.97 318.887 304.951 319.121 305.65 319.703 306.037 320.32 306.037 321.285 306.037 321.738 305.17 321.738 304.302 321.738 303.451 321.219 302.619 320.621 301.951L318.586 299.685C318.469 299.568 318.469 299.537 318.469 299.287H322.422ZM322.703 301.134"/>
<path transform="matrix(1,0,0,-1,0,426.4)" d="M326.066 303.252H327.266C326.918 301.685 326.816 301.22 326.816 300.502 326.816 300.353 326.816 300.068 326.898 299.701 327.016 299.236 327.133 299.17 327.285 299.17 327.5 299.17 327.734 299.353 327.734 299.568 327.734 299.634 327.734 299.654 327.668 299.802 327.352 300.568 327.352 301.267 327.352 301.568 327.352 302.119 327.434 302.701 327.551 303.252H328.75C328.898 303.252 329.285 303.252 329.285 303.619 329.285 303.869 329.051 303.869 328.852 303.869H325.285C325.051 303.869 324.648 303.869 324.184 303.369 323.816 302.951 323.535 302.47 323.535 302.42 323.535 302.4 323.535 302.302 323.668 302.302 323.75 302.302 323.766 302.353 323.832 302.435 324.352 303.252 324.965 303.252 325.184 303.252H325.785C325.449 301.97 324.883 300.685 324.434 299.72 324.352 299.552 324.352 299.537 324.352 299.451 324.352 299.252 324.516 299.17 324.648 299.17 324.965 299.17 325.051 299.47 325.184 299.853 325.332 300.353 325.332 300.369 325.465 300.904ZM326.066 303.252"/>
<path transform="matrix(1,0,0,-1,0,426.4)" d="M391.551 301.798C391.551 302.65 391.5 303.502 391.133 304.283 390.648 305.318 389.766 305.482 389.332 305.482 388.684 305.482 387.918 305.201 387.465 304.216 387.133 303.482 387.082 302.65 387.082 301.798 387.082 301.002 387.117 300.048 387.566 299.232 388.016 298.384 388.801 298.166 389.316 298.166 389.883 298.166 390.699 298.384 391.168 299.4 391.5 300.134 391.551 300.966 391.551 301.798ZM389.316 298.4C388.898 298.4 388.266 298.666 388.082 299.685 387.965 300.318 387.965 301.298 387.965 301.935 387.965 302.615 387.965 303.318 388.051 303.884 388.25 305.15 389.051 305.252 389.316 305.252 389.668 305.252 390.367 305.048 390.566 304.002 390.684 303.4 390.684 302.599 390.684 301.935 390.684 301.134 390.684 300.416 390.566 299.732 390.398 298.716 389.801 298.4 389.316 298.4ZM389.316 298.4"/>
<path transform="matrix(1,0,0,-1,0,426.4)" d="M452.543 300.252H452.293C452.227 299.935 452.16 299.466 452.043 299.298 451.977 299.216 451.277 299.216 451.043 299.216H449.129L450.262 300.318C451.91 301.783 452.543 302.349 452.543 303.416 452.543 304.634 451.594 305.482 450.293 305.482 449.094 305.482 448.309 304.502 448.309 303.548 448.309 302.966 448.844 302.966 448.879 302.966 449.059 302.966 449.426 303.084 449.426 303.533 449.426 303.798 449.227 304.084 448.859 304.084 448.777 304.084 448.762 304.084 448.727 304.068 448.961 304.767 449.543 305.15 450.16 305.15 451.129 305.15 451.578 304.283 451.578 303.416 451.578 302.568 451.059 301.732 450.461 301.068L448.426 298.798C448.309 298.685 448.309 298.65 448.309 298.4H452.262ZM452.543 300.252"/>
<path transform="matrix(1,0,0,-1,0,426.4)" d="M455.906 302.365H457.105C456.758 300.798 456.656 300.334 456.656 299.615 456.656 299.466 456.656 299.185 456.742 298.818 456.855 298.349 456.973 298.283 457.125 298.283 457.34 298.283 457.574 298.466 457.574 298.685 457.574 298.752 457.574 298.767 457.508 298.916 457.191 299.685 457.191 300.384 457.191 300.685 457.191 301.232 457.273 301.818 457.391 302.365H458.59C458.742 302.365 459.125 302.365 459.125 302.732 459.125 302.982 458.891 302.982 458.691 302.982H455.125C454.891 302.982 454.492 302.982 454.023 302.482 453.656 302.068 453.375 301.584 453.375 301.533 453.375 301.517 453.375 301.416 453.508 301.416 453.59 301.416 453.605 301.466 453.672 301.548 454.191 302.365 454.809 302.365 455.023 302.365H455.625C455.289 301.084 454.723 299.798 454.273 298.834 454.191 298.666 454.191 298.65 454.191 298.568 454.191 298.365 454.355 298.283 454.492 298.283 454.809 298.283 454.891 298.584 455.023 298.966 455.172 299.466 455.172 299.482 455.309 300.017ZM455.906 302.365"/>
<path transform="matrix(1,0,0,-1,0,426.4)" d="M518.004 300.15V299.232C518.004 298.849 517.969 298.732 517.188 298.732H516.969V298.4C517.402 298.435 517.953 298.435 518.402 298.435 518.855 298.435 519.402 298.435 519.855 298.4V298.732H519.621C518.836 298.732 518.82 298.849 518.82 299.232V300.15H519.871V300.482H518.82V305.318C518.82 305.533 518.82 305.599 518.637 305.599 518.555 305.599 518.52 305.599 518.438 305.466L515.172 300.482V300.15ZM518.055 300.482H515.469L518.055 304.451ZM518.055 300.482"/>
<path transform="matrix(1,0,0,-1,0,426.4)" d="M523 302.365H524.199C523.852 300.798 523.75 300.334 523.75 299.615 523.75 299.466 523.75 299.185 523.832 298.818 523.949 298.349 524.066 298.283 524.219 298.283 524.434 298.283 524.668 298.466 524.668 298.685 524.668 298.752 524.668 298.767 524.602 298.916 524.285 299.685 524.285 300.384 524.285 300.685 524.285 301.232 524.367 301.818 524.484 302.365H525.684C525.832 302.365 526.219 302.365 526.219 302.732 526.219 302.982 525.984 302.982 525.785 302.982H522.219C521.984 302.982 521.582 302.982 521.117 302.482 520.75 302.068 520.469 301.584 520.469 301.533 520.469 301.517 520.469 301.416 520.602 301.416 520.684 301.416 520.699 301.466 520.766 301.548 521.285 302.365 521.898 302.365 522.117 302.365H522.719C522.383 301.084 521.816 299.798 521.367 298.834 521.285 298.666 521.285 298.65 521.285 298.568 521.285 298.365 521.449 298.283 521.582 298.283 521.898 298.283 521.984 298.584 522.117 298.966 522.266 299.466 522.266 299.482 522.398 300.017ZM523 302.365"/>
<path stroke-width="1.066666" stroke-linecap="butt" stroke-miterlimit="4" stroke-linejoin="miter" fill="none" stroke="#0044dd" d="M290.668 400V395.734"/>
<path stroke-width="1.066666" stroke-linecap="butt" stroke-miterlimit="4" stroke-linejoin="miter" fill="none" stroke="#0044dd" d="M301.332 400V395.734"/>
<path stroke-width="1.066666" stroke-linecap="butt" stroke-miterlimit="4" stroke-linejoin="miter" fill="none" stroke="#0044dd" d="M312 400V395.734"/>
<path stroke-width="1.066666" stroke-linecap="butt" stroke-miterlimit="4" stroke-linejoin="miter" fill="none" stroke="#0044dd" d="M322.668 400V395.734"/>
<path stroke-width="1.066666" stroke-linecap="butt" stroke-miterlimit="4" stroke-linejoin="miter" fill="none" stroke="#0044dd" d="M344 400V395.734"/>
<path stroke-width="1.066666" stroke-linecap="butt" stroke-miterlimit="4" stroke-linejoin="miter" fill="none" stroke="#0044dd" d="M354.668 400V395.734"/>
<path stroke-width="1.066666" stroke-linecap="butt" stroke-miterlimit="4" stroke-linejoin="miter" fill="none" stroke="#0044dd" d="M365.332 400V395.734"/>
<path stroke-width="1.066666" stroke-linecap="butt" stroke-miterlimit="4" stroke-linejoin="miter" fill="none" stroke="#0044dd" d="M376 400V395.734"/>
<path stroke-width="1.066666" stroke-linecap="butt" stroke-miterlimit="4" stroke-linejoin="miter" fill="none" stroke="#0044dd" d="M397.332 400V395.734"/>
<path stroke-width="1.066666" stroke-linecap="butt" stroke-miterlimit="4" stroke-linejoin="miter" fill="none" stroke="#0044dd" d="M408 400V395.734"/>
<path stroke-width="1.066666" stroke-linecap="butt" stroke-miterlimit="4" stroke-linejoin="miter" fill="none" stroke="#0044dd" d="M418.668 400V395.734"/>
<path stroke-width="1.066666" stroke-linecap="butt" stroke-miterlimit="4" stroke-linejoin="miter" fill="none" stroke="#0044dd" d="M429.332 400V395.734"/>
<path stroke-width="1.066666" stroke-linecap="butt" stroke-miterlimit="4" stroke-linejoin="miter" fill="none" stroke="#0044dd" d="M450.668 400V395.734"/>
<path stroke-width="1.066666" stroke-linecap="butt" stroke-miterlimit="4" stroke-linejoin="miter" fill="none" stroke="#0044dd" d="M461.332 400V395.734"/>
<path stroke-width="1.066666" stroke-linecap="butt" stroke-miterlimit="4" stroke-linejoin="miter" fill="none" stroke="#0044dd" d="M472 400V395.734"/>
<path stroke-width="1.066666" stroke-linecap="butt" stroke-miterlimit="4" stroke-linejoin="miter" fill="none" stroke="#0044dd" d="M482.668 400V395.734"/>
<path stroke-width="1.066666" stroke-linecap="butt" stroke-miterlimit="4" stroke-linejoin="miter" fill="none" stroke="#0044dd" d="M504 400V395.734"/>
<path stroke-width="1.066666" stroke-linecap="butt" stroke-miterlimit="4" stroke-linejoin="miter" fill="none" stroke="#0044dd" d="M66.668 400V391.465"/>
<path stroke-width="1.066666" stroke-linecap="butt" stroke-miterlimit="4" stroke-linejoin="miter" fill="none" stroke="#0044dd" d="M120 400V391.465"/>
<path stroke-width="1.066666" stroke-linecap="butt" stroke-miterlimit="4" stroke-linejoin="miter" fill="none" stroke="#0044dd" d="M173.332 400V391.465"/>
<path stroke-width="1.066666" stroke-linecap="butt" stroke-miterlimit="4" stroke-linejoin="miter" fill="none" stroke="#0044dd" d="M226.668 400V391.465"/>
<path transform="matrix(-1,-0,0,1,0,0)" stroke-width="1.066666" stroke-linecap="butt" stroke-miterlimit="4" stroke-linejoin="miter" fill="none" stroke="#0044dd" d="M-269.332 400V395.734"/>
<path transform="matrix(-1,-0,0,1,0,0)" stroke-width="1.066666" stroke-linecap="butt" stroke-miterlimit="4" stroke-linejoin="miter" fill="none" stroke="#0044dd" d="M-258.668 400V395.734"/>
<path transform="matrix(-1,-0,0,1,0,0)" stroke-width="1.066666" stroke-linecap="butt" stroke-miterlimit="4" stroke-linejoin="miter" fill="none" stroke="#0044dd" d="M-248 400V395.734"/>
<path transform="matrix(-1,-0,0,1,0,0)" stroke-width="1.066666" stroke-linecap="butt" stroke-miterlimit="4" stroke-linejoin="miter" fill="none" stroke="#0044dd" d="M-237.332 400V395.734"/>
<path transform="matrix(-1,-0,0,1,0,0)" stroke-width="1.066666" stroke-linecap="butt" stroke-miterlimit="4" stroke-linejoin="miter" fill="none" stroke="#0044dd" d="M-216 400V395.734"/>
<path transform="matrix(-1,-0,0,1,0,0)" stroke-width="1.066666" stroke-linecap="butt" stroke-miterlimit="4" stroke-linejoin="miter" fill="none" stroke="#0044dd" d="M-205.332 400V395.734"/>
<path transform="matrix(-1,-0,0,1,0,0)" stroke-width="1.066666" stroke-linecap="butt" stroke-miterlimit="4" stroke-linejoin="miter" fill="none" stroke="#0044dd" d="M-194.668 400V395.734"/>
<path transform="matrix(-1,-0,0,1,0,0)" stroke-width="1.066666" stroke-linecap="butt" stroke-miterlimit="4" stroke-linejoin="miter" fill="none" stroke="#0044dd" d="M-184 400V395.734"/>
<path transform="matrix(-1,-0,0,1,0,0)" stroke-width="1.066666" stroke-linecap="butt" stroke-miterlimit="4" stroke-linejoin="miter" fill="none" stroke="#0044dd" d="M-162.668 400V395.734"/>
<path transform="matrix(-1,-0,0,1,0,0)" stroke-width="1.066666" stroke-linecap="butt" stroke-miterlimit="4" stroke-linejoin="miter" fill="none" stroke="#0044dd" d="M-152 400V395.734"/>
<path transform="matrix(-1,-0,0,1,0,0)" stroke-width="1.066666" stroke-linecap="butt" stroke-miterlimit="4" stroke-linejoin="miter" fill="none" stroke="#0044dd" d="M-141.332 400V395.734"/>
<path transform="matrix(-1,-0,0,1,0,0)" stroke-width="1.066666" stroke-linecap="butt" stroke-miterlimit="4" stroke-linejoin="miter" fill="none" stroke="#0044dd" d="M-130.668 400V395.734"/>
<path transform="matrix(-1,-0,0,1,0,0)" stroke-width="1.066666" stroke-linecap="butt" stroke-miterlimit="4" stroke-linejoin="miter" fill="none" stroke="#0044dd" d="M-109.332 400V395.734"/>
<path transform="matrix(-1,-0,0,1,0,0)" stroke-width="1.066666" stroke-linecap="butt" stroke-miterlimit="4" stroke-linejoin="miter" fill="none" stroke="#0044dd" d="M-98.668 400V395.734"/>
<path transform="matrix(-1,-0,0,1,0,0)" stroke-width="1.066666" stroke-linecap="butt" stroke-miterlimit="4" stroke-linejoin="miter" fill="none" stroke="#0044dd" d="M-88 400V395.734"/>
<path transform="matrix(-1,-0,0,1,0,0)" stroke-width="1.066666" stroke-linecap="butt" stroke-miterlimit="4" stroke-linejoin="miter" fill="none" stroke="#0044dd" d="M-77.332 400V395.734"/>
<path transform="matrix(-1,-0,0,1,0,0)" stroke-width="1.066666" stroke-linecap="butt" stroke-miterlimit="4" stroke-linejoin="miter" fill="none" stroke="#0044dd" d="M-56 400V395.734"/>
<path transform="matrix(-1,-0,0,1,0,0)" stroke-width="1.066666" stroke-linecap="butt" stroke-miterlimit="4" stroke-linejoin="miter" fill="none" stroke="#0044dd" d="M-493.332 400V391.465"/>
<path transform="matrix(-1,-0,0,1,0,0)" stroke-width="1.066666" stroke-linecap="butt" stroke-miterlimit="4" stroke-linejoin="miter" fill="none" stroke="#0044dd" d="M-440 400V391.465"/>
<path transform="matrix(-1,-0,0,1,0,0)" stroke-width="1.066666" stroke-linecap="butt" stroke-miterlimit="4" stroke-linejoin="miter" fill="none" stroke="#0044dd" d="M-386.668 400V391.465"/>
<path transform="matrix(-1,-0,0,1,0,0)" stroke-width="1.066666" stroke-linecap="butt" stroke-miterlimit="4" stroke-linejoin="miter" fill="none" stroke="#0044dd" d="M-333.332 400V391.465"/>
<path stroke-width="1.066666" stroke-linecap="butt" stroke-miterlimit="4" stroke-linejoin="miter" fill="none" stroke="#0044dd" d="M280 400V391.465"/>
<path stroke-width="1.066666" stroke-linecap="square" stroke-miterlimit="4" stroke-linejoin="miter" fill="none" stroke="#000000" d="M45.332 400H514.668"/>
<g clip-path="url(#clip_0)">
<g clip-path="url(#clip_1)">
<path transform="matrix(1,0,0,-1,0,0)" stroke-width="2.133333" stroke-linecap="butt" stroke-linejoin="round" fill="none" stroke="#0044dd" stroke-opacity=".3" d="M45.332-320C46.488-321.316 48.563-323.91 50.668-323.949 52.82-323.984 54.871-321.348 56-320 57.113-318.672 59.219-315.898 61.332-315.859 63.504-315.816 65.582-318.645 66.668-320 67.734-321.336 69.875-324.309 72-324.352 74.184-324.398 76.297-321.363 77.332-320 78.355-318.656 80.531-315.461 82.668-315.41 84.867-315.359 87.016-318.637 88-320 88.969-321.348 91.188-324.793 93.332-324.852 95.551-324.906 97.738-321.363 98.668-320 99.582-318.652 101.844-314.918 104-314.855 106.238-314.789 108.465-318.645 109.332-320 110.195-321.344 112.5-325.406 114.668-325.477 116.922-325.551 119.195-321.34 120-320 120.801-318.664 123.156-314.227 125.332-314.145 127.609-314.059 129.93-318.684 130.668-320 131.406-321.32 133.816-326.191 136-326.289 138.297-326.387 140.668-321.281 141.332-320 142.012-318.695 144.473-313.32 146.668-313.211 148.984-313.09 151.406-318.762 152-320 152.613-321.281 155.133-327.25 157.332-327.383 159.676-327.523 162.148-321.18 162.668-320 163.219-318.746 165.793-312.074 168-311.914 170.367-311.746 172.895-318.898 173.332-320 173.824-321.223 176.457-328.738 178.668-328.934 181.059-329.145 183.641-321.004 184-320 184.43-318.805 187.121-310.258 189.332-310.016 191.754-309.746 194.387-319.121 194.668-320 195.043-321.18 197.789-331.004 200-331.316 202.449-331.664 205.133-320.715 205.332-320 205.664-318.82 208.465-307.355 210.668-306.941 213.152-306.473 215.879-319.5 216-320 216.297-321.23 219.148-334.859 221.332-335.434 223.859-336.098 226.625-320.199 226.668-320 226.945-318.617 229.84-301.984 232-301.137 234.578-300.125 237.375-320.266 237.332-320 237.617-321.781 240.551-342.879 242.668-344.254 245.324-345.977 248.133-318.895 248-320 248.344-317.129 251.293-288.645 253.332-286.047 256.121-282.5 258.91-323.059 258.668-320 259.23-327.031 262.051-369.695 264-376.59 267.059-387.41 269.75-309.539 269.332-320 271.574-263.977 272.906-206.277 274.668-150.234 274.672-150.066 277.379-53.332 280-53.332 282.621-53.332 285.328-150.066 285.332-150.234 287.094-206.277 288.426-263.977 290.668-320 290.25-309.539 292.941-387.41 296-376.59 297.949-369.695 300.77-327.031 301.332-320 301.09-323.059 303.879-282.5 306.668-286.047 308.707-288.645 311.656-317.129 312-320 311.867-318.895 314.676-345.977 317.332-344.254 319.449-342.879 322.383-321.781 322.668-320 322.625-320.266 325.422-300.125 328-301.137 330.16-301.984 333.055-318.617 333.332-320 333.375-320.199 336.141-336.098 338.668-335.434 340.852-334.859 343.703-321.23 344-320 344.121-319.5 346.848-306.473 349.332-306.941 351.535-307.355 354.336-318.82 354.668-320 354.867-320.715 357.551-331.664 360-331.316 362.211-331.004 364.957-321.18 365.332-320 365.613-319.121 368.246-309.746 370.668-310.016 372.879-310.258 375.57-318.805 376-320 376.359-321.004 378.941-329.145 381.332-328.934 383.543-328.738 386.176-321.223 386.668-320 387.105-318.898 389.633-311.746 392-311.914 394.207-312.074 396.781-318.746 397.332-320 397.852-321.18 400.324-327.523 402.668-327.383 404.867-327.25 407.387-321.281 408-320 408.594-318.762 411.016-313.09 413.332-313.211 415.527-313.32 417.988-318.695 418.668-320 419.332-321.281 421.703-326.387 424-326.289 426.184-326.191 428.594-321.32 429.332-320 430.07-318.684 432.391-314.059 434.668-314.145 436.844-314.227 439.199-318.664 440-320 440.805-321.34 443.078-325.551 445.332-325.477 447.5-325.406 449.805-321.344 450.668-320 451.535-318.645 453.762-314.789 456-314.855 458.156-314.918 460.418-318.652 461.332-320 462.262-321.363 464.449-324.906 466.668-324.852 468.813-324.793 471.031-321.348 472-320 472.984-318.637 475.133-315.359 477.332-315.41 479.469-315.461 481.645-318.656 482.668-320 483.703-321.363 485.816-324.398 488-324.352 490.125-324.309 492.266-321.336 493.332-320 494.418-318.645 496.496-315.816 498.668-315.859 500.781-315.898 502.887-318.672 504-320 505.129-321.348 507.18-323.984 509.332-323.949 511.438-323.91 513.512-321.316 514.668-320"/>
<path transform="matrix(1,0,0,-1,0,0)" stroke-width="2.133333" stroke-linecap="butt" stroke-linejoin="round" fill="none" stroke="#ee0000" stroke-opacity=".3" d="M45.43-320C49.016-315.922 55.719-307.328 62.184-306.941 69.199-306.52 75.648-315.637 78.938-320 82.094-324.188 89.184-334.887 95.691-335.434 102.949-336.039 109.734-324.32 112.449-320 115.117-315.754 122.676-301.953 129.203-301.137 136.762-300.191 143.953-316.008 145.957-320 148.129-324.32 156.234-342.914 162.715-344.254 170.676-345.898 178.316-323.063 179.469-320 181.266-315.23 189.934-288.598 196.223-286.047 204.793-282.574 212.809-319.32 212.98-320 214.895-327.625 223.977-370.109 229.734-376.59 239.59-387.684 247.477-312.145 246.488-320 253.137-267.113 258.012-203.262 263.246-150.234 263.383-148.82 271.801-53.332 280-53.332 288.199-53.332 296.617-148.82 296.754-150.234 301.988-203.262 306.863-267.113 313.512-320 312.523-312.145 320.41-387.684 330.266-376.59 336.023-370.109 345.105-327.625 347.02-320 347.191-319.32 355.207-282.574 363.777-286.047 370.066-288.598 378.734-315.23 380.531-320 381.684-323.063 389.324-345.898 397.285-344.254 403.766-342.914 411.871-324.32 414.043-320 416.047-316.008 423.238-300.191 430.797-301.137 437.324-301.953 444.883-315.754 447.551-320 450.266-324.32 457.051-336.039 464.309-335.434 470.816-334.887 477.906-324.188 481.063-320 484.352-315.637 490.801-306.52 497.816-306.941 504.281-307.328 510.984-315.922 514.57-320"/>
<path transform="matrix(1,0,0,-1,0,0)" stroke-width="2.133333" stroke-linecap="butt" stroke-linejoin="round" fill="none" stroke="#0044dd" stroke-opacity=".3" d="M45.332-320C46.488-321.316 48.563-323.91 50.668-323.949 52.82-323.984 54.871-321.348 56-320 57.113-318.672 59.219-315.898 61.332-315.859 63.504-315.816 65.582-318.645 66.668-320 67.734-321.336 69.875-324.309 72-324.352 74.184-324.398 76.297-321.363 77.332-320 78.355-318.656 80.531-315.461 82.668-315.41 84.867-315.359 87.016-318.637 88-320 88.969-321.348 91.188-324.793 93.332-324.852 95.551-324.906 97.738-321.363 98.668-320 99.582-318.652 101.844-314.918 104-314.855 106.238-314.789 108.465-318.645 109.332-320 110.195-321.344 112.5-325.406 114.668-325.477 116.922-325.551 119.195-321.34 120-320 120.801-318.664 123.156-314.227 125.332-314.145 127.609-314.059 129.93-318.684 130.668-320 131.406-321.32 133.816-326.191 136-326.289 138.297-326.387 140.668-321.281 141.332-320 142.012-318.695 144.473-313.32 146.668-313.211 148.984-313.09 151.406-318.762 152-320 152.613-321.281 155.133-327.25 157.332-327.383 159.676-327.523 162.148-321.18 162.668-320 163.219-318.746 165.793-312.074 168-311.914 170.367-311.746 172.895-318.898 173.332-320 173.824-321.223 176.457-328.738 178.668-328.934 181.059-329.145 183.641-321.004 184-320 184.43-318.805 187.121-310.258 189.332-310.016 191.754-309.746 194.387-319.121 194.668-320 195.043-321.18 197.789-331.004 200-331.316 202.449-331.664 205.133-320.715 205.332-320 205.664-318.82 208.465-307.355 210.668-306.941 213.152-306.473 215.879-319.5 216-320 216.297-321.23 219.148-334.859 221.332-335.434 223.859-336.098 226.625-320.199 226.668-320 226.945-318.617 229.84-301.984 232-301.137 234.578-300.125 237.375-320.266 237.332-320 237.617-321.781 240.551-342.879 242.668-344.254 245.324-345.977 248.133-318.895 248-320 248.344-317.129 251.293-288.645 253.332-286.047 256.121-282.5 258.91-323.059 258.668-320 259.23-327.031 262.051-369.695 264-376.59 267.059-387.41 269.75-309.539 269.332-320 271.574-263.977 272.906-206.277 274.668-150.234 274.672-150.066 277.379-53.332 280-53.332 282.621-53.332 285.328-150.066 285.332-150.234 287.094-206.277 288.426-263.977 290.668-320 290.25-309.539 292.941-387.41 296-376.59 297.949-369.695 300.77-327.031 301.332-320 301.09-323.059 303.879-282.5 306.668-286.047 308.707-288.645 311.656-317.129 312-320 311.867-318.895 314.676-345.977 317.332-344.254 319.449-342.879 322.383-321.781 322.668-320 322.625-320.266 325.422-300.125 328-301.137 330.16-301.984 333.055-318.617 333.332-320 333.375-320.199 336.141-336.098 338.668-335.434 340.852-334.859 343.703-321.23 344-320 344.121-319.5 346.848-306.473 349.332-306.941 351.535-307.355 354.336-318.82 354.668-320 354.867-320.715 357.551-331.664 360-331.316 362.211-331.004 364.957-321.18 365.332-320 365.613-319.121 368.246-309.746 370.668-310.016 372.879-310.258 375.57-318.805 376-320 376.359-321.004 378.941-329.145 381.332-328.934 383.543-328.738 386.176-321.223 386.668-320 387.105-318.898 389.633-311.746 392-311.914 394.207-312.074 396.781-318.746 397.332-320 397.852-321.18 400.324-327.523 402.668-327.383 404.867-327.25 407.387-321.281 408-320 408.594-318.762 411.016-313.09 413.332-313.211 415.527-313.32 417.988-318.695 418.668-320 419.332-321.281 421.703-326.387 424-326.289 426.184-326.191 428.594-321.32 429.332-320 430.07-318.684 432.391-314.059 434.668-314.145 436.844-314.227 439.199-318.664 440-320 440.805-321.34 443.078-325.551 445.332-325.477 447.5-325.406 449.805-321.344 450.668-320 451.535-318.645 453.762-314.789 456-314.855 458.156-314.918 460.418-318.652 461.332-320 462.262-321.363 464.449-324.906 466.668-324.852 468.813-324.793 471.031-321.348 472-320 472.984-318.637 475.133-315.359 477.332-315.41 479.469-315.461 481.645-318.656 482.668-320 483.703-321.363 485.816-324.398 488-324.352 490.125-324.309 492.266-321.336 493.332-320 494.418-318.645 496.496-315.816 498.668-315.859 500.781-315.898 502.887-318.672 504-320 505.129-321.348 507.18-323.984 509.332-323.949 511.438-323.91 513.512-321.316 514.668-320"/>
<path transform="matrix(1,0,0,-1,0,0)" stroke-width="2.133333" stroke-linecap="butt" stroke-linejoin="round" fill="none" stroke="#ee0000" stroke-opacity=".3" d="M45.43-320C49.016-315.922 55.719-307.328 62.184-306.941 69.199-306.52 75.648-315.637 78.938-320 82.094-324.188 89.184-334.887 95.691-335.434 102.949-336.039 109.734-324.32 112.449-320 115.117-315.754 122.676-301.953 129.203-301.137 136.762-300.191 143.953-316.008 145.957-320 148.129-324.32 156.234-342.914 162.715-344.254 170.676-345.898 178.316-323.063 179.469-320 181.266-315.23 189.934-288.598 196.223-286.047 204.793-282.574 212.809-319.32 212.98-320 214.895-327.625 223.977-370.109 229.734-376.59 239.59-387.684 247.477-312.145 246.488-320 253.137-267.113 258.012-203.262 263.246-150.234 263.383-148.82 271.801-53.332 280-53.332 288.199-53.332 296.617-148.82 296.754-150.234 301.988-203.262 306.863-267.113 313.512-320 312.523-312.145 320.41-387.684 330.266-376.59 336.023-370.109 345.105-327.625 347.02-320 347.191-319.32 355.207-282.574 363.777-286.047 370.066-288.598 378.734-315.23 380.531-320 381.684-323.063 389.324-345.898 397.285-344.254 403.766-342.914 411.871-324.32 414.043-320 416.047-316.008 423.238-300.191 430.797-301.137 437.324-301.953 444.883-315.754 447.551-320 450.266-324.32 457.051-336.039 464.309-335.434 470.816-334.887 477.906-324.188 481.063-320 484.352-315.637 490.801-306.52 497.816-306.941 504.281-307.328 510.984-315.922 514.57-320"/>
<path transform="matrix(1,0,0,-1,0,0)" stroke-width="2.133333" stroke-linecap="butt" stroke-linejoin="round" fill="none" stroke="#0044dd" stroke-opacity=".3" d="M45.332-320C46.488-321.316 48.563-323.91 50.668-323.949 52.82-323.984 54.871-321.348 56-320 57.113-318.672 59.219-315.898 61.332-315.859 63.504-315.816 65.582-318.645 66.668-320 67.734-321.336 69.875-324.309 72-324.352 74.184-324.398 76.297-321.363 77.332-320 78.355-318.656 80.531-315.461 82.668-315.41 84.867-315.359 87.016-318.637 88-320 88.969-321.348 91.188-324.793 93.332-324.852 95.551-324.906 97.738-321.363 98.668-320 99.582-318.652 101.844-314.918 104-314.855 106.238-314.789 108.465-318.645 109.332-320 110.195-321.344 112.5-325.406 114.668-325.477 116.922-325.551 119.195-321.34 120-320 120.801-318.664 123.156-314.227 125.332-314.145 127.609-314.059 129.93-318.684 130.668-320 131.406-321.32 133.816-326.191 136-326.289 138.297-326.387 140.668-321.281 141.332-320 142.012-318.695 144.473-313.32 146.668-313.211 148.984-313.09 151.406-318.762 152-320 152.613-321.281 155.133-327.25 157.332-327.383 159.676-327.523 162.148-321.18 162.668-320 163.219-318.746 165.793-312.074 168-311.914 170.367-311.746 172.895-318.898 173.332-320 173.824-321.223 176.457-328.738 178.668-328.934 181.059-329.145 183.641-321.004 184-320 184.43-318.805 187.121-310.258 189.332-310.016 191.754-309.746 194.387-319.121 194.668-320 195.043-321.18 197.789-331.004 200-331.316 202.449-331.664 205.133-320.715 205.332-320 205.664-318.82 208.465-307.355 210.668-306.941 213.152-306.473 215.879-319.5 216-320 216.297-321.23 219.148-334.859 221.332-335.434 223.859-336.098 226.625-320.199 226.668-320 226.945-318.617 229.84-301.984 232-301.137 234.578-300.125 237.375-320.266 237.332-320 237.617-321.781 240.551-342.879 242.668-344.254 245.324-345.977 248.133-318.895 248-320 248.344-317.129 251.293-288.645 253.332-286.047 256.121-282.5 258.91-323.059 258.668-320 259.23-327.031 262.051-369.695 264-376.59 267.059-387.41 269.75-309.539 269.332-320 271.574-263.977 272.906-206.277 274.668-150.234 274.672-150.066 277.379-53.332 280-53.332 282.621-53.332 285.328-150.066 285.332-150.234 287.094-206.277 288.426-263.977 290.668-320 290.25-309.539 292.941-387.41 296-376.59 297.949-369.695 300.77-327.031 301.332-320 301.09-323.059 303.879-282.5 306.668-286.047 308.707-288.645 311.656-317.129 312-320 311.867-318.895 314.676-345.977 317.332-344.254 319.449-342.879 322.383-321.781 322.668-320 322.625-320.266 325.422-300.125 328-301.137 330.16-301.984 333.055-318.617 333.332-320 333.375-320.199 336.141-336.098 338.668-335.434 340.852-334.859 343.703-321.23 344-320 344.121-319.5 346.848-306.473 349.332-306.941 351.535-307.355 354.336-318.82 354.668-320 354.867-320.715 357.551-331.664 360-331.316 362.211-331.004 364.957-321.18 365.332-320 365.613-319.121 368.246-309.746 370.668-310.016 372.879-310.258 375.57-318.805 376-320 376.359-321.004 378.941-329.145 381.332-328.934 383.543-328.738 386.176-321.223 386.668-320 387.105-318.898 389.633-311.746 392-311.914 394.207-312.074 396.781-318.746 397.332-320 397.852-321.18 400.324-327.523 402.668-327.383 404.867-327.25 407.387-321.281 408-320 408.594-318.762 411.016-313.09 413.332-313.211 415.527-313.32 417.988-318.695 418.668-320 419.332-321.281 421.703-326.387 424-326.289 426.184-326.191 428.594-321.32 429.332-320 430.07-318.684 432.391-314.059 434.668-314.145 436.844-314.227 439.199-318.664 440-320 440.805-321.34 443.078-325.551 445.332-325.477 447.5-325.406 449.805-321.344 450.668-320 451.535-318.645 453.762-314.789 456-314.855 458.156-314.918 460.418-318.652 461.332-320 462.262-321.363 464.449-324.906 466.668-324.852 468.813-324.793 471.031-321.348 472-320 472.984-318.637 475.133-315.359 477.332-315.41 479.469-315.461 481.645-318.656 482.668-320 483.703-321.363 485.816-324.398 488-324.352 490.125-324.309 492.266-321.336 493.332-320 494.418-318.645 496.496-315.816 498.668-315.859 500.781-315.898 502.887-318.672 504-320 505.129-321.348 507.18-323.984 509.332-323.949 511.438-323.91 513.512-321.316 514.668-320"/>
<path transform="matrix(1,0,0,-1,0,0)" stroke-width="2.133333" stroke-linecap="butt" stroke-linejoin="round" fill="none" stroke="#ee0000" stroke-opacity=".3" d="M45.43-320C49.016-315.922 55.719-307.328 62.184-306.941 69.199-306.52 75.648-315.637 78.938-320 82.094-324.188 89.184-334.887 95.691-335.434 102.949-336.039 109.734-324.32 112.449-320 115.117-315.754 122.676-301.953 129.203-301.137 136.762-300.191 143.953-316.008 145.957-320 148.129-324.32 156.234-342.914 162.715-344.254 170.676-345.898 178.316-323.063 179.469-320 181.266-315.23 189.934-288.598 196.223-286.047 204.793-282.574 212.809-319.32 212.98-320 214.895-327.625 223.977-370.109 229.734-376.59 239.59-387.684 247.477-312.145 246.488-320 253.137-267.113 258.012-203.262 263.246-150.234 263.383-148.82 271.801-53.332 280-53.332 288.199-53.332 296.617-148.82 296.754-150.234 301.988-203.262 306.863-267.113 313.512-320 312.523-312.145 320.41-387.684 330.266-376.59 336.023-370.109 345.105-327.625 347.02-320 347.191-319.32 355.207-282.574 363.777-286.047 370.066-288.598 378.734-315.23 380.531-320 381.684-323.063 389.324-345.898 397.285-344.254 403.766-342.914 411.871-324.32 414.043-320 416.047-316.008 423.238-300.191 430.797-301.137 437.324-301.953 444.883-315.754 447.551-320 450.266-324.32 457.051-336.039 464.309-335.434 470.816-334.887 477.906-324.188 481.063-320 484.352-315.637 490.801-306.52 497.816-306.941 504.281-307.328 510.984-315.922 514.57-320"/>
<path transform="matrix(1,0,0,-1,0,0)" stroke-width="2.133333" stroke-linecap="butt" stroke-linejoin="round" fill="none" stroke="#0044dd" stroke-opacity=".3" d="M45.332-320C46.488-321.316 48.563-323.91 50.668-323.949 52.82-323.984 54.871-321.348 56-320 57.113-318.672 59.219-315.898 61.332-315.859 63.504-315.816 65.582-318.645 66.668-320 67.734-321.336 69.875-324.309 72-324.352 74.184-324.398 76.297-321.363 77.332-320 78.355-318.656 80.531-315.461 82.668-315.41 84.867-315.359 87.016-318.637 88-320 88.969-321.348 91.188-324.793 93.332-324.852 95.551-324.906 97.738-321.363 98.668-320 99.582-318.652 101.844-314.918 104-314.855 106.238-314.789 108.465-318.645 109.332-320 110.195-321.344 112.5-325.406 114.668-325.477 116.922-325.551 119.195-321.34 120-320 120.801-318.664 123.156-314.227 125.332-314.145 127.609-314.059 129.93-318.684 130.668-320 131.406-321.32 133.816-326.191 136-326.289 138.297-326.387 140.668-321.281 141.332-320 142.012-318.695 144.473-313.32 146.668-313.211 148.984-313.09 151.406-318.762 152-320 152.613-321.281 155.133-327.25 157.332-327.383 159.676-327.523 162.148-321.18 162.668-320 163.219-318.746 165.793-312.074 168-311.914 170.367-311.746 172.895-318.898 173.332-320 173.824-321.223 176.457-328.738 178.668-328.934 181.059-329.145 183.641-321.004 184-320 184.43-318.805 187.121-310.258 189.332-310.016 191.754-309.746 194.387-319.121 194.668-320 195.043-321.18 197.789-331.004 200-331.316 202.449-331.664 205.133-320.715 205.332-320 205.664-318.82 208.465-307.355 210.668-306.941 213.152-306.473 215.879-319.5 216-320 216.297-321.23 219.148-334.859 221.332-335.434 223.859-336.098 226.625-320.199 226.668-320 226.945-318.617 229.84-301.984 232-301.137 234.578-300.125 237.375-320.266 237.332-320 237.617-321.781 240.551-342.879 242.668-344.254 245.324-345.977 248.133-318.895 248-320 248.344-317.129 251.293-288.645 253.332-286.047 256.121-282.5 258.91-323.059 258.668-320 259.23-327.031 262.051-369.695 264-376.59 267.059-387.41 269.75-309.539 269.332-320 271.574-263.977 272.906-206.277 274.668-150.234 274.672-150.066 277.379-53.332 280-53.332 282.621-53.332 285.328-150.066 285.332-150.234 287.094-206.277 288.426-263.977 290.668-320 290.25-309.539 292.941-387.41 296-376.59 297.949-369.695 300.77-327.031 301.332-320 301.09-323.059 303.879-282.5 306.668-286.047 308.707-288.645 311.656-317.129 312-320 311.867-318.895 314.676-345.977 317.332-344.254 319.449-342.879 322.383-321.781 322.668-320 322.625-320.266 325.422-300.125 328-301.137 330.16-301.984 333.055-318.617 333.332-320 333.375-320.199 336.141-336.098 338.668-335.434 340.852-334.859 343.703-321.23 344-320 344.121-319.5 346.848-306.473 349.332-306.941 351.535-307.355 354.336-318.82 354.668-320 354.867-320.715 357.551-331.664 360-331.316 362.211-331.004 364.957-321.18 365.332-320 365.613-319.121 368.246-309.746 370.668-310.016 372.879-310.258 375.57-318.805 376-320 376.359-321.004 378.941-329.145 381.332-328.934 383.543-328.738 386.176-321.223 386.668-320 387.105-318.898 389.633-311.746 392-311.914 394.207-312.074 396.781-318.746 397.332-320 397.852-321.18 400.324-327.523 402.668-327.383 404.867-327.25 407.387-321.281 408-320 408.594-318.762 411.016-313.09 413.332-313.211 415.527-313.32 417.988-318.695 418.668-320 419.332-321.281 421.703-326.387 424-326.289 426.184-326.191 428.594-321.32 429.332-320 430.07-318.684 432.391-314.059 434.668-314.145 436.844-314.227 439.199-318.664 440-320 440.805-321.34 443.078-325.551 445.332-325.477 447.5-325.406 449.805-321.344 450.668-320 451.535-318.645 453.762-314.789 456-314.855 458.156-314.918 460.418-318.652 461.332-320 462.262-321.363 464.449-324.906 466.668-324.852 468.813-324.793 471.031-321.348 472-320 472.984-318.637 475.133-315.359 477.332-315.41 479.469-315.461 481.645-318.656 482.668-320 483.703-321.363 485.816-324.398 488-324.352 490.125-324.309 492.266-321.336 493.332-320 494.418-318.645 496.496-315.816 498.668-315.859 500.781-315.898 502.887-318.672 504-320 505.129-321.348 507.18-323.984 509.332-323.949 511.438-323.91 513.512-321.316 514.668-320"/>
<path transform="matrix(1,0,0,-1,0,0)" stroke-width="2.133333" stroke-linecap="butt" stroke-linejoin="round" fill="none" stroke="#ee0000" stroke-opacity=".3" d="M45.43-320C49.016-315.922 55.719-307.328 62.184-306.941 69.199-306.52 75.648-315.637 78.938-320 82.094-324.188 89.184-334.887 95.691-335.434 102.949-336.039 109.734-324.32 112.449-320 115.117-315.754 122.676-301.953 129.203-301.137 136.762-300.191 143.953-316.008 145.957-320 148.129-324.32 156.234-342.914 162.715-344.254 170.676-345.898 178.316-323.063 179.469-320 181.266-315.23 189.934-288.598 196.223-286.047 204.793-282.574 212.809-319.32 212.98-320 214.895-327.625 223.977-370.109 229.734-376.59 239.59-387.684 247.477-312.145 246.488-320 253.137-267.113 258.012-203.262 263.246-150.234 263.383-148.82 271.801-53.332 280-53.332 288.199-53.332 296.617-148.82 296.754-150.234 301.988-203.262 306.863-267.113 313.512-320 312.523-312.145 320.41-387.684 330.266-376.59 336.023-370.109 345.105-327.625 347.02-320 347.191-319.32 355.207-282.574 363.777-286.047 370.066-288.598 378.734-315.23 380.531-320 381.684-323.063 389.324-345.898 397.285-344.254 403.766-342.914 411.871-324.32 414.043-320 416.047-316.008 423.238-300.191 430.797-301.137 437.324-301.953 444.883-315.754 447.551-320 450.266-324.32 457.051-336.039 464.309-335.434 470.816-334.887 477.906-324.188 481.063-320 484.352-315.637 490.801-306.52 497.816-306.941 504.281-307.328 510.984-315.922 514.57-320"/>
</g>
</g>
<path stroke-width="1.066666" stroke-linecap="square" stroke-miterlimit="4" stroke-linejoin="miter" fill="none" stroke="#000000" d="M514.668 400V26.668"/>
<path stroke-width="1.066666" stroke-linecap="butt" stroke-miterlimit="4" stroke-linejoin="miter" fill="none" stroke="#000000" d="M506.133 373.332H514.668"/>
<path stroke-width="1.066666" stroke-linecap="butt" stroke-miterlimit="4" stroke-linejoin="miter" fill="none" stroke="#000000" d="M506.133 266.668H514.668"/>
<path stroke-width="1.066666" stroke-linecap="butt" stroke-miterlimit="4" stroke-linejoin="miter" fill="none" stroke="#000000" d="M506.133 213.332H514.668"/>
<path stroke-width="1.066666" stroke-linecap="butt" stroke-miterlimit="4" stroke-linejoin="miter" fill="none" stroke="#000000" d="M506.133 160H514.668"/>
<path stroke-width="1.066666" stroke-linecap="butt" stroke-miterlimit="4" stroke-linejoin="miter" fill="none" stroke="#000000" d="M506.133 106.668H514.668"/>
<path stroke-width="1.066666" stroke-linecap="butt" stroke-miterlimit="4" stroke-linejoin="miter" fill="none" stroke="#000000" d="M506.133 53.332H514.668"/>
<path stroke-width="1.066666" stroke-linecap="square" stroke-miterlimit="4" stroke-linejoin="miter" fill="none" stroke="#000000" d="M45.332 400V26.668"/>
<path transform="matrix(-1,-0,0,1,0,0)" stroke-width="1.066666" stroke-linecap="butt" stroke-miterlimit="4" stroke-linejoin="miter" fill="none" stroke="#000000" d="M-53.867 373.332H-45.332"/>
<path transform="matrix(-1,-0,0,1,0,0)" stroke-width="1.066666" stroke-linecap="butt" stroke-miterlimit="4" stroke-linejoin="miter" fill="none" stroke="#000000" d="M-53.867 266.668H-45.332"/>
<path transform="matrix(-1,-0,0,1,0,0)" stroke-width="1.066666" stroke-linecap="butt" stroke-miterlimit="4" stroke-linejoin="miter" fill="none" stroke="#000000" d="M-53.867 213.332H-45.332"/>
<path transform="matrix(-1,-0,0,1,0,0)" stroke-width="1.066666" stroke-linecap="butt" stroke-miterlimit="4" stroke-linejoin="miter" fill="none" stroke="#000000" d="M-53.867 160H-45.332"/>
<path transform="matrix(-1,-0,0,1,0,0)" stroke-width="1.066666" stroke-linecap="butt" stroke-miterlimit="4" stroke-linejoin="miter" fill="none" stroke="#000000" d="M-53.867 106.668H-45.332"/>
<path transform="matrix(-1,-0,0,1,0,0)" stroke-width="1.066666" stroke-linecap="butt" stroke-miterlimit="4" stroke-linejoin="miter" fill="none" stroke="#000000" d="M-53.867 53.332H-45.332"/>
<path transform="matrix(1,0,0,-1,0,426.4)" d="M138.355 269.775C138.355 270.041 138.355 270.06 138.105 270.06 137.438 269.377 136.504 269.377 136.172 269.377V269.041C136.387 269.041 137.004 269.041 137.555 269.326V263.81C137.555 263.427 137.52 263.31 136.57 263.31H136.238V262.974C136.605 263.009 137.52 263.009 137.953 263.009 138.371 263.009 139.305 263.009 139.672 262.974V263.31H139.34C138.371 263.31 138.355 263.427 138.355 263.81ZM138.355 269.775"/>
<path transform="matrix(1,0,0,-1,0,426.4)" d="M142.566 263.541C142.566 263.841 142.316 264.111 142.02 264.111 141.703 264.111 141.453 263.841 141.453 263.541 141.453 263.224 141.703 262.974 142.02 262.974 142.316 262.974 142.566 263.224 142.566 263.541ZM142.566 263.541"/>
<path transform="matrix(1,0,0,-1,0,426.4)" d="M148.371 266.377C148.371 267.224 148.32 268.076 147.953 268.861 147.469 269.892 146.586 270.06 146.152 270.06 145.504 270.06 144.738 269.775 144.285 268.791 143.953 268.06 143.902 267.224 143.902 266.377 143.902 265.576 143.938 264.627 144.387 263.81 144.836 262.959 145.621 262.744 146.137 262.744 146.703 262.744 147.52 262.959 147.988 263.974 148.32 264.709 148.371 265.541 148.371 266.377ZM146.137 262.974C145.719 262.974 145.086 263.244 144.902 264.259 144.785 264.892 144.785 265.877 144.785 266.509 144.785 267.193 144.785 267.892 144.871 268.459 145.07 269.724 145.871 269.826 146.137 269.826 146.488 269.826 147.188 269.627 147.387 268.576 147.504 267.974 147.504 267.177 147.504 266.509 147.504 265.709 147.504 264.994 147.387 264.31 147.219 263.291 146.621 262.974 146.137 262.974ZM146.137 262.974"/>
<path transform="matrix(1,0,0,-1,0,426.4)" d="M140.105 213.041C140.105 213.892 140.055 214.744 139.688 215.525 139.203 216.56 138.32 216.724 137.887 216.724 137.238 216.724 136.473 216.443 136.02 215.459 135.688 214.724 135.637 213.892 135.637 213.041 135.637 212.244 135.672 211.291 136.121 210.474 136.57 209.627 137.355 209.408 137.871 209.408 138.438 209.408 139.254 209.627 139.723 210.642 140.055 211.377 140.105 212.209 140.105 213.041ZM137.871 209.642C137.453 209.642 136.82 209.908 136.637 210.927 136.52 211.56 136.52 212.541 136.52 213.177 136.52 213.861 136.52 214.56 136.605 215.127 136.805 216.392 137.605 216.494 137.871 216.494 138.223 216.494 138.922 216.291 139.121 215.244 139.238 214.642 139.238 213.841 139.238 213.177 139.238 212.377 139.238 211.658 139.121 210.974 138.953 209.959 138.355 209.642 137.871 209.642ZM137.871 209.642"/>
<path transform="matrix(1,0,0,-1,0,426.4)" d="M142.566 210.209C142.566 210.509 142.316 210.775 142.02 210.775 141.703 210.775 141.453 210.509 141.453 210.209 141.453 209.892 141.703 209.642 142.02 209.642 142.316 209.642 142.566 209.892 142.566 210.209ZM142.566 210.209"/>
<path transform="matrix(1,0,0,-1,0,426.4)" d="M145.219 214.509C144.738 214.826 144.688 215.177 144.688 215.361 144.688 216.009 145.387 216.459 146.137 216.459 146.902 216.459 147.586 215.908 147.586 215.142 147.586 214.525 147.172 214.025 146.535 213.658ZM146.77 213.494C147.535 213.892 148.055 214.443 148.055 215.142 148.055 216.127 147.121 216.724 146.152 216.724 145.086 216.724 144.219 215.943 144.219 214.943 144.219 214.759 144.238 214.275 144.688 213.775 144.805 213.658 145.203 213.392 145.469 213.209 144.852 212.892 143.938 212.31 143.938 211.244 143.938 210.127 145.02 209.408 146.137 209.408 147.336 209.408 148.352 210.291 148.352 211.427 148.352 211.81 148.238 212.291 147.82 212.744 147.621 212.959 147.453 213.06 146.77 213.494ZM145.703 213.041 147.02 212.209C147.32 212.009 147.82 211.693 147.82 211.041 147.82 210.259 147.02 209.709 146.152 209.709 145.238 209.709 144.469 210.361 144.469 211.244 144.469 211.861 144.805 212.541 145.703 213.041ZM145.703 213.041"/>
<path transform="matrix(1,0,0,-1,0,426.4)" d="M140.105 159.709C140.105 160.56 140.055 161.408 139.688 162.193 139.203 163.224 138.32 163.392 137.887 163.392 137.238 163.392 136.473 163.111 136.02 162.127 135.688 161.392 135.637 160.56 135.637 159.709 135.637 158.908 135.672 157.959 136.121 157.142 136.57 156.291 137.355 156.076 137.871 156.076 138.438 156.076 139.254 156.291 139.723 157.31 140.055 158.041 140.105 158.877 140.105 159.709ZM137.871 156.31C137.453 156.31 136.82 156.576 136.637 157.591 136.52 158.224 136.52 159.209 136.52 159.841 136.52 160.525 136.52 161.224 136.605 161.791 136.805 163.06 137.605 163.158 137.871 163.158 138.223 163.158 138.922 162.959 139.121 161.908 139.238 161.31 139.238 160.509 139.238 159.841 139.238 159.041 139.238 158.326 139.121 157.642 138.953 156.627 138.355 156.31 137.871 156.31ZM137.871 156.31"/>
<path transform="matrix(1,0,0,-1,0,426.4)" d="M142.566 156.877C142.566 157.177 142.316 157.443 142.02 157.443 141.703 157.443 141.453 157.177 141.453 156.877 141.453 156.56 141.703 156.31 142.02 156.31 142.316 156.31 142.566 156.56 142.566 156.877ZM142.566 156.877"/>
<path transform="matrix(1,0,0,-1,0,426.4)" d="M144.887 159.791V160.06C144.887 162.744 146.203 163.127 146.754 163.127 147.004 163.127 147.453 163.06 147.688 162.693 147.52 162.693 147.102 162.693 147.102 162.224 147.102 161.892 147.352 161.724 147.586 161.724 147.754 161.724 148.086 161.826 148.086 162.244 148.086 162.877 147.621 163.392 146.738 163.392 145.371 163.392 143.938 162.025 143.938 159.677 143.938 156.826 145.172 156.076 146.152 156.076 147.336 156.076 148.352 157.076 148.352 158.474 148.352 159.826 147.402 160.841 146.219 160.841 145.504 160.841 145.102 160.31 144.887 159.791ZM146.152 156.377C145.488 156.377 145.172 157.009 145.102 157.177 144.902 157.677 144.902 158.525 144.902 158.709 144.902 159.541 145.254 160.611 146.203 160.611 146.387 160.611 146.871 160.611 147.203 159.943 147.387 159.56 147.387 159.009 147.387 158.494 147.387 157.974 147.387 157.443 147.203 157.06 146.887 156.427 146.402 156.377 146.152 156.377ZM146.152 156.377"/>
<path transform="matrix(1,0,0,-1,0,426.4)" d="M140.105 106.377C140.105 107.224 140.055 108.076 139.688 108.861 139.203 109.892 138.32 110.06 137.887 110.06 137.238 110.06 136.473 109.775 136.02 108.791 135.688 108.06 135.637 107.224 135.637 106.377 135.637 105.576 135.672 104.627 136.121 103.81 136.57 102.959 137.355 102.744 137.871 102.744 138.438 102.744 139.254 102.959 139.723 103.974 140.055 104.709 140.105 105.541 140.105 106.377ZM137.871 102.974C137.453 102.974 136.82 103.244 136.637 104.259 136.52 104.892 136.52 105.877 136.52 106.509 136.52 107.193 136.52 107.892 136.605 108.459 136.805 109.724 137.605 109.826 137.871 109.826 138.223 109.826 138.922 109.627 139.121 108.576 139.238 107.974 139.238 107.177 139.238 106.509 139.238 105.709 139.238 104.994 139.121 104.31 138.953 103.291 138.355 102.974 137.871 102.974ZM137.871 102.974"/>
<path transform="matrix(1,0,0,-1,0,426.4)" d="M142.566 103.541C142.566 103.841 142.316 104.111 142.02 104.111 141.703 104.111 141.453 103.841 141.453 103.541 141.453 103.224 141.703 102.974 142.02 102.974 142.316 102.974 142.566 103.224 142.566 103.541ZM142.566 103.541"/>
<path transform="matrix(1,0,0,-1,0,426.4)" d="M146.621 104.724V103.81C146.621 103.427 146.586 103.31 145.805 103.31H145.586V102.974C146.02 103.009 146.57 103.009 147.02 103.009 147.469 103.009 148.02 103.009 148.469 102.974V103.31H148.238C147.453 103.31 147.438 103.427 147.438 103.81V104.724H148.488V105.06H147.438V109.892C147.438 110.111 147.438 110.177 147.254 110.177 147.172 110.177 147.137 110.177 147.055 110.041L143.785 105.06V104.724ZM146.672 105.06H144.086L146.672 109.025ZM146.672 105.06"/>
<path transform="matrix(1,0,0,-1,0,426.4)" d="M140.105 53.041C140.105 53.892 140.055 54.744 139.688 55.525 139.203 56.56 138.32 56.724 137.887 56.724 137.238 56.724 136.473 56.443 136.02 55.459 135.688 54.724 135.637 53.892 135.637 53.041 135.637 52.244 135.672 51.291 136.121 50.474 136.57 49.627 137.355 49.408 137.871 49.408 138.438 49.408 139.254 49.627 139.723 50.642 140.055 51.377 140.105 52.209 140.105 53.041ZM137.871 49.642C137.453 49.642 136.82 49.908 136.637 50.927 136.52 51.56 136.52 52.541 136.52 53.177 136.52 53.861 136.52 54.56 136.605 55.127 136.805 56.392 137.605 56.494 137.871 56.494 138.223 56.494 138.922 56.291 139.121 55.244 139.238 54.642 139.238 53.841 139.238 53.177 139.238 52.377 139.238 51.658 139.121 50.974 138.953 49.959 138.355 49.642 137.871 49.642ZM137.871 49.642"/>
<path transform="matrix(1,0,0,-1,0,426.4)" d="M142.566 50.209C142.566 50.509 142.316 50.775 142.02 50.775 141.703 50.775 141.453 50.509 141.453 50.209 141.453 49.892 141.703 49.642 142.02 49.642 142.316 49.642 142.566 49.892 142.566 50.209ZM142.566 50.209"/>
<path transform="matrix(1,0,0,-1,0,426.4)" d="M148.254 51.494H148.004C147.938 51.177 147.871 50.709 147.754 50.541 147.688 50.459 146.988 50.459 146.754 50.459H144.836L145.969 51.56C147.621 53.025 148.254 53.591 148.254 54.658 148.254 55.877 147.305 56.724 146.004 56.724 144.805 56.724 144.02 55.744 144.02 54.791 144.02 54.209 144.555 54.209 144.586 54.209 144.77 54.209 145.137 54.326 145.137 54.775 145.137 55.041 144.938 55.326 144.57 55.326 144.488 55.326 144.469 55.326 144.438 55.31 144.672 56.009 145.254 56.392 145.871 56.392 146.836 56.392 147.285 55.525 147.285 54.658 147.285 53.81 146.77 52.974 146.172 52.31L144.137 50.041C144.02 49.927 144.02 49.892 144.02 49.642H147.969ZM148.254 51.494"/>
<path transform="matrix(1,0,0,-1,0,426.4)" d="M145.148-.291C145.148 .56 145.102 1.408 144.734 2.193 144.25 3.224 143.367 3.392 142.934 3.392 142.285 3.392 141.516 3.111 141.066 2.127 140.734 1.392 140.684 .56 140.684-.291 140.684-1.092 140.715-2.041 141.168-2.858 141.617-3.709 142.398-3.924 142.918-3.924 143.484-3.924 144.301-3.709 144.766-2.69 145.102-1.959 145.148-1.123 145.148-.291ZM142.918-3.69C142.5-3.69 141.867-3.424 141.684-2.409 141.566-1.776 141.566-.791 141.566-.159 141.566 .525 141.566 1.224 141.648 1.791 141.852 3.06 142.648 3.158 142.918 3.158 143.266 3.158 143.965 2.959 144.168 1.908 144.285 1.31 144.285 .509 144.285-.159 144.285-.959 144.285-1.674 144.168-2.358 144-3.373 143.398-3.69 142.918-3.69ZM142.918-3.69"/>
<g mask="url(#mask_2)">
<g>
<g clip-path="url(#clip_4)">
<g clip-path="url(#clip_5)">
<path d="M341.867 64.852H483.734V191.786H341.867Z" fill="#ffffff"/>
<path stroke-width=".746666" stroke-linecap="butt" stroke-miterlimit="4" stroke-linejoin="miter" fill="none" stroke="#000000" d="M341.867 64.852H483.734V191.786H341.867Z"/>
</g>
</g>
</g>
</g>
<path stroke-width="2.986666" stroke-linecap="butt" stroke-miterlimit="4" stroke-linejoin="miter" fill="none" stroke="#0044dd" stroke-opacity=".85" d="M386.668 159.68H362.773"/>
<path transform="matrix(1,0,0,-1,0,426.4)" d="M398.844 278.646C399.27 278.552 400.848 278.252 400.848 276.853 400.848 275.884 400.18 275.095 398.664 275.095 397.023 275.095 396.328 276.189 395.965 277.857 395.902 278.099 395.902 278.158 395.691 278.158 395.449 278.158 395.449 278.037 395.449 277.705V275.127C395.449 274.791 395.449 274.67 395.66 274.67 395.75 274.67 395.781 274.701 396.145 275.064 396.176 275.095 396.176 275.127 396.539 275.49 397.391 274.701 398.27 274.67 398.664 274.67 400.879 274.67 401.789 275.974 401.789 277.369 401.789 278.373 401.211 278.978 400.969 279.189 400.332 279.826 399.574 279.978 398.754 280.13 397.66 280.341 396.387 280.587 396.387 281.709 396.387 282.404 396.875 283.193 398.543 283.193 400.664 283.193 400.785 281.435 400.816 280.857 400.816 280.677 401 280.677 401.027 280.677 401.301 280.677 401.301 280.767 401.301 281.13V283.103C401.301 283.408 401.301 283.56 401.09 283.56 401 283.56 400.938 283.56 400.695 283.314 400.633 283.255 400.453 283.072 400.363 283.013 399.633 283.56 398.844 283.56 398.543 283.56 396.176 283.56 395.449 282.255 395.449 281.162 395.449 280.494 395.75 279.947 396.266 279.525 396.902 279.037 397.449 278.916 398.844 278.646ZM398.844 278.646"/>
<path transform="matrix(1,0,0,-1,0,426.4)" d="M405.859 283.435 403.16 283.224V282.619C404.402 282.619 404.586 282.498 404.586 281.556V276.337C404.586 275.49 404.371 275.49 403.066 275.49V274.884C403.676 274.912 404.734 274.943 405.191 274.943 405.891 274.943 406.555 274.912 407.223 274.884V275.49C405.918 275.49 405.859 275.58 405.859 276.337ZM405.918 286.802C405.918 287.412 405.465 287.834 404.918 287.834 404.312 287.834 403.887 287.318 403.887 286.802 403.887 286.287 404.312 285.771 404.918 285.771 405.465 285.771 405.918 286.197 405.918 286.802ZM405.918 286.802"/>
<path transform="matrix(1,0,0,-1,0,426.4)" d="M409.91 281.525V276.337C409.91 275.49 409.699 275.49 408.395 275.49V274.884C409.094 274.912 410.062 274.943 410.609 274.943 411.094 274.943 412.094 274.912 412.762 274.884V275.49C411.457 275.49 411.246 275.49 411.246 276.337V279.92C411.246 281.92 412.641 283.013 413.855 283.013 415.098 283.013 415.312 281.982 415.312 280.857V276.337C415.312 275.49 415.098 275.49 413.793 275.49V274.884C414.461 274.912 415.461 274.943 415.977 274.943 416.465 274.943 417.496 274.912 418.133 274.884V275.49C417.133 275.49 416.645 275.49 416.645 276.064V279.767C416.645 281.435 416.645 282.009 416.039 282.709 415.766 283.045 415.129 283.435 414.008 283.435 412.582 283.435 411.672 282.619 411.125 281.404V283.435L408.395 283.224V282.619C409.762 282.619 409.91 282.498 409.91 281.525ZM409.91 281.525"/>
<path transform="matrix(1,0,0,-1,0,426.4)" d="M424.922 270.244C424.922 270.302 424.922 270.334 424.59 270.666 422.191 273.091 421.555 276.763 421.555 279.736 421.555 283.103 422.285 286.47 424.68 288.865 424.922 289.111 424.922 289.138 424.922 289.201 424.922 289.353 424.863 289.412 424.742 289.412 424.527 289.412 422.801 288.08 421.648 285.623 420.676 283.498 420.434 281.345 420.434 279.736 420.434 278.22 420.645 275.884 421.707 273.67 422.891 271.302 424.527 270.029 424.742 270.029 424.863 270.029 424.922 270.091 424.922 270.244ZM424.922 270.244"/>
<path transform="matrix(1,0,0,-1,0,426.4)" d="M431.207 282.103H433.391C432.754 279.252 432.57 278.4 432.57 277.099 432.57 276.826 432.57 276.31 432.723 275.642 432.934 274.791 433.145 274.67 433.418 274.67 433.812 274.67 434.238 275.005 434.238 275.4 434.238 275.521 434.238 275.548 434.117 275.822 433.539 277.22 433.539 278.494 433.539 279.037 433.539 280.041 433.691 281.103 433.906 282.103H436.09C436.363 282.103 437.059 282.103 437.059 282.771 437.059 283.224 436.637 283.224 436.27 283.224H429.781C429.355 283.224 428.625 283.224 427.777 282.314 427.109 281.556 426.594 280.677 426.594 280.587 426.594 280.556 426.594 280.373 426.836 280.373 426.988 280.373 427.02 280.462 427.141 280.615 428.082 282.103 429.203 282.103 429.598 282.103H430.691C430.082 279.767 429.051 277.431 428.234 275.673 428.082 275.369 428.082 275.337 428.082 275.185 428.082 274.822 428.383 274.67 428.625 274.67 429.203 274.67 429.355 275.216 429.598 275.916 429.871 276.826 429.871 276.853 430.113 277.826ZM431.207 282.103"/>
<path transform="matrix(1,0,0,-1,0,426.4)" d="M444.258 280.736C444.379 281.224 444.836 283.013 446.168 283.013 446.262 283.013 446.746 283.013 447.141 282.771 446.594 282.65 446.23 282.193 446.23 281.709 446.23 281.404 446.441 281.041 446.957 281.041 447.383 281.041 447.988 281.373 447.988 282.162 447.988 283.166 446.867 283.435 446.199 283.435 445.078 283.435 444.41 282.404 444.168 281.982 443.684 283.255 442.652 283.435 442.074 283.435 440.074 283.435 438.949 280.951 438.949 280.462 438.949 280.252 439.164 280.252 439.191 280.252 439.344 280.252 439.406 280.314 439.434 280.462 440.102 282.529 441.375 283.013 442.043 283.013 442.406 283.013 443.074 282.83 443.074 281.709 443.074 281.103 442.742 279.826 442.043 277.099 441.742 275.916 441.043 275.095 440.195 275.095 440.074 275.095 439.648 275.095 439.223 275.337 439.707 275.459 440.133 275.853 440.133 276.4 440.133 276.916 439.707 277.068 439.434 277.068 438.828 277.068 438.375 276.58 438.375 275.943 438.375 275.064 439.312 274.67 440.164 274.67 441.469 274.67 442.164 276.037 442.195 276.127 442.438 275.427 443.137 274.67 444.289 274.67 446.289 274.67 447.383 277.158 447.383 277.642 447.383 277.857 447.23 277.857 447.172 277.857 446.988 277.857 446.957 277.763 446.898 277.642 446.262 275.548 444.957 275.095 444.348 275.095 443.59 275.095 443.289 275.701 443.289 276.369 443.289 276.795 443.379 277.22 443.59 278.068ZM444.258 280.736"/>
<path transform="matrix(1,0,0,-1,0,426.4)" d="M454.434 279.736C454.434 281.224 454.219 283.56 453.156 285.771 452.004 288.138 450.336 289.412 450.156 289.412 450.035 289.412 449.941 289.322 449.941 289.201 449.941 289.138 449.941 289.111 450.309 288.744 452.219 286.834 453.309 283.771 453.309 279.736 453.309 276.4 452.613 273.002 450.215 270.576 449.941 270.334 449.941 270.302 449.941 270.244 449.941 270.119 450.035 270.029 450.156 270.029 450.336 270.029 452.098 271.365 453.219 273.822 454.219 275.943 454.434 278.099 454.434 279.736ZM454.434 279.736"/>
<path transform="matrix(1,0,0,-1,0,0)" stroke-width=".5824" stroke-linecap="butt" stroke-miterlimit="4" stroke-linejoin="miter" fill="none" stroke="#000000" d="M394.813-159.77H456.371"/>
<path transform="matrix(1,0,0,-1,0,426.4)" d="M419.332 255.752H421.516C420.879 252.9 420.699 252.048 420.699 250.744 420.699 250.474 420.699 249.959 420.848 249.291 421.062 248.439 421.273 248.318 421.547 248.318 421.941 248.318 422.367 248.654 422.367 249.048 422.367 249.17 422.367 249.197 422.246 249.47 421.668 250.869 421.668 252.142 421.668 252.685 421.668 253.689 421.82 254.752 422.031 255.752H424.215C424.488 255.752 425.188 255.752 425.188 256.42 425.188 256.873 424.762 256.873 424.398 256.873H417.906C417.48 256.873 416.754 256.873 415.906 255.962 415.238 255.205 414.723 254.326 414.723 254.232 414.723 254.205 414.723 254.021 414.965 254.021 415.117 254.021 415.148 254.111 415.27 254.263 416.207 255.752 417.332 255.752 417.727 255.752H418.816C418.211 253.416 417.18 251.08 416.359 249.322 416.207 249.017 416.207 248.986 416.207 248.834 416.207 248.47 416.512 248.318 416.754 248.318 417.332 248.318 417.48 248.865 417.727 249.564 418 250.474 418 250.502 418.242 251.474ZM419.332 255.752"/>
<path transform="matrix(1,0,0,-1,0,426.4)" d="M432.387 254.384C432.508 254.873 432.961 256.662 434.297 256.662 434.387 256.662 434.875 256.662 435.266 256.42 434.723 256.298 434.359 255.841 434.359 255.357 434.359 255.052 434.57 254.689 435.086 254.689 435.512 254.689 436.117 255.021 436.117 255.81 436.117 256.814 434.996 257.084 434.328 257.084 433.203 257.084 432.539 256.052 432.293 255.63 431.809 256.904 430.777 257.084 430.203 257.084 428.199 257.084 427.078 254.599 427.078 254.111 427.078 253.9 427.289 253.9 427.32 253.9 427.473 253.9 427.531 253.962 427.562 254.111 428.23 256.173 429.504 256.662 430.172 256.662 430.535 256.662 431.203 256.478 431.203 255.357 431.203 254.752 430.871 253.474 430.172 250.744 429.867 249.564 429.172 248.744 428.32 248.744 428.199 248.744 427.773 248.744 427.352 248.986 427.836 249.107 428.262 249.502 428.262 250.048 428.262 250.564 427.836 250.716 427.562 250.716 426.957 250.716 426.5 250.228 426.5 249.591 426.5 248.712 427.441 248.318 428.289 248.318 429.594 248.318 430.293 249.685 430.324 249.775 430.566 249.076 431.262 248.318 432.418 248.318 434.418 248.318 435.512 250.806 435.512 251.291 435.512 251.505 435.359 251.505 435.297 251.505 435.117 251.505 435.086 251.412 435.023 251.291 434.387 249.197 433.082 248.744 432.477 248.744 431.719 248.744 431.414 249.349 431.414 250.017 431.414 250.443 431.508 250.869 431.719 251.716ZM432.387 254.384"/>
<path stroke-width="2.986666" stroke-linecap="butt" stroke-miterlimit="4" stroke-linejoin="miter" fill="none" stroke="#ee0000" stroke-opacity=".85" d="M386.668 102.934H362.773"/>
<path transform="matrix(1,0,0,-1,0,426.4)" d="M398.844 335.392C399.27 335.298 400.848 334.998 400.848 333.603 400.848 332.63 400.18 331.841 398.664 331.841 397.023 331.841 396.328 332.935 395.965 334.603 395.902 334.845 395.902 334.904 395.691 334.904 395.449 334.904 395.449 334.783 395.449 334.451V331.873C395.449 331.537 395.449 331.416 395.66 331.416 395.75 331.416 395.781 331.447 396.145 331.81 396.176 331.841 396.176 331.873 396.539 332.236 397.391 331.447 398.27 331.416 398.664 331.416 400.879 331.416 401.789 332.72 401.789 334.119 401.789 335.119 401.211 335.724 400.969 335.935 400.332 336.576 399.574 336.724 398.754 336.877 397.66 337.091 396.387 337.334 396.387 338.455 396.387 339.154 396.875 339.939 398.543 339.939 400.664 339.939 400.785 338.181 400.816 337.607 400.816 337.423 401 337.423 401.027 337.423 401.301 337.423 401.301 337.513 401.301 337.877V339.849C401.301 340.154 401.301 340.306 401.09 340.306 401 340.306 400.938 340.306 400.695 340.064 400.633 340.002 400.453 339.818 400.363 339.759 399.633 340.306 398.844 340.306 398.543 340.306 396.176 340.306 395.449 339.002 395.449 337.908 395.449 337.24 395.75 336.697 396.266 336.271 396.902 335.787 397.449 335.666 398.844 335.392ZM398.844 335.392"/>
<path transform="matrix(1,0,0,-1,0,426.4)" d="M405.859 340.185 403.16 339.97V339.365C404.402 339.365 404.586 339.244 404.586 338.302V333.087C404.586 332.236 404.371 332.236 403.066 332.236V331.63C403.676 331.662 404.734 331.689 405.191 331.689 405.891 331.689 406.555 331.662 407.223 331.63V332.236C405.918 332.236 405.859 332.326 405.859 333.087ZM405.918 343.552C405.918 344.158 405.465 344.584 404.918 344.584 404.312 344.584 403.887 344.068 403.887 343.552 403.887 343.037 404.312 342.521 404.918 342.521 405.465 342.521 405.918 342.943 405.918 343.552ZM405.918 343.552"/>
<path transform="matrix(1,0,0,-1,0,426.4)" d="M409.91 338.271V333.087C409.91 332.236 409.699 332.236 408.395 332.236V331.63C409.094 331.662 410.062 331.689 410.609 331.689 411.094 331.689 412.094 331.662 412.762 331.63V332.236C411.457 332.236 411.246 332.236 411.246 333.087V336.666C411.246 338.666 412.641 339.759 413.855 339.759 415.098 339.759 415.312 338.728 415.312 337.607V333.087C415.312 332.236 415.098 332.236 413.793 332.236V331.63C414.461 331.662 415.461 331.689 415.977 331.689 416.465 331.689 417.496 331.662 418.133 331.63V332.236C417.133 332.236 416.645 332.236 416.645 332.814V336.513C416.645 338.181 416.645 338.759 416.039 339.455 415.766 339.791 415.129 340.185 414.008 340.185 412.582 340.185 411.672 339.365 411.125 338.15V340.185L408.395 339.97V339.365C409.762 339.365 409.91 339.244 409.91 338.271ZM409.91 338.271"/>
<path transform="matrix(1,0,0,-1,0,426.4)" d="M424.922 326.99C424.922 327.048 424.922 327.08 424.59 327.412 422.191 329.841 421.555 333.509 421.555 336.482 421.555 339.849 422.285 343.216 424.68 345.615 424.922 345.857 424.922 345.884 424.922 345.947 424.922 346.099 424.863 346.158 424.742 346.158 424.527 346.158 422.801 344.826 421.648 342.369 420.676 340.244 420.434 338.091 420.434 336.482 420.434 334.966 420.645 332.63 421.707 330.416 422.891 328.048 424.527 326.775 424.742 326.775 424.863 326.775 424.922 326.837 424.922 326.99ZM424.922 326.99"/>
<path transform="matrix(1,0,0,-1,0,426.4)" d="M432.539 337.482C432.66 337.97 433.117 339.759 434.449 339.759 434.543 339.759 435.027 339.759 435.422 339.517 434.875 339.396 434.512 338.939 434.512 338.455 434.512 338.15 434.723 337.787 435.238 337.787 435.664 337.787 436.27 338.123 436.27 338.908 436.27 339.912 435.148 340.185 434.48 340.185 433.359 340.185 432.691 339.154 432.449 338.728 431.965 340.002 430.934 340.185 430.355 340.185 428.355 340.185 427.23 337.697 427.23 337.212 427.23 336.998 427.445 336.998 427.473 336.998 427.625 336.998 427.688 337.06 427.719 337.212 428.383 339.275 429.656 339.759 430.324 339.759 430.691 339.759 431.355 339.576 431.355 338.455 431.355 337.849 431.023 336.576 430.324 333.845 430.023 332.662 429.324 331.841 428.477 331.841 428.355 331.841 427.93 331.841 427.504 332.084 427.988 332.205 428.414 332.599 428.414 333.146 428.414 333.662 427.988 333.814 427.719 333.814 427.109 333.814 426.656 333.33 426.656 332.693 426.656 331.81 427.594 331.416 428.445 331.416 429.75 331.416 430.445 332.783 430.477 332.873 430.719 332.177 431.418 331.416 432.57 331.416 434.57 331.416 435.664 333.904 435.664 334.388 435.664 334.603 435.512 334.603 435.453 334.603 435.27 334.603 435.238 334.509 435.18 334.388 434.543 332.298 433.238 331.841 432.629 331.841 431.871 331.841 431.57 332.447 431.57 333.115 431.57 333.541 431.66 333.966 431.871 334.814ZM432.539 337.482"/>
<path transform="matrix(1,0,0,-1,0,426.4)" d="M442.715 336.482C442.715 337.97 442.5 340.306 441.441 342.521 440.285 344.884 438.617 346.158 438.438 346.158 438.316 346.158 438.223 346.068 438.223 345.947 438.223 345.884 438.223 345.857 438.59 345.494 440.5 343.58 441.59 340.517 441.59 336.482 441.59 333.146 440.895 329.748 438.496 327.322 438.223 327.08 438.223 327.048 438.223 326.99 438.223 326.869 438.316 326.775 438.438 326.775 438.617 326.775 440.379 328.111 441.5 330.568 442.5 332.693 442.715 334.845 442.715 336.482ZM442.715 336.482"/>
<path transform="matrix(1,0,0,-1,0,0)" stroke-width=".5824" stroke-linecap="butt" stroke-miterlimit="4" stroke-linejoin="miter" fill="none" stroke="#000000" d="M394.813-103.02H444.656"/>
<path transform="matrix(1,0,0,-1,0,426.4)" d="M420.668 311.13C420.789 311.619 421.242 313.408 422.578 313.408 422.668 313.408 423.156 313.408 423.551 313.166 423.004 313.045 422.641 312.587 422.641 312.103 422.641 311.798 422.852 311.435 423.367 311.435 423.793 311.435 424.398 311.771 424.398 312.556 424.398 313.56 423.277 313.834 422.609 313.834 421.488 313.834 420.82 312.802 420.578 312.377 420.09 313.65 419.059 313.834 418.484 313.834 416.48 313.834 415.359 311.345 415.359 310.861 415.359 310.646 415.57 310.646 415.602 310.646 415.754 310.646 415.812 310.709 415.844 310.861 416.512 312.923 417.785 313.408 418.453 313.408 418.816 313.408 419.484 313.224 419.484 312.103 419.484 311.498 419.152 310.224 418.453 307.494 418.148 306.31 417.453 305.49 416.602 305.49 416.48 305.49 416.059 305.49 415.633 305.732 416.117 305.853 416.543 306.248 416.543 306.795 416.543 307.31 416.117 307.462 415.844 307.462 415.238 307.462 414.781 306.978 414.781 306.341 414.781 305.459 415.723 305.064 416.574 305.064 417.875 305.064 418.574 306.431 418.605 306.521 418.848 305.826 419.547 305.064 420.699 305.064 422.699 305.064 423.793 307.552 423.793 308.037 423.793 308.252 423.641 308.252 423.578 308.252 423.398 308.252 423.367 308.158 423.305 308.037 422.668 305.947 421.363 305.49 420.758 305.49 420 305.49 419.695 306.095 419.695 306.763 419.695 307.189 419.789 307.615 420 308.462ZM420.668 311.13"/>
</g>
</svg>
