<?xml version="1.0" encoding="UTF-8" standalone="no"?>
<!-- Created with Inkscape (http://www.inkscape.org/) -->

<svg
   version="1.1"
   id="svg2"
   width="698.66669"
   height="106.66667"
   viewBox="0 0 698.66669 106.66667"
   sodipodi:docname="aggregate-mask.eps"
   xmlns:inkscape="http://www.inkscape.org/namespaces/inkscape"
   xmlns:sodipodi="http://sodipodi.sourceforge.net/DTD/sodipodi-0.dtd"
   xmlns="http://www.w3.org/2000/svg"
   xmlns:svg="http://www.w3.org/2000/svg">
  <defs
     id="defs6">
    <clipPath
       clipPathUnits="userSpaceOnUse"
       id="clipPath18">
      <path
         d="M 0,0 H 5230.36 V 792.922 H 0 Z"
         id="path16" />
    </clipPath>
  </defs>
  <sodipodi:namedview
     id="namedview4"
     pagecolor="#ffffff"
     bordercolor="#000000"
     borderopacity="0.25"
     inkscape:showpageshadow="2"
     inkscape:pageopacity="0.0"
     inkscape:pagecheckerboard="0"
     inkscape:deskcolor="#d1d1d1" />
  <g
     id="g8"
     inkscape:groupmode="layer"
     inkscape:label="ink_ext_XXXXXX"
     transform="matrix(1.3333333,0,0,-1.3333333,0,106.66667)">
    <g
       id="g10"
       transform="scale(0.1)">
      <g
         id="g12">
        <g
           id="g14"
           clip-path="url(#clipPath18)">
          <path
             d="m 105,787.922 c 1673.45,0 3346.91,0 5020.36,0 50,0 100,-50 100,-100 0,-194.309 0,-388.613 0,-582.922 0,-50 -50,-100 -100,-100 C 3451.91,5 1778.45,5 105,5 55,5 5,55 5,105 c 0,194.309 0,388.613 0,582.922 0,50 50,100 100,100 z"
             style="fill:#e4e4e4;fill-opacity:1;fill-rule:nonzero;stroke:none"
             id="path20" />
          <path
             d="m 105,787.922 c 1673.45,0 3346.91,0 5020.36,0 50,0 100,-50 100,-100 0,-194.309 0,-388.613 0,-582.922 0,-50 -50,-100 -100,-100 C 3451.91,5 1778.45,5 105,5 55,5 5,55 5,105 c 0,194.309 0,388.613 0,582.922 0,50 50,100 100,100 z"
             style="fill:none;stroke:#000000;stroke-width:10;stroke-linecap:butt;stroke-linejoin:miter;stroke-miterlimit:10;stroke-dasharray:none;stroke-opacity:1"
             id="path22" />
          <path
             d="m 142.395,527.316 c 779.863,0 1559.725,0 2339.585,0 30.49,0 60.98,-30.492 60.98,-60.98 0,-68.055 0,-136.106 0,-204.156 0,-30.492 -30.49,-60.981 -60.98,-60.981 -779.86,0 -1559.722,0 -2339.585,0 -30.493,0 -60.9809,30.489 -60.9809,60.981 0,68.05 0,136.101 0,204.156 0,30.488 30.4879,60.98 60.9809,60.98 z"
             style="fill:#f5fee8;fill-opacity:1;fill-rule:nonzero;stroke:none"
             id="path24" />
          <path
             d="m 142.395,527.316 c 779.863,0 1559.725,0 2339.585,0 30.49,0 60.98,-30.492 60.98,-60.98 0,-68.055 0,-136.106 0,-204.156 0,-30.492 -30.49,-60.981 -60.98,-60.981 -779.86,0 -1559.722,0 -2339.585,0 -30.493,0 -60.9809,30.489 -60.9809,60.981 0,68.05 0,136.101 0,204.156 0,30.488 30.4879,60.98 60.9809,60.98 z"
             style="fill:none;stroke:#aeaeae;stroke-width:10;stroke-linecap:butt;stroke-linejoin:miter;stroke-miterlimit:10;stroke-dasharray:none;stroke-opacity:1"
             id="path26" />
          <path
             d="m 2724.78,527.316 c 779.86,0 1559.72,0 2339.59,0 30.49,0 60.98,-30.492 60.98,-60.98 0,-68.055 0,-136.106 0,-204.156 0,-30.492 -30.49,-60.981 -60.98,-60.981 -779.87,0 -1559.73,0 -2339.59,0 -30.49,0 -60.98,30.489 -60.98,60.981 0,68.05 0,136.101 0,204.156 0,30.488 30.49,60.98 60.98,60.98 z"
             style="fill:#f5fee8;fill-opacity:1;fill-rule:nonzero;stroke:none"
             id="path28" />
          <path
             d="m 2724.78,527.316 c 779.86,0 1559.72,0 2339.59,0 30.49,0 60.98,-30.492 60.98,-60.98 0,-68.055 0,-136.106 0,-204.156 0,-30.492 -30.49,-60.981 -60.98,-60.981 -779.87,0 -1559.73,0 -2339.59,0 -30.49,0 -60.98,30.489 -60.98,60.981 0,68.05 0,136.101 0,204.156 0,30.488 30.49,60.98 60.98,60.98 z"
             style="fill:none;stroke:#a7c367;stroke-width:10;stroke-linecap:butt;stroke-linejoin:miter;stroke-miterlimit:10;stroke-dasharray:none;stroke-opacity:1"
             id="path30" />
          <path
             d="m 135.836,704.207 5.34,-355.312"
             style="fill:none;stroke:#7f7f7f;stroke-width:10;stroke-linecap:square;stroke-linejoin:miter;stroke-miterlimit:10;stroke-dasharray:none;stroke-opacity:1"
             id="path32" />
          <path
             d="m 726.719,704.207 5.344,-355.312"
             style="fill:none;stroke:#919191;stroke-width:10;stroke-linecap:square;stroke-linejoin:miter;stroke-miterlimit:10;stroke-dasharray:none;stroke-opacity:1"
             id="path34" />
          <path
             d="m 1317.61,704.207 5.34,-355.312"
             style="fill:none;stroke:#919191;stroke-width:10;stroke-linecap:square;stroke-linejoin:miter;stroke-miterlimit:10;stroke-dasharray:none;stroke-opacity:1"
             id="path36" />
          <path
             d="m 1886.61,704.207 5.34,-355.312"
             style="fill:none;stroke:#919191;stroke-width:10;stroke-linecap:square;stroke-linejoin:miter;stroke-miterlimit:10;stroke-dasharray:none;stroke-opacity:1"
             id="path38" />
          <path
             d="m 2477.49,704.207 5.34,-355.312"
             style="fill:none;stroke:#919191;stroke-width:10;stroke-linecap:square;stroke-linejoin:miter;stroke-miterlimit:10;stroke-dasharray:none;stroke-opacity:1"
             id="path40" />
          <path
             d="m 2718.22,704.207 5.34,-355.312"
             style="fill:none;stroke:#919191;stroke-width:10;stroke-linecap:square;stroke-linejoin:miter;stroke-miterlimit:10;stroke-dasharray:none;stroke-opacity:1"
             id="path42" />
          <path
             d="m 3309.11,704.207 5.34,-355.312"
             style="fill:none;stroke:#919191;stroke-width:10;stroke-linecap:square;stroke-linejoin:miter;stroke-miterlimit:10;stroke-dasharray:none;stroke-opacity:1"
             id="path44" />
          <path
             d="m 3899.99,704.207 5.34,-355.312"
             style="fill:none;stroke:#919191;stroke-width:10;stroke-linecap:square;stroke-linejoin:miter;stroke-miterlimit:10;stroke-dasharray:none;stroke-opacity:1"
             id="path46" />
          <path
             d="m 4468.99,704.207 5.34,-355.312"
             style="fill:none;stroke:#919191;stroke-width:10;stroke-linecap:square;stroke-linejoin:miter;stroke-miterlimit:10;stroke-dasharray:none;stroke-opacity:1"
             id="path48" />
          <path
             d="m 5059.88,704.207 5.34,-355.312"
             style="fill:none;stroke:#919191;stroke-width:10;stroke-linecap:square;stroke-linejoin:miter;stroke-miterlimit:10;stroke-dasharray:none;stroke-opacity:1"
             id="path50" />
          <path
             d="m 199.836,476.969 c 57.027,0 114.055,0 171.082,0 30.859,0 61.715,-30.86 61.715,-61.719 0,-31.066 0,-62.133 0,-93.203 0,-30.856 -30.856,-61.715 -61.715,-61.715 -57.027,0 -114.055,0 -171.082,0 -30.859,0 -61.719,30.859 -61.719,61.715 0,31.07 0,62.137 0,93.203 0,30.859 30.86,61.719 61.719,61.719 z"
             style="fill:#b6b6b6;fill-opacity:1;fill-rule:nonzero;stroke:none"
             id="path52" />
          <path
             d="m 199.836,476.969 c 57.027,0 114.055,0 171.082,0 30.859,0 61.719,-30.86 61.719,-61.715 0,-31.07 0,-62.137 0,-93.207 0,-30.856 -30.86,-61.715 -61.719,-61.715 -57.027,0 -114.055,0 -171.082,0 -30.859,0 -61.719,30.859 -61.719,61.715 0,31.07 0,62.137 0,93.207 0,30.855 30.86,61.715 61.719,61.715 z"
             style="fill:none;stroke:#000000;stroke-width:10;stroke-linecap:butt;stroke-linejoin:miter;stroke-miterlimit:10;stroke-dasharray:none;stroke-opacity:1"
             id="path54" />
          <g
             id="g56"
             transform="scale(10)">
            <text
               xml:space="preserve"
               transform="matrix(1,0,0,-1,24.6855,32.8648)"
               style="font-variant:normal;font-weight:normal;font-size:12px;font-family:Helvetica;-inkscape-font-specification:Helvetica;writing-mode:lr-tb;fill:#000000;fill-opacity:1;fill-rule:nonzero;stroke:none"
               id="text60"><tspan
                 x="0"
                 y="0"
                 id="tspan58">A</tspan></text>
          </g>
          <path
             d="m 493.973,475.359 c 57.027,0 114.054,0 171.086,0 30.855,0 61.714,-30.855 61.714,-61.714 0,-31.067 0,-62.137 0,-93.204 0,-30.859 -30.859,-61.718 -61.714,-61.718 -57.032,0 -114.059,0 -171.086,0 -30.86,0 -61.715,30.859 -61.715,61.718 0,31.067 0,62.137 0,93.204 0,30.859 30.855,61.714 61.715,61.714 z"
             style="fill:#c3c3c3;fill-opacity:1;fill-rule:nonzero;stroke:none"
             id="path62" />
          <path
             d="m 493.973,475.359 c 57.027,0 114.054,0 171.086,0 30.855,0 61.714,-30.855 61.714,-61.714 0,-31.067 0,-62.137 0,-93.204 0,-30.859 -30.859,-61.714 -61.714,-61.714 -57.032,0 -114.059,0 -171.086,0 -30.86,0 -61.715,30.855 -61.715,61.714 0,31.067 0,62.137 0,93.204 0,30.859 30.855,61.714 61.715,61.714 z"
             style="fill:none;stroke:#000000;stroke-width:10;stroke-linecap:butt;stroke-linejoin:miter;stroke-miterlimit:10;stroke-dasharray:none;stroke-opacity:1"
             id="path64" />
          <g
             id="g66"
             transform="scale(10)">
            <text
               xml:space="preserve"
               transform="matrix(1,0,0,-1,54.0996,32.7043)"
               style="font-variant:normal;font-weight:normal;font-size:12px;font-family:Helvetica;-inkscape-font-specification:Helvetica;writing-mode:lr-tb;fill:#000000;fill-opacity:1;fill-rule:nonzero;stroke:none"
               id="text70"><tspan
                 x="0"
                 y="0"
                 id="tspan68">A</tspan></text>
            <text
               xml:space="preserve"
               transform="matrix(1,0,0,-1,32.9785,30.3711)"
               style="font-variant:normal;font-weight:normal;font-size:9px;font-family:Helvetica;-inkscape-font-specification:Helvetica;writing-mode:lr-tb;fill:#000000;fill-opacity:1;fill-rule:nonzero;stroke:none"
               id="text76"><tspan
                 x="0"
                 y="0"
                 id="tspan72">0</tspan><tspan
                 x="28.6563"
                 y="-0.110547"
                 id="tspan74">1</tspan></text>
          </g>
          <path
             d="m 786.199,474.047 c 57.028,0 114.055,0 171.082,0 30.86,0 61.719,-30.859 61.719,-61.715 0,-31.07 0,-62.137 0,-93.207 0,-30.855 -30.859,-61.715 -61.719,-61.715 -57.027,0 -114.054,0 -171.082,0 -30.859,0 -61.719,30.86 -61.719,61.715 0,31.07 0,62.137 0,93.207 0,30.856 30.86,61.715 61.719,61.715 z"
             style="fill:#dbdbdb;fill-opacity:1;fill-rule:nonzero;stroke:none"
             id="path78" />
          <path
             d="m 786.199,474.047 c 57.028,0 114.055,0 171.082,0 30.86,0 61.719,-30.856 61.719,-61.715 0,-31.07 0,-62.137 0,-93.203 0,-30.859 -30.859,-61.719 -61.719,-61.719 -57.027,0 -114.054,0 -171.082,0 -30.859,0 -61.719,30.86 -61.719,61.719 0,31.066 0,62.133 0,93.203 0,30.859 30.86,61.715 61.719,61.715 z"
             style="fill:none;stroke:#000000;stroke-width:10;stroke-linecap:butt;stroke-linejoin:miter;stroke-miterlimit:10;stroke-dasharray:none;stroke-opacity:1"
             id="path80" />
          <g
             id="g82"
             transform="scale(10)">
            <text
               xml:space="preserve"
               transform="matrix(1,0,0,-1,83.3219,32.573)"
               style="font-variant:normal;font-weight:normal;font-size:12px;font-family:Helvetica;-inkscape-font-specification:Helvetica;writing-mode:lr-tb;fill:#000000;fill-opacity:1;fill-rule:nonzero;stroke:none"
               id="text86"><tspan
                 x="0"
                 y="0"
                 id="tspan84">A</tspan></text>
          </g>
          <path
             d="m 1082.83,474.047 c 57.03,0 114.06,0 171.08,0 30.86,0 61.72,-30.859 61.72,-61.715 0,-31.07 0,-62.137 0,-93.207 0,-30.855 -30.86,-61.715 -61.72,-61.715 -57.02,0 -114.05,0 -171.08,0 -30.86,0 -61.72,30.86 -61.72,61.715 0,31.07 0,62.137 0,93.207 0,30.856 30.86,61.715 61.72,61.715 z"
             style="fill:#e2e2e2;fill-opacity:1;fill-rule:nonzero;stroke:none"
             id="path88" />
          <path
             d="m 1082.83,474.047 c 57.03,0 114.06,0 171.08,0 30.86,0 61.72,-30.856 61.72,-61.715 0,-31.07 0,-62.137 0,-93.203 0,-30.859 -30.86,-61.719 -61.72,-61.719 -57.02,0 -114.05,0 -171.08,0 -30.86,0 -61.72,30.86 -61.72,61.719 0,31.066 0,62.133 0,93.203 0,30.859 30.86,61.715 61.72,61.715 z"
             style="fill:none;stroke:#000000;stroke-width:10;stroke-linecap:butt;stroke-linejoin:miter;stroke-miterlimit:10;stroke-dasharray:none;stroke-opacity:1"
             id="path90" />
          <g
             id="g92"
             transform="scale(10)">
            <text
               xml:space="preserve"
               transform="matrix(1,0,0,-1,112.985,32.573)"
               style="font-variant:normal;font-weight:normal;font-size:12px;font-family:Helvetica;-inkscape-font-specification:Helvetica;writing-mode:lr-tb;fill:#000000;fill-opacity:1;fill-rule:nonzero;stroke:none"
               id="text96"><tspan
                 x="0"
                 y="0"
                 id="tspan94">A</tspan></text>
            <text
               xml:space="preserve"
               transform="matrix(1,0,0,-1,92.0666,30.37105)"
               style="font-variant:normal;font-weight:normal;font-size:9px;font-family:Helvetica;-inkscape-font-specification:Helvetica;writing-mode:lr-tb;fill:#000000;fill-opacity:1;fill-rule:nonzero;stroke:none"
               id="text102"><tspan
                 x="0"
                 y="0"
                 id="tspan98">0</tspan><tspan
                 x="28.6563"
                 y="-0.110547"
                 id="tspan100">1</tspan></text>
          </g>
          <path
             d="m 1370.23,476.969 c 57.02,0 114.05,0 171.08,0 30.86,0 61.71,-30.86 61.71,-61.719 0,-31.066 0,-62.133 0,-93.203 0,-30.856 -30.85,-61.715 -61.71,-61.715 -57.03,0 -114.06,0 -171.08,0 -30.86,0 -61.72,30.859 -61.72,61.715 0,31.07 0,62.137 0,93.203 0,30.859 30.86,61.719 61.72,61.719 z"
             style="fill:#c3c3c3;fill-opacity:1;fill-rule:nonzero;stroke:none"
             id="path104" />
          <path
             d="m 1370.23,476.969 c 57.02,0 114.05,0 171.08,0 30.86,0 61.71,-30.86 61.71,-61.715 0,-31.07 0,-62.137 0,-93.207 0,-30.856 -30.85,-61.715 -61.71,-61.715 -57.03,0 -114.06,0 -171.08,0 -30.86,0 -61.72,30.859 -61.72,61.715 0,31.07 0,62.137 0,93.207 0,30.855 30.86,61.715 61.72,61.715 z"
             style="fill:none;stroke:#000000;stroke-width:10;stroke-linecap:butt;stroke-linejoin:miter;stroke-miterlimit:10;stroke-dasharray:none;stroke-opacity:1"
             id="path106" />
          <g
             id="g108"
             transform="scale(10)">
            <text
               xml:space="preserve"
               transform="matrix(1,0,0,-1,141.725,32.8648)"
               style="font-variant:normal;font-weight:normal;font-size:12px;font-family:Helvetica;-inkscape-font-specification:Helvetica;writing-mode:lr-tb;fill:#000000;fill-opacity:1;fill-rule:nonzero;stroke:none"
               id="text112"><tspan
                 x="0"
                 y="0"
                 id="tspan110">A</tspan></text>
          </g>
          <path
             d="m 1664.36,475.359 c 57.03,0 114.06,0 171.09,0 30.85,0 61.71,-30.855 61.71,-61.714 0,-31.067 0,-62.137 0,-93.204 0,-30.859 -30.86,-61.718 -61.71,-61.718 -57.03,0 -114.06,0 -171.09,0 -30.86,0 -61.71,30.859 -61.71,61.718 0,31.067 0,62.137 0,93.204 0,30.859 30.85,61.714 61.71,61.714 z"
             style="fill:#c3c3c3;fill-opacity:1;fill-rule:nonzero;stroke:none"
             id="path114" />
          <path
             d="m 1664.36,475.359 c 57.03,0 114.06,0 171.09,0 30.85,0 61.71,-30.855 61.71,-61.714 0,-31.067 0,-62.137 0,-93.204 0,-30.859 -30.86,-61.714 -61.71,-61.714 -57.03,0 -114.06,0 -171.09,0 -30.86,0 -61.71,30.855 -61.71,61.714 0,31.067 0,62.137 0,93.204 0,30.859 30.85,61.714 61.71,61.714 z"
             style="fill:none;stroke:#000000;stroke-width:10;stroke-linecap:butt;stroke-linejoin:miter;stroke-miterlimit:10;stroke-dasharray:none;stroke-opacity:1"
             id="path116" />
          <g
             id="g118"
             transform="scale(10)">
            <text
               xml:space="preserve"
               transform="matrix(1,0,0,-1,171.139,32.7043)"
               style="font-variant:normal;font-weight:normal;font-size:12px;font-family:Helvetica;-inkscape-font-specification:Helvetica;writing-mode:lr-tb;fill:#000000;fill-opacity:1;fill-rule:nonzero;stroke:none"
               id="text122"><tspan
                 x="0"
                 y="0"
                 id="tspan120">A</tspan></text>
            <text
               xml:space="preserve"
               transform="matrix(1,0,0,-1,150.0175,30.3711)"
               style="font-variant:normal;font-weight:normal;font-size:9px;font-family:Helvetica;-inkscape-font-specification:Helvetica;writing-mode:lr-tb;fill:#000000;fill-opacity:1;fill-rule:nonzero;stroke:none"
               id="text128"><tspan
                 x="0"
                 y="0"
                 id="tspan124">0</tspan><tspan
                 x="28.6563"
                 y="-0.110547"
                 id="tspan126">1</tspan></text>
          </g>
          <path
             d="m 1954.11,474.047 c 57.03,0 114.06,0 171.09,0 30.86,0 61.71,-30.859 61.71,-61.715 0,-31.07 0,-62.137 0,-93.207 0,-30.855 -30.85,-61.715 -61.71,-61.715 -57.03,0 -114.06,0 -171.09,0 -30.85,0 -61.71,30.86 -61.71,61.715 0,31.07 0,62.137 0,93.207 0,30.856 30.86,61.715 61.71,61.715 z"
             style="fill:#e2e2e2;fill-opacity:1;fill-rule:nonzero;stroke:none"
             id="path130" />
          <path
             d="m 1954.11,474.047 c 57.03,0 114.06,0 171.09,0 30.86,0 61.71,-30.856 61.71,-61.715 0,-31.07 0,-62.137 0,-93.203 0,-30.859 -30.85,-61.719 -61.71,-61.719 -57.03,0 -114.06,0 -171.09,0 -30.85,0 -61.71,30.86 -61.71,61.719 0,31.066 0,62.133 0,93.203 0,30.859 30.86,61.715 61.71,61.715 z"
             style="fill:none;stroke:#000000;stroke-width:10;stroke-linecap:butt;stroke-linejoin:miter;stroke-miterlimit:10;stroke-dasharray:none;stroke-opacity:1"
             id="path132" />
          <g
             id="g134"
             transform="scale(10)">
            <text
               xml:space="preserve"
               transform="matrix(1,0,0,-1,200.114,32.573)"
               style="font-variant:normal;font-weight:normal;font-size:12px;font-family:Helvetica;-inkscape-font-specification:Helvetica;writing-mode:lr-tb;fill:#000000;fill-opacity:1;fill-rule:nonzero;stroke:none"
               id="text138"><tspan
                 x="0"
                 y="0"
                 id="tspan136">A</tspan></text>
          </g>
          <path
             d="m 2250.75,474.047 c 57.02,0 114.05,0 171.08,0 30.86,0 61.72,-30.859 61.72,-61.715 0,-31.07 0,-62.137 0,-93.207 0,-30.855 -30.86,-61.715 -61.72,-61.715 -57.03,0 -114.06,0 -171.08,0 -30.86,0 -61.72,30.86 -61.72,61.715 0,31.07 0,62.137 0,93.207 0,30.856 30.86,61.715 61.72,61.715 z"
             style="fill:#e2e2e2;fill-opacity:1;fill-rule:nonzero;stroke:none"
             id="path140" />
          <path
             d="m 2250.75,474.047 c 57.02,0 114.05,0 171.08,0 30.86,0 61.72,-30.856 61.72,-61.715 0,-31.07 0,-62.137 0,-93.203 0,-30.859 -30.86,-61.719 -61.72,-61.719 -57.03,0 -114.06,0 -171.08,0 -30.86,0 -61.72,30.86 -61.72,61.719 0,31.066 0,62.133 0,93.203 0,30.859 30.86,61.715 61.72,61.715 z"
             style="fill:none;stroke:#000000;stroke-width:10;stroke-linecap:butt;stroke-linejoin:miter;stroke-miterlimit:10;stroke-dasharray:none;stroke-opacity:1"
             id="path142" />
          <g
             id="g144"
             transform="scale(10)">
            <text
               xml:space="preserve"
               transform="matrix(1,0,0,-1,229.777,32.573)"
               style="font-variant:normal;font-weight:normal;font-size:12px;font-family:Helvetica;-inkscape-font-specification:Helvetica;writing-mode:lr-tb;fill:#000000;fill-opacity:1;fill-rule:nonzero;stroke:none"
               id="text148"><tspan
                 x="0"
                 y="0"
                 id="tspan146">A</tspan></text>
            <text
               xml:space="preserve"
               transform="matrix(1,0,0,-1,208.8586,30.37105)"
               style="font-variant:normal;font-weight:normal;font-size:9px;font-family:Helvetica;-inkscape-font-specification:Helvetica;writing-mode:lr-tb;fill:#000000;fill-opacity:1;fill-rule:nonzero;stroke:none"
               id="text154"><tspan
                 x="0"
                 y="0"
                 id="tspan150">0</tspan><tspan
                 x="28.6563"
                 y="-0.110547"
                 id="tspan152">1</tspan></text>
          </g>
          <path
             d="m 2782.22,476.969 c 57.03,0 114.06,0 171.08,0 30.86,0 61.72,-30.86 61.72,-61.719 0,-31.066 0,-62.133 0,-93.203 0,-30.856 -30.86,-61.715 -61.72,-61.715 -57.02,0 -114.05,0 -171.08,0 -30.86,0 -61.72,30.859 -61.72,61.715 0,31.07 0,62.137 0,93.203 0,30.859 30.86,61.719 61.72,61.719 z"
             style="fill:#c3c3c3;fill-opacity:1;fill-rule:nonzero;stroke:none"
             id="path156" />
          <path
             d="m 2782.22,476.969 c 57.03,0 114.06,0 171.08,0 30.86,0 61.72,-30.86 61.72,-61.715 0,-31.07 0,-62.137 0,-93.207 0,-30.856 -30.86,-61.715 -61.72,-61.715 -57.02,0 -114.05,0 -171.08,0 -30.86,0 -61.72,30.859 -61.72,61.715 0,31.07 0,62.137 0,93.207 0,30.855 30.86,61.715 61.72,61.715 z"
             style="fill:none;stroke:#000000;stroke-width:10;stroke-linecap:butt;stroke-linejoin:miter;stroke-miterlimit:10;stroke-dasharray:none;stroke-opacity:1"
             id="path158" />
          <g
             id="g160"
             transform="scale(10)">
            <text
               xml:space="preserve"
               transform="matrix(1,0,0,-1,282.924,32.8648)"
               style="font-variant:normal;font-weight:normal;font-size:12px;font-family:Helvetica;-inkscape-font-specification:Helvetica;writing-mode:lr-tb;fill:#000000;fill-opacity:1;fill-rule:nonzero;stroke:none"
               id="text164"><tspan
                 x="0"
                 y="0"
                 id="tspan162">A</tspan></text>
          </g>
          <path
             d="m 3076.36,475.359 c 57.03,0 114.05,0 171.08,0 30.86,0 61.72,-30.855 61.72,-61.714 0,-31.067 0,-62.137 0,-93.204 0,-30.859 -30.86,-61.718 -61.72,-61.718 -57.03,0 -114.05,0 -171.08,0 -30.86,0 -61.72,30.859 -61.72,61.718 0,31.067 0,62.137 0,93.204 0,30.859 30.86,61.714 61.72,61.714 z"
             style="fill:#c3c3c3;fill-opacity:1;fill-rule:nonzero;stroke:none"
             id="path166" />
          <path
             d="m 3076.36,475.359 c 57.03,0 114.05,0 171.08,0 30.86,0 61.72,-30.855 61.72,-61.714 0,-31.067 0,-62.137 0,-93.204 0,-30.859 -30.86,-61.714 -61.72,-61.714 -57.03,0 -114.05,0 -171.08,0 -30.86,0 -61.72,30.855 -61.72,61.714 0,31.067 0,62.137 0,93.204 0,30.859 30.86,61.714 61.72,61.714 z"
             style="fill:none;stroke:#000000;stroke-width:10;stroke-linecap:butt;stroke-linejoin:miter;stroke-miterlimit:10;stroke-dasharray:none;stroke-opacity:1"
             id="path168" />
          <g
             id="g170"
             transform="scale(10)">
            <text
               xml:space="preserve"
               transform="matrix(1,0,0,-1,312.338,32.7043)"
               style="font-variant:normal;font-weight:normal;font-size:12px;font-family:Helvetica;-inkscape-font-specification:Helvetica;writing-mode:lr-tb;fill:#000000;fill-opacity:1;fill-rule:nonzero;stroke:none"
               id="text174"><tspan
                 x="0"
                 y="0"
                 id="tspan172">A</tspan></text>
            <text
               xml:space="preserve"
               transform="matrix(1,0,0,-1,291.2165,30.3711)"
               style="font-variant:normal;font-weight:normal;font-size:9px;font-family:Helvetica;-inkscape-font-specification:Helvetica;writing-mode:lr-tb;fill:#000000;fill-opacity:1;fill-rule:nonzero;stroke:none"
               id="text180"><tspan
                 x="0"
                 y="0"
                 id="tspan176">0</tspan><tspan
                 x="28.6563"
                 y="-0.110547"
                 id="tspan178">1</tspan></text>
          </g>
          <path
             d="m 3368.59,474.047 c 57.02,0 114.05,0 171.08,0 30.86,0 61.71,-30.859 61.71,-61.715 0,-31.07 0,-62.137 0,-93.207 0,-30.855 -30.85,-61.715 -61.71,-61.715 -57.03,0 -114.06,0 -171.08,0 -30.86,0 -61.72,30.86 -61.72,61.715 0,31.07 0,62.137 0,93.207 0,30.856 30.86,61.715 61.72,61.715 z"
             style="fill:#e2e2e2;fill-opacity:1;fill-rule:nonzero;stroke:none"
             id="path182" />
          <path
             d="m 3368.59,474.047 c 57.02,0 114.05,0 171.08,0 30.86,0 61.71,-30.856 61.71,-61.715 0,-31.07 0,-62.137 0,-93.203 0,-30.859 -30.85,-61.719 -61.71,-61.719 -57.03,0 -114.06,0 -171.08,0 -30.86,0 -61.72,30.86 -61.72,61.719 0,31.066 0,62.133 0,93.203 0,30.859 30.86,61.715 61.72,61.715 z"
             style="fill:none;stroke:#000000;stroke-width:10;stroke-linecap:butt;stroke-linejoin:miter;stroke-miterlimit:10;stroke-dasharray:none;stroke-opacity:1"
             id="path184" />
          <g
             id="g186"
             transform="scale(10)">
            <text
               xml:space="preserve"
               transform="matrix(1,0,0,-1,341.561,32.573)"
               style="font-variant:normal;font-weight:normal;font-size:12px;font-family:Helvetica;-inkscape-font-specification:Helvetica;writing-mode:lr-tb;fill:#000000;fill-opacity:1;fill-rule:nonzero;stroke:none"
               id="text190"><tspan
                 x="0"
                 y="0"
                 id="tspan188">A</tspan></text>
          </g>
          <path
             d="m 3665.21,474.047 c 57.03,0 114.06,0 171.09,0 30.86,0 61.72,-30.859 61.72,-61.715 0,-31.07 0,-62.137 0,-93.207 0,-30.855 -30.86,-61.715 -61.72,-61.715 -57.03,0 -114.06,0 -171.09,0 -30.85,0 -61.71,30.86 -61.71,61.715 0,31.07 0,62.137 0,93.207 0,30.856 30.86,61.715 61.71,61.715 z"
             style="fill:#e2e2e2;fill-opacity:1;fill-rule:nonzero;stroke:none"
             id="path192" />
          <path
             d="m 3665.21,474.047 c 57.03,0 114.06,0 171.09,0 30.86,0 61.72,-30.856 61.72,-61.715 0,-31.07 0,-62.137 0,-93.203 0,-30.859 -30.86,-61.719 -61.72,-61.719 -57.03,0 -114.06,0 -171.09,0 -30.85,0 -61.71,30.86 -61.71,61.719 0,31.066 0,62.133 0,93.203 0,30.859 30.86,61.715 61.71,61.715 z"
             style="fill:none;stroke:#000000;stroke-width:10;stroke-linecap:butt;stroke-linejoin:miter;stroke-miterlimit:10;stroke-dasharray:none;stroke-opacity:1"
             id="path194" />
          <g
             id="g196"
             transform="scale(10)">
            <text
               xml:space="preserve"
               transform="matrix(1,0,0,-1,371.224,32.573)"
               style="font-variant:normal;font-weight:normal;font-size:12px;font-family:Helvetica;-inkscape-font-specification:Helvetica;writing-mode:lr-tb;fill:#000000;fill-opacity:1;fill-rule:nonzero;stroke:none"
               id="text200"><tspan
                 x="0"
                 y="0"
                 id="tspan198">A</tspan></text>
            <text
               xml:space="preserve"
               transform="matrix(1,0,0,-1,350.3056,30.37105)"
               style="font-variant:normal;font-weight:normal;font-size:9px;font-family:Helvetica;-inkscape-font-specification:Helvetica;writing-mode:lr-tb;fill:#000000;fill-opacity:1;fill-rule:nonzero;stroke:none"
               id="text206"><tspan
                 x="0"
                 y="0"
                 id="tspan202">0</tspan><tspan
                 x="28.6563"
                 y="-0.110547"
                 id="tspan204">1</tspan></text>
          </g>
          <path
             d="m 3952.61,476.969 c 57.03,0 114.06,0 171.09,0 30.85,0 61.71,-30.86 61.71,-61.719 0,-31.066 0,-62.133 0,-93.203 0,-30.856 -30.86,-61.715 -61.71,-61.715 -57.03,0 -114.06,0 -171.09,0 -30.86,0 -61.72,30.859 -61.72,61.715 0,31.07 0,62.137 0,93.203 0,30.859 30.86,61.719 61.72,61.719 z"
             style="fill:#c3c3c3;fill-opacity:1;fill-rule:nonzero;stroke:none"
             id="path208" />
          <path
             d="m 3952.61,476.969 c 57.03,0 114.06,0 171.09,0 30.85,0 61.71,-30.86 61.71,-61.715 0,-31.07 0,-62.137 0,-93.207 0,-30.856 -30.86,-61.715 -61.71,-61.715 -57.03,0 -114.06,0 -171.09,0 -30.86,0 -61.72,30.859 -61.72,61.715 0,31.07 0,62.137 0,93.207 0,30.855 30.86,61.715 61.72,61.715 z"
             style="fill:none;stroke:#000000;stroke-width:10;stroke-linecap:butt;stroke-linejoin:miter;stroke-miterlimit:10;stroke-dasharray:none;stroke-opacity:1"
             id="path210" />
          <g
             id="g212"
             transform="scale(10)">
            <text
               xml:space="preserve"
               transform="matrix(1,0,0,-1,399.963,32.8648)"
               style="font-variant:normal;font-weight:normal;font-size:12px;font-family:Helvetica;-inkscape-font-specification:Helvetica;writing-mode:lr-tb;fill:#000000;fill-opacity:1;fill-rule:nonzero;stroke:none"
               id="text216"><tspan
                 x="0"
                 y="0"
                 id="tspan214">A</tspan></text>
          </g>
          <path
             d="m 4246.75,475.359 c 57.03,0 114.05,0 171.08,0 30.86,0 61.72,-30.855 61.72,-61.714 0,-31.067 0,-62.137 0,-93.204 0,-30.859 -30.86,-61.718 -61.72,-61.718 -57.03,0 -114.05,0 -171.08,0 -30.86,0 -61.72,30.859 -61.72,61.718 0,31.067 0,62.137 0,93.204 0,30.859 30.86,61.714 61.72,61.714 z"
             style="fill:#c3c3c3;fill-opacity:1;fill-rule:nonzero;stroke:none"
             id="path218" />
          <path
             d="m 4246.75,475.359 c 57.03,0 114.05,0 171.08,0 30.86,0 61.72,-30.855 61.72,-61.714 0,-31.067 0,-62.137 0,-93.204 0,-30.859 -30.86,-61.714 -61.72,-61.714 -57.03,0 -114.05,0 -171.08,0 -30.86,0 -61.72,30.855 -61.72,61.714 0,31.067 0,62.137 0,93.204 0,30.859 30.86,61.714 61.72,61.714 z"
             style="fill:none;stroke:#000000;stroke-width:10;stroke-linecap:butt;stroke-linejoin:miter;stroke-miterlimit:10;stroke-dasharray:none;stroke-opacity:1"
             id="path220" />
          <g
             id="g222"
             transform="scale(10)">
            <text
               xml:space="preserve"
               transform="matrix(1,0,0,-1,429.377,32.7043)"
               style="font-variant:normal;font-weight:normal;font-size:12px;font-family:Helvetica;-inkscape-font-specification:Helvetica;writing-mode:lr-tb;fill:#000000;fill-opacity:1;fill-rule:nonzero;stroke:none"
               id="text226"><tspan
                 x="0"
                 y="0"
                 id="tspan224">A</tspan></text>
            <text
               xml:space="preserve"
               transform="matrix(1,0,0,-1,408.2555,30.3711)"
               style="font-variant:normal;font-weight:normal;font-size:9px;font-family:Helvetica;-inkscape-font-specification:Helvetica;writing-mode:lr-tb;fill:#000000;fill-opacity:1;fill-rule:nonzero;stroke:none"
               id="text232"><tspan
                 x="0"
                 y="0"
                 id="tspan228">0</tspan><tspan
                 x="28.6563"
                 y="-0.110547"
                 id="tspan230">1</tspan></text>
          </g>
          <path
             d="m 4536.5,474.047 c 57.03,0 114.06,0 171.09,0 30.85,0 61.71,-30.859 61.71,-61.715 0,-31.07 0,-62.137 0,-93.207 0,-30.855 -30.86,-61.715 -61.71,-61.715 -57.03,0 -114.06,0 -171.09,0 -30.86,0 -61.71,30.86 -61.71,61.715 0,31.07 0,62.137 0,93.207 0,30.856 30.85,61.715 61.71,61.715 z"
             style="fill:#e2e2e2;fill-opacity:1;fill-rule:nonzero;stroke:none"
             id="path234" />
          <path
             d="m 4536.5,474.047 c 57.03,0 114.06,0 171.09,0 30.85,0 61.71,-30.856 61.71,-61.715 0,-31.07 0,-62.137 0,-93.203 0,-30.859 -30.86,-61.719 -61.71,-61.719 -57.03,0 -114.06,0 -171.09,0 -30.86,0 -61.71,30.86 -61.71,61.719 0,31.066 0,62.133 0,93.203 0,30.859 30.85,61.715 61.71,61.715 z"
             style="fill:none;stroke:#000000;stroke-width:10;stroke-linecap:butt;stroke-linejoin:miter;stroke-miterlimit:10;stroke-dasharray:none;stroke-opacity:1"
             id="path236" />
          <g
             id="g238"
             transform="scale(10)">
            <text
               xml:space="preserve"
               transform="matrix(1,0,0,-1,458.352,32.573)"
               style="font-variant:normal;font-weight:normal;font-size:12px;font-family:Helvetica;-inkscape-font-specification:Helvetica;writing-mode:lr-tb;fill:#000000;fill-opacity:1;fill-rule:nonzero;stroke:none"
               id="text242"><tspan
                 x="0"
                 y="0"
                 id="tspan240">A</tspan></text>
          </g>
          <path
             d="m 4833.13,474.047 c 57.03,0 114.06,0 171.08,0 30.86,0 61.72,-30.859 61.72,-61.715 0,-31.07 0,-62.137 0,-93.207 0,-30.855 -30.86,-61.715 -61.72,-61.715 -57.02,0 -114.05,0 -171.08,0 -30.86,0 -61.72,30.86 -61.72,61.715 0,31.07 0,62.137 0,93.207 0,30.856 30.86,61.715 61.72,61.715 z"
             style="fill:#e2e2e2;fill-opacity:1;fill-rule:nonzero;stroke:none"
             id="path244" />
          <path
             d="m 4833.13,474.047 c 57.03,0 114.06,0 171.08,0 30.86,0 61.72,-30.856 61.72,-61.715 0,-31.07 0,-62.137 0,-93.203 0,-30.859 -30.86,-61.719 -61.72,-61.719 -57.02,0 -114.05,0 -171.08,0 -30.86,0 -61.71,30.86 -61.71,61.719 0,31.066 0,62.133 0,93.203 0,30.859 30.85,61.715 61.71,61.715 z"
             style="fill:none;stroke:#000000;stroke-width:10;stroke-linecap:butt;stroke-linejoin:miter;stroke-miterlimit:10;stroke-dasharray:none;stroke-opacity:1"
             id="path246" />
          <g
             id="g248"
             transform="scale(10)">
            <text
               xml:space="preserve"
               transform="matrix(1,0,0,-1,488.016,32.573)"
               style="font-variant:normal;font-weight:normal;font-size:12px;font-family:Helvetica;-inkscape-font-specification:Helvetica;writing-mode:lr-tb;fill:#000000;fill-opacity:1;fill-rule:nonzero;stroke:none"
               id="text252"><tspan
                 x="0"
                 y="0"
                 id="tspan250">A</tspan></text>
            <text
               xml:space="preserve"
               transform="matrix(1,0,0,-1,467.0976,30.37105)"
               style="font-variant:normal;font-weight:normal;font-size:9px;font-family:Helvetica;-inkscape-font-specification:Helvetica;writing-mode:lr-tb;fill:#000000;fill-opacity:1;fill-rule:nonzero;stroke:none"
               id="text258"><tspan
                 x="0"
                 y="0"
                 id="tspan254">0</tspan><tspan
                 x="28.6563"
                 y="-0.110547"
                 id="tspan256">1</tspan></text>
            <text
               xml:space="preserve"
               transform="matrix(1,0,0,-1,33.2999,61.209297)"
               style="font-variant:normal;font-weight:normal;font-size:12px;font-family:Helvetica;-inkscape-font-specification:Helvetica;writing-mode:lr-tb;fill:#000000;fill-opacity:1;fill-rule:nonzero;stroke:none"
               id="text262"><tspan
                 x="0 8.6660137 59.088696 67.754707 118.17702 126.84304 177.26572 185.93175 258.23883 266.90485 317.32718 325.99319 376.41589 385.08188 435.50458 444.17056"
                 y="0"
                 sodipodi:role="line"
                 id="tspan260">CSCSCSCSCSCSCSCS</tspan></text>
            <text
               xml:space="preserve"
               transform="matrix(1,0,0,-1,49.787,57.626097)"
               style="font-variant:normal;font-weight:normal;font-size:9px;font-family:Helvetica;-inkscape-font-specification:Helvetica;writing-mode:lr-tb;fill:#000000;fill-opacity:1;fill-rule:nonzero;stroke:none"
               id="text280"><tspan
                 x="0"
                 y="0"
                 id="tspan264">0</tspan><tspan
                 x="58.825802"
                 y="-1.62422"
                 id="tspan266">1</tspan><tspan
                 x="117.9653"
                 y="-0.16992"
                 id="tspan268">2</tspan><tspan
                 x="176.94769"
                 y="0.89687997"
                 id="tspan270">3</tspan><tspan
                 x="258.16919"
                 y="-1.1414"
                 id="tspan272">4</tspan><tspan
                 x="436.24921"
                 y="-0.757806"
                 id="tspan274">7</tspan><tspan
                 x="377.26089"
                 y="0.65547401"
                 id="tspan276">6</tspan><tspan
                 x="318.05969"
                 y="-2.287106"
                 id="tspan278">5</tspan></text>
            <text
               xml:space="preserve"
               transform="matrix(1,0,0,-1,123.3547,7.261203)"
               style="font-variant:normal;font-weight:normal;font-size:12px;font-family:Helvetica;-inkscape-font-specification:Helvetica;writing-mode:lr-tb;fill:#000000;fill-opacity:1;fill-rule:nonzero;stroke:none"
               id="text284"><tspan
                 x="0 8.0039997 14.004 17.337986 24.011816 27.345802 249.485 257.48901 263.48901 266.82297 273.4968 276.83078"
                 y="0"
                 sodipodi:role="line"
                 id="tspan282">Byte 0Byte 1</tspan></text>
          </g>
        </g>
      </g>
    </g>
  </g>
</svg>
