<svg xmlns="http://www.w3.org/2000/svg" xmlns:xlink="http://www.w3.org/1999/xlink" version="1.1" width="640pt" height="480pt" viewBox="0 0 640 480">
<g>
<path stroke-width="1.6" stroke-linecap="butt" stroke-miterlimit="4" stroke-linejoin="miter" fill="none" stroke="#000000" d="M22.16 171.121H293.281"/>
<path stroke-width="1.6" stroke-linecap="butt" stroke-miterlimit="4" stroke-linejoin="miter" fill="none" stroke="#000000" d="M157.762 201.762V63.84"/>
<path stroke-width="1.6" stroke-linecap="butt" stroke-miterlimit="4" stroke-linejoin="miter" fill="none" stroke="#0000ff" d="M22.16 171.121H135.039L135.359 68.961H180.078L180.398 171.121H293.281"/>
<path stroke-width="1.6" stroke-linecap="butt" stroke-miterlimit="4" stroke-linejoin="miter" fill="none" stroke="#000000" d="M342.16 185.762H613.281"/>
<path stroke-width="1.6" stroke-linecap="butt" stroke-miterlimit="4" stroke-linejoin="miter" fill="none" stroke="#000000" d="M477.762 236.16V9.441"/>
<text xml:space="preserve" transform="matrix(1 0 -0 1 0 480)" font-size="17.6" font-family="Times"><tspan y="-432.8" x="501.80064 513.5222">Re</tspan></text>
<path stroke-width="1.6" stroke-linecap="butt" stroke-miterlimit="4" stroke-linejoin="miter" fill="none" stroke="#9400d3" d="M533.602 40.641H592.16M342.16 185.762 342.398 185.441 342.719 185.121 342.961 184.719 343.281 184.398 343.52 184.078 343.762 183.762 344.078 183.359 344.32 183.039 344.641 182.719 344.879 182.32 345.121 182 345.441 181.68 345.68 181.281 345.922 180.961 346.238 180.641 346.48 180.32 346.801 179.922 347.039 179.602 347.281 179.281 347.602 178.961 347.84 178.559 348.16 178.238 348.398 177.922 348.641 177.602 348.961 177.199 349.199 176.879 349.52 176.559 349.762 176.238 350 175.922 350.32 175.602 350.559 175.281 350.879 174.961 351.121 174.641 351.359 174.32 351.68 174 351.922 173.68 352.238 173.359 352.48 173.121 352.719 172.801 353.039 172.48 353.281 172.16 353.84 171.602 354.078 171.359 354.398 171.039 354.641 170.801 354.879 170.48 355.199 170.238 355.441 170 355.762 169.762 356 169.52 356.238 169.199 356.559 168.961 356.801 168.719 357.121 168.48 357.359 168.32 357.602 168.078 357.922 167.84 358.16 167.602 358.48 167.441 358.719 167.199 358.961 167.039 359.281 166.879 359.52 166.641 359.84 166.48 360.078 166.32 360.32 166.16 360.641 166 360.879 165.84 361.121 165.68 361.441 165.52 361.68 165.441 362 165.281 362.238 165.199 362.48 165.039 362.801 164.961 363.039 164.879 363.359 164.719 363.602 164.641 363.84 164.559 364.16 164.48H364.398L364.719 164.398 364.961 164.32H365.199L365.52 164.238H367.68L367.922 164.32H368.238L368.48 164.398 368.719 164.48H369.039L369.281 164.559 369.602 164.641 369.84 164.719 370.078 164.879 370.398 164.961 370.641 165.039 370.961 165.199 371.199 165.359 371.441 165.441 371.762 165.602 372 165.762 372.32 165.922 372.559 166.078 372.801 166.238 373.121 166.48 373.359 166.641 373.68 166.879 373.922 167.039 374.16 167.281 374.48 167.52 374.719 167.762 374.961 168 375.281 168.238 375.52 168.48 375.84 168.719 376.078 168.961 376.32 169.281 376.641 169.52 376.879 169.84 377.199 170.16 377.441 170.48 377.68 170.801 378 171.121 378.238 171.441 378.559 171.762 378.801 172.078 379.039 172.398 379.359 172.801 379.602 173.121 379.922 173.52 380.16 173.922 380.398 174.238 380.719 174.641 380.961 175.039 381.281 175.441 381.52 175.84 381.762 176.238 382.078 176.719 382.32 177.121 382.559 177.52 382.879 178 383.121 178.398 383.441 178.879 383.68 179.281 383.922 179.762 384.238 180.238 384.48 180.641 384.801 181.121 385.039 181.602 385.281 182.078 385.602 182.559 385.84 183.039 386.16 183.52 386.398 184 386.641 184.48 386.961 185.039 387.199 185.52 387.52 186 387.762 186.559 388 187.039 388.32 187.52 388.559 188.078 388.801 188.559 389.121 189.121 389.359 189.602 389.68 190.16 389.922 190.641 390.16 191.199 390.48 191.762 390.719 192.238 391.039 192.801 391.281 193.281 391.52 193.84 391.84 194.398 392.078 194.879 392.398 195.441 392.641 196 392.879 196.48 393.199 197.039 393.441 197.602 393.762 198.078 394 198.641 394.238 199.121 394.559 199.68 394.801 200.238 395.121 200.719 395.359 201.281 395.602 201.762 395.922 202.32 396.398 203.281 396.719 203.84 396.961 204.32 397.281 204.801 397.52 205.359 397.762 205.84 398.078 206.32 398.32 206.801 398.641 207.281 398.879 207.762 399.121 208.238 399.441 208.719 399.68 209.199 400 209.68 400.238 210.078 400.48 210.559 400.801 211.039 401.039 211.441 401.359 211.84 401.602 212.32 401.84 212.719 402.16 213.121 402.398 213.52 402.719 213.922 402.961 214.32 403.199 214.719 403.52 215.121 403.762 215.441 404 215.84 404.32 216.16 404.559 216.48 404.879 216.879 405.121 217.199 405.359 217.52 405.68 217.84 405.922 218.078 406.238 218.398 406.48 218.719 406.719 218.961 407.039 219.199 407.602 219.762 407.84 219.922 408.078 220.16 408.398 220.398 408.641 220.559 408.961 220.801 409.199 220.961 409.441 221.121 409.762 221.281 410.238 221.602 410.559 221.68 410.801 221.762 411.121 221.922 411.359 222 411.602 222.078H411.922L412.16 222.16 412.48 222.238H413.52L413.84 222.16H414.078L414.32 222.078 414.641 222 414.879 221.922 415.199 221.84 415.441 221.762 415.68 221.602 416 221.52 416.238 221.359 416.559 221.199 416.801 220.961 417.039 220.801 417.359 220.559 417.602 220.398 417.84 220.16 418.16 219.922 418.398 219.602 418.719 219.359 418.961 219.039 419.199 218.719 419.52 218.398 419.762 218.078 420.078 217.68 420.32 217.359 420.559 216.961 420.879 216.559 421.121 216.16 421.441 215.762 421.68 215.281 421.922 214.801 422.238 214.32 422.48 213.84 422.801 213.359 423.039 212.879 423.281 212.32 423.602 211.762 423.84 211.199 424.16 210.641 424.398 210.078 424.641 209.441 424.961 208.801 425.199 208.16 425.441 207.52 425.762 206.879 426 206.238 426.32 205.52 426.559 204.801 426.801 204.078 427.121 203.359 427.359 202.559 427.68 201.84 427.922 201.039 428.16 200.238 428.48 199.441 428.719 198.641 429.039 197.84 429.281 196.961 429.52 196.078 429.84 195.199 430.078 194.32 430.398 193.441 430.641 192.48 430.879 191.602 431.199 190.641 431.441 189.68 431.68 188.719 432 187.762 432.238 186.801 432.559 185.762 432.801 184.719 433.039 183.762 433.359 182.719 433.602 181.602 433.922 180.559 434.16 179.52 434.398 178.398 434.719 177.281 434.961 176.238 435.281 175.121 435.52 174 435.762 172.801 436.078 171.68 436.32 170.559 436.641 169.359 436.879 168.16 437.121 166.961 437.441 165.762 437.68 164.559 438 163.359 438.238 162.16 438.48 160.961 438.801 159.68 439.039 158.398 439.281 157.199 439.602 155.922 439.84 154.641 440.16 153.359 440.398 152.078 440.641 150.801 440.961 149.52 441.199 148.16 441.52 146.879 441.762 145.602 442 144.238 442.32 142.879 442.559 141.602 442.879 140.238 443.121 138.879 443.359 137.602 443.68 136.238 443.922 134.879 444.238 133.52 444.48 132.16 444.719 130.801 445.039 129.441 445.281 128 445.602 126.641 446.078 123.922 446.398 122.559 446.641 121.121 446.879 119.762 447.199 118.398 447.441 117.039 447.762 115.602 448 114.238 448.238 112.879 448.559 111.52 448.801 110.078 449.121 108.719 449.359 107.359 449.602 106 449.922 104.559 450.16 103.199 450.48 101.84 450.719 100.48 450.961 99.121 451.281 97.762 451.52 96.398 451.84 95.039 452.078 93.68 452.32 92.32 452.641 91.039 452.879 89.68 453.121 88.32 453.441 87.039 453.68 85.68 454 84.398 454.238 83.039 454.48 81.762 454.801 80.48 455.039 79.199 455.359 77.922 455.602 76.641 455.84 75.359 456.16 74.078 456.398 72.879 456.719 71.602 456.961 70.398 457.199 69.121 457.52 67.922 457.762 66.719 458.078 65.52 458.32 64.32 458.559 63.121 458.879 62 459.121 60.801 459.441 59.68 459.68 58.559 459.922 57.441 460.238 56.32 460.48 55.199 460.719 54.16 461.039 53.039 461.281 52 461.602 50.961 461.84 49.922 462.078 48.879 462.398 47.922 462.641 46.879 462.961 45.922 463.199 44.961 463.441 44 463.762 43.039 464 42.078 464.32 41.199 464.559 40.32 464.801 39.441 465.121 38.559 465.359 37.68 465.68 36.879 465.922 36.078 466.16 35.281 466.48 34.48 466.719 33.68 467.039 32.961 467.281 32.238 467.52 31.52 467.84 30.801 468.078 30.078 468.32 29.441 468.641 28.801 468.879 28.16 469.199 27.52 469.441 26.961 469.68 26.398 470 25.84 470.238 25.281 470.559 24.719 470.801 24.238 471.039 23.762 471.359 23.281 471.602 22.801 471.922 22.398 472.398 21.602 472.719 21.199 472.961 20.879 473.281 20.559 473.52 20.238 473.762 19.922 474.078 19.68 474.32 19.359 474.559 19.121 474.879 18.961 475.121 18.719 475.441 18.559 475.68 18.398 475.922 18.238 476.238 18.16 476.48 18 476.801 17.922H477.039L477.281 17.84H478.16L478.398 17.922H478.641L478.961 18 479.199 18.16 479.52 18.238 479.762 18.398 480 18.559 480.32 18.719 480.559 18.961 480.879 19.121 481.121 19.359 481.359 19.68 481.68 19.922 481.922 20.238 482.16 20.559 482.48 20.879 482.719 21.199 483.039 21.602 483.281 22 483.52 22.398 483.84 22.801 484.078 23.281 484.398 23.762 484.641 24.238 484.879 24.719 485.199 25.281 485.441 25.84 485.762 26.398 486 26.961 486.238 27.52 486.559 28.16 486.801 28.801 487.121 29.441 487.359 30.078 487.602 30.801 487.922 31.52 488.16 32.238 488.398 32.961 488.719 33.68 488.961 34.48 489.281 35.281 489.52 36.078 489.762 36.879 490.078 37.68 490.32 38.559 490.641 39.441 490.879 40.32 491.121 41.199 491.441 42.078 491.68 43.039 492 44 492.238 44.961 492.48 45.922 492.801 46.879 493.039 47.922 493.359 48.879 493.602 49.922 493.84 50.961 494.16 52 494.398 53.039 494.719 54.16 494.961 55.199 495.199 56.32 495.52 57.441 495.762 58.559 496 59.68 496.32 60.801 496.559 62 496.879 63.121 497.121 64.32 497.359 65.52 497.68 66.719 497.922 67.922 498.238 69.121 498.48 70.398 498.719 71.602 499.039 72.879 499.281 74.078 499.602 75.359 500.078 77.922 500.398 79.199 500.641 80.48 500.961 81.762 501.199 83.039 501.441 84.398 501.762 85.68 502 87.039 502.32 88.32 502.559 89.68 502.801 91.039 503.121 92.32 503.359 93.68 503.602 95.039 503.922 96.398 504.16 97.762 504.48 99.121 504.719 100.48 504.961 101.84 505.281 103.199 505.52 104.559 505.84 106 506.078 107.359 506.32 108.719 506.641 110.078 506.879 111.52 507.199 112.879 507.441 114.238 507.68 115.602 508 117.039 508.238 118.398 508.559 119.762 508.801 121.121 509.039 122.559 509.359 123.922 509.602 125.281 509.84 126.641 510.16 128 510.398 129.441 510.719 130.801 510.961 132.16 511.199 133.52 511.52 134.879 511.762 136.238 512.078 137.602 512.32 138.879 512.559 140.238 512.879 141.602 513.121 142.879 513.441 144.238 513.68 145.602 513.922 146.879 514.238 148.16 514.48 149.52 514.801 150.801 515.039 152.078 515.281 153.359 515.602 154.641 515.84 155.922 516.16 157.199 516.398 158.398 516.641 159.68 516.961 160.961 517.199 162.16 517.441 163.359 517.762 164.559 518 165.762 518.32 166.961 518.559 168.16 518.801 169.359 519.121 170.559 519.359 171.68 519.68 172.801 519.922 174 520.16 175.121 520.48 176.238 520.719 177.281 521.039 178.398 521.281 179.52 521.52 180.559 521.84 181.602 522.078 182.719 522.398 183.762 522.641 184.719 522.879 185.762 523.199 186.801 523.441 187.762 523.762 188.719 524.238 190.641 524.559 191.602 524.801 192.48 525.039 193.441 525.359 194.32 525.602 195.199 525.922 196.078 526.16 196.961 526.398 197.84 526.719 198.641 526.961 199.441 527.281 200.238 527.52 201.039 527.762 201.84 528.078 202.559 528.32 203.359 528.641 204.078 528.879 204.801 529.121 205.52 529.441 206.238 529.68 206.879 530 207.52 530.238 208.16 530.48 208.801 530.801 209.441 531.039 210.078 531.281 210.641 531.602 211.199 531.84 211.762 532.16 212.32 532.398 212.879 532.641 213.359 532.961 213.84 533.199 214.32 533.52 214.801 533.762 215.281 534 215.762 534.32 216.16 534.559 216.559 534.879 216.961 535.121 217.359 535.359 217.68 535.68 218.078 535.922 218.398 536.238 218.719 536.48 219.039 536.719 219.359 537.039 219.602 537.281 219.922 537.602 220.16 537.84 220.398 538.078 220.559 538.398 220.801 538.641 220.961 538.879 221.199 539.199 221.359 539.441 221.52 539.762 221.602 540 221.762 540.238 221.84 540.559 221.922 540.801 222 541.121 222.078 541.359 222.16H541.602L541.922 222.238H542.961L543.281 222.16 543.52 222.078H543.84L544.078 222 544.32 221.922 544.641 221.762 544.879 221.68 545.199 221.602 545.441 221.441 545.68 221.281 546 221.121 546.238 220.961 546.48 220.801 546.801 220.559 547.039 220.398 547.359 220.16 547.602 219.922 547.84 219.762 548.16 219.441 548.398 219.199 548.719 218.961 548.961 218.719 549.199 218.398 549.52 218.078 549.762 217.84 550.078 217.52 550.32 217.199 550.559 216.879 550.879 216.48 551.121 216.16 551.441 215.84 551.68 215.441 551.922 215.121 552.238 214.719 552.48 214.32 552.719 213.922 553.039 213.52 553.281 213.121 553.602 212.719 553.84 212.32 554.078 211.84 554.398 211.441 554.641 211.039 554.961 210.559 555.199 210.078 555.441 209.68 555.762 209.199 556 208.719 556.32 208.238 556.559 207.762 556.801 207.281 557.121 206.801 557.359 206.32 557.68 205.84 557.922 205.359 558.16 204.801 558.48 204.32 558.719 203.84 559.039 203.281 559.281 202.801 559.52 202.32 559.84 201.762 560.078 201.281 560.32 200.719 560.641 200.238 560.879 199.68 561.199 199.121 561.441 198.641 561.68 198.078 562 197.602 562.238 197.039 562.559 196.48 562.801 196 563.039 195.441 563.359 194.879 563.602 194.398 563.922 193.84 564.16 193.281 564.398 192.801 564.719 192.238 564.961 191.762 565.281 191.199 565.52 190.641 565.762 190.16 566.078 189.602 566.32 189.121 566.641 188.559 566.879 188.078 567.121 187.52 567.441 187.039 567.68 186.559 567.922 186 568.238 185.52 568.48 185.039 568.801 184.48 569.039 184 569.281 183.52 569.602 183.039 569.84 182.559 570.16 182.078 570.398 181.602 570.641 181.121 570.961 180.641 571.199 180.238 571.52 179.762 571.762 179.281 572 178.879 572.32 178.398 572.559 178 572.879 177.52 573.121 177.121 573.359 176.719 573.68 176.238 573.922 175.84 574.16 175.441 574.48 175.039 574.719 174.641 575.039 174.238 575.281 173.922 575.52 173.52 575.84 173.121 576.078 172.801 576.398 172.398 576.641 172.078 576.879 171.762 577.199 171.441 577.441 171.121 577.762 170.801 578.238 170.16 578.559 169.84 578.801 169.52 579.121 169.281 579.359 168.961 579.602 168.719 579.922 168.48 580.16 168.238 580.48 168 580.961 167.52 581.281 167.281 581.52 167.039 581.762 166.879 582.078 166.641 582.32 166.48 582.641 166.238 582.879 166.078 583.121 165.922 583.441 165.762 583.68 165.602 584 165.441 584.238 165.359 584.48 165.199 584.801 165.039 585.039 164.961 585.359 164.879 585.602 164.719 585.84 164.641 586.16 164.559 586.398 164.48H586.719L586.961 164.398 587.199 164.32H587.52L587.762 164.238H589.922L590.238 164.32H590.48L590.719 164.398 591.039 164.48H591.281L591.602 164.559 591.84 164.641 592.078 164.719 592.398 164.879 592.641 164.961 592.961 165.039 593.199 165.199 593.441 165.281 593.762 165.441 594 165.52 594.32 165.68 594.559 165.84 594.801 166 595.121 166.16 595.359 166.32 595.602 166.48 595.922 166.641 596.16 166.879 596.48 167.039 596.719 167.199 596.961 167.441 597.281 167.602 597.52 167.84 597.84 168.078 598.078 168.32 598.32 168.48 598.641 168.719 598.879 168.961 599.199 169.199 599.441 169.52 599.68 169.762 600 170 600.238 170.238 600.559 170.48 600.801 170.801 602.16 172.16 602.398 172.48 602.719 172.801 602.961 173.121 603.52 173.68 603.762 174 604.078 174.32 604.32 174.641 604.559 174.961 604.879 175.281 605.121 175.602 605.441 175.922 605.68 176.238 605.922 176.559 606.238 176.879 606.48 177.199 606.801 177.602 607.039 177.922 607.281 178.238 607.602 178.559 607.84 178.961 608.16 179.281 608.398 179.602 608.641 179.922 608.961 180.32 609.199 180.641 609.52 180.961 609.762 181.281 610 181.68 610.32 182 610.559 182.32 610.801 182.719 611.121 183.039 611.359 183.359 611.68 183.762 611.922 184.078 612.16 184.398 612.48 184.719 612.719 185.121 613.039 185.441 613.281 185.762"/>
<text xml:space="preserve" transform="matrix(1 0 -0 1 0 480)" font-size="17.6" font-family="Times"><tspan y="-406.4" x="501.80064 507.66145">Im</tspan></text>
<path stroke-width="1.6" stroke-linecap="butt" stroke-miterlimit="4" stroke-linejoin="miter" fill="none" stroke="#009e73" d="M533.602 67.039H592.16M342.16 185.762H613.281"/>
<path stroke-width="1.6" stroke-linecap="butt" stroke-miterlimit="4" stroke-linejoin="miter" fill="none" stroke="#000000" d="M22.16 411.121H293.281"/>
<path stroke-width="1.6" stroke-linecap="butt" stroke-miterlimit="4" stroke-linejoin="miter" fill="none" stroke="#000000" d="M157.762 441.762V303.762"/>
<path stroke-width="1.6" stroke-linecap="butt" stroke-miterlimit="4" stroke-linejoin="miter" fill="none" stroke="#0000ff" d="M22.16 411.121H157.602L157.84 308.879H202.879L203.199 411.121H293.281"/>
<path stroke-width="1.6" stroke-linecap="butt" stroke-miterlimit="4" stroke-linejoin="miter" fill="none" stroke="#000000" d="M342.16 376.32H613.281"/>
<path stroke-width="1.6" stroke-linecap="butt" stroke-miterlimit="4" stroke-linejoin="miter" fill="none" stroke="#000000" d="M477.762 411.922V251.84"/>
<path stroke-width="1.6" stroke-linecap="butt" stroke-miterlimit="4" stroke-linejoin="miter" fill="none" stroke="#000000" d="M477.762 471.199V400"/>
<text xml:space="preserve" transform="matrix(1 0 -0 1 0 480)" font-size="17.6" font-family="Times"><tspan y="-192.88" x="501.80064 513.5222">Re</tspan></text>
<path stroke-width="1.6" stroke-linecap="butt" stroke-miterlimit="4" stroke-linejoin="miter" fill="none" stroke="#9400d3" d="M533.602 280.559H592.16M342.16 376.32 342.398 376.559 342.719 376.801 342.961 377.039 343.281 377.281 343.762 377.762 344.078 378 344.32 378.238 344.641 378.48 344.879 378.719 345.121 378.879 345.441 379.121 345.922 379.602 346.238 379.84 346.48 380 346.801 380.238 347.039 380.398 347.281 380.641 347.602 380.801 347.84 380.961 348.16 381.199 348.398 381.359 348.641 381.52 348.961 381.68 349.199 381.84 349.52 382 349.762 382.16 350 382.238 350.32 382.398 350.559 382.48 350.879 382.641 351.121 382.719 351.359 382.801 351.68 382.879 351.922 382.961 352.238 383.039H352.48L352.719 383.121H353.039L353.281 383.199H354.398L354.641 383.121H355.199L355.441 383.039 355.762 382.961 356 382.879 356.238 382.801 356.559 382.719 356.801 382.641 357.121 382.48 357.359 382.398 357.602 382.238 357.922 382.16 358.16 382 358.48 381.84 358.719 381.68 358.961 381.52 359.281 381.281 359.52 381.121 359.84 380.879 360.078 380.719 360.32 380.48 360.641 380.32 360.879 380.078 361.121 379.84 361.441 379.602 361.68 379.359 362 379.121 362.238 378.879 362.48 378.559 362.801 378.32 363.039 378.078 363.359 377.762 364.16 376.961 364.398 376.641 364.719 376.398 364.961 376.078 365.52 375.52 365.762 375.281 366.078 374.961 366.32 374.641 366.559 374.398 366.879 374.078 367.121 373.84 367.359 373.52 367.68 373.281 367.922 372.961 368.238 372.719 368.48 372.48 368.719 372.16 369.039 371.922 369.281 371.68 369.602 371.441 369.84 371.199 370.078 370.961 370.398 370.719 370.641 370.48 370.961 370.32 371.199 370.078 371.441 369.84 371.762 369.68 372 369.52 372.32 369.281 372.559 369.121 372.801 368.961 373.121 368.879 373.359 368.719 373.68 368.559 373.922 368.48 374.16 368.398 374.48 368.238 374.719 368.16 374.961 368.078H375.281L375.52 368H375.84L376.078 367.922H377.199L377.441 368H377.68L378 368.078 378.238 368.16 378.559 368.238 378.801 368.32 379.039 368.398 379.359 368.559 379.602 368.641 379.922 368.801 380.398 369.121 380.719 369.281 380.961 369.52 381.281 369.68 381.52 369.922 381.762 370.078 382.078 370.32 382.32 370.559 382.559 370.801 382.879 371.121 383.121 371.359 383.441 371.602 383.68 371.922 383.922 372.16 384.238 372.48 384.48 372.801 384.801 373.121 385.039 373.441 385.281 373.762 385.602 374.078 385.84 374.398 386.16 374.719 386.398 375.121 386.641 375.441 386.961 375.762 387.199 376.16 387.52 376.48 387.762 376.879 388 377.199 388.32 377.602 388.559 377.922 388.801 378.32 389.121 378.641 389.359 379.039 389.68 379.359 389.922 379.762 390.16 380.078 390.48 380.398 390.719 380.801 391.039 381.121 391.281 381.441 391.52 381.762 391.84 382.078 392.078 382.398 392.398 382.719 392.641 383.039 392.879 383.359 393.199 383.602 393.441 383.922 393.762 384.16 394 384.48 394.238 384.719 394.559 384.961 394.801 385.199 395.121 385.441 395.359 385.602 395.602 385.84 395.922 386 396.398 386.32 396.719 386.48 396.961 386.641 397.281 386.719 397.52 386.801 397.762 386.879 398.078 386.961 398.32 387.039 398.641 387.121H400L400.238 387.039 400.48 386.961H400.801L401.039 386.801 401.359 386.719 401.602 386.559 401.84 386.48 402.16 386.32 402.398 386.16 402.719 385.922 402.961 385.762 403.199 385.52 403.52 385.281 404.32 384.48 404.559 384.238 404.879 383.922 405.121 383.602 405.359 383.281 405.68 382.961 405.922 382.559 406.238 382.238 406.48 381.84 406.719 381.441 407.039 381.121 407.281 380.641 407.602 380.238 408.078 379.441 408.398 378.961 408.641 378.559 408.961 378.078 409.199 377.602 409.441 377.121 409.762 376.641 410 376.238 410.238 375.762 410.559 375.281 410.801 374.801 411.121 374.32 411.359 373.762 411.602 373.281 411.922 372.801 412.16 372.32 412.48 371.84 412.719 371.359 412.961 370.879 413.281 370.398 413.52 369.922 413.84 369.52 414.078 369.039 414.32 368.559 414.641 368.16 414.879 367.68 415.199 367.281 415.441 366.879 415.68 366.48 416 366.078 416.238 365.68 416.559 365.281 416.801 364.879 417.039 364.559 417.359 364.238 417.602 363.922 417.84 363.602 418.16 363.281 418.398 363.039 418.719 362.801 419.199 362.32 419.52 362.078 419.762 361.922 420.078 361.762 420.32 361.602 420.559 361.441 420.879 361.359 421.121 361.281 421.441 361.199 421.68 361.121H422.801L423.039 361.199 423.281 361.281 423.602 361.441 423.84 361.52 424.16 361.68 424.398 361.84 424.641 362.078 424.961 362.238 425.199 362.48 425.441 362.719 425.762 363.039 426 363.359 426.32 363.68 426.559 364 426.801 364.398 427.121 364.801 427.359 365.199 427.68 365.602 427.922 366.078 428.16 366.559 428.48 367.039 428.719 367.52 429.039 368.078 429.281 368.641 429.52 369.199 429.84 369.762 430.078 370.32 430.398 370.961 430.641 371.602 430.879 372.238 431.199 372.879 431.441 373.52 431.68 374.238 432 374.879 432.238 375.602 432.559 376.32 432.801 377.039 433.039 377.762 433.359 378.48 433.602 379.199 433.922 380 434.16 380.719 434.398 381.441 434.719 382.238 434.961 382.961 435.281 383.762 435.52 384.48 435.762 385.199 436.078 386 436.32 386.719 436.641 387.441 436.879 388.16 437.121 388.879 437.441 389.602 437.68 390.32 438 391.039 438.238 391.68 438.48 392.398 438.801 393.039 439.039 393.68 439.281 394.32 439.602 394.879 439.84 395.52 440.16 396.078 440.398 396.641 440.641 397.199 440.961 397.68 441.199 398.16 441.52 398.641 441.762 399.039 442 399.441 442.32 399.84 442.559 400.238 442.879 400.559 443.121 400.879 443.359 401.121 443.68 401.359 443.922 401.52 444.238 401.762 444.48 401.84 444.719 402 445.039 402.078H445.602L446.078 401.922 446.398 401.84 446.641 401.68 446.879 401.52 447.199 401.281 447.441 400.961 447.762 400.641 448 400.32 448.238 399.922 448.559 399.52 448.801 399.039 449.121 398.48 449.359 397.922 449.602 397.359 449.922 396.719 450.16 396 450.48 395.281 450.719 394.48 450.961 393.68 451.281 392.801 451.52 391.922 451.84 390.961 452.078 390 452.32 389.039 452.641 387.922 452.879 386.879 453.121 385.68 453.441 384.559 453.68 383.281 454 382.078 454.238 380.801 454.48 379.441 454.801 378.078 455.039 376.641 455.359 375.281 455.602 373.762 455.84 372.32 456.16 370.719 456.398 369.199 456.719 367.602 456.961 366 457.199 364.32 457.52 362.641 457.762 360.961 458.078 359.199 458.32 357.441 458.559 355.68 458.879 353.922 459.121 352.078 459.441 350.238 459.68 348.398 459.922 346.559 460.238 344.641 460.48 342.801 460.719 340.879 461.039 338.961 461.281 337.039 461.602 335.121 461.84 333.121 462.078 331.199 462.398 329.281 462.641 327.281 462.961 325.359 463.199 323.359 463.441 321.441 463.762 319.52 464 317.602 464.32 315.602 464.559 313.68 464.801 311.762 465.121 309.922 465.359 308 465.68 306.16 465.922 304.238 466.16 302.398 466.48 300.641 466.719 298.801 467.039 297.039 467.281 295.281 467.52 293.52 467.84 291.84 468.078 290.16 468.32 288.559 468.641 286.879 468.879 285.359 469.199 283.762 469.441 282.238 469.68 280.801 470 279.359 470.238 277.922 470.559 276.559 470.801 275.199 471.039 273.922 471.359 272.719 471.602 271.52 471.922 270.32 472.16 269.199 472.398 268.16 472.719 267.121 472.961 266.16 473.281 265.281 473.52 264.398 473.762 263.602 474.078 262.801 474.32 262.078 474.559 261.441 474.879 260.801 475.121 260.238 475.441 259.762 475.68 259.359 475.922 258.961 476.238 258.641 476.48 258.32 476.801 258.078 477.039 257.922 477.281 257.84 477.602 257.762H477.84L478.16 257.84 478.398 257.922 478.641 258.078 478.961 258.32 479.199 258.641 479.52 258.961 479.762 259.359 480 259.762 480.32 260.238 480.559 260.801 480.879 261.441 481.121 262.078 481.359 262.801 481.68 263.602 481.922 264.398 482.16 265.281 482.48 266.16 482.719 267.121 483.039 268.16 483.281 269.199 483.52 270.32 483.84 271.52 484.078 272.719 484.398 273.922 484.641 275.199 484.879 276.559 485.199 277.922 485.441 279.359 485.762 280.801 486 282.238 486.238 283.762 486.559 285.359 486.801 286.879 487.121 288.559 487.359 290.16 487.602 291.84 487.922 293.52 488.16 295.281 488.398 297.039 488.719 298.801 488.961 300.641 489.281 302.398 489.52 304.238 489.762 306.16 490.078 308 490.32 309.922 490.641 311.762 490.879 313.68 491.121 315.602 491.441 317.602 491.68 319.52 492 321.441 492.238 323.359 492.48 325.359 492.801 327.281 493.039 329.281 493.359 331.199 493.602 333.121 493.84 335.121 494.16 337.039 494.398 338.961 494.719 340.879 494.961 342.801 495.199 344.641 495.52 346.559 495.762 348.398 496 350.238 496.32 352.078 496.559 353.922 496.879 355.68 497.121 357.441 497.359 359.199 497.68 360.961 497.922 362.641 498.238 364.32 498.48 366 498.719 367.602 499.039 369.199 499.281 370.719 499.602 372.32 499.84 373.762 500.078 375.281 500.398 376.641 500.641 378.078 500.961 379.441 501.199 380.801 501.441 382.078 501.762 383.281 502 384.559 502.32 385.68 502.559 386.879 502.801 387.922 503.121 389.039 503.359 390 503.602 390.961 503.922 391.922 504.16 392.801 504.48 393.68 504.719 394.48 504.961 395.281 505.281 396 505.52 396.719 505.84 397.359 506.078 397.922 506.32 398.48 506.641 399.039 506.879 399.52 507.199 399.922 507.441 400.32 507.68 400.641 508 400.961 508.238 401.281 508.559 401.52 508.801 401.68 509.039 401.84 509.359 401.922 509.602 402 509.84 402.078H510.398L510.719 402 510.961 401.84 511.199 401.762 511.52 401.52 511.762 401.359 512.078 401.121 512.32 400.879 512.559 400.559 512.879 400.238 513.121 399.84 513.441 399.441 513.68 399.039 513.922 398.641 514.238 398.16 514.48 397.68 514.801 397.199 515.039 396.641 515.281 396.078 515.602 395.52 515.84 394.879 516.16 394.32 516.398 393.68 516.641 393.039 516.961 392.398 517.199 391.68 517.441 391.039 517.762 390.32 518 389.602 518.32 388.879 518.559 388.16 518.801 387.441 519.121 386.719 519.359 386 519.68 385.199 519.922 384.48 520.16 383.762 520.48 382.961 520.719 382.238 521.039 381.441 521.281 380.719 521.52 380 521.84 379.199 522.078 378.48 522.398 377.762 522.641 377.039 522.879 376.32 523.199 375.602 523.441 374.879 523.762 374.238 524 373.52 524.238 372.879 524.559 372.238 524.801 371.602 525.039 370.961 525.359 370.32 525.602 369.762 525.922 369.199 526.16 368.641 526.398 368.078 526.719 367.52 526.961 367.039 527.281 366.559 527.52 366.078 527.762 365.602 528.078 365.199 528.32 364.801 528.641 364.398 528.879 364 529.121 363.68 529.441 363.359 529.68 363.039 530.48 362.238 530.801 362.078 531.039 361.84 531.281 361.68 531.602 361.52 531.84 361.441 532.16 361.281 532.398 361.199 532.641 361.121H533.762L534 361.199 534.32 361.281 534.559 361.359 534.879 361.441 535.121 361.602 535.359 361.762 535.68 361.922 535.922 362.078 536.238 362.32 536.48 362.559 536.719 362.801 537.039 363.039 537.602 363.602 537.84 363.922 538.078 364.238 538.398 364.559 538.641 364.879 538.879 365.281 539.199 365.68 539.441 366.078 539.762 366.48 540 366.879 540.238 367.281 540.559 367.68 540.801 368.16 541.121 368.559 541.359 369.039 541.602 369.52 541.922 369.922 542.16 370.398 542.48 370.879 542.719 371.359 542.961 371.84 543.281 372.32 543.52 372.801 543.84 373.281 544.078 373.762 544.32 374.32 544.641 374.801 544.879 375.281 545.199 375.762 545.441 376.238 545.68 376.641 546 377.121 546.238 377.602 546.48 378.078 546.801 378.559 547.039 378.961 547.359 379.441 547.602 379.84 547.84 380.238 548.16 380.641 548.398 381.121 548.719 381.441 548.961 381.84 549.199 382.238 549.52 382.559 549.762 382.961 550.078 383.281 550.32 383.602 550.559 383.922 550.879 384.238 551.922 385.281 552.238 385.52 552.48 385.762 552.719 385.922 553.039 386.16 553.281 386.32 553.602 386.48 553.84 386.559 554.078 386.719 554.398 386.801 554.641 386.961H554.961L555.199 387.039 555.441 387.121H556.801L557.121 387.039 557.359 386.961 557.68 386.879 557.922 386.801 558.16 386.719 558.48 386.641 558.719 386.48 559.039 386.32 559.281 386.16 559.52 386 559.84 385.84 560.078 385.602 560.32 385.441 560.641 385.199 560.879 384.961 561.199 384.719 561.441 384.48 561.68 384.16 562 383.922 562.238 383.602 562.559 383.359 562.801 383.039 563.039 382.719 563.359 382.398 563.602 382.078 563.922 381.762 564.398 381.121 564.719 380.801 564.961 380.398 565.281 380.078 565.52 379.762 565.762 379.359 566.078 379.039 566.32 378.641 566.641 378.32 566.879 377.922 567.121 377.602 567.441 377.199 567.68 376.879 567.922 376.48 568.238 376.16 568.48 375.762 568.801 375.441 569.039 375.121 569.281 374.719 569.602 374.398 569.84 374.078 570.16 373.762 570.398 373.441 570.641 373.121 570.961 372.801 571.199 372.48 571.52 372.16 571.762 371.922 572 371.602 572.32 371.359 573.359 370.32 573.68 370.078 573.922 369.922 574.16 369.68 574.48 369.52 574.719 369.281 575.039 369.121 575.281 368.961 575.52 368.801 575.84 368.641 576.078 368.559 576.398 368.398 576.641 368.32 576.879 368.238 577.199 368.16 577.441 368.078 577.762 368H578L578.238 367.922H579.359L579.602 368H579.922L580.16 368.078H580.48L580.719 368.16 580.961 368.238 581.281 368.398 581.52 368.48 581.762 368.559 582.078 368.719 582.32 368.879 582.641 368.961 582.879 369.121 583.121 369.281 583.441 369.52 583.68 369.68 584 369.84 584.48 370.32 584.801 370.48 585.039 370.719 585.359 370.961 585.602 371.199 585.84 371.441 586.16 371.68 586.398 371.922 586.719 372.16 586.961 372.48 587.199 372.719 587.52 372.961 587.762 373.281 588.078 373.52 588.32 373.84 589.121 374.641 589.359 374.961 589.68 375.281 589.922 375.52 590.238 375.84 590.48 376.078 590.719 376.398 591.039 376.641 591.281 376.961 591.84 377.52 592.078 377.762 592.398 378.078 592.641 378.32 592.961 378.559 593.199 378.879 593.441 379.121 593.762 379.359 594 379.602 594.32 379.84 594.801 380.32 595.121 380.48 595.359 380.719 595.602 380.879 595.922 381.121 596.16 381.281 596.48 381.52 596.719 381.68 596.961 381.84 597.281 382 597.52 382.16 597.84 382.238 598.078 382.398 598.32 382.48 598.641 382.641 598.879 382.719 599.199 382.801 599.441 382.879 599.68 382.961 600 383.039 600.238 383.121H600.801L601.039 383.199H602.16L602.398 383.121H602.719L602.961 383.039H603.199L603.52 382.961 603.762 382.879 604.078 382.801 604.32 382.719 604.559 382.641 604.879 382.48 605.121 382.398 605.441 382.238 605.68 382.16 605.922 382 606.238 381.84 606.48 381.68 606.801 381.52 607.039 381.359 607.281 381.199 607.602 380.961 607.84 380.801 608.16 380.641 608.398 380.398 608.641 380.238 608.961 380 609.199 379.84 609.52 379.602 610 379.121 610.32 378.879 610.559 378.719 610.801 378.48 611.121 378.238 611.359 378 611.68 377.762 612.16 377.281 612.48 377.039 612.719 376.801 613.039 376.559 613.281 376.32"/>
<text xml:space="preserve" transform="matrix(1 0 -0 1 0 480)" font-size="17.6" font-family="Times"><tspan y="-166.48" x="501.80064 507.66145">Im</tspan></text>
<path stroke-width="1.6" stroke-linecap="butt" stroke-miterlimit="4" stroke-linejoin="miter" fill="none" stroke="#009e73" d="M533.602 306.961H592.16M342.16 376.32H342.961L343.281 376.238H343.52L343.762 376.16 344.078 376.078 344.32 376 344.641 375.922 344.879 375.84 345.121 375.762 345.441 375.68 345.68 375.602 345.922 375.441 346.238 375.281 346.48 375.199 346.801 375.039 347.039 374.879 347.281 374.719 347.602 374.559 347.84 374.398 348.16 374.16 348.398 374 348.641 373.762 348.961 373.602 349.199 373.359 349.52 373.199 349.762 372.961 350 372.719 350.32 372.48 350.559 372.238 350.879 372 351.121 371.762 351.359 371.52 351.68 371.199 351.922 370.961 352.238 370.719 352.48 370.48 352.719 370.16 353.039 369.922 353.281 369.602 353.52 369.359 353.84 369.121 354.078 368.801 354.398 368.559 354.641 368.238 355.199 367.68 355.441 367.441 355.762 367.199 356 366.879 356.801 366.078 357.121 365.84 357.602 365.359 357.922 365.121 358.16 364.879 358.48 364.641 358.719 364.398 358.961 364.16 359.281 363.922 359.52 363.68 359.84 363.52 360.078 363.281 360.32 363.121 360.641 362.961 360.879 362.719 361.121 362.559 361.441 362.398 361.68 362.238 362 362.16 362.238 362 362.48 361.84 362.801 361.762 363.039 361.68 363.359 361.602 363.602 361.441H363.84L364.16 361.359 364.398 361.281 364.719 361.199H366.559L366.879 361.281H367.121L367.359 361.359 367.68 361.441 367.922 361.52 368.238 361.602 368.48 361.762 368.719 361.84 369.039 362 369.281 362.078 369.602 362.238 370.078 362.559 370.398 362.719 370.641 362.961 370.961 363.121 371.199 363.281 371.441 363.52 371.762 363.762 372 364 372.32 364.16 373.359 365.199 373.68 365.441 373.922 365.68 374.16 366 374.48 366.238 374.719 366.559 375.84 367.68 376.078 368 376.32 368.238 376.641 368.559 376.879 368.879 377.199 369.121 377.441 369.441 377.68 369.762 378 370.078 378.238 370.32 378.559 370.641 378.801 370.879 379.039 371.199 379.602 371.762 379.922 372 380.16 372.32 380.398 372.559 380.719 372.801 380.961 373.039 381.281 373.359 381.52 373.602 381.762 373.762 382.078 374 382.32 374.238 382.559 374.398 382.879 374.641 383.121 374.801 383.441 375.039 383.68 375.199 383.922 375.359 384.238 375.441 384.48 375.602 384.801 375.762 385.039 375.84 385.281 375.922 385.602 376.078 385.84 376.16H386.16L386.398 376.238 386.641 376.32H388L388.32 376.238 388.559 376.16 388.801 376.078 389.121 376 389.359 375.922 389.68 375.84 389.922 375.68 390.16 375.602 390.48 375.441 390.719 375.281 391.039 375.039 391.281 374.879 391.52 374.641 391.84 374.48 392.078 374.238 392.398 374 392.641 373.762 392.879 373.441 393.199 373.199 393.441 372.879 393.762 372.559 394 372.238 394.238 371.922 394.559 371.602 394.801 371.281 395.121 370.879 395.359 370.559 395.602 370.16 395.922 369.762 396.16 369.359 396.398 368.961 396.719 368.559 396.961 368.16 397.281 367.762 397.52 367.359 397.762 366.879 398.078 366.48 398.32 366 398.641 365.602 398.879 365.121 399.121 364.719 399.441 364.238 399.68 363.84 400 363.359 400.238 362.879 400.48 362.48 400.801 362 401.039 361.52 401.359 361.121 401.602 360.641 401.84 360.238 402.16 359.762 402.398 359.359 402.719 358.879 402.961 358.48 403.199 358.078 403.52 357.68 403.762 357.281 404 356.879 404.32 356.48 404.559 356.078 404.879 355.762 405.121 355.359 405.359 355.039 405.68 354.719 405.922 354.32 406.238 354.078 406.48 353.762 406.719 353.441 407.039 353.199 407.281 352.879 407.602 352.641 407.84 352.398 408.078 352.238 408.398 352 408.641 351.84 408.961 351.68 409.199 351.52 409.441 351.359 409.762 351.281 410 351.121 410.238 351.039 410.559 350.961H410.801L411.121 350.879H411.922L412.16 350.961H412.48L412.719 351.039 412.961 351.121 413.281 351.281 413.52 351.359 413.84 351.52 414.078 351.68 414.32 351.84 414.641 352.078 414.879 352.238 415.199 352.48 415.441 352.719 415.68 353.039 416 353.281 416.238 353.602 416.559 353.922 416.801 354.238 417.039 354.559 417.359 354.879 417.602 355.281 417.84 355.68 418.16 356.078 418.398 356.48 418.719 356.879 418.961 357.281 419.199 357.762 419.52 358.16 419.762 358.641 420.078 359.121 420.32 359.602 420.559 360.078 420.879 360.559 421.121 361.039 421.441 361.52 421.68 362.078 421.922 362.559 422.238 363.039 422.48 363.602 422.801 364.078 423.039 364.559 423.281 365.121 423.602 365.602 423.84 366.078 424.16 366.641 424.398 367.121 424.641 367.602 424.961 368.078 425.199 368.559 425.441 369.039 425.762 369.52 426 370 426.32 370.48 426.559 370.879 426.801 371.359 427.121 371.762 427.359 372.16 427.68 372.559 427.922 372.879 428.16 373.281 428.48 373.602 428.719 373.922 429.039 374.238 429.281 374.559 429.52 374.801 429.84 375.039 430.078 375.281 430.398 375.52 430.641 375.68 430.879 375.84 431.199 376 431.441 376.078 431.68 376.238H432L432.238 376.32H432.801L433.039 376.238H433.359L433.602 376.078 433.922 376 434.398 375.68 434.719 375.441 435.52 374.641 435.762 374.238 436.078 373.922 436.32 373.52 436.641 373.121 436.879 372.641 437.121 372.16 437.441 371.602 437.68 371.039 438 370.48 438.238 369.922 438.48 369.281 438.801 368.559 439.039 367.922 439.281 367.121 439.602 366.398 439.84 365.602 440.16 364.801 440.398 363.922 440.641 363.121 440.961 362.16 441.199 361.281 441.52 360.32 441.762 359.359 442 358.32 442.32 357.281 442.559 356.238 442.879 355.199 443.121 354.078 443.359 353.039 443.68 351.84 443.922 350.719 444.238 349.602 444.48 348.398 444.719 347.199 445.039 346 445.281 344.719 445.602 343.52 445.84 342.238 446.078 340.961 446.398 339.68 446.641 338.398 446.879 337.121 447.199 335.84 447.441 334.48 447.762 333.199 448 331.922 448.238 330.559 448.559 329.281 448.801 328 449.121 326.641 449.359 325.359 449.602 324.078 449.922 322.719 450.16 321.441 450.48 320.16 450.719 318.961 450.961 317.68 451.281 316.398 451.52 315.199 451.84 314 452.078 312.801 452.32 311.602 452.641 310.398 452.879 309.281 453.121 308.16 453.441 307.121 453.68 306 454 304.961 454.238 303.922 454.48 302.961 454.801 302 455.039 301.039 455.359 300.16 455.602 299.281 455.84 298.48 456.16 297.68 456.398 296.879 456.719 296.16 456.961 295.52 457.199 294.879 457.52 294.238 457.762 293.68 458.078 293.199 458.32 292.719 458.559 292.238 458.879 291.84 459.121 291.52 459.922 290.719 460.238 290.559 460.48 290.48 460.719 290.398H461.039L461.281 290.48 461.602 290.559 461.84 290.641 462.078 290.879 462.398 291.121 462.641 291.441 462.961 291.762 463.199 292.16 463.441 292.559 463.762 293.121 464 293.68 464.32 294.238 464.559 294.879 464.801 295.602 465.121 296.398 465.359 297.199 465.68 298.078 465.922 298.961 466.16 299.922 466.48 300.961 466.719 302 467.039 303.121 467.281 304.32 467.52 305.52 467.84 306.801 468.078 308.078 468.32 309.441 468.641 310.879 468.879 312.32 469.199 313.762 469.441 315.281 469.68 316.879 470 318.48 470.238 320.16 470.559 321.84 470.801 323.52 471.039 325.281 471.359 327.121 471.602 328.961 471.922 330.801 472.16 332.719 472.398 334.641 472.719 336.559 472.961 338.559 473.281 340.559 473.52 342.641 473.762 344.719 474.078 346.801 474.32 348.879 474.559 350.961 474.879 353.121 475.121 355.281 475.441 357.441 475.68 359.68 475.922 361.84 476.238 364.078 476.48 366.32 476.801 368.48 477.039 370.719 477.281 372.961 477.602 375.199 477.84 377.441 478.16 379.68 478.398 381.922 478.641 384.16 478.961 386.398 479.199 388.559 479.52 390.801 479.762 392.961 480 395.199 480.32 397.359 480.559 399.52 480.879 401.68 481.121 403.762 481.359 405.84 481.68 408 481.922 410 482.16 412.078 482.48 414.078 482.719 416.078 483.039 418 483.281 419.922 483.52 421.84 483.84 423.68 484.078 425.52 484.398 427.359 484.641 429.121 484.879 430.801 485.199 432.559 485.441 434.16 485.762 435.762 486 437.359 486.238 438.879 486.559 440.398 486.801 441.84 487.121 443.199 487.359 444.559 487.602 445.84 487.922 447.121 488.398 449.52 488.719 450.641 488.961 451.68 489.281 452.719 489.52 453.68 489.762 454.559 490.078 455.441 490.32 456.238 490.641 457.039 490.879 457.762 491.121 458.398 491.441 458.961 491.68 459.52 492 460.078 492.238 460.48 492.48 460.879 492.801 461.281 493.039 461.52 493.359 461.762 493.602 462 493.84 462.078 494.16 462.238H494.719L494.961 462.16 495.199 462.078 495.52 461.922 496.32 461.121 496.559 460.801 496.879 460.398 497.121 460 497.359 459.52 497.68 458.961 497.922 458.398 498.238 457.762 498.48 457.121 498.719 456.48 499.039 455.762 499.281 454.961 499.602 454.16 499.84 453.359 500.078 452.48 500.398 451.602 500.641 450.641 500.961 449.68 501.199 448.719 501.441 447.68 501.762 446.641 502 445.602 502.32 444.48 502.559 443.359 502.801 442.238 503.121 441.039 503.359 439.84 503.602 438.641 503.922 437.441 504.16 436.238 504.48 434.961 504.719 433.762 504.961 432.48 505.281 431.199 505.52 429.922 505.84 428.559 506.078 427.281 506.32 426 506.641 424.719 506.879 423.359 507.199 422.078 507.441 420.719 507.68 419.441 508 418.16 508.238 416.801 508.559 415.52 508.801 414.238 509.039 412.961 509.359 411.68 509.602 410.398 509.84 409.121 510.16 407.922 510.398 406.719 510.719 405.441 510.961 404.238 511.199 403.121 511.52 401.922 511.762 400.801 512.078 399.68 512.32 398.559 512.559 397.441 512.879 396.398 513.121 395.359 513.441 394.32 513.68 393.281 513.922 392.32 514.238 391.359 514.48 390.48 514.801 389.602 515.039 388.719 515.281 387.84 515.602 387.039 515.84 386.238 516.16 385.52 516.398 384.801 516.641 384.078 516.961 383.359 517.199 382.719 517.441 382.16 517.762 381.602 518 381.039 518.32 380.48 518.559 380 518.801 379.52 519.121 379.121 519.359 378.719 519.68 378.398 519.922 378 520.48 377.441 520.719 377.199 521.039 377.039 521.281 376.801 521.52 376.641 521.84 376.559 522.078 376.48 522.398 376.398 522.641 376.32H523.199L523.441 376.398 523.762 376.48 524 376.559 524.238 376.641 524.559 376.801 524.801 376.961 525.039 377.121 525.359 377.359 525.602 377.602 525.922 377.84 526.16 378.078 526.398 378.398 526.719 378.719 526.961 379.039 527.281 379.359 527.52 379.762 527.762 380.078 528.078 380.48 528.32 380.879 528.641 381.281 528.879 381.762 529.121 382.16 529.441 382.641 529.68 383.121 530 383.602 530.238 384.078 530.48 384.559 530.801 385.039 531.039 385.52 531.281 386 531.602 386.559 531.84 387.039 532.16 387.52 532.398 388.078 532.641 388.559 532.961 389.121 533.199 389.602 533.52 390.078 533.762 390.641 534 391.121 534.32 391.602 534.559 392.078 534.879 392.559 535.121 393.039 535.359 393.52 535.68 394 535.922 394.48 536.238 394.879 536.48 395.359 536.719 395.762 537.039 396.16 537.281 396.559 537.602 396.961 537.84 397.359 538.078 397.762 538.398 398.078 538.641 398.398 538.879 398.719 539.199 399.039 539.441 399.359 539.762 399.602 540 399.922 540.238 400.16 540.559 400.398 540.801 400.559 541.121 400.801 541.359 400.961 541.602 401.121 541.922 401.281 542.16 401.359 542.48 401.52 542.719 401.602 542.961 401.68H543.281L543.52 401.762H544.641L544.879 401.68 545.199 401.602 545.441 401.52 545.68 401.441 546 401.281 546.238 401.121 546.48 400.961 546.801 400.801 547.039 400.641 547.359 400.398 547.602 400.238 547.84 400 548.16 399.762 548.398 399.441 548.719 399.199 548.961 398.879 549.52 398.32 549.762 398 550.078 397.602 550.32 397.281 550.559 396.879 550.879 396.559 551.121 396.16 551.441 395.762 551.68 395.359 551.922 394.961 552.238 394.559 552.48 394.16 552.719 393.762 553.039 393.281 553.281 392.879 553.602 392.398 553.84 392 554.078 391.52 554.398 391.121 554.641 390.641 554.961 390.238 555.199 389.762 555.441 389.281 555.762 388.879 556 388.398 556.32 387.922 556.559 387.52 556.801 387.039 557.121 386.641 557.359 386.16 557.68 385.762 557.922 385.281 558.16 384.879 558.48 384.48 558.719 384.078 559.039 383.68 559.281 383.281 559.52 382.879 559.84 382.48 560.078 382.078 560.32 381.762 560.641 381.359 560.879 381.039 561.199 380.719 561.441 380.398 561.68 380.078 562 379.762 562.238 379.441 562.559 379.199 562.801 378.879 563.039 378.641 563.359 378.398 563.602 378.16 563.922 378 564.16 377.762 564.398 377.602 564.719 377.359 564.961 377.199 565.281 377.039 565.52 376.961 565.762 376.801 566.078 376.719 566.32 376.641 566.641 376.559 566.879 376.48 567.121 376.398H567.441L567.68 376.32H568.48L568.801 376.398H569.039L569.281 376.48 569.602 376.559 569.84 376.641 570.16 376.719 570.398 376.801 570.641 376.879 570.961 377.039 571.199 377.199 571.52 377.281 571.762 377.441 572 377.68 572.32 377.84 572.559 378 572.879 378.238 573.121 378.398 573.359 378.641 573.68 378.879 574.16 379.359 574.48 379.602 574.719 379.84 575.039 380.078 575.281 380.32 575.52 380.641 575.84 380.879 576.078 381.199 576.398 381.441 576.641 381.762 577.199 382.32 577.441 382.641 577.762 382.879 578.238 383.52 578.559 383.762 578.801 384.078 579.121 384.398 579.359 384.641 579.602 384.961 580.719 386.078 580.961 386.398 581.281 386.641 581.52 386.961 581.762 387.199 582.078 387.441 582.32 387.762 582.641 388 583.121 388.48 583.441 388.719 583.68 388.879 584 389.121 584.238 389.359 584.48 389.52 584.801 389.68 585.039 389.922 585.359 390.078 585.602 390.238 585.84 390.398 586.16 390.559 586.398 390.641 586.719 390.801 586.961 390.879 587.199 391.039 587.52 391.121 587.762 391.199 588.078 391.281 588.32 391.359H588.559L588.879 391.441H589.359L589.68 391.52H589.922L590.238 391.441H590.719L591.039 391.359 591.281 391.281H591.602L591.84 391.199 592.078 391.121 592.398 390.961 592.641 390.879 592.961 390.801 593.199 390.641 593.441 390.48 593.762 390.398 594 390.238 594.32 390.078 594.559 389.922 594.801 389.68 595.121 389.52 595.359 389.359 595.602 389.121 595.922 388.961 596.16 388.719 596.48 388.48 596.719 388.238 596.961 388.078 597.281 387.84 597.84 387.281 598.078 387.039 598.32 386.801 598.641 386.559 599.199 386 599.441 385.762 599.68 385.52 600.801 384.398 601.039 384.078 601.359 383.84 601.602 383.602 601.922 383.281 602.16 383.039 602.398 382.719 602.719 382.48 602.961 382.238 603.199 381.922 603.52 381.68 603.762 381.441 604.078 381.121 604.559 380.641 604.879 380.398 605.121 380.16 605.441 379.922 605.68 379.68 605.922 379.52 606.238 379.281 606.48 379.039 606.801 378.879 607.039 378.641 607.281 378.48 607.602 378.32 607.84 378.078 608.16 377.922 608.398 377.762 608.641 377.602 608.961 377.441 609.199 377.359 609.52 377.199 609.762 377.121 610 376.961 610.32 376.879 610.559 376.801 610.801 376.719 611.121 376.641 611.359 376.559 611.68 376.48 611.922 376.398H612.48L612.719 376.32H613.281"/>
</g>
</svg>
