<svg xmlns="http://www.w3.org/2000/svg" xmlns:xlink="http://www.w3.org/1999/xlink" version="1.1" width="409pt" height="211pt" viewBox="0 0 409 211">
<path transform="matrix(.1,0,0,-.1,0,211)" stroke-width="4" stroke-linecap="butt" stroke-linejoin="round" fill="none" stroke="#000000" d="M3428.63 1507.62C3189.18 1873.63 2803.71 2045.2 2567.62 1890.74 2331.56 1736.33 2334.3 1314.41 2573.75 948.359 2813.16 582.34 3198.67 410.82 3434.73 565.23 3670.78 719.691 3668.05 1141.6 3428.63 1507.62ZM3428.63 1507.62"/>
<path transform="matrix(.1,0,0,-.1,0,211)" stroke-width="4" stroke-linecap="butt" stroke-linejoin="round" fill="none" stroke="#000000" d="M80 28.0117 4080 1788.01"/>
<path transform="matrix(.1,0,0,-.1,0,211)" stroke-width="4" stroke-linecap="butt" stroke-linejoin="round" fill="none" stroke="#000000" d="M80 28.0117 2640 1948.01"/>
<path transform="matrix(.1,0,0,-.1,0,211)" stroke-width="4" stroke-linecap="butt" stroke-linejoin="round" fill="none" stroke="#000000" d="M80 28.0117 3360 508.012"/>
<path transform="matrix(.1,0,0,-.1,0,211)" stroke-width="4" stroke-linecap="butt" stroke-linejoin="round" fill="none" stroke="#000000" d="M2960 1308.01 3680 2108.01"/>
<path transform="matrix(.1,0,0,-.1,0,211)" stroke-width="4" stroke-linecap="butt" stroke-linejoin="round" fill="none" stroke="#000000" d="M3512.85 1548.01C3536.95 1604.65 3531.76 1672.46 3499.38 1723.12 3467.03 1773.83 3413.05 1798.67 3360 1787.34"/>
<text xml:space="preserve" transform="matrix(1 0 -0 1 0 211)" font-size="9.9626" font-family="f-0"><tspan y="-2.80703" x="0">Q</tspan><tspan y="-122.800029" x="296">P</tspan></text>
<text xml:space="preserve" transform="matrix(1 0 -0 1 0 211)" font-size="9.9626" font-family="f-1"><tspan y="-162.80002" x="360">&#x03b8;</tspan></text>
<text xml:space="preserve" transform="matrix(1 0 -0 1 0 211)" font-size="9.9626" font-family="f-1"><tspan y="-202.80002" x="352">n</tspan><tspan y="-66.80002" x="328 333.18055">dA</tspan></text>
</svg>
