<svg xmlns="http://www.w3.org/2000/svg" xmlns:xlink="http://www.w3.org/1999/xlink" version="1.1" width="235pt" height="193pt" viewBox="0 0 235 193">
<defs>
<clipPath id="clip_0">
<path transform="matrix(.1,0,0,-.1,0,193)" d="M1654.1 930C1654.1 488.16 1295.94 130 854.102 130 412.301 130 54.1016 488.16 54.1016 930 54.1016 1371.84 412.301 1730 854.102 1730 1295.94 1730 1654.1 1371.84 1654.1 930ZM1654.1 930"/>
</clipPath>
<clipPath id="clip_1">
<path transform="matrix(.1,0,0,-.1,0,193)" d="M50 1730H1660V130H50Z"/>
</clipPath>
</defs>
<g clip-path="url(#clip_0)">
<g clip-path="url(#clip_1)">
<path transform="matrix(.1,0,0,-.1,0,193)" d="M2013.79 1289.65 854.102 130 1794.77 1473.4" fill="#cc0000"/>
<path transform="matrix(.1,0,0,-.1,0,193)" d="M711.172 1763.75 854.102 130 997.07 1763.75" fill="#3465a4"/>
<path transform="matrix(.1,0,0,-.1,0,193)" stroke-width="8" stroke-linecap="square" stroke-miterlimit="4" stroke-linejoin="miter" fill="none" stroke="#000000" d="M854.102 130 711.172 1763.75"/>
<path transform="matrix(.1,0,0,-.1,0,193)" stroke-width="8" stroke-linecap="square" stroke-miterlimit="4" stroke-linejoin="miter" fill="none" stroke="#000000" d="M854.102 130 429.648 1714.1"/>
<path transform="matrix(.1,0,0,-.1,0,193)" stroke-width="8" stroke-linecap="square" stroke-miterlimit="4" stroke-linejoin="miter" fill="none" stroke="#000000" d="M854.102 130 161.02 1616.33"/>
<path transform="matrix(.1,0,0,-.1,0,193)" stroke-width="8" stroke-linecap="square" stroke-miterlimit="4" stroke-linejoin="miter" fill="none" stroke="#000000" d="M854.102 130-86.5586 1473.4"/>
<path transform="matrix(.1,0,0,-.1,0,193)" stroke-width="8" stroke-linecap="square" stroke-miterlimit="4" stroke-linejoin="miter" fill="none" stroke="#000000" d="M854.102 130-305.551 1289.65"/>
<path transform="matrix(.1,0,0,-.1,0,193)" stroke-width="8" stroke-linecap="square" stroke-miterlimit="4" stroke-linejoin="miter" fill="none" stroke="#000000" d="M854.102 130-489.301 1070.66"/>
<path transform="matrix(.1,0,0,-.1,0,193)" stroke-width="8" stroke-linecap="square" stroke-miterlimit="4" stroke-linejoin="miter" fill="none" stroke="#000000" d="M854.102 130-632.23 823.09"/>
<path transform="matrix(.1,0,0,-.1,0,193)" stroke-width="8" stroke-linecap="square" stroke-miterlimit="4" stroke-linejoin="miter" fill="none" stroke="#000000" d="M854.102 130-730 554.449"/>
<path transform="matrix(.1,0,0,-.1,0,193)" stroke-width="8" stroke-linecap="square" stroke-miterlimit="4" stroke-linejoin="miter" fill="none" stroke="#000000" d="M854.102 130 997.07 1763.75"/>
<path transform="matrix(.1,0,0,-.1,0,193)" stroke-width="8" stroke-linecap="square" stroke-miterlimit="4" stroke-linejoin="miter" fill="none" stroke="#000000" d="M854.102 130 1278.59 1714.1"/>
<path transform="matrix(.1,0,0,-.1,0,193)" stroke-width="8" stroke-linecap="square" stroke-miterlimit="4" stroke-linejoin="miter" fill="none" stroke="#000000" d="M854.102 130 1547.23 1616.33"/>
<path transform="matrix(.1,0,0,-.1,0,193)" stroke-width="8" stroke-linecap="square" stroke-miterlimit="4" stroke-linejoin="miter" fill="none" stroke="#000000" d="M854.102 130 1794.77 1473.4"/>
<path transform="matrix(.1,0,0,-.1,0,193)" stroke-width="8" stroke-linecap="square" stroke-miterlimit="4" stroke-linejoin="miter" fill="none" stroke="#000000" d="M854.102 130 2013.79 1289.65"/>
<path transform="matrix(.1,0,0,-.1,0,193)" stroke-width="8" stroke-linecap="square" stroke-miterlimit="4" stroke-linejoin="miter" fill="none" stroke="#000000" d="M854.102 130 2197.54 1070.66"/>
<path transform="matrix(.1,0,0,-.1,0,193)" stroke-width="8" stroke-linecap="square" stroke-miterlimit="4" stroke-linejoin="miter" fill="none" stroke="#000000" d="M854.102 130 2340.47 823.09"/>
<path transform="matrix(.1,0,0,-.1,0,193)" stroke-width="8" stroke-linecap="square" stroke-miterlimit="4" stroke-linejoin="miter" fill="none" stroke="#000000" d="M854.102 130 2438.24 554.449"/>
</g>
</g>
<path transform="matrix(.1,0,0,-.1,0,193)" stroke-width="8" stroke-linecap="square" stroke-miterlimit="4" stroke-linejoin="miter" fill="none" stroke="#000000" d="M10 126.02H1690"/>
<path transform="matrix(.1,0,0,-.1,0,193)" d="M774.102 110H934.102V126.0195H774.102Z"/>
<path transform="matrix(.1,0,0,-.1,0,193)" stroke-width="8" stroke-linecap="square" stroke-miterlimit="4" stroke-linejoin="miter" fill="none" stroke="#000000" d="M774.102 110H934.102V126.0195H774.102Z"/>
<path transform="matrix(.1,0,0,-.1,0,193)" stroke-width="8" stroke-linecap="butt" stroke-miterlimit="4" stroke-linejoin="miter" fill="none" stroke="#000000" d="M1654.1 930C1654.1 488.16 1295.94 130 854.102 130 412.301 130 54.1016 488.16 54.1016 930 54.1016 1371.84 412.301 1730 854.102 1730 1295.94 1730 1654.1 1371.84 1654.1 930ZM1654.1 930"/>
<path transform="matrix(.1,0,0,-.1,0,193)" stroke-width="8" stroke-linecap="square" stroke-miterlimit="4" stroke-linejoin="miter" fill="none" stroke="#000000" d="M784.801 926.988C830.66 930.98 876.801 931.02 922.66 927.07"/>
<path transform="matrix(.1,0,0,-.1,0,193)" stroke-width="8" stroke-linecap="square" stroke-miterlimit="4" stroke-linejoin="miter" fill="none" stroke="#000000" d="M1313.36 785.039C1351.37 758.398 1386.99 728.52 1419.8 695.699"/>
<text xml:space="preserve" transform="matrix(1 0 -0 1 0 193)" font-size="9.6" font-family="BitstreamVeraSerif"><tspan y="-95.6" x="78.6117">d</tspan></text>
<text xml:space="preserve" transform="matrix(1 0 -0 1 0 193)" font-size="9.6" font-family="TimesNewRomanPS" font-style="italic"><tspan y="-95.6" x="84.75701">&#x03a9;</tspan></text>
<text xml:space="preserve" transform="matrix(1 0 -0 1 0 193)" font-size="9.6" font-family="BitstreamVeraSerif"><tspan y="-77" x="134.61171">d</tspan></text>
<text xml:space="preserve" transform="matrix(1 0 -0 1 0 193)" font-size="9.6" font-family="TimesNewRomanPS" font-style="italic"><tspan y="-77" x="140.75702">&#x03a9;</tspan></text>
<path transform="matrix(.1,0,0,-.1,0,193)" stroke-width="8" stroke-linecap="square" stroke-miterlimit="4" stroke-linejoin="miter" fill="none" stroke="#000000" d="M854.102 730C995.199 730 1131.72 680.309 1239.8 589.609"/>
<path transform="matrix(.1,0,0,-.1,0,193)" stroke-width="8" stroke-linecap="square" stroke-miterlimit="4" stroke-linejoin="miter" fill="none" stroke="#000000" d="M854.102 130V770"/>
<path transform="matrix(.1,0,0,-.1,0,193)" stroke-width="8" stroke-linecap="square" stroke-miterlimit="4" stroke-linejoin="miter" fill="none" stroke="#000000" d="M854.102 130 1265.51 620.27"/>
<text xml:space="preserve" transform="matrix(1 0 -0 1 0 193)" font-size="9.6" font-family="TimesNewRomanPS" font-style="italic"><tspan y="-71.8" x="105.212">&#x03b8;</tspan></text>
<text xml:space="preserve" transform="matrix(1 0 -0 1 0 193)" font-size="9.6" font-family="BitstreamVeraSerif"><tspan y="-185" x="68.321399 75.16613">Id</tspan></text>
<text xml:space="preserve" transform="matrix(1 0 -0 1 0 193)" font-size="9.6" font-family="TimesNewRomanPS" font-style="italic"><tspan y="-185" x="81.3116">&#x03a9;</tspan></text>
<text xml:space="preserve" transform="matrix(1 0 -0 1 0 193)" font-size="9.6" font-family="BitstreamVeraSerif"><tspan y="-185" x="90.18347 96.32747">dA</tspan></text>
<path transform="matrix(.1,0,0,-.1,0,193)" stroke-width="8" stroke-linecap="square" stroke-miterlimit="4" stroke-linejoin="miter" fill="none" stroke="#000000" d="M854.102 1730V1810"/>
<path transform="matrix(.1,0,0,-.1,0,193)" d="M854.102 1830 845.121 1790H863.121Z" fill-rule="evenodd"/>
<path transform="matrix(.1,0,0,-.1,0,193)" stroke-width="8" stroke-linecap="butt" stroke-miterlimit="4" stroke-linejoin="miter" fill="none" stroke="#000000" d="M854.102 1830 845.121 1790H863.121ZM854.102 1830"/>
<path transform="matrix(.1,0,0,-.1,0,193)" stroke-width="8.00001" stroke-linecap="square" stroke-miterlimit="4" stroke-linejoin="miter" fill="none" stroke="#000000" d="M1644.64 1071.84 1696.09 1133.13"/>
<path transform="matrix(.1,0,0,-.1,0,193)" d="M1708.95 1148.44 1676.33 1123.55 1690.12 1111.99Z" fill-rule="evenodd"/>
<path transform="matrix(.1,0,0,-.1,0,193)" stroke-width="8.00001" stroke-linecap="butt" stroke-miterlimit="4" stroke-linejoin="miter" fill="none" stroke="#000000" d="M1708.95 1148.43 1676.33 1123.55 1690.11 1111.99ZM1708.95 1148.43"/>
<text xml:space="preserve" transform="matrix(1 0 -0 1 0 193)" font-size="9.6" font-family="BitstreamVeraSerif"><tspan y="-117" x="206.256">d</tspan></text>
<text xml:space="preserve" transform="matrix(1 0 -0 1 0 193)" font-size="9.6" font-family="TimesNewRomanPS" font-style="italic"><tspan y="-117" x="212.4013">&#x03a9;</tspan></text>
<text xml:space="preserve" transform="matrix(1 0 -0 1 0 193)" font-size="9.6" font-family="BitstreamVeraSerif"><tspan y="-117" x="221.27318 227.41718">dA</tspan></text>
<text xml:space="preserve" transform="matrix(1 0 -0 1 0 193)" font-size="9.6" font-family="BitstreamVeraSerif"><tspan y="-117" x="175.39778 180.77379 186.553 191.4778 199.19602">cos()</tspan></text>
<text xml:space="preserve" transform="matrix(1 0 -0 1 0 193)" font-size="9.6" font-family="TimesNewRomanPS" font-style="italic"><tspan y="-117" x="194.19979">&#x03b8;</tspan></text>
<text xml:space="preserve" transform="matrix(1 0 -0 1 0 193)" font-size="9.6" font-family="BitstreamVeraSerif"><tspan y="-117" x="171.19979">I</tspan><tspan y="-1" x="79.011089 85.15508">dA</tspan></text>
</svg>
