<?xml version="1.0" encoding="UTF-8" standalone="no"?>
<!-- Created with Inkscape (http://www.inkscape.org/) -->

<svg
   version="1.1"
   id="svg1"
   width="313.33334"
   height="257.33334"
   viewBox="0 0 313.33334 257.33334"
   sodipodi:docname="Lambert_Cosine_Law.svg"
   inkscape:version="1.3 (0e150ed6c4, 2023-07-21)"
   xmlns:inkscape="http://www.inkscape.org/namespaces/inkscape"
   xmlns:sodipodi="http://sodipodi.sourceforge.net/DTD/sodipodi-0.dtd"
   xmlns="http://www.w3.org/2000/svg"
   xmlns:svg="http://www.w3.org/2000/svg">
  <defs
     id="defs1">
    <clipPath
       clipPathUnits="userSpaceOnUse"
       id="clipPath1">
      <path
         d="M 50,1730 H 1660 V 130 H 50 Z"
         transform="translate(0,-2.5000001e-5)"
         id="path1" />
    </clipPath>
    <clipPath
       clipPathUnits="userSpaceOnUse"
       id="clipPath2">
      <path
         d="M 50,1730 H 1660 V 130 H 50 Z"
         transform="translate(0,-2.5000001e-5)"
         id="path2" />
    </clipPath>
    <clipPath
       clipPathUnits="userSpaceOnUse"
       id="clipPath3">
      <path
         d="M 50,1730 H 1660 V 130 H 50 Z"
         transform="translate(0,-2.5000001e-5)"
         id="path3" />
    </clipPath>
    <clipPath
       clipPathUnits="userSpaceOnUse"
       id="clipPath4">
      <path
         d="M 50,1730 H 1660 V 130 H 50 Z"
         transform="translate(0,-2.5000001e-5)"
         id="path4" />
    </clipPath>
    <clipPath
       clipPathUnits="userSpaceOnUse"
       id="clipPath5">
      <path
         d="M 50,1730 H 1660 V 130 H 50 Z"
         transform="translate(0,-2.5000001e-5)"
         id="path5" />
    </clipPath>
    <clipPath
       clipPathUnits="userSpaceOnUse"
       id="clipPath6">
      <path
         d="M 50,1730 H 1660 V 130 H 50 Z"
         transform="translate(0,-2.5000001e-5)"
         id="path6" />
    </clipPath>
    <clipPath
       clipPathUnits="userSpaceOnUse"
       id="clipPath7">
      <path
         d="M 50,1730 H 1660 V 130 H 50 Z"
         transform="translate(0,-2.5000001e-5)"
         id="path7" />
    </clipPath>
    <clipPath
       clipPathUnits="userSpaceOnUse"
       id="clipPath8">
      <path
         d="M 50,1730 H 1660 V 130 H 50 Z"
         transform="translate(0,-2.5000001e-5)"
         id="path8" />
    </clipPath>
    <clipPath
       clipPathUnits="userSpaceOnUse"
       id="clipPath9">
      <path
         d="M 50,1730 H 1660 V 130 H 50 Z"
         transform="translate(0,-2.5000001e-5)"
         id="path9" />
    </clipPath>
    <clipPath
       clipPathUnits="userSpaceOnUse"
       id="clipPath10">
      <path
         d="M 50,1730 H 1660 V 130 H 50 Z"
         transform="translate(0,-2.5000001e-5)"
         id="path10" />
    </clipPath>
    <clipPath
       clipPathUnits="userSpaceOnUse"
       id="clipPath11">
      <path
         d="M 50,1730 H 1660 V 130 H 50 Z"
         transform="translate(0,-2.5000001e-5)"
         id="path11" />
    </clipPath>
    <clipPath
       clipPathUnits="userSpaceOnUse"
       id="clipPath12">
      <path
         d="M 50,1730 H 1660 V 130 H 50 Z"
         transform="translate(0,-2.5000001e-5)"
         id="path12" />
    </clipPath>
    <clipPath
       clipPathUnits="userSpaceOnUse"
       id="clipPath13">
      <path
         d="M 50,1730 H 1660 V 130 H 50 Z"
         transform="translate(0,-2.5000001e-5)"
         id="path13" />
    </clipPath>
    <clipPath
       clipPathUnits="userSpaceOnUse"
       id="clipPath14">
      <path
         d="M 50,1730 H 1660 V 130 H 50 Z"
         transform="translate(0,-2.5000001e-5)"
         id="path14" />
    </clipPath>
    <clipPath
       clipPathUnits="userSpaceOnUse"
       id="clipPath15">
      <path
         d="M 50,1730 H 1660 V 130 H 50 Z"
         transform="translate(0,-2.5000001e-5)"
         id="path15" />
    </clipPath>
    <clipPath
       clipPathUnits="userSpaceOnUse"
       id="clipPath16">
      <path
         d="M 50,1730 H 1660 V 130 H 50 Z"
         transform="translate(0,-2.5000001e-5)"
         id="path16" />
    </clipPath>
    <clipPath
       clipPathUnits="userSpaceOnUse"
       id="clipPath17">
      <path
         d="M 50,1730 H 1660 V 130 H 50 Z"
         transform="translate(0,-2.5000001e-5)"
         id="path17" />
    </clipPath>
    <clipPath
       clipPathUnits="userSpaceOnUse"
       id="clipPath18">
      <path
         d="M 50,1730 H 1660 V 130 H 50 Z"
         transform="translate(0,-2.5000001e-5)"
         id="path18" />
    </clipPath>
  </defs>
  <sodipodi:namedview
     id="namedview1"
     pagecolor="#ffffff"
     bordercolor="#000000"
     borderopacity="0.25"
     inkscape:showpageshadow="2"
     inkscape:pageopacity="0.0"
     inkscape:pagecheckerboard="0"
     inkscape:deskcolor="#d1d1d1"
     inkscape:zoom="3.1212765"
     inkscape:cx="156.66667"
     inkscape:cy="128.63327"
     inkscape:window-width="1920"
     inkscape:window-height="1200"
     inkscape:window-x="190"
     inkscape:window-y="190"
     inkscape:window-maximized="0"
     inkscape:current-layer="g1">
    <inkscape:page
       x="0"
       y="0"
       inkscape:label="1"
       id="page1"
       width="313.33334"
       height="257.33334"
       margin="0"
       bleed="0" />
  </sodipodi:namedview>
  <g
     id="g1"
     inkscape:groupmode="layer"
     inkscape:label="1">
    <g
       id="g36">
      <path
         d="M 2013.79,1289.65 854.102,130 1794.77,1473.4"
         style="fill:#cc0000;fill-opacity:1;fill-rule:nonzero;stroke:none"
         transform="matrix(0.13333333,0,0,-0.13333333,0,257.33333)"
         clip-path="url(#clipPath1)"
         id="path19" />
      <path
         d="M 711.172,1763.75 854.102,130 997.07,1763.75"
         style="fill:#3465a4;fill-opacity:1;fill-rule:nonzero;stroke:none"
         transform="matrix(0.13333333,0,0,-0.13333333,0,257.33333)"
         clip-path="url(#clipPath2)"
         id="path20" />
      <path
         d="M 854.102,130 711.172,1763.75"
         style="fill:none;stroke:#000000;stroke-width:8;stroke-linecap:square;stroke-linejoin:miter;stroke-miterlimit:4;stroke-dasharray:none;stroke-opacity:1"
         transform="matrix(0.13333333,0,0,-0.13333333,0,257.33333)"
         clip-path="url(#clipPath3)"
         id="path21" />
      <path
         d="M 854.102,130 429.648,1714.1"
         style="fill:none;stroke:#000000;stroke-width:8;stroke-linecap:square;stroke-linejoin:miter;stroke-miterlimit:4;stroke-dasharray:none;stroke-opacity:1"
         transform="matrix(0.13333333,0,0,-0.13333333,0,257.33333)"
         clip-path="url(#clipPath4)"
         id="path22" />
      <path
         d="M 854.102,130 161.02,1616.33"
         style="fill:none;stroke:#000000;stroke-width:8;stroke-linecap:square;stroke-linejoin:miter;stroke-miterlimit:4;stroke-dasharray:none;stroke-opacity:1"
         transform="matrix(0.13333333,0,0,-0.13333333,0,257.33333)"
         clip-path="url(#clipPath5)"
         id="path23" />
      <path
         d="M 854.102,130 -86.5586,1473.4"
         style="fill:none;stroke:#000000;stroke-width:8;stroke-linecap:square;stroke-linejoin:miter;stroke-miterlimit:4;stroke-dasharray:none;stroke-opacity:1"
         transform="matrix(0.13333333,0,0,-0.13333333,0,257.33333)"
         clip-path="url(#clipPath6)"
         id="path24" />
      <path
         d="M 854.102,130 -305.551,1289.65"
         style="fill:none;stroke:#000000;stroke-width:8;stroke-linecap:square;stroke-linejoin:miter;stroke-miterlimit:4;stroke-dasharray:none;stroke-opacity:1"
         transform="matrix(0.13333333,0,0,-0.13333333,0,257.33333)"
         clip-path="url(#clipPath7)"
         id="path25" />
      <path
         d="M 854.102,130 -489.301,1070.66"
         style="fill:none;stroke:#000000;stroke-width:8;stroke-linecap:square;stroke-linejoin:miter;stroke-miterlimit:4;stroke-dasharray:none;stroke-opacity:1"
         transform="matrix(0.13333333,0,0,-0.13333333,0,257.33333)"
         clip-path="url(#clipPath8)"
         id="path26" />
      <path
         d="M 854.102,130 -632.23,823.09"
         style="fill:none;stroke:#000000;stroke-width:8;stroke-linecap:square;stroke-linejoin:miter;stroke-miterlimit:4;stroke-dasharray:none;stroke-opacity:1"
         transform="matrix(0.13333333,0,0,-0.13333333,0,257.33333)"
         clip-path="url(#clipPath9)"
         id="path27" />
      <path
         d="M 854.102,130 -730,554.449"
         style="fill:none;stroke:#000000;stroke-width:8;stroke-linecap:square;stroke-linejoin:miter;stroke-miterlimit:4;stroke-dasharray:none;stroke-opacity:1"
         transform="matrix(0.13333333,0,0,-0.13333333,0,257.33333)"
         clip-path="url(#clipPath10)"
         id="path28" />
      <path
         d="M 854.102,130 997.07,1763.75"
         style="fill:none;stroke:#000000;stroke-width:8;stroke-linecap:square;stroke-linejoin:miter;stroke-miterlimit:4;stroke-dasharray:none;stroke-opacity:1"
         transform="matrix(0.13333333,0,0,-0.13333333,0,257.33333)"
         clip-path="url(#clipPath11)"
         id="path29" />
      <path
         d="M 854.102,130 1278.59,1714.1"
         style="fill:none;stroke:#000000;stroke-width:8;stroke-linecap:square;stroke-linejoin:miter;stroke-miterlimit:4;stroke-dasharray:none;stroke-opacity:1"
         transform="matrix(0.13333333,0,0,-0.13333333,0,257.33333)"
         clip-path="url(#clipPath12)"
         id="path30" />
      <path
         d="M 854.102,130 1547.23,1616.33"
         style="fill:none;stroke:#000000;stroke-width:8;stroke-linecap:square;stroke-linejoin:miter;stroke-miterlimit:4;stroke-dasharray:none;stroke-opacity:1"
         transform="matrix(0.13333333,0,0,-0.13333333,0,257.33333)"
         clip-path="url(#clipPath13)"
         id="path31" />
      <path
         d="M 854.102,130 1794.77,1473.4"
         style="fill:none;stroke:#000000;stroke-width:8;stroke-linecap:square;stroke-linejoin:miter;stroke-miterlimit:4;stroke-dasharray:none;stroke-opacity:1"
         transform="matrix(0.13333333,0,0,-0.13333333,0,257.33333)"
         clip-path="url(#clipPath14)"
         id="path32" />
      <path
         d="M 854.102,130 2013.79,1289.65"
         style="fill:none;stroke:#000000;stroke-width:8;stroke-linecap:square;stroke-linejoin:miter;stroke-miterlimit:4;stroke-dasharray:none;stroke-opacity:1"
         transform="matrix(0.13333333,0,0,-0.13333333,0,257.33333)"
         clip-path="url(#clipPath15)"
         id="path33" />
      <path
         d="M 854.102,130 2197.54,1070.66"
         style="fill:none;stroke:#000000;stroke-width:8;stroke-linecap:square;stroke-linejoin:miter;stroke-miterlimit:4;stroke-dasharray:none;stroke-opacity:1"
         transform="matrix(0.13333333,0,0,-0.13333333,0,257.33333)"
         clip-path="url(#clipPath16)"
         id="path34" />
      <path
         d="M 854.102,130 2340.47,823.09"
         style="fill:none;stroke:#000000;stroke-width:8;stroke-linecap:square;stroke-linejoin:miter;stroke-miterlimit:4;stroke-dasharray:none;stroke-opacity:1"
         transform="matrix(0.13333333,0,0,-0.13333333,0,257.33333)"
         clip-path="url(#clipPath17)"
         id="path35" />
      <path
         d="M 854.102,130 2438.24,554.449"
         style="fill:none;stroke:#000000;stroke-width:8;stroke-linecap:square;stroke-linejoin:miter;stroke-miterlimit:4;stroke-dasharray:none;stroke-opacity:1"
         transform="matrix(0.13333333,0,0,-0.13333333,0,257.33333)"
         clip-path="url(#clipPath18)"
         id="path36" />
    </g>
    <path
       id="path37"
       d="M 10,126.02 H 1690"
       style="fill:none;stroke:#000000;stroke-width:8;stroke-linecap:square;stroke-linejoin:miter;stroke-miterlimit:4;stroke-dasharray:none;stroke-opacity:1"
       transform="matrix(0.13333333,0,0,-0.13333333,0,257.33333)" />
    <path
       id="path38"
       d="m 774.102,110 h 160 v 16.0195 h -160 z"
       style="fill:#000000;fill-opacity:1;fill-rule:nonzero;stroke:#000000;stroke-width:8;stroke-linecap:square;stroke-linejoin:miter;stroke-miterlimit:4;stroke-dasharray:none;stroke-opacity:1"
       transform="matrix(0.13333333,0,0,-0.13333333,0,257.33333)" />
    <path
       id="path39"
       d="m 1654.1,930 c 0,-441.84 -358.16,-800 -799.998,-800 -441.801,0 -800.0004,358.16 -800.0004,800 0,441.84 358.1994,800 800.0004,800 441.838,0 799.998,-358.16 799.998,-800 z"
       style="fill:none;stroke:#000000;stroke-width:8;stroke-linecap:butt;stroke-linejoin:miter;stroke-miterlimit:4;stroke-dasharray:none;stroke-opacity:1"
       transform="matrix(0.13333333,0,0,-0.13333333,0,257.33333)" />
    <path
       id="path40"
       d="m 784.801,926.988 c 45.859,3.992 92,4.032 137.859,0.082"
       style="fill:none;stroke:#000000;stroke-width:8;stroke-linecap:square;stroke-linejoin:miter;stroke-miterlimit:4;stroke-dasharray:none;stroke-opacity:1"
       transform="matrix(0.13333333,0,0,-0.13333333,0,257.33333)" />
    <path
       id="path41"
       d="m 1313.36,785.039 c 38.01,-26.641 73.63,-56.519 106.44,-89.34"
       style="fill:none;stroke:#000000;stroke-width:8;stroke-linecap:square;stroke-linejoin:miter;stroke-miterlimit:4;stroke-dasharray:none;stroke-opacity:1"
       transform="matrix(0.13333333,0,0,-0.13333333,0,257.33333)" />
    <g
       id="g41"
       aria-label="dΩ&#10;dΩ"
       transform="matrix(1.3333333,0,0,1.3333333,104.8156,129.86667)">
      <path
         id="path42"
         d="M 5.0396672,-0.49179688 H 5.8599797 V 3.90625e-4 h -1.6875 V -0.77304688 C 4.0084172,-0.45957031 3.7916203,-0.228125 3.5279484,-0.08164063 3.2701359,0.06484375 2.9478703,0.14101562 2.5670109,0.14101562 c -0.618164,0 -1.1220703,-0.24023437 -1.5117187,-0.7265625 C 0.67150313,-1.0777344 0.48107344,-1.7134766 0.48107344,-2.4957031 c 0,-0.7792969 0.19042969,-1.4121094 0.57421876,-1.8984375 0.3896484,-0.4833985 0.8935547,-0.7265625 1.5117187,-0.7265625 0.3808594,0 0.703125,0.076172 0.9609375,0.2226562 0.2636719,0.1494141 0.4804688,0.3808594 0.6445313,0.6914063 V -6.7964844 H 3.3638859 V -7.2886719 H 5.0396672 Z M 4.1724797,-2.2496094 v -0.4921875 c 0,-0.5917969 -0.1142578,-1.0458984 -0.3398438,-1.359375 -0.2285156,-0.3193359 -0.5595703,-0.4804687 -0.9960937,-0.4804687 -0.4453125,0 -0.7822266,0.1757812 -1.0078125,0.5273437 -0.2285156,0.3515625 -0.3398438,0.8730469 -0.3398438,1.5585938 0,0.6884765 0.1113282,1.2128906 0.3398438,1.57031247 0.2255859,0.3515625 0.5625,0.52734375 1.0078125,0.52734375 0.4365234,0 0.7675781,-0.15527343 0.9960937,-0.46875 0.225586,-0.31933592 0.3398438,-0.77929692 0.3398438,-1.38281252 z m 0,0"
         style="fill:#000000;fill-opacity:1;fill-rule:nonzero;stroke:none" />
      <path
         id="path43"
         d="m 9.9175969,-0.74960938 h 0.8320311 c 0.483399,0 0.811524,-0.0585938 0.984375,-0.17578125 0.169922,-0.12304687 0.310547,-0.33398437 0.421875,-0.63281247 h 0.164063 L 11.827753,3.90625e-4 H 9.3902531 L 9.8941594,-1.5347656 c 0.7734376,-0.076172 1.3388676,-0.459961 1.6992186,-1.1484375 0.366211,-0.6855469 0.550781,-1.3535157 0.550781,-2.0039063 0,-0.4130859 -0.137695,-0.7675781 -0.410156,-1.0664062 -0.266601,-0.2958985 -0.618164,-0.4453125 -1.054687,-0.4453125 -0.477539,0 -0.9199222,0.140625 -1.3242191,0.421875 -0.4072266,0.2753906 -0.7382813,0.6855468 -0.9960938,1.2304687 -0.2519531,0.5390625 -0.375,1.0722656 -0.375,1.59375 0,0.7587891 0.366211,1.2304688 1.1015625,1.4179688 L 8.5933781,3.90625e-4 H 6.2730656 L 6.6949406,-1.5582031 h 0.1757813 c -0.046875,0.1171875 -0.070312,0.2285156 -0.070312,0.328125 0,0.1347656 0.049805,0.24609372 0.1523437,0.33984372 0.099609,0.09375 0.3310547,0.140625 0.6914063,0.140625 h 0.890625 l 0.164062,-0.51562502 c -0.515625,-0.1318359 -0.9257813,-0.3808594 -1.2304688,-0.75 -0.2988281,-0.375 -0.4453125,-0.7763672 -0.4453125,-1.2070312 0,-0.5214844 0.1669922,-1.0576172 0.5039063,-1.6054688 0.3427734,-0.5449219 0.8085937,-0.9609375 1.3945312,-1.2421875 0.5917969,-0.2871094 1.2070309,-0.4335937 1.8398439,-0.4335937 0.726562,0 1.294922,0.2050781 1.710937,0.609375 0.413086,0.4072265 0.621094,0.9082031 0.621094,1.5 0,0.75 -0.266601,1.4355468 -0.796875,2.0507812 -0.524414,0.6181641 -1.262695,0.9902344 -2.214844,1.1132813 z m 0,0"
         style="fill:#000000;fill-opacity:1;fill-rule:nonzero;stroke:none" />
      <path
         id="path44"
         d="m 61.037714,18.108789 h 0.820313 v 0.492188 h -1.6875 v -0.773438 c -0.164063,0.313477 -0.38086,0.544922 -0.644532,0.691406 -0.257812,0.146485 -0.580078,0.222657 -0.960937,0.222657 -0.618164,0 -1.12207,-0.240235 -1.511719,-0.726563 -0.383789,-0.492187 -0.574219,-1.12793 -0.574219,-1.910156 0,-0.779297 0.19043,-1.41211 0.574219,-1.898438 0.389649,-0.483398 0.893555,-0.726562 1.511719,-0.726562 0.380859,0 0.703125,0.07617 0.960937,0.222656 0.263672,0.149414 0.480469,0.380859 0.644532,0.691406 v -2.589843 h -0.808594 v -0.492188 h 1.675781 z m -0.867187,-1.757812 v -0.492188 c 0,-0.591797 -0.114258,-1.045898 -0.339844,-1.359375 -0.228516,-0.319336 -0.55957,-0.480469 -0.996094,-0.480469 -0.445312,0 -0.782226,0.175782 -1.007812,0.527344 -0.228516,0.351563 -0.339844,0.873047 -0.339844,1.558594 0,0.688476 0.111328,1.21289 0.339844,1.570312 0.225586,0.351563 0.5625,0.527344 1.007812,0.527344 0.436524,0 0.767578,-0.155273 0.996094,-0.46875 0.225586,-0.319336 0.339844,-0.779297 0.339844,-1.382812 z m 0,0"
         style="fill:#000000;fill-opacity:1;fill-rule:nonzero;stroke:none" />
      <path
         id="path45"
         d="m 65.918573,17.850977 h 0.832032 c 0.483398,0 0.811523,-0.05859 0.984375,-0.175782 0.169922,-0.123047 0.310547,-0.333984 0.421875,-0.632812 h 0.164062 l -0.492187,1.558594 h -2.4375 l 0.503906,-1.535157 c 0.773437,-0.07617 1.338867,-0.459961 1.699219,-1.148437 0.366211,-0.685547 0.550781,-1.353516 0.550781,-2.003906 0,-0.413086 -0.137695,-0.767579 -0.410156,-1.066407 -0.266602,-0.295898 -0.618164,-0.445312 -1.054688,-0.445312 -0.477539,0 -0.919922,0.140625 -1.324219,0.421875 -0.407226,0.27539 -0.738281,0.685547 -0.996093,1.230469 -0.251953,0.539062 -0.375,1.072265 -0.375,1.59375 0,0.758789 0.366211,1.230468 1.101562,1.417968 l -0.492187,1.535157 h -2.320313 l 0.421875,-1.558594 h 0.175781 c -0.04687,0.117187 -0.07031,0.228515 -0.07031,0.328125 0,0.134765 0.0498,0.246094 0.152344,0.339844 0.09961,0.09375 0.331054,0.140625 0.691406,0.140625 h 0.890625 l 0.164062,-0.515625 c -0.515625,-0.131836 -0.925781,-0.38086 -1.230468,-0.75 -0.298828,-0.375 -0.445313,-0.776368 -0.445313,-1.207032 0,-0.521484 0.166992,-1.057617 0.503906,-1.605468 0.342774,-0.544922 0.808594,-0.960938 1.394532,-1.242188 0.591797,-0.287109 1.207031,-0.433594 1.839843,-0.433594 0.726563,0 1.294922,0.205078 1.710938,0.609375 0.413086,0.407227 0.621094,0.908203 0.621094,1.5 0,0.75 -0.266602,1.435547 -0.796875,2.050782 -0.524414,0.618164 -1.262696,0.990234 -2.214844,1.113281 z m 0,0"
         style="fill:#000000;fill-opacity:1;fill-rule:nonzero;stroke:none" />
    </g>
    <path
       id="path46"
       d="M 854.102,730 C 995.199,730 1131.72,680.309 1239.8,589.609"
       style="fill:none;stroke:#000000;stroke-width:8;stroke-linecap:square;stroke-linejoin:miter;stroke-miterlimit:4;stroke-dasharray:none;stroke-opacity:1"
       transform="matrix(0.13333333,0,0,-0.13333333,0,257.33333)" />
    <path
       id="path47"
       d="M 854.102,130 V 770"
       style="fill:none;stroke:#000000;stroke-width:8;stroke-linecap:square;stroke-linejoin:miter;stroke-miterlimit:4;stroke-dasharray:none;stroke-opacity:1"
       transform="matrix(0.13333333,0,0,-0.13333333,0,257.33333)" />
    <path
       id="path48"
       d="M 854.102,130 1265.51,620.27"
       style="fill:none;stroke:#000000;stroke-width:8;stroke-linecap:square;stroke-linejoin:miter;stroke-miterlimit:4;stroke-dasharray:none;stroke-opacity:1"
       transform="matrix(0.13333333,0,0,-0.13333333,0,257.33333)" />
    <g
       id="g48"
       aria-label="θ&#10;IdΩdA"
       transform="matrix(1.3333333,0,0,1.3333333,140.28267,161.6)">
      <path
         id="path49"
         d="m 3.5614375,-6.6667969 c 0.8671875,0 1.3007812,0.5976563 1.3007812,1.7929688 0,0.7207031 -0.1757812,1.5175781 -0.5273437,2.390625 -0.3457031,0.8671875 -0.7441406,1.52050779 -1.1953125,1.95703123 -0.4541016,0.43066406 -0.9199219,0.64453125 -1.3945313,0.64453125 -0.3925781,0 -0.711914,-0.16699219 -0.96093745,-0.50390625 C 0.54092969,-0.71953125 0.4208125,-1.1355469 0.4208125,-1.6277344 c 0,-0.3193359 0.0703125,-0.7617187 0.2109375,-1.3242187 0.140625,-0.5625 0.3515625,-1.1279297 0.6328125,-1.6992188 0.28125,-0.5771484 0.6328125,-1.0576172 1.0546875,-1.4414062 0.421875,-0.3808594 0.8349609,-0.5742188 1.2421875,-0.5742188 z m 0.2929687,3.1875 c 0.2109375,-0.65625 0.3164063,-1.2949218 0.3164063,-1.921875 0,-0.7089843 -0.2050781,-1.0664062 -0.609375,-1.0664062 -0.3515625,0 -0.7001953,0.2695312 -1.0429688,0.8085937 -0.336914,0.5332032 -0.6445312,1.2597657 -0.9257812,2.1796875 z m -2.3554687,0.2695313 c -0.2900391,0.899414 -0.4335938,1.5878906 -0.4335938,2.0625 0,0.31347654 0.061524,0.57128904 0.1875,0.77343748 0.131836,0.19628906 0.3222657,0.29296875 0.5742188,0.29296875 0.2109375,0 0.4042969,-0.08203125 0.5859375,-0.24609375 0.1875,-0.16992188 0.4042969,-0.50976563 0.65625,-1.01953128 0.2490234,-0.515625 0.4833984,-1.1367187 0.703125,-1.8632812 z m 0,0"
         style="fill:#000000;fill-opacity:1;fill-rule:nonzero;stroke:none" />
      <path
         id="path50"
         d="m -34.5245,-113.69121 h 0.890625 v 0.49219 h -2.730469 v -0.49219 h 0.890625 v -6 h -0.890625 v -0.50391 h 2.730469 v 0.50391 H -34.5245 Z m 9.518555,0 h 0.820312 v 0.49219 h -1.6875 v -0.77344 c -0.164062,0.31348 -0.380859,0.54492 -0.644531,0.69141 -0.257813,0.14648 -0.580078,0.22265 -0.960938,0.22265 -0.618164,0 -1.12207,-0.24023 -1.511718,-0.72656 -0.383789,-0.49219 -0.574219,-1.12793 -0.574219,-1.91016 0,-0.77929 0.19043,-1.41211 0.574219,-1.89843 0.389648,-0.4834 0.893554,-0.72657 1.511718,-0.72657 0.38086,0 0.703125,0.0762 0.960938,0.22266 0.263672,0.14941 0.480469,0.38086 0.644531,0.69141 v -2.58985 h -0.808594 v -0.49219 h 1.675782 z m -0.867188,-1.75781 v -0.49219 c 0,-0.5918 -0.114258,-1.0459 -0.339844,-1.35938 -0.228515,-0.31933 -0.55957,-0.48046 -0.996093,-0.48046 -0.445313,0 -0.782227,0.17578 -1.007813,0.52734 -0.228515,0.35156 -0.339844,0.87305 -0.339844,1.55859 0,0.68848 0.111329,1.21289 0.339844,1.57032 0.225586,0.35156 0.5625,0.52734 1.007813,0.52734 0.436523,0 0.767578,-0.15527 0.996093,-0.46875 0.225586,-0.31934 0.339844,-0.7793 0.339844,-1.38281 z m 0,0"
         style="fill:#000000;fill-opacity:1;fill-rule:nonzero;stroke:none" />
      <path
         id="path51"
         d="m -20.128016,-113.94902 h 0.832032 c 0.483398,0 0.811523,-0.0586 0.984375,-0.17578 0.169921,-0.12305 0.310546,-0.33399 0.421875,-0.63282 h 0.164062 l -0.492187,1.5586 h -2.4375 l 0.503906,-1.53516 c 0.773437,-0.0762 1.338867,-0.45996 1.699219,-1.14844 0.366211,-0.68554 0.550781,-1.35351 0.550781,-2.0039 0,-0.41309 -0.137695,-0.76758 -0.410156,-1.06641 -0.266602,-0.2959 -0.618164,-0.44531 -1.054688,-0.44531 -0.477539,0 -0.919922,0.14062 -1.324219,0.42187 -0.407226,0.27539 -0.738281,0.68555 -0.996093,1.23047 -0.251954,0.53906 -0.375,1.07227 -0.375,1.59375 0,0.75879 0.366211,1.23047 1.101562,1.41797 l -0.492187,1.53516 h -2.320313 l 0.421875,-1.5586 h 0.175781 c -0.04687,0.11719 -0.07031,0.22852 -0.07031,0.32813 0,0.13476 0.0498,0.24609 0.152344,0.33984 0.09961,0.0937 0.331054,0.14063 0.691406,0.14063 h 0.890625 l 0.164062,-0.51563 c -0.515625,-0.13183 -0.925781,-0.38086 -1.230468,-0.75 -0.298829,-0.375 -0.445313,-0.77637 -0.445313,-1.20703 0,-0.52148 0.166992,-1.05762 0.503906,-1.60547 0.342774,-0.54492 0.808594,-0.96094 1.394532,-1.24219 0.591796,-0.28711 1.207031,-0.43359 1.839843,-0.43359 0.726563,0 1.294922,0.20508 1.710938,0.60938 0.413086,0.40722 0.621094,0.9082 0.621094,1.5 0,0.75 -0.266602,1.43554 -0.796875,2.05078 -0.524414,0.61816 -1.262696,0.99023 -2.214844,1.11328 z m 0,0"
         style="fill:#000000;fill-opacity:1;fill-rule:nonzero;stroke:none" />
      <path
         id="path52"
         d="m -9.9883672,-113.69121 h 0.8203125 v 0.49219 h -1.6875003 v -0.77344 c -0.164062,0.31348 -0.380859,0.54492 -0.644531,0.69141 -0.257812,0.14648 -0.580078,0.22265 -0.960937,0.22265 -0.618165,0 -1.122071,-0.24023 -1.511719,-0.72656 -0.383789,-0.49219 -0.574219,-1.12793 -0.574219,-1.91016 0,-0.77929 0.19043,-1.41211 0.574219,-1.89843 0.389648,-0.4834 0.893554,-0.72657 1.511719,-0.72657 0.380859,0 0.703125,0.0762 0.960937,0.22266 0.263672,0.14941 0.480469,0.38086 0.644531,0.69141 v -2.58985 h -0.808593 v -0.49219 h 1.6757808 z m -0.8671878,-1.75781 v -0.49219 c 0,-0.5918 -0.114258,-1.0459 -0.339843,-1.35938 -0.228516,-0.31933 -0.559571,-0.48046 -0.996094,-0.48046 -0.445313,0 -0.782227,0.17578 -1.007813,0.52734 -0.228515,0.35156 -0.339843,0.87305 -0.339843,1.55859 0,0.68848 0.111328,1.21289 0.339843,1.57032 0.225586,0.35156 0.5625,0.52734 1.007813,0.52734 0.436523,0 0.767578,-0.15527 0.996094,-0.46875 0.225585,-0.31934 0.339843,-0.7793 0.339843,-1.38281 z m 3.893555,-0.28125 h 2.5664062 l -1.2773437,-3.32813 z m -1.9804688,2.53125 v -0.49219 h 0.6210938 l 2.484375,-6.50391 h 0.796875 l 2.4960937,6.50391 h 0.6796875 v 0.49219 h -2.5429687 v -0.49219 h 0.7851562 l -0.5859375,-1.54688 H -7.1495 l -0.5859375,1.54688 h 0.7617187 v 0.49219 z m 0,0"
         style="fill:#000000;fill-opacity:1;fill-rule:nonzero;stroke:none" />
    </g>
    <path
       id="path53"
       d="m 854.102,1730 v 80"
       style="fill:none;stroke:#000000;stroke-width:8;stroke-linecap:square;stroke-linejoin:miter;stroke-miterlimit:4;stroke-dasharray:none;stroke-opacity:1"
       transform="matrix(0.13333333,0,0,-0.13333333,0,257.33333)" />
    <path
       id="path54"
       d="m 854.102,1830 -8.981,-40 h 18 z"
       style="fill:#000000;fill-opacity:1;fill-rule:evenodd;stroke:#000000;stroke-width:8;stroke-linecap:butt;stroke-linejoin:miter;stroke-miterlimit:4;stroke-dasharray:none;stroke-opacity:1"
       transform="matrix(0.13333333,0,0,-0.13333333,0,257.33333)" />
    <path
       id="path55"
       d="m 1644.64,1071.84 51.45,61.29"
       style="fill:none;stroke:#000000;stroke-width:8.00001;stroke-linecap:square;stroke-linejoin:miter;stroke-miterlimit:4;stroke-dasharray:none;stroke-opacity:1"
       transform="matrix(0.13333333,0,0,-0.13333333,0,257.33333)" />
    <path
       id="path56"
       d="m 1708.95,1148.44 -32.62,-24.89 13.79,-11.56 z"
       style="fill:#000000;fill-opacity:1;fill-rule:evenodd;stroke:none"
       transform="matrix(0.13333333,0,0,-0.13333333,0,257.33333)" />
    <path
       id="path57"
       d="m 1708.95,1148.43 -32.62,-24.88 13.78,-11.56 z"
       style="fill:none;stroke:#000000;stroke-width:8.00001;stroke-linecap:butt;stroke-linejoin:miter;stroke-miterlimit:4;stroke-dasharray:none;stroke-opacity:1"
       transform="matrix(0.13333333,0,0,-0.13333333,0,257.33333)" />
    <g
       id="g57"
       aria-label="dΩdAcos()θI&#10;dA"
       transform="matrix(1.3333333,0,0,1.3333333,275.008,101.33333)">
      <path
         id="path58"
         d="m 5.0389219,-0.49316406 h 0.8203125 v 0.4921874975 h -1.6875 V -0.77441406 C 4.0076719,-0.4609375 3.790875,-0.22949219 3.5272031,-0.08300781 3.2693906,0.06347656 2.947125,0.13964844 2.5662656,0.13964844 c -0.618164,0 -1.1220703,-0.24023438 -1.5117187,-0.7265625 C 0.67075781,-1.0791016 0.48032813,-1.7148437 0.48032813,-2.4970703 c 0,-0.7792969 0.19042968,-1.4121094 0.57421877,-1.8984375 0.3896484,-0.4833984 0.8935547,-0.7265625 1.5117187,-0.7265625 0.3808594,0 0.703125,0.076172 0.9609375,0.2226562 C 3.790875,-4.75 4.0076719,-4.5185547 4.1717344,-4.2080078 V -6.7978516 H 3.3631406 V -7.2900391 H 5.0389219 Z M 4.1717344,-2.2509766 v -0.4921875 c 0,-0.5917968 -0.1142578,-1.0458984 -0.3398438,-1.359375 C 3.603375,-4.421875 3.2723203,-4.5830078 2.8357969,-4.5830078 c -0.4453125,0 -0.7822266,0.1757812 -1.0078125,0.5273437 -0.2285156,0.3515625 -0.3398438,0.8730469 -0.3398438,1.5585938 0,0.6884766 0.1113282,1.2128906 0.3398438,1.57031249 0.2255859,0.3515625 0.5625,0.52734375 1.0078125,0.52734375 0.4365234,0 0.7675781,-0.15527344 0.9960937,-0.46875 C 4.0574766,-1.1875 4.1717344,-1.6474609 4.1717344,-2.2509766 Z m 0,0"
         style="fill:#000000;fill-opacity:1;fill-rule:nonzero;stroke:none" />
      <path
         id="path59"
         d="m 9.9197813,-0.75097656 h 0.8320317 c 0.483398,0 0.811523,-0.0585938 0.984375,-0.17578125 0.169921,-0.12304689 0.310546,-0.33398439 0.421875,-0.63281249 h 0.164062 L 11.829938,-9.765625e-4 H 9.3924375 L 9.8963438,-1.5361328 c 0.7734372,-0.076172 1.3388672,-0.4599609 1.6992192,-1.1484375 0.36621,-0.6855469 0.550781,-1.3535156 0.550781,-2.0039063 0,-0.4130859 -0.137696,-0.7675781 -0.410156,-1.0664062 -0.266602,-0.2958984 -0.618165,-0.4453125 -1.054688,-0.4453125 -0.477539,0 -0.9199219,0.140625 -1.3242187,0.421875 -0.4072266,0.2753906 -0.7382813,0.6855469 -0.9960938,1.2304687 -0.2519531,0.5390625 -0.375,1.0722657 -0.375,1.59375 0,0.7587891 0.3662109,1.2304688 1.1015625,1.4179688 L 8.5955625,-9.765625e-4 H 6.27525 L 6.697125,-1.5595703 h 0.1757813 c -0.046875,0.1171875 -0.070312,0.2285156 -0.070312,0.328125 0,0.1347656 0.049805,0.24609374 0.1523437,0.33984374 0.099609,0.09375 0.3310547,0.140625 0.6914063,0.140625 h 0.890625 l 0.164062,-0.51562504 c -0.515625,-0.1318359 -0.9257813,-0.3808593 -1.2304688,-0.75 -0.2988281,-0.375 -0.4453125,-0.7763671 -0.4453125,-1.2070312 0,-0.5214844 0.1669922,-1.0576172 0.5039063,-1.6054688 0.3427734,-0.5449218 0.8085937,-0.9609375 1.3945312,-1.2421875 0.5917969,-0.2871093 1.2070315,-0.4335937 1.8398435,-0.4335937 0.726563,0 1.294922,0.2050781 1.710938,0.609375 0.413086,0.4072266 0.621094,0.9082031 0.621094,1.5 0,0.75 -0.266602,1.4355469 -0.796875,2.0507812 -0.524415,0.6181641 -1.262696,0.9902344 -2.214844,1.1132813 z m 0,0"
         style="fill:#000000;fill-opacity:1;fill-rule:nonzero;stroke:none" />
      <path
         id="path60"
         d="m 20.0565,-0.49316406 h 0.820313 v 0.4921874975 h -1.6875 V -0.77441406 c -0.164063,0.31347656 -0.38086,0.54492187 -0.644532,0.69140625 -0.257812,0.14648437 -0.580078,0.22265625 -0.960937,0.22265625 -0.618164,0 -1.122071,-0.24023438 -1.511719,-0.7265625 -0.383789,-0.49218754 -0.574219,-1.12792964 -0.574219,-1.91015624 0,-0.7792969 0.19043,-1.4121094 0.574219,-1.8984375 0.389648,-0.4833984 0.893555,-0.7265625 1.511719,-0.7265625 0.380859,0 0.703125,0.076172 0.960937,0.2226562 0.263672,0.1494141 0.480469,0.3808594 0.644532,0.6914063 V -6.7978516 H 18.380719 V -7.2900391 H 20.0565 Z M 19.189313,-2.2509766 v -0.4921875 c 0,-0.5917968 -0.114258,-1.0458984 -0.339844,-1.359375 -0.228516,-0.3193359 -0.559571,-0.4804687 -0.996094,-0.4804687 -0.445312,0 -0.782227,0.1757812 -1.007812,0.5273437 -0.228516,0.3515625 -0.339844,0.8730469 -0.339844,1.5585938 0,0.6884766 0.111328,1.2128906 0.339844,1.57031249 0.225585,0.3515625 0.5625,0.52734375 1.007812,0.52734375 0.436523,0 0.767578,-0.15527344 0.996094,-0.46875 C 19.075055,-1.1875 19.189313,-1.6474609 19.189313,-2.2509766 Z m 3.893554,-0.28125 h 2.566406 L 24.37193,-5.8603516 Z M 21.102398,-9.765625e-4 V -0.49316406 h 0.621094 l 2.484375,-6.50390624 h 0.796875 l 2.496094,6.50390624 h 0.679687 V -9.765625e-4 H 25.637555 V -0.49316406 h 0.785156 L 25.836773,-2.0400391 h -2.941406 l -0.585937,1.54687504 h 0.761718 v 0.4921874975 z m 0,0"
         style="fill:#000000;fill-opacity:1;fill-rule:nonzero;stroke:none" />
      <path
         id="path61"
         d="m -25.924945,-1.5009766 c -0.117188,0.53320316 -0.351563,0.93750004 -0.703125,1.21875004 -0.345703,0.2812499975 -0.793946,0.421875 -1.347657,0.421875 -0.720703,0 -1.300781,-0.23730469 -1.746093,-0.71484375 -0.439453,-0.48339839 -0.65625,-1.12499999 -0.65625,-1.92187499 0,-0.796875 0.216797,-1.4326172 0.65625,-1.9101563 0.445312,-0.4746093 1.02539,-0.7148437 1.746093,-0.7148437 0.319336,0 0.635743,0.041016 0.949219,0.1171875 0.310547,0.070312 0.624024,0.1816406 0.9375,0.328125 v 1.2773437 h -0.503906 c -0.06445,-0.4365234 -0.205078,-0.7529296 -0.421875,-0.9492187 -0.219727,-0.2021484 -0.536133,-0.3046875 -0.949219,-0.3046875 -0.46289,0 -0.814453,0.1816406 -1.054687,0.5390625 -0.234375,0.3603516 -0.351563,0.8994141 -0.351563,1.6171875 0,0.7207031 0.117188,1.2626953 0.351563,1.62890624 0.234375,0.36035156 0.585937,0.5390625 1.054687,0.5390625 0.375,0 0.670899,-0.0966797 0.890625,-0.29296875 0.225586,-0.19335938 0.37793,-0.48632809 0.457031,-0.87890629 z m 3.325195,1.17187504 c 0.46875,0 0.820313,-0.18164063 1.054688,-0.55078125 0.234375,-0.36621089 0.351562,-0.90527339 0.351562,-1.61718749 0,-0.7089844 -0.117187,-1.2451172 -0.351562,-1.6054688 -0.234375,-0.3662109 -0.585938,-0.5507812 -1.054688,-0.5507812 -0.462891,0 -0.808594,0.1845703 -1.042969,0.5507812 -0.234375,0.3603516 -0.351562,0.8964844 -0.351562,1.6054688 0,0.7119141 0.117187,1.2509766 0.351562,1.61718749 0.240235,0.36914062 0.588867,0.55078125 1.042969,0.55078125 z m 0,0.46875 c -0.720703,0 -1.300781,-0.23730469 -1.746094,-0.71484375 -0.439453,-0.48339839 -0.65625,-1.12499999 -0.65625,-1.92187499 0,-0.7880859 0.216797,-1.4208984 0.65625,-1.8984375 0.436524,-0.4833984 1.019532,-0.7265625 1.746094,-0.7265625 0.732422,0 1.318359,0.2431641 1.757813,0.7265625 0.436523,0.4775391 0.65625,1.1103516 0.65625,1.8984375 0,0.796875 -0.219727,1.4384766 -0.65625,1.92187499 -0.439454,0.47753906 -1.025391,0.71484375 -1.757813,0.71484375 z m 3.436523,-0.421875 V -1.4423828 h 0.492188 c 0.01465,0.375 0.131836,0.65624999 0.351562,0.84374999 0.216797,0.18164062 0.544922,0.26953125 0.984375,0.26953125 0.38086,0 0.673829,-0.0703125 0.878907,-0.2109375 0.202148,-0.14648438 0.304687,-0.36328125 0.304687,-0.64453124 0,-0.2167969 -0.07617,-0.3925781 -0.222656,-0.5273438 -0.149414,-0.1318359 -0.462891,-0.2753906 -0.9375,-0.4335937 l -0.621094,-0.2109375 c -0.430664,-0.1318359 -0.74414,-0.2988281 -0.9375,-0.5039063 -0.1875,-0.2109375 -0.28125,-0.4746093 -0.28125,-0.796875 0,-0.4511718 0.164063,-0.8085937 0.492188,-1.0664062 0.333984,-0.2636719 0.799804,-0.3984375 1.394531,-0.3984375 0.263672,0 0.541992,0.035156 0.832031,0.1054687 0.28711,0.070312 0.588867,0.1728516 0.902344,0.3046875 v 1.078125 h -0.503906 c -0.0088,-0.3193359 -0.123047,-0.5683593 -0.339844,-0.75 -0.210938,-0.1787109 -0.500977,-0.2695312 -0.867188,-0.2695312 -0.360351,0 -0.632812,0.067383 -0.820312,0.1992187 -0.1875,0.1259766 -0.28125,0.3134766 -0.28125,0.5625 0,0.2109375 0.07031,0.3837891 0.210937,0.515625 0.140625,0.1259766 0.421875,0.2519532 0.84375,0.375 l 0.691407,0.2109375 c 0.46875,0.1494141 0.802734,0.3369141 1.007812,0.5625 0.210938,0.2197266 0.316406,0.5009766 0.316406,0.84375 0,0.46875004 -0.18164,0.84082035 -0.539062,1.11328129 -0.360352,0.27246094 -0.855469,0.41015625 -1.488281,0.41015625 -0.322266,0 -0.638672,-0.0351563 -0.949219,-0.10546875 -0.304688,-0.0703125 -0.609375,-0.17578125 -0.914063,-0.31640625 z m 7.444336,1.78124996 c -0.758789,-0.3457031 -1.333007,-0.88476559 -1.722656,-1.61718746 -0.383789,-0.74121094 -0.574219,-1.66699214 -0.574219,-2.77734374 0,-1.1162109 0.19043,-2.0419922 0.574219,-2.7773438 0.389649,-0.7412109 0.963867,-1.2802734 1.722656,-1.6171875 v 0.4570313 c -0.477539,0.328125 -0.820312,0.7939453 -1.03125,1.3945312 -0.210937,0.6035157 -0.316406,1.4501954 -0.316406,2.5429688 0,1.0869141 0.105469,1.93066405 0.316406,2.53124999 0.210938,0.60058594 0.553711,1.06640625 1.03125,1.39453121 z m 5.337891,0 v -0.46875 c 0.4833984,-0.32812496 0.8320313,-0.79394527 1.0429688,-1.39453121 0.2109375,-0.60058594 0.3164062,-1.44433589 0.3164062,-2.53124999 0,-1.0927734 -0.1054687,-1.9394531 -0.3164062,-2.5429688 C -5.5489687,-6.0390625 -5.8976016,-6.5048828 -6.381,-6.8330078 v -0.4570313 c 0.7646484,0.3369141 1.3388672,0.8759766 1.7226563,1.6171875 0.3896484,0.7353516 0.5859375,1.6611329 0.5859375,2.7773438 0,1.1103516 -0.1962891,2.0361328 -0.5859375,2.77734374 C -5.0421328,0.61425781 -5.6163516,1.1533203 -6.381,1.4990234 Z m 0,0"
         style="fill:#000000;fill-opacity:1;fill-rule:nonzero;stroke:none" />
      <path
         id="path62"
         d="m -8.4933047,-6.6689453 c 0.8671875,0 1.3007813,0.5976562 1.3007813,1.7929687 0,0.7207032 -0.1757813,1.5175782 -0.5273438,2.390625 -0.3457031,0.8671875 -0.7441406,1.52050785 -1.1953125,1.95703129 -0.4541015,0.43066406 -0.9199219,0.64453125 -1.3945313,0.64453125 -0.392578,0 -0.711914,-0.16699219 -0.960937,-0.50390625 -0.243164,-0.33398438 -0.363282,-0.74999999 -0.363282,-1.24218749 0,-0.3193359 0.07031,-0.7617188 0.210938,-1.3242188 0.140625,-0.5625 0.351562,-1.1279296 0.632812,-1.6992187 0.28125,-0.5771484 0.632813,-1.0576172 1.0546878,-1.4414063 0.421875,-0.3808593 0.834961,-0.5742187 1.2421875,-0.5742187 z m 0.2929688,3.1875 c 0.2109375,-0.65625 0.3164062,-1.2949219 0.3164062,-1.921875 0,-0.7089844 -0.2050781,-1.0664063 -0.609375,-1.0664063 -0.3515625,0 -0.7001953,0.2695313 -1.0429687,0.8085938 -0.3369141,0.5332031 -0.6445316,1.2597656 -0.9257816,2.1796875 z m -2.3554691,0.2695312 c -0.290039,0.8994141 -0.433593,1.5878907 -0.433593,2.0625 0,0.3134766 0.06152,0.5712891 0.1875,0.77343754 0.131836,0.19628906 0.322265,0.29296875 0.574218,0.29296875 0.210938,0 0.4042972,-0.08203125 0.5859378,-0.24609375 0.1875,-0.16992188 0.4042969,-0.50976563 0.65625,-1.01953124 0.2490235,-0.515625 0.4833985,-1.1367188 0.703125,-1.8632813 z m 0,0"
         style="fill:#000000;fill-opacity:1;fill-rule:nonzero;stroke:none" />
      <path
         id="path63"
         d="m -32.689594,-0.49316406 h 0.890625 v 0.4921874975 h -2.730468 V -0.49316406 h 0.890625 V -6.4931641 h -0.890625 v -0.5039062 h 2.730468 v 0.5039062 h -0.890625 z M -122.2062,115.50781 h 0.82032 V 116 h -1.6875 v -0.77344 c -0.16407,0.31348 -0.38086,0.54492 -0.64453,0.69141 -0.25782,0.14648 -0.58008,0.22266 -0.96094,0.22266 -0.61817,0 -1.12207,-0.24024 -1.51172,-0.72657 -0.38379,-0.49218 -0.57422,-1.12793 -0.57422,-1.91015 0,-0.7793 0.19043,-1.41211 0.57422,-1.89844 0.38965,-0.4834 0.89355,-0.72656 1.51172,-0.72656 0.38086,0 0.70312,0.0762 0.96094,0.22265 0.26367,0.14942 0.48046,0.38086 0.64453,0.69141 v -2.58984 h -0.8086 v -0.49219 h 1.67578 z m -0.86718,-1.75781 v -0.49219 c 0,-0.59179 -0.11426,-1.0459 -0.33985,-1.35937 -0.22851,-0.31934 -0.55957,-0.48047 -0.99609,-0.48047 -0.44531,0 -0.78223,0.17578 -1.00781,0.52734 -0.22852,0.35157 -0.33985,0.87305 -0.33985,1.5586 0,0.68847 0.11133,1.21289 0.33985,1.57031 0.22558,0.35156 0.5625,0.52734 1.00781,0.52734 0.43652,0 0.76758,-0.15527 0.99609,-0.46875 0.22559,-0.31933 0.33985,-0.77929 0.33985,-1.38281 z m 3.89355,-0.28125 h 2.56641 l -1.27735,-3.32812 z M -121.1603,116 v -0.49219 h 0.6211 l 2.48437,-6.5039 h 0.79688 l 2.49609,6.5039 h 0.67969 V 116 h -2.54297 v -0.49219 h 0.78516 l -0.58594,-1.54687 h -2.94141 l -0.58594,1.54687 h 0.76172 V 116 Z m 0,0"
         style="fill:#000000;fill-opacity:1;fill-rule:nonzero;stroke:none" />
    </g>
  </g>
</svg>
