<?xml version="1.0" encoding="UTF-8" standalone="no"?>
<!-- Created with Inkscape (http://www.inkscape.org/) -->

<svg
   version="1.1"
   id="svg2"
   width="2281.3333"
   height="613.33331"
   viewBox="0 0 2281.3333 613.33331"
   sodipodi:docname="sampling-pattern.eps"
   xmlns:inkscape="http://www.inkscape.org/namespaces/inkscape"
   xmlns:sodipodi="http://sodipodi.sourceforge.net/DTD/sodipodi-0.dtd"
   xmlns="http://www.w3.org/2000/svg"
   xmlns:svg="http://www.w3.org/2000/svg">
  <defs
     id="defs6">
    <clipPath
       clipPathUnits="userSpaceOnUse"
       id="clipPath18">
      <path
         d="M 0,0 H 17104 V 4599.33 H 0 Z"
         id="path16" />
    </clipPath>
  </defs>
  <sodipodi:namedview
     id="namedview4"
     pagecolor="#ffffff"
     bordercolor="#000000"
     borderopacity="0.25"
     inkscape:showpageshadow="2"
     inkscape:pageopacity="0.0"
     inkscape:pagecheckerboard="0"
     inkscape:deskcolor="#d1d1d1" />
  <g
     id="g8"
     inkscape:groupmode="layer"
     inkscape:label="ink_ext_XXXXXX"
     transform="matrix(1.3333333,0,0,-1.3333333,0,613.33333)">
    <g
       id="g10"
       transform="scale(0.1)">
      <g
         id="g12">
        <g
           id="g14"
           clip-path="url(#clipPath18)">
          <path
             d="M 983.34,1568.8 H 2927.52 V 3512.98 H 983.34 Z"
             style="fill:#f1f2f3;fill-opacity:1;fill-rule:evenodd;stroke:none"
             id="path20" />
          <path
             d="m 1584.29,2054.86 c 0.01,15.03 -2.99,30.07 -8.75,43.96 -5.74,13.89 -14.26,26.64 -24.9,37.27 -10.63,10.64 -23.37,19.15 -37.27,24.9 -13.89,5.76 -28.92,8.75 -43.96,8.74 -15.04,0.01 -30.07,-2.98 -43.96,-8.74 -13.9,-5.75 -26.64,-14.26 -37.27,-24.9 -10.64,-10.63 -19.15,-23.38 -24.9,-37.27 -5.76,-13.89 -8.75,-28.93 -8.74,-43.96 -0.01,-15.04 2.98,-30.07 8.74,-43.97 5.75,-13.89 14.26,-26.64 24.9,-37.26 10.63,-10.64 23.37,-19.16 37.27,-24.9 13.89,-5.77 28.92,-8.76 43.96,-8.75 15.04,-0.01 30.07,2.98 43.96,8.75 13.9,5.74 26.64,14.26 37.27,24.9 10.64,10.62 19.16,23.37 24.9,37.26 5.76,13.9 8.76,28.93 8.75,43.97 z"
             style="fill:#362682;fill-opacity:1;fill-rule:evenodd;stroke:none"
             id="path22" />
          <path
             d="m 2556.37,2054.85 c 0.01,15.04 -2.98,30.07 -8.75,43.96 -5.74,13.89 -14.26,26.64 -24.9,37.27 -10.63,10.63 -23.37,19.15 -37.27,24.9 -13.89,5.76 -28.92,8.75 -43.96,8.74 -15.04,0.01 -30.07,-2.98 -43.96,-8.74 -13.9,-5.75 -26.64,-14.27 -37.27,-24.9 -10.64,-10.63 -19.15,-23.38 -24.9,-37.27 -5.76,-13.89 -8.75,-28.92 -8.75,-43.96 0,-15.04 2.99,-30.07 8.75,-43.96 5.75,-13.9 14.26,-26.64 24.9,-37.27 10.63,-10.64 23.37,-19.16 37.27,-24.91 13.89,-5.76 28.92,-8.75 43.96,-8.74 15.04,-0.01 30.07,2.98 43.96,8.74 13.9,5.75 26.64,14.27 37.27,24.91 10.64,10.63 19.16,23.37 24.9,37.27 5.77,13.89 8.76,28.92 8.75,43.96 z"
             style="fill:#362682;fill-opacity:1;fill-rule:evenodd;stroke:none"
             id="path24" />
          <path
             d="m 1584.28,3026.93 c 0.01,15.03 -2.98,30.07 -8.75,43.96 -5.74,13.9 -14.26,26.64 -24.9,37.27 -10.63,10.64 -23.37,19.15 -37.27,24.9 -13.89,5.76 -28.92,8.75 -43.96,8.74 -15.04,0.01 -30.07,-2.98 -43.96,-8.74 -13.9,-5.75 -26.64,-14.26 -37.27,-24.9 -10.64,-10.63 -19.15,-23.37 -24.9,-37.27 -5.76,-13.89 -8.75,-28.93 -8.75,-43.96 0,-15.04 2.99,-30.07 8.75,-43.97 5.75,-13.89 14.26,-26.64 24.9,-37.26 10.63,-10.64 23.37,-19.16 37.27,-24.9 13.89,-5.77 28.92,-8.76 43.96,-8.75 15.04,-0.01 30.07,2.98 43.96,8.75 13.9,5.74 26.64,14.26 37.27,24.9 10.64,10.62 19.16,23.37 24.9,37.26 5.77,13.9 8.76,28.93 8.75,43.97 z"
             style="fill:#362682;fill-opacity:1;fill-rule:evenodd;stroke:none"
             id="path26" />
          <path
             d="m 2556.37,3026.93 c 0.01,15.03 -2.98,30.07 -8.75,43.96 -5.74,13.9 -14.26,26.64 -24.9,37.27 -10.63,10.64 -23.37,19.15 -37.27,24.9 -13.89,5.76 -28.92,8.75 -43.96,8.74 -15.04,0.01 -30.07,-2.98 -43.96,-8.74 -13.9,-5.75 -26.64,-14.26 -37.27,-24.9 -10.64,-10.63 -19.15,-23.37 -24.9,-37.27 -5.76,-13.89 -8.75,-28.93 -8.75,-43.96 0,-15.04 2.99,-30.07 8.75,-43.97 5.75,-13.89 14.26,-26.64 24.9,-37.26 10.63,-10.64 23.37,-19.16 37.27,-24.9 13.89,-5.77 28.92,-8.76 43.96,-8.75 15.04,-0.01 30.07,2.98 43.96,8.75 13.9,5.74 26.64,14.26 37.27,24.9 10.64,10.62 19.16,23.37 24.9,37.26 5.77,13.9 8.76,28.93 8.75,43.97 z"
             style="fill:#362682;fill-opacity:1;fill-rule:evenodd;stroke:none"
             id="path28" />
          <path
             d="m 3528.47,2054.86 c 0.01,15.03 -2.99,30.07 -8.75,43.96 -5.74,13.89 -14.26,26.64 -24.9,37.27 -10.63,10.64 -23.37,19.15 -37.27,24.9 -13.89,5.76 -28.92,8.75 -43.96,8.74 -15.04,0.01 -30.07,-2.98 -43.96,-8.74 -13.9,-5.75 -26.64,-14.26 -37.27,-24.9 -10.64,-10.63 -19.15,-23.38 -24.9,-37.27 -5.76,-13.89 -8.75,-28.93 -8.75,-43.96 0,-15.04 2.99,-30.07 8.75,-43.97 5.75,-13.89 14.26,-26.64 24.9,-37.26 10.63,-10.64 23.37,-19.16 37.27,-24.9 13.89,-5.77 28.92,-8.76 43.96,-8.75 15.04,-0.01 30.07,2.98 43.96,8.75 13.9,5.74 26.64,14.26 37.27,24.9 10.64,10.62 19.16,23.37 24.9,37.26 5.76,13.9 8.76,28.93 8.75,43.97 z"
             style="fill:#362682;fill-opacity:1;fill-rule:evenodd;stroke:none"
             id="path30" />
          <path
             d="m 3528.46,3026.93 c 0,15.03 -2.98,30.07 -8.75,43.96 -5.75,13.9 -14.26,26.64 -24.9,37.27 -10.63,10.64 -23.37,19.15 -37.27,24.9 -13.89,5.76 -28.92,8.75 -43.96,8.74 -15.04,0.01 -30.07,-2.98 -43.96,-8.74 -13.9,-5.75 -26.64,-14.26 -37.27,-24.9 -10.64,-10.63 -19.15,-23.37 -24.9,-37.27 -5.76,-13.89 -8.75,-28.93 -8.74,-43.96 -0.01,-15.04 2.98,-30.07 8.74,-43.97 5.75,-13.89 14.26,-26.64 24.9,-37.26 10.63,-10.64 23.37,-19.16 37.27,-24.9 13.89,-5.77 28.92,-8.76 43.96,-8.75 15.04,-0.01 30.07,2.98 43.96,8.75 13.9,5.74 26.64,14.26 37.27,24.9 10.64,10.62 19.15,23.37 24.9,37.26 5.77,13.9 8.75,28.93 8.75,43.97 z"
             style="fill:#362682;fill-opacity:1;fill-rule:evenodd;stroke:none"
             id="path32" />
          <path
             d="m 612.191,2054.85 c 0.012,15.04 -2.98,30.07 -8.742,43.96 -5.746,13.89 -14.261,26.64 -24.902,37.27 -10.629,10.63 -23.371,19.15 -37.27,24.9 -13.89,5.76 -28.922,8.75 -43.961,8.74 -15.039,0.01 -30.07,-2.98 -43.961,-8.74 -13.898,-5.75 -26.64,-14.27 -37.269,-24.9 -10.637,-10.63 -19.152,-23.38 -24.902,-37.27 -5.762,-13.89 -8.75,-28.92 -8.743,-43.96 -0.007,-15.04 2.981,-30.07 8.743,-43.96 5.75,-13.9 14.265,-26.64 24.902,-37.27 10.629,-10.64 23.371,-19.16 37.269,-24.91 13.891,-5.76 28.922,-8.75 43.961,-8.74 15.039,-0.01 30.071,2.98 43.961,8.74 13.899,5.75 26.641,14.27 37.27,24.91 10.641,10.63 19.156,23.37 24.902,37.27 5.762,13.89 8.754,28.92 8.742,43.96 z"
             style="fill:#362682;fill-opacity:1;fill-rule:evenodd;stroke:none"
             id="path34" />
          <path
             d="m 612.191,3026.93 c 0.012,15.03 -2.98,30.07 -8.742,43.96 -5.746,13.9 -14.261,26.64 -24.902,37.27 -10.629,10.64 -23.371,19.15 -37.27,24.9 -13.89,5.76 -28.922,8.75 -43.961,8.74 -15.039,0.01 -30.07,-2.98 -43.961,-8.74 -13.898,-5.75 -26.64,-14.26 -37.269,-24.9 -10.637,-10.63 -19.152,-23.37 -24.902,-37.27 -5.762,-13.89 -8.75,-28.93 -8.743,-43.96 -0.007,-15.04 2.981,-30.07 8.743,-43.97 5.75,-13.89 14.265,-26.64 24.902,-37.26 10.629,-10.64 23.371,-19.16 37.269,-24.9 13.891,-5.77 28.922,-8.76 43.961,-8.75 15.039,-0.01 30.071,2.98 43.961,8.75 13.899,5.74 26.641,14.26 37.27,24.9 10.641,10.62 19.156,23.37 24.902,37.26 5.762,13.9 8.754,28.93 8.742,43.97 z"
             style="fill:#362682;fill-opacity:1;fill-rule:evenodd;stroke:none"
             id="path36" />
          <path
             d="m 3528.47,3999.04 c 0.01,15.03 -2.99,30.07 -8.75,43.96 -5.74,13.89 -14.26,26.64 -24.9,37.27 -10.63,10.64 -23.37,19.15 -37.27,24.9 -13.89,5.76 -28.92,8.75 -43.96,8.74 -15.04,0.01 -30.07,-2.98 -43.96,-8.74 -13.9,-5.75 -26.64,-14.26 -37.27,-24.9 -10.64,-10.63 -19.15,-23.38 -24.9,-37.27 -5.76,-13.89 -8.75,-28.93 -8.75,-43.96 0,-15.04 2.99,-30.08 8.75,-43.97 5.75,-13.89 14.26,-26.64 24.9,-37.27 10.63,-10.63 23.37,-19.15 37.27,-24.9 13.89,-5.76 28.92,-8.75 43.96,-8.74 15.04,-0.01 30.07,2.98 43.96,8.74 13.9,5.75 26.64,14.27 37.27,24.9 10.64,10.63 19.16,23.38 24.9,37.27 5.76,13.89 8.76,28.93 8.75,43.97 z"
             style="fill:#362682;fill-opacity:1;fill-rule:evenodd;stroke:none"
             id="path38" />
          <path
             d="m 1584.29,3999.04 c 0.01,15.03 -2.99,30.07 -8.75,43.96 -5.74,13.89 -14.26,26.64 -24.9,37.27 -10.63,10.64 -23.37,19.15 -37.27,24.9 -13.89,5.76 -28.92,8.75 -43.96,8.74 -15.04,0.01 -30.07,-2.98 -43.96,-8.74 -13.9,-5.75 -26.64,-14.26 -37.27,-24.9 -10.64,-10.63 -19.15,-23.38 -24.9,-37.27 -5.76,-13.89 -8.75,-28.93 -8.74,-43.96 -0.01,-15.04 2.98,-30.08 8.74,-43.97 5.75,-13.89 14.26,-26.64 24.9,-37.27 10.63,-10.63 23.37,-19.15 37.27,-24.9 13.89,-5.76 28.92,-8.75 43.96,-8.74 15.04,-0.01 30.07,2.98 43.96,8.74 13.9,5.75 26.64,14.27 37.27,24.9 10.64,10.63 19.16,23.38 24.9,37.27 5.76,13.89 8.76,28.93 8.75,43.97 z"
             style="fill:#362682;fill-opacity:1;fill-rule:evenodd;stroke:none"
             id="path40" />
          <path
             d="m 2556.37,3999.02 c 0.01,15.04 -2.98,30.07 -8.75,43.96 -5.74,13.9 -14.26,26.65 -24.9,37.27 -10.63,10.64 -23.37,19.16 -37.27,24.91 -13.89,5.76 -28.92,8.75 -43.96,8.74 -15.04,0.01 -30.07,-2.98 -43.96,-8.74 -13.9,-5.75 -26.64,-14.27 -37.27,-24.91 -10.64,-10.62 -19.15,-23.37 -24.9,-37.27 -5.76,-13.89 -8.75,-28.92 -8.75,-43.96 0,-15.04 2.99,-30.07 8.75,-43.96 5.75,-13.9 14.26,-26.64 24.9,-37.27 10.63,-10.63 23.37,-19.15 37.27,-24.9 13.89,-5.76 28.92,-8.75 43.96,-8.74 15.04,-0.01 30.07,2.98 43.96,8.74 13.9,5.75 26.64,14.27 37.27,24.9 10.64,10.63 19.16,23.37 24.9,37.27 5.77,13.89 8.76,28.92 8.75,43.96 z"
             style="fill:#362682;fill-opacity:1;fill-rule:evenodd;stroke:none"
             id="path42" />
          <path
             d="m 612.191,3999.02 c 0.012,15.04 -2.98,30.07 -8.742,43.96 -5.746,13.9 -14.261,26.65 -24.902,37.27 -10.629,10.64 -23.371,19.16 -37.27,24.91 -13.89,5.76 -28.922,8.75 -43.961,8.74 -15.039,0.01 -30.07,-2.98 -43.961,-8.74 -13.898,-5.75 -26.64,-14.27 -37.269,-24.91 -10.637,-10.62 -19.152,-23.37 -24.902,-37.27 -5.762,-13.89 -8.75,-28.92 -8.743,-43.96 -0.007,-15.04 2.981,-30.07 8.743,-43.96 5.75,-13.9 14.265,-26.64 24.902,-37.27 10.629,-10.63 23.371,-19.15 37.269,-24.9 13.891,-5.76 28.922,-8.75 43.961,-8.74 15.039,-0.01 30.071,2.98 43.961,8.74 13.899,5.75 26.641,14.27 37.27,24.9 10.641,10.63 19.156,23.37 24.902,37.27 5.762,13.89 8.754,28.92 8.742,43.96 z"
             style="fill:#362682;fill-opacity:1;fill-rule:evenodd;stroke:none"
             id="path44" />
          <path
             d="m 3528.46,1082.76 c 0,15.04 -2.98,30.07 -8.75,43.96 -5.75,13.89 -14.26,26.64 -24.9,37.27 -10.63,10.64 -23.37,19.15 -37.27,24.9 -13.89,5.76 -28.92,8.75 -43.96,8.74 -15.04,0.01 -30.07,-2.98 -43.96,-8.74 -13.9,-5.75 -26.64,-14.26 -37.27,-24.9 -10.64,-10.63 -19.15,-23.38 -24.9,-37.27 -5.76,-13.89 -8.75,-28.92 -8.74,-43.96 -0.01,-15.04 2.98,-30.07 8.74,-43.96 5.75,-13.9 14.26,-26.64 24.9,-37.27 10.63,-10.643 23.37,-19.159 37.27,-24.905 13.89,-5.762 28.92,-8.754 43.96,-8.746 15.04,-0.008 30.07,2.984 43.96,8.746 13.9,5.746 26.64,14.262 37.27,24.905 10.64,10.63 19.15,23.37 24.9,37.27 5.77,13.89 8.75,28.92 8.75,43.96 z"
             style="fill:#362682;fill-opacity:1;fill-rule:evenodd;stroke:none"
             id="path46" />
          <path
             d="m 1584.28,1082.76 c 0.01,15.04 -2.98,30.07 -8.75,43.96 -5.74,13.89 -14.26,26.64 -24.9,37.27 -10.63,10.64 -23.37,19.15 -37.27,24.9 -13.89,5.76 -28.92,8.75 -43.96,8.74 -15.04,0.01 -30.07,-2.98 -43.96,-8.74 -13.9,-5.75 -26.64,-14.26 -37.27,-24.9 -10.64,-10.63 -19.15,-23.38 -24.9,-37.27 -5.76,-13.89 -8.75,-28.92 -8.75,-43.96 0,-15.04 2.99,-30.07 8.75,-43.96 5.75,-13.9 14.26,-26.64 24.9,-37.27 10.63,-10.643 23.37,-19.159 37.27,-24.905 13.89,-5.762 28.92,-8.754 43.96,-8.746 15.04,-0.008 30.07,2.984 43.96,8.746 13.9,5.746 26.64,14.262 37.27,24.905 10.64,10.63 19.16,23.37 24.9,37.27 5.77,13.89 8.76,28.92 8.75,43.96 z"
             style="fill:#362682;fill-opacity:1;fill-rule:evenodd;stroke:none"
             id="path48" />
          <path
             d="m 2556.37,1082.76 c 0.01,15.04 -2.98,30.07 -8.75,43.96 -5.74,13.89 -14.26,26.64 -24.9,37.27 -10.63,10.64 -23.37,19.15 -37.27,24.9 -13.89,5.76 -28.92,8.75 -43.96,8.74 -15.04,0.01 -30.07,-2.98 -43.96,-8.74 -13.9,-5.75 -26.64,-14.26 -37.27,-24.9 -10.64,-10.63 -19.15,-23.38 -24.9,-37.27 -5.76,-13.89 -8.75,-28.92 -8.75,-43.96 0,-15.04 2.99,-30.07 8.75,-43.96 5.75,-13.9 14.26,-26.64 24.9,-37.27 10.63,-10.643 23.37,-19.159 37.27,-24.905 13.89,-5.762 28.92,-8.754 43.96,-8.746 15.04,-0.008 30.07,2.984 43.96,8.746 13.9,5.746 26.64,14.262 37.27,24.905 10.64,10.63 19.16,23.37 24.9,37.27 5.77,13.89 8.76,28.92 8.75,43.96 z"
             style="fill:#362682;fill-opacity:1;fill-rule:evenodd;stroke:none"
             id="path50" />
          <path
             d="m 612.191,1082.76 c 0.012,15.04 -2.98,30.07 -8.742,43.96 -5.746,13.89 -14.261,26.64 -24.902,37.27 -10.629,10.64 -23.371,19.15 -37.27,24.9 -13.89,5.76 -28.922,8.75 -43.961,8.74 -15.039,0.01 -30.07,-2.98 -43.961,-8.74 -13.898,-5.75 -26.64,-14.26 -37.269,-24.9 -10.637,-10.63 -19.152,-23.38 -24.902,-37.27 -5.762,-13.89 -8.75,-28.92 -8.743,-43.96 -0.007,-15.04 2.981,-30.07 8.743,-43.96 5.75,-13.9 14.265,-26.64 24.902,-37.27 10.629,-10.643 23.371,-19.159 37.269,-24.905 13.891,-5.762 28.922,-8.754 43.961,-8.746 15.039,-0.008 30.071,2.984 43.961,8.746 13.899,5.746 26.641,14.262 37.27,24.905 10.641,10.63 19.156,23.37 24.902,37.27 5.762,13.89 8.754,28.92 8.742,43.96 z"
             style="fill:#362682;fill-opacity:1;fill-rule:evenodd;stroke:none"
             id="path52" />
          <path
             d="m 5,590.457 h 3900.86 v 3900.86 H 5 Z"
             style="fill:none;stroke:#000000;stroke-width:10;stroke-linecap:square;stroke-linejoin:miter;stroke-miterlimit:10;stroke-dasharray:none;stroke-opacity:1"
             id="path54" />
          <path
             d="M 5351.69,1568.8 H 7295.87 V 3512.98 H 5351.69 Z"
             style="fill:#f1f2f3;fill-opacity:1;fill-rule:evenodd;stroke:none"
             id="path56" />
          <path
             d="m 7097.54,3447.78 c 0,15.04 -2.99,30.07 -8.75,43.96 -5.74,13.9 -14.26,26.64 -24.9,37.27 -10.63,10.63 -23.37,19.15 -37.27,24.9 -13.89,5.76 -28.92,8.75 -43.96,8.74 -15.04,0.01 -30.07,-2.98 -43.96,-8.74 -13.9,-5.75 -26.64,-14.27 -37.27,-24.9 -10.64,-10.63 -19.15,-23.37 -24.9,-37.27 -5.76,-13.89 -8.75,-28.92 -8.74,-43.96 -0.01,-15.04 2.98,-30.07 8.74,-43.96 5.75,-13.9 14.26,-26.64 24.9,-37.27 10.63,-10.64 23.37,-19.16 37.27,-24.91 13.89,-5.76 28.92,-8.75 43.96,-8.74 15.04,-0.01 30.07,2.98 43.96,8.74 13.9,5.75 26.64,14.27 37.27,24.91 10.64,10.63 19.16,23.37 24.9,37.27 5.76,13.89 8.75,28.92 8.75,43.96 z"
             style="fill:#362682;fill-opacity:1;fill-rule:evenodd;stroke:none"
             id="path58" />
          <path
             d="m 7331.4,3226.92 c 0.01,15.04 -2.99,30.07 -8.75,43.96 -5.74,13.89 -14.26,26.64 -24.9,37.27 -10.63,10.64 -23.37,19.15 -37.27,24.9 -13.89,5.76 -28.92,8.75 -43.96,8.74 -15.04,0.01 -30.07,-2.98 -43.96,-8.74 -13.9,-5.75 -26.64,-14.26 -37.27,-24.9 -10.64,-10.63 -19.15,-23.38 -24.9,-37.27 -5.76,-13.89 -8.75,-28.92 -8.75,-43.96 0,-15.04 2.99,-30.07 8.75,-43.96 5.75,-13.9 14.26,-26.64 24.9,-37.27 10.63,-10.64 23.37,-19.16 37.27,-24.9 13.89,-5.77 28.92,-8.76 43.96,-8.75 15.04,-0.01 30.07,2.98 43.96,8.75 13.9,5.74 26.64,14.26 37.27,24.9 10.64,10.63 19.16,23.37 24.9,37.27 5.76,13.89 8.76,28.92 8.75,43.96 z"
             style="fill:#362682;fill-opacity:1;fill-rule:evenodd;stroke:none"
             id="path60" />
          <path
             d="m 6564.86,2733.21 c 0.01,15.04 -2.98,30.08 -8.75,43.97 -5.74,13.89 -14.26,26.64 -24.9,37.27 -10.63,10.64 -23.37,19.15 -37.27,24.9 -13.89,5.76 -28.92,8.75 -43.96,8.74 -15.04,0.01 -30.07,-2.98 -43.96,-8.74 -13.9,-5.75 -26.64,-14.26 -37.27,-24.9 -10.64,-10.63 -19.15,-23.38 -24.9,-37.27 -5.76,-13.89 -8.75,-28.93 -8.74,-43.97 -0.01,-15.03 2.98,-30.07 8.74,-43.96 5.75,-13.89 14.26,-26.64 24.9,-37.26 10.63,-10.64 23.37,-19.16 37.27,-24.9 13.89,-5.77 28.92,-8.76 43.96,-8.75 15.04,-0.01 30.07,2.98 43.96,8.75 13.9,5.74 26.64,14.26 37.27,24.9 10.64,10.62 19.16,23.37 24.9,37.26 5.77,13.89 8.76,28.93 8.75,43.96 z"
             style="fill:#362682;fill-opacity:1;fill-rule:evenodd;stroke:none"
             id="path62" />
          <path
             d="m 7357.38,2739.71 c 0.01,15.04 -2.99,30.07 -8.75,43.96 -5.74,13.9 -14.26,26.64 -24.9,37.27 -10.63,10.63 -23.37,19.15 -37.27,24.9 -13.89,5.76 -28.92,8.75 -43.96,8.74 -15.04,0.01 -30.07,-2.98 -43.96,-8.74 -13.9,-5.75 -26.64,-14.27 -37.27,-24.9 -10.64,-10.63 -19.15,-23.37 -24.9,-37.27 -5.76,-13.89 -8.75,-28.92 -8.74,-43.96 -0.01,-15.04 2.98,-30.07 8.74,-43.96 5.75,-13.9 14.26,-26.64 24.9,-37.27 10.63,-10.64 23.37,-19.16 37.27,-24.91 13.89,-5.76 28.92,-8.75 43.96,-8.74 15.04,-0.01 30.07,2.98 43.96,8.74 13.9,5.75 26.64,14.27 37.27,24.91 10.64,10.63 19.16,23.37 24.9,37.27 5.76,13.89 8.76,28.92 8.75,43.96 z"
             style="fill:#362682;fill-opacity:1;fill-rule:evenodd;stroke:none"
             id="path64" />
          <path
             d="m 7760.14,3051.52 c 0,15.03 -2.98,30.07 -8.75,43.96 -5.75,13.9 -14.26,26.64 -24.9,37.27 -10.63,10.64 -23.37,19.15 -37.27,24.9 -13.89,5.76 -28.92,8.75 -43.96,8.74 -15.04,0.01 -30.07,-2.98 -43.96,-8.74 -13.9,-5.75 -26.64,-14.26 -37.27,-24.9 -10.64,-10.63 -19.15,-23.37 -24.9,-37.27 -5.76,-13.89 -8.75,-28.93 -8.74,-43.96 -0.01,-15.04 2.98,-30.07 8.74,-43.97 5.75,-13.89 14.26,-26.64 24.9,-37.26 10.63,-10.64 23.37,-19.16 37.27,-24.9 13.89,-5.77 28.92,-8.76 43.96,-8.75 15.04,-0.01 30.07,2.98 43.96,8.75 13.9,5.74 26.64,14.26 37.27,24.9 10.64,10.62 19.15,23.37 24.9,37.26 5.77,13.9 8.75,28.93 8.75,43.97 z"
             style="fill:#362682;fill-opacity:1;fill-rule:evenodd;stroke:none"
             id="path66" />
          <path
             d="m 7753.64,2057.63 c 0,15.03 -2.98,30.07 -8.75,43.96 -5.75,13.89 -14.26,26.64 -24.9,37.27 -10.63,10.64 -23.37,19.15 -37.27,24.9 -13.89,5.76 -28.92,8.75 -43.96,8.74 -15.04,0.01 -30.07,-2.98 -43.96,-8.74 -13.9,-5.75 -26.64,-14.26 -37.27,-24.9 -10.64,-10.63 -19.15,-23.38 -24.9,-37.27 -5.76,-13.89 -8.75,-28.93 -8.75,-43.96 0,-15.04 2.99,-30.08 8.75,-43.97 5.75,-13.89 14.26,-26.64 24.9,-37.26 10.63,-10.64 23.37,-19.16 37.27,-24.9 13.89,-5.77 28.92,-8.76 43.96,-8.75 15.04,-0.01 30.07,2.98 43.96,8.75 13.9,5.74 26.64,14.26 37.27,24.9 10.64,10.62 19.15,23.37 24.9,37.26 5.77,13.89 8.75,28.93 8.75,43.97 z"
             style="fill:#362682;fill-opacity:1;fill-rule:evenodd;stroke:none"
             id="path68" />
          <path
             d="m 7974.51,1693.85 c 0.01,15.04 -2.99,30.07 -8.75,43.96 -5.74,13.89 -14.26,26.64 -24.9,37.27 -10.63,10.63 -23.37,19.15 -37.27,24.9 -13.89,5.76 -28.92,8.75 -43.96,8.74 -15.04,0.01 -30.07,-2.98 -43.96,-8.74 -13.9,-5.75 -26.64,-14.27 -37.27,-24.9 -10.64,-10.63 -19.15,-23.38 -24.9,-37.27 -5.76,-13.89 -8.75,-28.92 -8.75,-43.96 0,-15.04 2.99,-30.07 8.75,-43.96 5.75,-13.9 14.26,-26.64 24.9,-37.27 10.63,-10.64 23.37,-19.16 37.27,-24.91 13.89,-5.76 28.92,-8.75 43.96,-8.74 15.04,-0.01 30.07,2.98 43.96,8.74 13.9,5.75 26.64,14.27 37.27,24.91 10.64,10.63 19.16,23.37 24.9,37.27 5.76,13.89 8.76,28.92 8.75,43.96 z"
             style="fill:#362682;fill-opacity:1;fill-rule:evenodd;stroke:none"
             id="path70" />
          <path
             d="m 8344.79,3610.18 c 0.01,15.03 -2.99,30.07 -8.75,43.96 -5.74,13.9 -14.26,26.64 -24.9,37.27 -10.63,10.64 -23.37,19.15 -37.27,24.9 -13.89,5.76 -28.92,8.75 -43.96,8.74 -15.04,0.01 -30.07,-2.98 -43.96,-8.74 -13.9,-5.75 -26.64,-14.26 -37.27,-24.9 -10.64,-10.63 -19.15,-23.37 -24.9,-37.27 -5.76,-13.89 -8.75,-28.93 -8.74,-43.96 -0.01,-15.04 2.98,-30.07 8.74,-43.97 5.75,-13.89 14.26,-26.64 24.9,-37.26 10.63,-10.64 23.37,-19.16 37.27,-24.9 13.89,-5.77 28.92,-8.76 43.96,-8.75 15.04,-0.01 30.07,2.98 43.96,8.75 13.9,5.74 26.64,14.26 37.27,24.9 10.64,10.62 19.16,23.37 24.9,37.26 5.76,13.9 8.76,28.93 8.75,43.97 z"
             style="fill:#362682;fill-opacity:1;fill-rule:evenodd;stroke:none"
             id="path72" />
          <path
             d="m 8026.48,3616.68 c 0,15.03 -2.98,30.07 -8.75,43.96 -5.75,13.9 -14.26,26.64 -24.9,37.27 -10.63,10.64 -23.37,19.15 -37.27,24.9 -13.89,5.76 -28.92,8.75 -43.96,8.74 -15.04,0.01 -30.07,-2.98 -43.96,-8.74 -13.9,-5.75 -26.64,-14.26 -37.27,-24.9 -10.64,-10.63 -19.16,-23.37 -24.9,-37.27 -5.76,-13.89 -8.76,-28.93 -8.75,-43.96 -0.01,-15.04 2.99,-30.07 8.75,-43.97 5.74,-13.89 14.26,-26.64 24.9,-37.26 10.63,-10.64 23.37,-19.16 37.27,-24.9 13.89,-5.77 28.92,-8.76 43.96,-8.75 15.04,-0.01 30.07,2.98 43.96,8.75 13.9,5.74 26.64,14.26 37.27,24.9 10.64,10.62 19.15,23.37 24.9,37.26 5.77,13.9 8.75,28.93 8.75,43.97 z"
             style="fill:#362682;fill-opacity:1;fill-rule:evenodd;stroke:none"
             id="path74" />
          <path
             d="m 7052.07,4103.88 c 0,15.04 -2.98,30.07 -8.75,43.96 -5.75,13.9 -14.26,26.64 -24.9,37.27 -10.63,10.64 -23.37,19.16 -37.27,24.91 -13.89,5.76 -28.92,8.75 -43.96,8.74 -15.04,0.01 -30.07,-2.98 -43.96,-8.74 -13.9,-5.75 -26.64,-14.27 -37.27,-24.91 -10.64,-10.63 -19.16,-23.37 -24.9,-37.27 -5.76,-13.89 -8.75,-28.92 -8.74,-43.96 -0.01,-15.04 2.98,-30.07 8.74,-43.96 5.74,-13.9 14.26,-26.64 24.9,-37.27 10.63,-10.64 23.37,-19.15 37.27,-24.9 13.89,-5.76 28.92,-8.75 43.96,-8.74 15.04,-0.01 30.07,2.98 43.96,8.74 13.9,5.75 26.64,14.26 37.27,24.9 10.64,10.63 19.15,23.37 24.9,37.27 5.77,13.89 8.75,28.92 8.75,43.96 z"
             style="fill:#362682;fill-opacity:1;fill-rule:evenodd;stroke:none"
             id="path76" />
          <path
             d="m 6512.9,3558.21 c 0.01,15.04 -2.99,30.08 -8.75,43.97 -5.74,13.89 -14.26,26.64 -24.9,37.27 -10.63,10.64 -23.37,19.15 -37.27,24.9 -13.89,5.76 -28.92,8.75 -43.96,8.74 -15.04,0.01 -30.07,-2.98 -43.96,-8.74 -13.9,-5.75 -26.64,-14.26 -37.27,-24.9 -10.64,-10.63 -19.15,-23.38 -24.9,-37.27 -5.76,-13.89 -8.75,-28.93 -8.75,-43.97 0,-15.03 2.99,-30.07 8.75,-43.96 5.75,-13.89 14.26,-26.64 24.9,-37.26 10.63,-10.64 23.37,-19.16 37.27,-24.9 13.89,-5.77 28.92,-8.76 43.96,-8.75 15.04,-0.01 30.07,2.98 43.96,8.75 13.9,5.74 26.64,14.26 37.27,24.9 10.64,10.62 19.16,23.37 24.9,37.26 5.76,13.89 8.76,28.93 8.75,43.96 z"
             style="fill:#362682;fill-opacity:1;fill-rule:evenodd;stroke:none"
             id="path78" />
          <path
             d="m 5837.31,3909 c 0.01,15.04 -2.99,30.07 -8.75,43.96 -5.74,13.9 -14.26,26.64 -24.9,37.27 -10.63,10.64 -23.37,19.16 -37.27,24.9 -13.89,5.76 -28.92,8.76 -43.96,8.75 -15.04,0.01 -30.07,-2.99 -43.96,-8.75 -13.9,-5.74 -26.64,-14.26 -37.27,-24.9 -10.64,-10.63 -19.15,-23.37 -24.9,-37.27 -5.76,-13.89 -8.75,-28.92 -8.75,-43.96 0,-15.04 2.99,-30.07 8.75,-43.96 5.75,-13.9 14.26,-26.64 24.9,-37.27 10.63,-10.64 23.37,-19.15 37.27,-24.9 13.89,-5.76 28.92,-8.75 43.96,-8.74 15.04,-0.01 30.07,2.98 43.96,8.74 13.9,5.75 26.64,14.26 37.27,24.9 10.64,10.63 19.16,23.37 24.9,37.27 5.76,13.89 8.76,28.92 8.75,43.96 z"
             style="fill:#362682;fill-opacity:1;fill-rule:evenodd;stroke:none"
             id="path80" />
          <path
             d="m 5317.62,4025.93 c 0.01,15.04 -2.98,30.07 -8.74,43.96 -5.75,13.9 -14.27,26.64 -24.91,37.27 -10.63,10.64 -23.37,19.15 -37.27,24.9 -13.89,5.76 -28.92,8.75 -43.96,8.74 -15.04,0.01 -30.07,-2.98 -43.96,-8.74 -13.9,-5.75 -26.64,-14.26 -37.27,-24.9 -10.64,-10.63 -19.15,-23.37 -24.9,-37.27 -5.76,-13.89 -8.75,-28.92 -8.74,-43.96 -0.01,-15.04 2.98,-30.07 8.74,-43.96 5.75,-13.9 14.26,-26.64 24.9,-37.27 10.63,-10.64 23.37,-19.15 37.27,-24.9 13.89,-5.76 28.92,-8.75 43.96,-8.75 15.04,0 30.07,2.99 43.96,8.75 13.9,5.75 26.64,14.26 37.27,24.9 10.64,10.63 19.16,23.37 24.91,37.27 5.76,13.89 8.75,28.92 8.74,43.96 z"
             style="fill:#362682;fill-opacity:1;fill-rule:evenodd;stroke:none"
             id="path82" />
          <path
             d="m 4914.86,3097 c 0.01,15.04 -2.98,30.07 -8.74,43.96 -5.75,13.9 -14.26,26.64 -24.91,37.27 -10.62,10.64 -23.37,19.15 -37.26,24.9 -13.9,5.76 -28.93,8.75 -43.97,8.74 -15.03,0.01 -30.07,-2.98 -43.96,-8.74 -13.89,-5.75 -26.64,-14.26 -37.26,-24.9 -10.64,-10.63 -19.16,-23.37 -24.9,-37.27 -5.77,-13.89 -8.76,-28.92 -8.75,-43.96 -0.01,-15.04 2.98,-30.07 8.75,-43.96 5.74,-13.9 14.26,-26.65 24.9,-37.27 10.62,-10.64 23.37,-19.16 37.26,-24.9 13.89,-5.77 28.93,-8.76 43.96,-8.75 15.04,-0.01 30.07,2.98 43.97,8.75 13.89,5.74 26.64,14.26 37.26,24.9 10.65,10.62 19.16,23.37 24.91,37.27 5.76,13.89 8.75,28.92 8.74,43.96 z"
             style="fill:#362682;fill-opacity:1;fill-rule:evenodd;stroke:none"
             id="path84" />
          <path
             d="m 4505.61,3012.55 c 0.01,15.04 -2.98,30.07 -8.74,43.96 -5.75,13.9 -14.27,26.64 -24.91,37.27 -10.62,10.64 -23.37,19.15 -37.26,24.9 -13.9,5.76 -28.93,8.75 -43.97,8.74 -15.03,0.01 -30.07,-2.98 -43.96,-8.74 -13.89,-5.75 -26.64,-14.26 -37.27,-24.9 -10.64,-10.63 -19.15,-23.37 -24.9,-37.27 -5.76,-13.89 -8.75,-28.92 -8.74,-43.96 -0.01,-15.04 2.98,-30.07 8.74,-43.96 5.75,-13.9 14.26,-26.64 24.9,-37.27 10.63,-10.64 23.38,-19.16 37.27,-24.91 13.89,-5.76 28.93,-8.75 43.96,-8.74 15.04,-0.01 30.07,2.98 43.97,8.74 13.89,5.75 26.64,14.27 37.26,24.91 10.64,10.63 19.16,23.37 24.91,37.27 5.76,13.89 8.75,28.92 8.74,43.96 z"
             style="fill:#362682;fill-opacity:1;fill-rule:evenodd;stroke:none"
             id="path86" />
          <path
             d="m 7220.97,953.297 c 0.01,15.039 -2.99,30.07 -8.75,43.961 -5.74,13.902 -14.26,26.642 -24.9,37.272 -10.63,10.64 -23.37,19.15 -37.27,24.9 -13.89,5.76 -28.92,8.75 -43.96,8.74 -15.04,0.01 -30.07,-2.98 -43.96,-8.74 -13.9,-5.75 -26.64,-14.26 -37.27,-24.9 -10.64,-10.63 -19.15,-23.37 -24.9,-37.272 -5.76,-13.891 -8.75,-28.922 -8.75,-43.961 0,-15.039 2.99,-30.07 8.75,-43.961 5.75,-13.898 14.26,-26.641 24.9,-37.27 10.63,-10.64 23.37,-19.152 37.27,-24.902 13.89,-5.762 28.92,-8.75 43.96,-8.742 15.04,-0.008 30.07,2.98 43.96,8.742 13.9,5.75 26.64,14.262 37.27,24.902 10.64,10.629 19.16,23.372 24.9,37.27 5.76,13.891 8.76,28.922 8.75,43.961 z"
             style="fill:#362682;fill-opacity:1;fill-rule:evenodd;stroke:none"
             id="path88" />
          <path
             d="m 6512.9,1018.26 c 0.01,15.04 -2.99,30.07 -8.75,43.96 -5.74,13.89 -14.26,26.64 -24.9,37.27 -10.63,10.64 -23.37,19.15 -37.27,24.9 -13.89,5.76 -28.92,8.75 -43.96,8.74 -15.04,0.01 -30.07,-2.98 -43.96,-8.74 -13.9,-5.75 -26.64,-14.26 -37.27,-24.9 -10.64,-10.63 -19.15,-23.38 -24.9,-37.27 -5.76,-13.89 -8.75,-28.92 -8.75,-43.96 0,-15.04 2.99,-30.072 8.75,-43.963 5.75,-13.899 14.26,-26.641 24.9,-37.27 10.63,-10.64 23.37,-19.156 37.27,-24.902 13.89,-5.762 28.92,-8.754 43.96,-8.746 15.04,-0.008 30.07,2.984 43.96,8.746 13.9,5.746 26.64,14.262 37.27,24.902 10.64,10.629 19.16,23.371 24.9,37.27 5.76,13.891 8.76,28.923 8.75,43.963 z"
             style="fill:#362682;fill-opacity:1;fill-rule:evenodd;stroke:none"
             id="path90" />
          <path
             d="m 5830.8,1524.95 c 0.02,15.03 -2.98,30.07 -8.74,43.96 -5.74,13.89 -14.26,26.64 -24.9,37.27 -10.63,10.64 -23.37,19.15 -37.27,24.9 -13.89,5.76 -28.92,8.75 -43.96,8.74 -15.04,0.01 -30.07,-2.98 -43.96,-8.74 -13.9,-5.75 -26.64,-14.26 -37.27,-24.9 -10.64,-10.63 -19.15,-23.38 -24.9,-37.27 -5.76,-13.89 -8.75,-28.93 -8.75,-43.96 0,-15.04 2.99,-30.07 8.75,-43.97 5.75,-13.89 14.26,-26.64 24.9,-37.26 10.63,-10.64 23.37,-19.16 37.27,-24.9 13.89,-5.77 28.92,-8.76 43.96,-8.75 15.04,-0.01 30.07,2.98 43.96,8.75 13.9,5.74 26.64,14.26 37.27,24.9 10.64,10.62 19.16,23.37 24.9,37.26 5.76,13.9 8.76,28.93 8.74,43.97 z"
             style="fill:#362682;fill-opacity:1;fill-rule:evenodd;stroke:none"
             id="path92" />
          <path
             d="m 7539.27,875.336 c 0,15.039 -2.98,30.07 -8.75,43.961 -5.75,13.898 -14.26,26.641 -24.9,37.269 -10.63,10.641 -23.37,19.157 -37.27,24.903 -13.89,5.761 -28.92,8.754 -43.96,8.742 -15.04,0.012 -30.07,-2.981 -43.96,-8.742 -13.9,-5.746 -26.64,-14.262 -37.27,-24.903 -10.64,-10.628 -19.15,-23.371 -24.9,-37.269 -5.76,-13.891 -8.75,-28.922 -8.74,-43.961 -0.01,-15.039 2.98,-30.07 8.74,-43.961 5.75,-13.895 14.26,-26.641 24.9,-37.27 10.63,-10.636 23.37,-19.152 37.27,-24.898 13.89,-5.766 28.92,-8.754 43.96,-8.746 15.04,-0.008 30.07,2.98 43.96,8.746 13.9,5.746 26.64,14.262 37.27,24.898 10.64,10.629 19.15,23.375 24.9,37.27 5.77,13.891 8.75,28.922 8.75,43.961 z"
             style="fill:#362682;fill-opacity:1;fill-rule:evenodd;stroke:none"
             id="path94" />
          <path
             d="m 8318.8,1479.48 c 0,15.04 -2.98,30.07 -8.75,43.96 -5.75,13.9 -14.26,26.64 -24.9,37.27 -10.63,10.64 -23.37,19.15 -37.27,24.9 -13.89,5.76 -28.92,8.75 -43.96,8.74 -15.04,0.01 -30.07,-2.98 -43.96,-8.74 -13.9,-5.75 -26.64,-14.26 -37.27,-24.9 -10.64,-10.63 -19.15,-23.37 -24.9,-37.27 -5.76,-13.89 -8.75,-28.92 -8.74,-43.96 -0.01,-15.04 2.98,-30.07 8.74,-43.96 5.75,-13.9 14.26,-26.64 24.9,-37.27 10.63,-10.64 23.37,-19.16 37.27,-24.91 13.89,-5.76 28.92,-8.75 43.96,-8.74 15.04,-0.01 30.07,2.98 43.96,8.74 13.9,5.75 26.64,14.27 37.27,24.91 10.64,10.63 19.15,23.37 24.9,37.27 5.77,13.89 8.75,28.92 8.75,43.96 z"
             style="fill:#362682;fill-opacity:1;fill-rule:evenodd;stroke:none"
             id="path96" />
          <path
             d="m 4373.35,590.457 h 3900.86 v 3900.86 H 4373.35 Z"
             style="fill:none;stroke:#000000;stroke-width:10;stroke-linecap:square;stroke-linejoin:miter;stroke-miterlimit:10;stroke-dasharray:none;stroke-opacity:1"
             id="path98" />
          <path
             d="m 9692.81,1568.8 h 1944.18 V 3512.98 H 9692.81 Z"
             style="fill:#f1f2f3;fill-opacity:1;fill-rule:evenodd;stroke:none"
             id="path100" />
          <path
             d="m 10536.7,1811.81 c 0,15.03 -3,30.07 -8.7,43.96 -5.8,13.89 -14.3,26.64 -24.9,37.27 -10.7,10.64 -23.4,19.15 -37.3,24.9 -13.9,5.76 -28.9,8.75 -44,8.74 -15,0.01 -30,-2.98 -43.9,-8.74 -13.9,-5.75 -26.7,-14.26 -37.3,-24.9 -10.6,-10.63 -19.1,-23.38 -24.9,-37.27 -5.8,-13.89 -8.7,-28.93 -8.7,-43.96 0,-15.04 2.9,-30.08 8.7,-43.97 5.8,-13.89 14.3,-26.63 24.9,-37.26 10.6,-10.64 23.4,-19.16 37.3,-24.9 13.9,-5.77 28.9,-8.76 43.9,-8.75 15.1,-0.01 30.1,2.98 44,8.75 13.9,5.74 26.6,14.26 37.3,24.9 10.6,10.63 19.1,23.37 24.9,37.26 5.7,13.89 8.7,28.93 8.7,43.97 z"
             style="fill:#362682;fill-opacity:1;fill-rule:evenodd;stroke:none"
             id="path102" />
          <path
             d="m 11508.8,2297.86 c 0,15.03 -2.9,30.07 -8.7,43.96 -5.8,13.89 -14.3,26.64 -24.9,37.27 -10.6,10.64 -23.4,19.15 -37.3,24.9 -13.9,5.76 -28.9,8.75 -43.9,8.74 -15.1,0.01 -30.1,-2.98 -44,-8.74 -13.9,-5.75 -26.6,-14.26 -37.3,-24.9 -10.6,-10.63 -19.1,-23.38 -24.9,-37.27 -5.7,-13.89 -8.7,-28.93 -8.7,-43.96 0,-15.04 3,-30.07 8.7,-43.97 5.8,-13.89 14.3,-26.64 24.9,-37.26 10.7,-10.64 23.4,-19.16 37.3,-24.9 13.9,-5.77 28.9,-8.76 44,-8.75 15,-0.01 30,2.98 43.9,8.75 13.9,5.74 26.7,14.26 37.3,24.9 10.6,10.62 19.1,23.37 24.9,37.26 5.8,13.9 8.7,28.93 8.7,43.97 z"
             style="fill:#362682;fill-opacity:1;fill-rule:evenodd;stroke:none"
             id="path104" />
          <path
             d="m 10050.7,2783.92 c 0,15.04 -3,30.07 -8.8,43.96 -5.7,13.89 -14.2,26.64 -24.9,37.26 -10.6,10.65 -23.33,19.16 -37.23,24.91 -13.89,5.76 -28.92,8.75 -43.96,8.74 -15.04,0.01 -30.07,-2.98 -43.96,-8.74 -13.9,-5.75 -26.64,-14.26 -37.27,-24.91 -10.64,-10.62 -19.15,-23.37 -24.9,-37.26 -5.76,-13.89 -8.75,-28.92 -8.75,-43.96 0,-15.04 2.99,-30.07 8.75,-43.96 5.75,-13.9 14.26,-26.64 24.9,-37.27 10.63,-10.64 23.37,-19.16 37.27,-24.9 13.89,-5.77 28.92,-8.76 43.96,-8.75 15.04,-0.01 30.07,2.98 43.96,8.75 13.9,5.74 26.63,14.26 37.23,24.9 10.7,10.63 19.2,23.37 24.9,37.27 5.8,13.89 8.8,28.92 8.8,43.96 z"
             style="fill:#362682;fill-opacity:1;fill-rule:evenodd;stroke:none"
             id="path106" />
          <path
             d="m 11022.8,3269.95 c 0,15.03 -3,30.07 -8.7,43.96 -5.8,13.89 -14.3,26.64 -24.9,37.27 -10.7,10.64 -23.4,19.15 -37.3,24.9 -13.9,5.76 -28.9,8.75 -44,8.74 -15,0.01 -30,-2.98 -43.9,-8.74 -13.9,-5.75 -26.7,-14.26 -37.3,-24.9 -10.6,-10.63 -19.1,-23.38 -24.9,-37.27 -5.8,-13.89 -8.7,-28.93 -8.7,-43.96 0,-15.04 2.9,-30.07 8.7,-43.97 5.8,-13.89 14.3,-26.64 24.9,-37.26 10.6,-10.64 23.4,-19.16 37.3,-24.9 13.9,-5.77 28.9,-8.76 43.9,-8.75 15.1,-0.01 30.1,2.98 44,8.75 13.9,5.74 26.6,14.26 37.3,24.9 10.6,10.62 19.1,23.37 24.9,37.26 5.7,13.9 8.7,28.93 8.7,43.97 z"
             style="fill:#362682;fill-opacity:1;fill-rule:evenodd;stroke:none"
             id="path108" />
          <path
             d="m 12480.9,1811.81 c 0,15.03 -3,30.07 -8.7,43.96 -5.8,13.89 -14.3,26.64 -24.9,37.27 -10.7,10.64 -23.4,19.15 -37.3,24.9 -13.9,5.76 -28.9,8.75 -44,8.74 -15,0.01 -30.1,-2.98 -43.9,-8.74 -13.9,-5.75 -26.7,-14.26 -37.3,-24.9 -10.6,-10.63 -19.2,-23.38 -24.9,-37.27 -5.8,-13.89 -8.8,-28.93 -8.8,-43.96 0,-15.04 3,-30.08 8.8,-43.97 5.7,-13.89 14.3,-26.63 24.9,-37.26 10.6,-10.64 23.4,-19.16 37.3,-24.9 13.8,-5.77 28.9,-8.76 43.9,-8.75 15.1,-0.01 30.1,2.98 44,8.75 13.9,5.74 26.6,14.26 37.3,24.9 10.6,10.63 19.1,23.37 24.9,37.26 5.7,13.89 8.7,28.93 8.7,43.97 z"
             style="fill:#362682;fill-opacity:1;fill-rule:evenodd;stroke:none"
             id="path110" />
          <path
             d="m 11994.9,2783.92 c 0,15.04 -3,30.07 -8.8,43.96 -5.7,13.89 -14.2,26.64 -24.9,37.26 -10.6,10.65 -23.3,19.16 -37.2,24.91 -13.9,5.76 -29,8.75 -44,8.74 -15,0.01 -30.1,-2.98 -44,-8.74 -13.9,-5.75 -26.6,-14.26 -37.2,-24.91 -10.7,-10.62 -19.2,-23.37 -24.9,-37.26 -5.8,-13.89 -8.8,-28.92 -8.8,-43.96 0,-15.04 3,-30.07 8.8,-43.96 5.7,-13.9 14.2,-26.64 24.9,-37.27 10.6,-10.64 23.3,-19.16 37.2,-24.9 13.9,-5.77 29,-8.76 44,-8.75 15,-0.01 30.1,2.98 44,8.75 13.9,5.74 26.6,14.26 37.2,24.9 10.7,10.63 19.2,23.37 24.9,37.27 5.8,13.89 8.8,28.92 8.8,43.96 z"
             style="fill:#362682;fill-opacity:1;fill-rule:evenodd;stroke:none"
             id="path112" />
          <path
             d="m 9564.66,2297.86 c 0,15.03 -2.98,30.07 -8.75,43.96 -5.75,13.89 -14.26,26.64 -24.9,37.27 -10.63,10.64 -23.37,19.15 -37.27,24.9 -13.89,5.76 -28.92,8.75 -43.96,8.74 -15.04,0.01 -30.07,-2.98 -43.96,-8.74 -13.9,-5.75 -26.64,-14.26 -37.27,-24.9 -10.64,-10.63 -19.16,-23.38 -24.9,-37.27 -5.76,-13.89 -8.76,-28.93 -8.75,-43.96 -0.01,-15.04 2.99,-30.07 8.75,-43.97 5.74,-13.89 14.26,-26.64 24.9,-37.26 10.63,-10.64 23.37,-19.16 37.27,-24.9 13.89,-5.77 28.92,-8.76 43.96,-8.75 15.04,-0.01 30.07,2.98 43.96,8.75 13.9,5.74 26.64,14.26 37.27,24.9 10.64,10.62 19.15,23.37 24.9,37.26 5.77,13.9 8.75,28.93 8.75,43.97 z"
             style="fill:#362682;fill-opacity:1;fill-rule:evenodd;stroke:none"
             id="path114" />
          <path
             d="m 9078.64,3269.95 c 0.01,15.03 -2.98,30.07 -8.75,43.96 -5.74,13.89 -14.26,26.64 -24.9,37.27 -10.63,10.64 -23.37,19.15 -37.27,24.9 -13.89,5.76 -28.92,8.75 -43.96,8.74 -15.03,0.01 -30.07,-2.98 -43.96,-8.74 -13.89,-5.75 -26.64,-14.26 -37.26,-24.9 -10.65,-10.63 -19.16,-23.38 -24.91,-37.27 -5.76,-13.89 -8.75,-28.93 -8.74,-43.96 -0.01,-15.04 2.98,-30.07 8.74,-43.97 5.75,-13.89 14.26,-26.64 24.91,-37.26 10.62,-10.64 23.37,-19.16 37.26,-24.9 13.89,-5.77 28.93,-8.76 43.96,-8.75 15.04,-0.01 30.07,2.98 43.96,8.75 13.9,5.74 26.64,14.26 37.27,24.9 10.64,10.62 19.16,23.37 24.9,37.26 5.77,13.9 8.76,28.93 8.75,43.97 z"
             style="fill:#362682;fill-opacity:1;fill-rule:evenodd;stroke:none"
             id="path116" />
          <path
             d="m 10536.7,3755.99 c 0,15.04 -3,30.07 -8.7,43.96 -5.8,13.9 -14.3,26.64 -24.9,37.27 -10.7,10.64 -23.4,19.16 -37.3,24.9 -13.9,5.76 -28.9,8.76 -44,8.74 -15,0.02 -30,-2.98 -43.9,-8.74 -13.9,-5.74 -26.7,-14.26 -37.3,-24.9 -10.6,-10.63 -19.1,-23.37 -24.9,-37.27 -5.8,-13.89 -8.7,-28.92 -8.7,-43.96 0,-15.04 2.9,-30.07 8.7,-43.96 5.8,-13.9 14.3,-26.64 24.9,-37.27 10.6,-10.64 23.4,-19.15 37.3,-24.9 13.9,-5.77 28.9,-8.75 43.9,-8.75 15.1,0 30.1,2.98 44,8.75 13.9,5.75 26.6,14.26 37.3,24.9 10.6,10.63 19.1,23.37 24.9,37.27 5.7,13.89 8.7,28.92 8.7,43.96 z"
             style="fill:#362682;fill-opacity:1;fill-rule:evenodd;stroke:none"
             id="path118" />
          <path
             d="m 11508.8,4242.03 c 0,15.04 -2.9,30.07 -8.7,43.96 -5.8,13.9 -14.3,26.64 -24.9,37.27 -10.6,10.64 -23.4,19.15 -37.3,24.9 -13.9,5.77 -28.9,8.75 -43.9,8.75 -15.1,0 -30.1,-2.98 -44,-8.75 -13.9,-5.75 -26.6,-14.26 -37.3,-24.9 -10.6,-10.63 -19.1,-23.37 -24.9,-37.27 -5.7,-13.89 -8.7,-28.92 -8.7,-43.96 0,-15.04 3,-30.07 8.7,-43.96 5.8,-13.9 14.3,-26.64 24.9,-37.27 10.7,-10.64 23.4,-19.15 37.3,-24.9 13.9,-5.76 28.9,-8.75 44,-8.74 15,-0.01 30,2.98 43.9,8.74 13.9,5.75 26.7,14.26 37.3,24.9 10.6,10.63 19.1,23.37 24.9,37.27 5.8,13.89 8.7,28.92 8.7,43.96 z"
             style="fill:#362682;fill-opacity:1;fill-rule:evenodd;stroke:none"
             id="path120" />
          <path
             d="m 12480.9,3755.99 c 0,15.04 -3,30.07 -8.7,43.96 -5.8,13.9 -14.3,26.64 -24.9,37.27 -10.7,10.64 -23.4,19.16 -37.3,24.9 -13.9,5.76 -28.9,8.76 -44,8.74 -15,0.02 -30.1,-2.98 -43.9,-8.74 -13.9,-5.74 -26.7,-14.26 -37.3,-24.9 -10.6,-10.63 -19.2,-23.37 -24.9,-37.27 -5.8,-13.89 -8.8,-28.92 -8.8,-43.96 0,-15.04 3,-30.07 8.8,-43.96 5.7,-13.9 14.3,-26.64 24.9,-37.27 10.6,-10.64 23.4,-19.15 37.3,-24.9 13.8,-5.77 28.9,-8.75 43.9,-8.75 15.1,0 30.1,2.98 44,8.75 13.9,5.75 26.6,14.26 37.3,24.9 10.6,10.63 19.1,23.37 24.9,37.27 5.7,13.89 8.7,28.92 8.7,43.96 z"
             style="fill:#362682;fill-opacity:1;fill-rule:evenodd;stroke:none"
             id="path122" />
          <path
             d="m 9564.66,4242.03 c 0,15.04 -2.98,30.07 -8.75,43.96 -5.75,13.9 -14.26,26.64 -24.9,37.27 -10.63,10.64 -23.37,19.15 -37.27,24.9 -13.89,5.77 -28.92,8.75 -43.96,8.75 -15.04,0 -30.07,-2.98 -43.96,-8.75 -13.9,-5.75 -26.64,-14.26 -37.27,-24.9 -10.64,-10.63 -19.16,-23.37 -24.9,-37.27 -5.76,-13.89 -8.76,-28.92 -8.75,-43.96 -0.01,-15.04 2.99,-30.07 8.75,-43.96 5.74,-13.9 14.26,-26.64 24.9,-37.27 10.63,-10.64 23.37,-19.15 37.27,-24.9 13.89,-5.76 28.92,-8.75 43.96,-8.74 15.04,-0.01 30.07,2.98 43.96,8.74 13.9,5.75 26.64,14.26 37.27,24.9 10.64,10.63 19.15,23.37 24.9,37.27 5.77,13.89 8.75,28.92 8.75,43.96 z"
             style="fill:#362682;fill-opacity:1;fill-rule:evenodd;stroke:none"
             id="path124" />
          <path
             d="m 11994.9,839.738 c 0,15.035 -3,30.071 -8.8,43.961 -5.7,13.895 -14.2,26.641 -24.9,37.266 -10.6,10.64 -23.3,19.156 -37.2,24.902 -13.9,5.766 -29,8.754 -44,8.746 -15,0.008 -30.1,-2.98 -44,-8.746 -13.9,-5.746 -26.6,-14.262 -37.2,-24.902 -10.7,-10.625 -19.2,-23.371 -24.9,-37.266 -5.8,-13.89 -8.8,-28.926 -8.8,-43.961 0,-15.039 3,-30.07 8.8,-43.961 5.7,-13.898 14.2,-26.64 24.9,-37.269 10.6,-10.641 23.3,-19.156 37.2,-24.903 13.9,-5.761 29,-8.753 44,-8.746 15,-0.007 30.1,2.985 44,8.746 13.9,5.747 26.6,14.262 37.2,24.903 10.7,10.629 19.2,23.371 24.9,37.269 5.8,13.891 8.8,28.922 8.8,43.961 z"
             style="fill:#362682;fill-opacity:1;fill-rule:evenodd;stroke:none"
             id="path126" />
          <path
             d="m 10050.7,839.738 c 0,15.035 -3,30.071 -8.8,43.961 -5.7,13.895 -14.2,26.641 -24.9,37.266 -10.6,10.64 -23.33,19.156 -37.23,24.902 -13.89,5.766 -28.92,8.754 -43.96,8.746 -15.04,0.008 -30.07,-2.98 -43.96,-8.746 -13.9,-5.746 -26.64,-14.262 -37.27,-24.902 -10.64,-10.625 -19.15,-23.371 -24.9,-37.266 -5.76,-13.89 -8.75,-28.926 -8.75,-43.961 0,-15.039 2.99,-30.07 8.75,-43.961 5.75,-13.898 14.26,-26.64 24.9,-37.269 10.63,-10.641 23.37,-19.156 37.27,-24.903 13.89,-5.761 28.92,-8.753 43.96,-8.746 15.04,-0.007 30.07,2.985 43.96,8.746 13.9,5.747 26.63,14.262 37.23,24.903 10.7,10.629 19.2,23.371 24.9,37.269 5.8,13.891 8.8,28.922 8.8,43.961 z"
             style="fill:#362682;fill-opacity:1;fill-rule:evenodd;stroke:none"
             id="path128" />
          <path
             d="m 11022.8,1325.77 c 0,15.03 -3,30.07 -8.7,43.96 -5.8,13.9 -14.3,26.64 -24.9,37.27 -10.7,10.64 -23.4,19.15 -37.3,24.9 -13.9,5.76 -28.9,8.75 -44,8.74 -15,0.01 -30,-2.98 -43.9,-8.74 -13.9,-5.75 -26.7,-14.26 -37.3,-24.9 -10.6,-10.63 -19.1,-23.37 -24.9,-37.27 -5.8,-13.89 -8.7,-28.93 -8.7,-43.96 0,-15.04 2.9,-30.07 8.7,-43.97 5.8,-13.89 14.3,-26.64 24.9,-37.26 10.6,-10.64 23.4,-19.16 37.3,-24.9 13.9,-5.77 28.9,-8.76 43.9,-8.75 15.1,-0.01 30.1,2.98 44,8.75 13.9,5.74 26.6,14.26 37.3,24.9 10.6,10.62 19.1,23.37 24.9,37.26 5.7,13.9 8.7,28.93 8.7,43.97 z"
             style="fill:#362682;fill-opacity:1;fill-rule:evenodd;stroke:none"
             id="path130" />
          <path
             d="m 9078.64,1325.77 c 0.01,15.03 -2.98,30.07 -8.75,43.96 -5.74,13.9 -14.26,26.64 -24.9,37.27 -10.63,10.64 -23.37,19.15 -37.27,24.9 -13.89,5.76 -28.92,8.75 -43.96,8.74 -15.03,0.01 -30.07,-2.98 -43.96,-8.74 -13.89,-5.75 -26.64,-14.26 -37.26,-24.9 -10.65,-10.63 -19.16,-23.37 -24.91,-37.27 -5.76,-13.89 -8.75,-28.93 -8.74,-43.96 -0.01,-15.04 2.98,-30.07 8.74,-43.97 5.75,-13.89 14.26,-26.64 24.91,-37.26 10.62,-10.64 23.37,-19.16 37.26,-24.9 13.89,-5.77 28.93,-8.76 43.96,-8.75 15.04,-0.01 30.07,2.98 43.96,8.75 13.9,5.74 26.64,14.26 37.27,24.9 10.64,10.62 19.16,23.37 24.9,37.26 5.77,13.9 8.76,28.93 8.75,43.97 z"
             style="fill:#362682;fill-opacity:1;fill-rule:evenodd;stroke:none"
             id="path132" />
          <path
             d="m 8714.47,590.457 h 3900.86 v 3900.86 H 8714.47 Z"
             style="fill:none;stroke:#000000;stroke-width:10;stroke-linecap:square;stroke-linejoin:miter;stroke-miterlimit:10;stroke-dasharray:none;stroke-opacity:1"
             id="path134" />
          <path
             d="m 14076.8,1565.25 h 1944.18 V 3509.43 H 14076.8 Z"
             style="fill:#f1f2f3;fill-opacity:1;fill-rule:evenodd;stroke:none"
             id="path136" />
          <path
             d="m 14190.2,1565.25 c 0,14.85 -2.9,29.69 -8.6,43.41 -5.7,13.72 -14.1,26.3 -24.6,36.8 -10.5,10.51 -23.1,18.92 -36.8,24.59 -13.7,5.69 -28.6,8.65 -43.4,8.64 -14.9,0.01 -29.7,-2.95 -43.5,-8.64 -13.7,-5.67 -26.3,-14.08 -36.8,-24.59 -10.5,-10.5 -18.9,-23.08 -24.5,-36.8 -5.7,-13.72 -8.7,-28.56 -8.7,-43.41 0,-14.86 3,-29.7 8.7,-43.41 5.6,-13.73 14,-26.31 24.5,-36.81 10.5,-10.51 23.1,-18.91 36.8,-24.59 13.8,-5.69 28.6,-8.64 43.5,-8.64 14.8,0 29.7,2.95 43.4,8.64 13.7,5.68 26.3,14.08 36.8,24.59 10.5,10.5 18.9,23.08 24.6,36.81 5.7,13.71 8.6,28.55 8.6,43.41 z"
             style="fill:#362682;fill-opacity:1;fill-rule:evenodd;stroke:none"
             id="path138" />
          <path
             d="m 16134.4,1565.25 c 0,14.85 -3,29.69 -8.7,43.41 -5.6,13.72 -14,26.3 -24.5,36.8 -10.5,10.51 -23.1,18.92 -36.8,24.59 -13.8,5.69 -28.6,8.65 -43.5,8.64 -14.8,0.01 -29.7,-2.95 -43.4,-8.64 -13.7,-5.67 -26.3,-14.08 -36.8,-24.59 -10.5,-10.5 -18.9,-23.08 -24.6,-36.8 -5.7,-13.72 -8.6,-28.56 -8.6,-43.41 0,-14.86 2.9,-29.7 8.6,-43.41 5.7,-13.73 14.1,-26.31 24.6,-36.81 10.5,-10.51 23.1,-18.91 36.8,-24.59 13.7,-5.69 28.6,-8.64 43.4,-8.64 14.9,0 29.7,2.95 43.5,8.64 13.7,5.68 26.3,14.08 36.8,24.59 10.5,10.5 18.9,23.08 24.5,36.81 5.7,13.71 8.7,28.55 8.7,43.41 z"
             style="fill:#362682;fill-opacity:1;fill-rule:evenodd;stroke:none"
             id="path140" />
          <path
             d="m 14190.2,3509.43 c 0,14.85 -2.9,29.69 -8.6,43.41 -5.7,13.72 -14.1,26.3 -24.6,36.8 -10.5,10.51 -23.1,18.91 -36.8,24.59 -13.7,5.69 -28.6,8.65 -43.4,8.64 -14.9,0.01 -29.7,-2.95 -43.5,-8.64 -13.7,-5.68 -26.3,-14.08 -36.8,-24.59 -10.5,-10.5 -18.9,-23.08 -24.5,-36.8 -5.7,-13.72 -8.7,-28.56 -8.7,-43.41 0,-14.86 3,-29.7 8.7,-43.41 5.6,-13.73 14,-26.31 24.5,-36.81 10.5,-10.51 23.1,-18.91 36.8,-24.59 13.8,-5.69 28.6,-8.64 43.5,-8.64 14.8,0 29.7,2.95 43.4,8.64 13.7,5.68 26.3,14.08 36.8,24.59 10.5,10.5 18.9,23.08 24.6,36.81 5.7,13.71 8.6,28.55 8.6,43.41 z"
             style="fill:#362682;fill-opacity:1;fill-rule:evenodd;stroke:none"
             id="path142" />
          <path
             d="m 16134.4,3509.43 c 0,14.85 -3,29.69 -8.7,43.41 -5.6,13.72 -14,26.3 -24.5,36.8 -10.5,10.51 -23.1,18.91 -36.8,24.59 -13.8,5.69 -28.6,8.65 -43.5,8.64 -14.8,0.01 -29.7,-2.95 -43.4,-8.64 -13.7,-5.68 -26.3,-14.08 -36.8,-24.59 -10.5,-10.5 -18.9,-23.08 -24.6,-36.8 -5.7,-13.72 -8.6,-28.56 -8.6,-43.41 0,-14.86 2.9,-29.7 8.6,-43.41 5.7,-13.73 14.1,-26.31 24.6,-36.81 10.5,-10.51 23.1,-18.91 36.8,-24.59 13.7,-5.69 28.6,-8.64 43.4,-8.64 14.9,0 29.7,2.95 43.5,8.64 13.7,5.68 26.3,14.08 36.8,24.59 10.5,10.5 18.9,23.08 24.5,36.81 5.7,13.71 8.7,28.55 8.7,43.41 z"
             style="fill:#362682;fill-opacity:1;fill-rule:evenodd;stroke:none"
             id="path144" />
          <path
             d="m 17104,595.887 c 0,14.851 -3,29.695 -8.7,43.41 -5.7,13.726 -14.1,26.308 -24.6,36.805 -10.5,10.507 -23,18.914 -36.8,24.589 -13.7,5.692 -28.5,8.645 -43.4,8.637 -14.8,0.008 -29.7,-2.945 -43.4,-8.637 -13.7,-5.675 -26.3,-14.082 -36.8,-24.589 -10.5,-10.497 -18.9,-23.079 -24.6,-36.805 -5.7,-13.715 -8.6,-28.559 -8.6,-43.41 0,-14.852 2.9,-29.696 8.6,-43.41 5.7,-13.723 14.1,-26.309 24.6,-36.805 10.5,-10.508 23.1,-18.914 36.8,-24.59 13.7,-5.691 28.6,-8.644 43.4,-8.637 14.9,-0.007 29.7,2.946 43.4,8.637 13.8,5.676 26.3,14.082 36.8,24.59 10.5,10.496 18.9,23.082 24.6,36.805 5.7,13.714 8.7,28.558 8.7,43.41 z"
             style="fill:#362682;fill-opacity:1;fill-rule:evenodd;stroke:none"
             id="path146" />
          <path
             d="m 17104,2541.44 c 0,14.85 -3,29.7 -8.7,43.42 -5.7,13.72 -14.1,26.3 -24.6,36.8 -10.5,10.5 -23,18.91 -36.8,24.59 -13.7,5.69 -28.5,8.64 -43.4,8.63 -14.8,0.01 -29.7,-2.94 -43.4,-8.63 -13.7,-5.68 -26.3,-14.09 -36.8,-24.59 -10.5,-10.5 -18.9,-23.08 -24.6,-36.8 -5.7,-13.72 -8.6,-28.57 -8.6,-43.42 0,-14.85 2.9,-29.69 8.6,-43.41 5.7,-13.72 14.1,-26.31 24.6,-36.8 10.5,-10.51 23.1,-18.92 36.8,-24.59 13.7,-5.69 28.6,-8.64 43.4,-8.64 14.9,0 29.7,2.95 43.4,8.64 13.8,5.67 26.3,14.08 36.8,24.59 10.5,10.49 18.9,23.08 24.6,36.8 5.7,13.72 8.7,28.56 8.7,43.41 z"
             style="fill:#362682;fill-opacity:1;fill-rule:evenodd;stroke:none"
             id="path148" />
          <path
             d="m 17104,4485.89 c 0,14.85 -3,29.69 -8.7,43.41 -5.7,13.72 -14.1,26.31 -24.6,36.8 -10.5,10.51 -23,18.92 -36.8,24.59 -13.7,5.69 -28.5,8.65 -43.4,8.64 -14.8,0.01 -29.7,-2.95 -43.4,-8.64 -13.7,-5.67 -26.3,-14.08 -36.8,-24.59 -10.5,-10.49 -18.9,-23.08 -24.6,-36.8 -5.7,-13.72 -8.6,-28.56 -8.6,-43.41 0,-14.85 2.9,-29.7 8.6,-43.41 5.7,-13.73 14.1,-26.31 24.6,-36.81 10.5,-10.51 23.1,-18.91 36.8,-24.59 13.7,-5.69 28.6,-8.64 43.4,-8.63 14.9,-0.01 29.7,2.94 43.4,8.63 13.8,5.68 26.3,14.08 36.8,24.59 10.5,10.5 18.9,23.08 24.6,36.81 5.7,13.71 8.7,28.56 8.7,43.41 z"
             style="fill:#362682;fill-opacity:1;fill-rule:evenodd;stroke:none"
             id="path150" />
          <path
             d="m 15159.5,595.887 c 0,14.851 -2.9,29.695 -8.6,43.41 -5.7,13.726 -14.1,26.308 -24.6,36.805 -10.5,10.507 -23.1,18.914 -36.8,24.589 -13.7,5.692 -28.6,8.645 -43.4,8.637 -14.9,0.008 -29.7,-2.945 -43.4,-8.637 -13.8,-5.675 -26.3,-14.082 -36.8,-24.589 -10.5,-10.497 -19,-23.079 -24.6,-36.805 -5.7,-13.715 -8.7,-28.559 -8.7,-43.41 0,-14.852 3,-29.696 8.7,-43.41 5.6,-13.723 14.1,-26.309 24.6,-36.805 10.5,-10.508 23,-18.914 36.8,-24.59 13.7,-5.691 28.5,-8.644 43.4,-8.637 14.8,-0.007 29.7,2.946 43.4,8.637 13.7,5.676 26.3,14.082 36.8,24.59 10.5,10.496 18.9,23.082 24.6,36.805 5.7,13.714 8.6,28.558 8.6,43.41 z"
             style="fill:#362682;fill-opacity:1;fill-rule:evenodd;stroke:none"
             id="path152" />
          <path
             d="m 15159.5,2541.44 c 0,14.85 -2.9,29.7 -8.6,43.42 -5.7,13.72 -14.1,26.3 -24.6,36.8 -10.5,10.5 -23.1,18.91 -36.8,24.59 -13.7,5.69 -28.6,8.64 -43.4,8.63 -14.9,0.01 -29.7,-2.94 -43.4,-8.63 -13.8,-5.68 -26.3,-14.09 -36.8,-24.59 -10.5,-10.5 -19,-23.08 -24.6,-36.8 -5.7,-13.72 -8.7,-28.57 -8.7,-43.42 0,-14.85 3,-29.69 8.7,-43.41 5.6,-13.72 14.1,-26.31 24.6,-36.8 10.5,-10.51 23,-18.92 36.8,-24.59 13.7,-5.69 28.5,-8.64 43.4,-8.64 14.8,0 29.7,2.95 43.4,8.64 13.7,5.67 26.3,14.08 36.8,24.59 10.5,10.49 18.9,23.08 24.6,36.8 5.7,13.72 8.6,28.56 8.6,43.41 z"
             style="fill:#362682;fill-opacity:1;fill-rule:evenodd;stroke:none"
             id="path154" />
          <path
             d="m 15159.5,4485.89 c 0,14.85 -2.9,29.69 -8.6,43.41 -5.7,13.72 -14.1,26.31 -24.6,36.8 -10.5,10.51 -23.1,18.92 -36.8,24.59 -13.7,5.69 -28.6,8.65 -43.4,8.64 -14.9,0.01 -29.7,-2.95 -43.4,-8.64 -13.8,-5.67 -26.3,-14.08 -36.8,-24.59 -10.5,-10.49 -19,-23.08 -24.6,-36.8 -5.7,-13.72 -8.7,-28.56 -8.7,-43.41 0,-14.85 3,-29.7 8.7,-43.41 5.6,-13.73 14.1,-26.31 24.6,-36.81 10.5,-10.51 23,-18.91 36.8,-24.59 13.7,-5.69 28.5,-8.64 43.4,-8.63 14.8,-0.01 29.7,2.94 43.4,8.63 13.7,5.68 26.3,14.08 36.8,24.59 10.5,10.5 18.9,23.08 24.6,36.81 5.7,13.71 8.6,28.56 8.6,43.41 z"
             style="fill:#362682;fill-opacity:1;fill-rule:evenodd;stroke:none"
             id="path156" />
          <path
             d="m 13215.1,595.887 c 0,14.851 -3,29.695 -8.7,43.41 -5.6,13.726 -14.1,26.308 -24.6,36.805 -10.5,10.507 -23,18.914 -36.8,24.589 -13.7,5.692 -28.5,8.645 -43.4,8.637 -14.8,0.008 -29.7,-2.945 -43.4,-8.637 -13.7,-5.675 -26.3,-14.082 -36.8,-24.589 -10.5,-10.497 -18.9,-23.079 -24.6,-36.805 -5.7,-13.715 -8.6,-28.559 -8.6,-43.41 0,-14.852 2.9,-29.696 8.6,-43.41 5.7,-13.723 14.1,-26.309 24.6,-36.805 10.5,-10.508 23.1,-18.914 36.8,-24.59 13.7,-5.691 28.6,-8.644 43.4,-8.637 14.9,-0.007 29.7,2.946 43.4,8.637 13.8,5.676 26.3,14.082 36.8,24.59 10.5,10.496 19,23.082 24.6,36.805 5.7,13.714 8.7,28.558 8.7,43.41 z"
             style="fill:#362682;fill-opacity:1;fill-rule:evenodd;stroke:none"
             id="path158" />
          <path
             d="m 13215.1,2541.44 c 0,14.85 -3,29.7 -8.7,43.42 -5.6,13.72 -14.1,26.3 -24.6,36.8 -10.5,10.5 -23,18.91 -36.8,24.59 -13.7,5.69 -28.5,8.64 -43.4,8.63 -14.8,0.01 -29.7,-2.94 -43.4,-8.63 -13.7,-5.68 -26.3,-14.09 -36.8,-24.59 -10.5,-10.5 -18.9,-23.08 -24.6,-36.8 -5.7,-13.72 -8.6,-28.57 -8.6,-43.42 0,-14.85 2.9,-29.69 8.6,-43.41 5.7,-13.72 14.1,-26.31 24.6,-36.8 10.5,-10.51 23.1,-18.92 36.8,-24.59 13.7,-5.69 28.6,-8.64 43.4,-8.64 14.9,0 29.7,2.95 43.4,8.64 13.8,5.67 26.3,14.08 36.8,24.59 10.5,10.49 19,23.08 24.6,36.8 5.7,13.72 8.7,28.56 8.7,43.41 z"
             style="fill:#362682;fill-opacity:1;fill-rule:evenodd;stroke:none"
             id="path160" />
          <path
             d="m 13215.1,4485.89 c 0,14.85 -3,29.69 -8.7,43.41 -5.6,13.72 -14.1,26.31 -24.6,36.8 -10.5,10.51 -23,18.92 -36.8,24.59 -13.7,5.69 -28.5,8.65 -43.4,8.64 -14.8,0.01 -29.7,-2.95 -43.4,-8.64 -13.7,-5.67 -26.3,-14.08 -36.8,-24.59 -10.5,-10.49 -18.9,-23.08 -24.6,-36.8 -5.7,-13.72 -8.6,-28.56 -8.6,-43.41 0,-14.85 2.9,-29.7 8.6,-43.41 5.7,-13.73 14.1,-26.31 24.6,-36.81 10.5,-10.51 23.1,-18.91 36.8,-24.59 13.7,-5.69 28.6,-8.64 43.4,-8.63 14.9,-0.01 29.7,2.94 43.4,8.63 13.8,5.68 26.3,14.08 36.8,24.59 10.5,10.5 19,23.08 24.6,36.81 5.7,13.71 8.7,28.56 8.7,43.41 z"
             style="fill:#362682;fill-opacity:1;fill-rule:evenodd;stroke:none"
             id="path162" />
          <path
             d="m 13089.1,590.441 h 3900.86 v 3900.86 H 13089.1 Z"
             style="fill:none;stroke:#000000;stroke-width:10;stroke-linecap:square;stroke-linejoin:miter;stroke-miterlimit:10;stroke-dasharray:none;stroke-opacity:1"
             id="path164" />
          <g
             id="g166"
             transform="scale(10)">
            <text
               xml:space="preserve"
               transform="matrix(1,0,0,-1,102.99,9.5293)"
               style="font-variant:normal;font-weight:bold;font-size:36px;font-family:'Times New Roman';-inkscape-font-specification:TimesNewRomanPS-BoldMT;writing-mode:lr-tb;fill:#000000;fill-opacity:1;fill-rule:nonzero;stroke:none"
               id="text170"><tspan
                 x="0 11.988 29.988001"
                 y="0"
                 sodipodi:role="line"
                 id="tspan168">(a)</tspan></text>
            <text
               xml:space="preserve"
               transform="matrix(1,0,0,-1,153.9666,9.5293)"
               style="font-variant:normal;font-weight:normal;font-size:36px;font-family:'Times New Roman';-inkscape-font-specification:TimesNewRomanPSMT;writing-mode:lr-tb;fill:#000000;fill-opacity:1;fill-rule:nonzero;stroke:none"
               id="text174"><tspan
                 x="0 25.998043 43.998043 53.999989 65.987991 83.987991 95.97599"
                 y="0"
                 sodipodi:role="line"
                 id="tspan172">Uniform</tspan></text>
            <text
               xml:space="preserve"
               transform="matrix(1,0,0,-1,536.7746,9.5293)"
               style="font-variant:normal;font-weight:bold;font-size:36px;font-family:'Times New Roman';-inkscape-font-specification:TimesNewRomanPS-BoldMT;writing-mode:lr-tb;fill:#000000;fill-opacity:1;fill-rule:nonzero;stroke:none"
               id="text178"><tspan
                 x="0 11.988 32.009468"
                 y="0"
                 sodipodi:role="line"
                 id="tspan176">(b)</tspan></text>
            <text
               xml:space="preserve"
               transform="matrix(1,0,0,-1,589.7726,9.5293)"
               style="font-variant:normal;font-weight:normal;font-size:36px;font-family:'Times New Roman';-inkscape-font-specification:TimesNewRomanPSMT;writing-mode:lr-tb;fill:#000000;fill-opacity:1;fill-rule:nonzero;stroke:none"
               id="text182"><tspan
                 x="0 24.011999 39.990532 57.990532 75.990532 93.990532"
                 y="0"
                 sodipodi:role="line"
                 id="tspan180">Random</tspan></text>
            <text
               xml:space="preserve"
               transform="matrix(1,0,0,-1,1000.1146,9.5293)"
               style="font-variant:normal;font-weight:bold;font-size:36px;font-family:'Times New Roman';-inkscape-font-specification:TimesNewRomanPS-BoldMT;writing-mode:lr-tb;fill:#000000;fill-opacity:1;fill-rule:nonzero;stroke:none"
               id="text186"><tspan
                 x="0 11.988 27.966532"
                 y="0"
                 sodipodi:role="line"
                 id="tspan184">(c)</tspan></text>
            <text
               xml:space="preserve"
               transform="matrix(1,0,0,-1,1049.0697,9.5293)"
               style="font-variant:normal;font-weight:normal;font-size:36px;font-family:'Times New Roman';-inkscape-font-specification:TimesNewRomanPSMT;writing-mode:lr-tb;fill:#000000;fill-opacity:1;fill-rule:nonzero;stroke:none"
               id="text190"><tspan
                 x="0 24.011999 50.010056 70.031525"
                 y="0"
                 sodipodi:role="line"
                 id="tspan188">RGSS</tspan></text>
            <text
               xml:space="preserve"
               transform="matrix(1,0,0,-1,1398.2077,9.5293)"
               style="font-variant:normal;font-weight:bold;font-size:36px;font-family:'Times New Roman';-inkscape-font-specification:TimesNewRomanPS-BoldMT;writing-mode:lr-tb;fill:#000000;fill-opacity:1;fill-rule:nonzero;stroke:none"
               id="text194"><tspan
                 x="0 11.988 32.009468"
                 y="0"
                 sodipodi:role="line"
                 id="tspan192">(d)</tspan></text>
            <text
               xml:space="preserve"
               transform="matrix(1,0,0,-1,1451.2057,9.5293)"
               style="font-variant:normal;font-weight:normal;font-size:36px;font-family:'Times New Roman';-inkscape-font-specification:TimesNewRomanPSMT;writing-mode:lr-tb;fill:#000000;fill-opacity:1;fill-rule:nonzero;stroke:none"
               id="text198"><tspan
                 x="0 25.998055 43.998055 54 72 87.978531 105.97853 123.97853"
                 y="0"
                 sodipodi:role="line"
                 id="tspan196">Quincunx</tspan></text>
          </g>
        </g>
      </g>
    </g>
  </g>
</svg>
